<?xml version="1.0" encoding="utf-8" standalone="no"?>
<!DOCTYPE svg PUBLIC "-//W3C//DTD SVG 1.1//EN"
  "http://www.w3.org/Graphics/SVG/1.1/DTD/svg11.dtd">
<svg xmlns:xlink="http://www.w3.org/1999/xlink" width="387.864567pt" height="367.094779pt" viewBox="0 0 387.864567 367.094779" xmlns="http://www.w3.org/2000/svg" version="1.1">
 <metadata>
  <rdf:RDF xmlns:dc="http://purl.org/dc/elements/1.1/" xmlns:cc="http://creativecommons.org/ns#" xmlns:rdf="http://www.w3.org/1999/02/22-rdf-syntax-ns#">
   <cc:Work>
    <dc:type rdf:resource="http://purl.org/dc/dcmitype/StillImage"/>
    <dc:date>2026-03-28T21:22:55.043402</dc:date>
    <dc:format>image/svg+xml</dc:format>
    <dc:creator>
     <cc:Agent>
      <dc:title>Matplotlib v3.10.6, https://matplotlib.org/</dc:title>
     </cc:Agent>
    </dc:creator>
   </cc:Work>
  </rdf:RDF>
 </metadata>
 <defs>
  <style type="text/css">*{stroke-linejoin: round; stroke-linecap: butt}</style>
 </defs>
 <g id="figure_1">
  <g id="patch_1">
   <path d="M 0 367.094779 
L 387.864567 367.094779 
L 387.864567 0 
L 0 0 
z
" style="fill: #ffffff"/>
  </g>
  <g id="axes_1">
   <g id="line2d_1">
    <path d="M 32.956177 335.209035 
L 354.90839 335.209035 
L 193.932283 56.39024 
L 32.956177 335.209035 
" clip-path="url(#p1859885d53)" style="fill: none; stroke: #000000; stroke-linecap: square"/>
   </g>
   <g id="line2d_2">
    <path d="M 49.053788 307.327155 
L 338.810779 307.327155 
" clip-path="url(#p1859885d53)" style="fill: none; stroke: #d9d9d9; stroke-width: 0.6; stroke-linecap: square"/>
   </g>
   <g id="line2d_3">
    <path d="M 177.834673 84.272119 
L 322.713169 335.209035 
" clip-path="url(#p1859885d53)" style="fill: none; stroke: #d9d9d9; stroke-width: 0.6; stroke-linecap: square"/>
   </g>
   <g id="line2d_4">
    <path d="M 210.029894 84.272119 
L 65.151398 335.209035 
" clip-path="url(#p1859885d53)" style="fill: none; stroke: #d9d9d9; stroke-width: 0.6; stroke-linecap: square"/>
   </g>
   <g id="line2d_5">
    <path d="M 177.834673 84.272119 
L 177.834673 89.101402 
" clip-path="url(#p1859885d53)" style="fill: none; stroke: #000000; stroke-width: 0.7; stroke-linecap: square"/>
   </g>
   <g id="line2d_6">
    <path d="M 65.151398 279.445276 
L 322.713169 279.445276 
" clip-path="url(#p1859885d53)" style="fill: none; stroke: #d9d9d9; stroke-width: 0.6; stroke-linecap: square"/>
   </g>
   <g id="line2d_7">
    <path d="M 161.737062 112.153999 
L 290.517947 335.209035 
" clip-path="url(#p1859885d53)" style="fill: none; stroke: #d9d9d9; stroke-width: 0.6; stroke-linecap: square"/>
   </g>
   <g id="line2d_8">
    <path d="M 226.127505 112.153999 
L 97.34662 335.209035 
" clip-path="url(#p1859885d53)" style="fill: none; stroke: #d9d9d9; stroke-width: 0.6; stroke-linecap: square"/>
   </g>
   <g id="line2d_9">
    <path d="M 161.737062 112.153999 
L 161.737062 116.983282 
" clip-path="url(#p1859885d53)" style="fill: none; stroke: #000000; stroke-width: 0.7; stroke-linecap: square"/>
   </g>
   <g id="line2d_10">
    <path d="M 81.249009 251.563396 
L 306.615558 251.563396 
" clip-path="url(#p1859885d53)" style="fill: none; stroke: #d9d9d9; stroke-width: 0.6; stroke-linecap: square"/>
   </g>
   <g id="line2d_11">
    <path d="M 145.639452 140.035878 
L 258.322726 335.209035 
" clip-path="url(#p1859885d53)" style="fill: none; stroke: #d9d9d9; stroke-width: 0.6; stroke-linecap: square"/>
   </g>
   <g id="line2d_12">
    <path d="M 242.225115 140.035878 
L 129.541841 335.209035 
" clip-path="url(#p1859885d53)" style="fill: none; stroke: #d9d9d9; stroke-width: 0.6; stroke-linecap: square"/>
   </g>
   <g id="line2d_13">
    <path d="M 145.639452 140.035878 
L 145.639452 144.865161 
" clip-path="url(#p1859885d53)" style="fill: none; stroke: #000000; stroke-width: 0.7; stroke-linecap: square"/>
   </g>
   <g id="line2d_14">
    <path d="M 97.34662 223.681517 
L 290.517947 223.681517 
" clip-path="url(#p1859885d53)" style="fill: none; stroke: #d9d9d9; stroke-width: 0.6; stroke-linecap: square"/>
   </g>
   <g id="line2d_15">
    <path d="M 129.541841 167.917758 
L 226.127505 335.209035 
" clip-path="url(#p1859885d53)" style="fill: none; stroke: #d9d9d9; stroke-width: 0.6; stroke-linecap: square"/>
   </g>
   <g id="line2d_16">
    <path d="M 258.322726 167.917758 
L 161.737062 335.209035 
" clip-path="url(#p1859885d53)" style="fill: none; stroke: #d9d9d9; stroke-width: 0.6; stroke-linecap: square"/>
   </g>
   <g id="line2d_17">
    <path d="M 129.541841 167.917758 
L 129.541841 172.747041 
" clip-path="url(#p1859885d53)" style="fill: none; stroke: #000000; stroke-width: 0.7; stroke-linecap: square"/>
   </g>
   <g id="line2d_18">
    <path d="M 113.44423 195.799637 
L 274.420337 195.799637 
" clip-path="url(#p1859885d53)" style="fill: none; stroke: #d9d9d9; stroke-width: 0.6; stroke-linecap: square"/>
   </g>
   <g id="line2d_19">
    <path d="M 113.44423 195.799637 
L 193.932283 335.209035 
" clip-path="url(#p1859885d53)" style="fill: none; stroke: #d9d9d9; stroke-width: 0.6; stroke-linecap: square"/>
   </g>
   <g id="line2d_20">
    <path d="M 274.420337 195.799637 
L 193.932283 335.209035 
" clip-path="url(#p1859885d53)" style="fill: none; stroke: #d9d9d9; stroke-width: 0.6; stroke-linecap: square"/>
   </g>
   <g id="line2d_21">
    <path d="M 113.44423 195.799637 
L 113.44423 200.62892 
" clip-path="url(#p1859885d53)" style="fill: none; stroke: #000000; stroke-width: 0.7; stroke-linecap: square"/>
   </g>
   <g id="line2d_22">
    <path d="M 129.541841 167.917758 
L 258.322726 167.917758 
" clip-path="url(#p1859885d53)" style="fill: none; stroke: #d9d9d9; stroke-width: 0.6; stroke-linecap: square"/>
   </g>
   <g id="line2d_23">
    <path d="M 97.34662 223.681517 
L 161.737062 335.209035 
" clip-path="url(#p1859885d53)" style="fill: none; stroke: #d9d9d9; stroke-width: 0.6; stroke-linecap: square"/>
   </g>
   <g id="line2d_24">
    <path d="M 290.517947 223.681517 
L 226.127505 335.209035 
" clip-path="url(#p1859885d53)" style="fill: none; stroke: #d9d9d9; stroke-width: 0.6; stroke-linecap: square"/>
   </g>
   <g id="line2d_25">
    <path d="M 97.34662 223.681517 
L 97.34662 228.5108 
" clip-path="url(#p1859885d53)" style="fill: none; stroke: #000000; stroke-width: 0.7; stroke-linecap: square"/>
   </g>
   <g id="line2d_26">
    <path d="M 145.639452 140.035878 
L 242.225115 140.035878 
" clip-path="url(#p1859885d53)" style="fill: none; stroke: #d9d9d9; stroke-width: 0.6; stroke-linecap: square"/>
   </g>
   <g id="line2d_27">
    <path d="M 81.249009 251.563396 
L 129.541841 335.209035 
" clip-path="url(#p1859885d53)" style="fill: none; stroke: #d9d9d9; stroke-width: 0.6; stroke-linecap: square"/>
   </g>
   <g id="line2d_28">
    <path d="M 306.615558 251.563396 
L 258.322726 335.209035 
" clip-path="url(#p1859885d53)" style="fill: none; stroke: #d9d9d9; stroke-width: 0.6; stroke-linecap: square"/>
   </g>
   <g id="line2d_29">
    <path d="M 81.249009 251.563396 
L 81.249009 256.392679 
" clip-path="url(#p1859885d53)" style="fill: none; stroke: #000000; stroke-width: 0.7; stroke-linecap: square"/>
   </g>
   <g id="line2d_30">
    <path d="M 161.737062 112.153999 
L 226.127505 112.153999 
" clip-path="url(#p1859885d53)" style="fill: none; stroke: #d9d9d9; stroke-width: 0.6; stroke-linecap: square"/>
   </g>
   <g id="line2d_31">
    <path d="M 65.151398 279.445276 
L 97.34662 335.209035 
" clip-path="url(#p1859885d53)" style="fill: none; stroke: #d9d9d9; stroke-width: 0.6; stroke-linecap: square"/>
   </g>
   <g id="line2d_32">
    <path d="M 322.713169 279.445276 
L 290.517947 335.209035 
" clip-path="url(#p1859885d53)" style="fill: none; stroke: #d9d9d9; stroke-width: 0.6; stroke-linecap: square"/>
   </g>
   <g id="line2d_33">
    <path d="M 65.151398 279.445276 
L 65.151398 284.274559 
" clip-path="url(#p1859885d53)" style="fill: none; stroke: #000000; stroke-width: 0.7; stroke-linecap: square"/>
   </g>
   <g id="line2d_34">
    <path d="M 177.834673 84.272119 
L 210.029894 84.272119 
" clip-path="url(#p1859885d53)" style="fill: none; stroke: #d9d9d9; stroke-width: 0.6; stroke-linecap: square"/>
   </g>
   <g id="line2d_35">
    <path d="M 49.053788 307.327155 
L 65.151398 335.209035 
" clip-path="url(#p1859885d53)" style="fill: none; stroke: #d9d9d9; stroke-width: 0.6; stroke-linecap: square"/>
   </g>
   <g id="line2d_36">
    <path d="M 338.810779 307.327155 
L 322.713169 335.209035 
" clip-path="url(#p1859885d53)" style="fill: none; stroke: #d9d9d9; stroke-width: 0.6; stroke-linecap: square"/>
   </g>
   <g id="line2d_37">
    <path d="M 49.053788 307.327155 
L 49.053788 312.156438 
" clip-path="url(#p1859885d53)" style="fill: none; stroke: #000000; stroke-width: 0.7; stroke-linecap: square"/>
   </g>
   <g id="line2d_38">
    <path d="M 351.408051 330.1151 
L 351.415562 330.115601 
L 351.884601 330.14688 
L 351.943232 330.150788 
L 351.972546 330.15274 
L 351.987204 330.153717 
L 351.989036 330.153839 
L 351.989495 330.15387 
L 351.989724 330.153886 
L 351.98978 330.153888 
L 351.989795 330.15389 
L 351.989795 330.15389 
" clip-path="url(#p1859885d53)" style="fill: none; stroke: #ff7f0e; stroke-opacity: 0.95; stroke-width: 1.1; stroke-linecap: square"/>
   </g>
   <g id="line2d_39">
    <path d="M 242.366297 140.284659 
L 242.366488 140.284936 
L 242.378558 140.302428 
L 242.380082 140.304634 
L 242.380845 140.305738 
L 242.381228 140.306292 
L 242.381275 140.30636 
L 242.381287 140.306378 
L 242.381293 140.306386 
L 242.381294 140.306388 
L 242.381294 140.306388 
L 242.381294 140.306388 
" clip-path="url(#p1859885d53)" style="fill: none; stroke: #ff7f0e; stroke-opacity: 0.95; stroke-width: 1.1; stroke-linecap: square"/>
   </g>
   <g id="line2d_40">
    <path d="M 351.408051 330.1151 
L 351.41556 330.1156 
L 351.884577 330.146877 
L 351.94322 330.150787 
L 351.972542 330.152741 
L 351.987204 330.153717 
L 351.989036 330.153839 
L 351.989495 330.15387 
L 351.989724 330.153886 
L 351.98978 330.153888 
L 351.989795 330.15389 
L 351.989795 330.15389 
" clip-path="url(#p1859885d53)" style="fill: none; stroke: #ff7f0e; stroke-opacity: 0.95; stroke-width: 1.1; stroke-linecap: square"/>
   </g>
   <g id="line2d_41">
    <path d="M 242.366297 140.284659 
L 242.366488 140.284936 
L 242.378558 140.302428 
L 242.380082 140.304634 
L 242.380845 140.305738 
L 242.381228 140.306292 
L 242.381275 140.30636 
L 242.381287 140.306378 
L 242.381293 140.306386 
L 242.381294 140.306388 
L 242.381294 140.306388 
L 242.381294 140.306388 
" clip-path="url(#p1859885d53)" style="fill: none; stroke: #ff7f0e; stroke-opacity: 0.95; stroke-width: 1.1; stroke-linecap: square"/>
   </g>
   <g id="line2d_42">
    <path d="M 351.408051 330.1151 
L 351.415562 330.115601 
L 351.884601 330.14688 
L 351.943232 330.150788 
L 351.972546 330.15274 
L 351.987204 330.153717 
L 351.989036 330.153839 
L 351.989495 330.15387 
L 351.989724 330.153886 
L 351.98978 330.153888 
L 351.989795 330.15389 
L 351.989795 330.15389 
" clip-path="url(#p1859885d53)" style="fill: none; stroke: #ff7f0e; stroke-opacity: 0.95; stroke-width: 1.1; stroke-linecap: square"/>
   </g>
   <g id="line2d_43">
    <path d="M 242.366297 140.284659 
L 242.366488 140.284936 
L 242.378558 140.302428 
L 242.380082 140.304634 
L 242.380845 140.305738 
L 242.381228 140.306292 
L 242.381275 140.30636 
L 242.381287 140.306378 
L 242.381293 140.306386 
L 242.381294 140.306388 
L 242.381294 140.306388 
L 242.381294 140.306388 
" clip-path="url(#p1859885d53)" style="fill: none; stroke: #ff7f0e; stroke-opacity: 0.95; stroke-width: 1.1; stroke-linecap: square"/>
   </g>
   <g id="line2d_44">
    <path d="M 351.408051 330.1151 
L 351.415562 330.115601 
L 351.884601 330.14688 
L 351.943232 330.150788 
L 351.972546 330.15274 
L 351.987204 330.153717 
L 351.989036 330.153839 
L 351.989495 330.15387 
L 351.989724 330.153886 
L 351.98978 330.153888 
L 351.989795 330.15389 
L 351.989795 330.15389 
" clip-path="url(#p1859885d53)" style="fill: none; stroke: #ff7f0e; stroke-opacity: 0.95; stroke-width: 1.1; stroke-linecap: square"/>
   </g>
   <g id="line2d_45">
    <path d="M 242.366297 140.284659 
L 242.366488 140.284936 
L 242.378558 140.302428 
L 242.380082 140.304634 
L 242.380845 140.305738 
L 242.381228 140.306292 
L 242.381275 140.30636 
L 242.381287 140.306378 
L 242.381293 140.306386 
L 242.381294 140.306388 
L 242.381294 140.306388 
L 242.381294 140.306388 
" clip-path="url(#p1859885d53)" style="fill: none; stroke: #ff7f0e; stroke-opacity: 0.95; stroke-width: 1.1; stroke-linecap: square"/>
   </g>
   <g id="line2d_46">
    <path d="M 351.408051 330.1151 
L 351.415562 330.115601 
L 351.884601 330.14688 
L 351.943232 330.150788 
L 351.972546 330.15274 
L 351.987204 330.153717 
L 351.989036 330.153839 
L 351.989495 330.15387 
L 351.989724 330.153886 
L 351.98978 330.153888 
L 351.989795 330.15389 
L 351.989795 330.15389 
" clip-path="url(#p1859885d53)" style="fill: none; stroke: #ff7f0e; stroke-opacity: 0.95; stroke-width: 1.1; stroke-linecap: square"/>
   </g>
   <g id="line2d_47">
    <path d="M 242.366297 140.284659 
L 242.366488 140.284936 
L 242.378558 140.302428 
L 242.380082 140.304634 
L 242.380845 140.305738 
L 242.381228 140.306292 
L 242.381275 140.30636 
L 242.381287 140.306378 
L 242.381293 140.306386 
L 242.381294 140.306388 
L 242.381294 140.306388 
L 242.381294 140.306388 
" clip-path="url(#p1859885d53)" style="fill: none; stroke: #ff7f0e; stroke-opacity: 0.95; stroke-width: 1.1; stroke-linecap: square"/>
   </g>
   <g id="line2d_48">
    <path d="M 351.457088 333.406443 
L 119.898991 229.785383 
" clip-path="url(#p1859885d53)" style="fill: none; stroke: #1f77b4; stroke-opacity: 0.95; stroke-width: 1.1; stroke-linecap: square"/>
   </g>
   <g id="line2d_49">
    <path d="M 119.898991 229.785383 
L 40.765411 335.195154 
" clip-path="url(#p1859885d53)" style="fill: none; stroke: #1f77b4; stroke-opacity: 0.95; stroke-width: 1.1; stroke-linecap: square"/>
   </g>
   <g id="line2d_50">
    <path d="M 40.765411 335.195154 
L 351.457088 333.406443 
" clip-path="url(#p1859885d53)" style="fill: none; stroke: #1f77b4; stroke-opacity: 0.95; stroke-width: 1.1; stroke-linecap: square"/>
   </g>
   <g id="line2d_51">
    <path d="M 119.898991 229.785383 
L 119.894076 229.782936 
L 117.387824 228.527228 
L 114.774924 227.197334 
L 112.046002 225.776333 
L 109.186725 224.236947 
L 106.173647 222.532955 
L 105.60647 222.199783 
L 104.451534 221.506332 
L 102.04574 219.982839 
L 101.592064 219.681012 
L 100.666706 219.048082 
L 100.495653 218.928324 
L 100.464453 218.906382 
L 100.40196 218.862341 
L 100.2766 218.773614 
L 100.253754 218.757386 
L 100.208189 218.725133 
L 100.207972 218.72551 
L 100.207944 218.725557 
L 100.207873 218.72568 
L 100.207719 218.725947 
L 100.207703 218.725975 
L 100.207656 218.726056 
L 100.207656 218.726056 
" clip-path="url(#p1859885d53)" style="fill: none; stroke: #1f77b4; stroke-opacity: 0.95; stroke-width: 1.1; stroke-linecap: square"/>
   </g>
   <g id="line2d_52">
    <path d="M 40.765411 335.195154 
L 40.762897 335.195155 
L 39.53019 335.195641 
L 38.342215 335.19608 
L 37.195256 335.19648 
L 36.082063 335.196845 
L 34.988774 335.197185 
L 34.790319 335.197245 
L 34.391852 335.197364 
L 33.578917 335.197599 
L 33.426942 335.197643 
L 33.116819 335.197732 
L 33.059368 335.197746 
L 33.048881 335.19775 
L 33.027871 335.197756 
L 32.985693 335.197769 
L 32.978002 335.197769 
L 32.962677 335.197776 
L 32.962677 335.197776 
L 32.962677 335.197776 
L 32.962677 335.197776 
L 32.962677 335.197776 
L 32.962677 335.197776 
L 32.962677 335.197776 
L 32.962677 335.197776 
" clip-path="url(#p1859885d53)" style="fill: none; stroke: #1f77b4; stroke-opacity: 0.95; stroke-width: 1.1; stroke-linecap: square"/>
   </g>
   <g id="line2d_53">
    <path d="M 351.457088 333.406443 
L 351.469568 333.426304 
L 351.572662 333.590364 
L 351.779177 333.918937 
L 352.193436 334.577787 
L 352.268921 334.697807 
L 352.42003 334.938036 
L 352.447523 334.98174 
L 352.50253 335.069176 
L 352.512533 335.085075 
L 352.532543 335.116881 
L 352.572569 335.180499 
L 352.579849 335.192069 
L 352.581172 335.194172 
L 352.58382 335.19838 
L 352.589113 335.206794 
L 352.590075 335.208323 
L 352.590252 335.208603 
L 352.590524 335.209035 
L 352.59053 335.209035 
L 352.59053 335.209035 
" clip-path="url(#p1859885d53)" style="fill: none; stroke: #ff7f0e; stroke-opacity: 0.95; stroke-width: 1.1; stroke-linecap: square"/>
   </g>
   <g id="line2d_54">
    <path d="M 40.765411 335.195154 
L 40.76594 335.195291 
L 40.770336 335.196429 
L 40.779243 335.198781 
L 40.797512 335.203808 
L 40.800897 335.20477 
L 40.807729 335.206738 
L 40.808978 335.207105 
L 40.811486 335.207841 
L 40.811943 335.207975 
L 40.812859 335.208245 
L 40.814693 335.20879 
L 40.815027 335.208889 
L 40.815088 335.208906 
L 40.815209 335.208943 
L 40.815453 335.209014 
L 40.815497 335.209028 
L 40.815505 335.209031 
L 40.815513 335.209033 
L 40.815466 335.209036 
L 40.815466 335.209036 
" clip-path="url(#p1859885d53)" style="fill: none; stroke: #ff7f0e; stroke-opacity: 0.95; stroke-width: 1.1; stroke-linecap: square"/>
   </g>
   <g id="line2d_55">
    <path d="M 119.898991 229.785383 
L 119.901561 229.781775 
L 122.484236 226.227205 
L 125.101607 222.768043 
L 127.751833 219.410333 
L 130.435692 216.156212 
L 133.153888 213.007258 
L 135.906939 209.964205 
L 138.695045 207.026699 
L 141.517992 204.193073 
L 144.375053 201.460247 
L 147.264975 198.823717 
L 150.185975 196.277664 
L 153.135817 193.815214 
L 156.111915 191.428754 
L 159.111477 189.110317 
L 162.131661 186.851954 
L 162.861857 186.31614 
" clip-path="url(#p1859885d53)" style="fill: none; stroke: #1f77b4; stroke-opacity: 0.95; stroke-width: 1.1; stroke-linecap: square"/>
   </g>
   <g id="line2d_56">
    <path d="M 351.457088 333.406443 
L 351.457241 333.406272 
L 351.594204 333.231445 
L 351.701685 333.047882 
L 351.782131 332.856255 
L 351.838059 332.657193 
L 351.871887 332.451406 
L 351.885934 332.239682 
L 351.882405 332.02284 
L 351.863371 331.801687 
L 351.830747 331.576971 
L 351.786262 331.349318 
L 351.731423 331.11917 
L 351.667504 330.88675 
L 351.595504 330.651999 
L 351.516144 330.414555 
L 351.429851 330.173723 
L 351.408051 330.1151 
" clip-path="url(#p1859885d53)" style="fill: none; stroke: #1f77b4; stroke-opacity: 0.95; stroke-width: 1.1; stroke-linecap: square"/>
   </g>
   <g id="line2d_57">
    <path d="M 242.366297 140.284659 
L 162.861857 186.31614 
" clip-path="url(#p1859885d53)" style="fill: none; stroke: #1f77b4; stroke-opacity: 0.95; stroke-width: 1.1; stroke-linecap: square"/>
   </g>
   <g id="line2d_58">
    <path d="M 162.861857 186.31614 
L 351.408051 330.1151 
" clip-path="url(#p1859885d53)" style="fill: none; stroke: #1f77b4; stroke-opacity: 0.95; stroke-width: 1.1; stroke-linecap: square"/>
   </g>
   <g id="line2d_59">
    <path d="M 351.408051 330.1151 
L 242.366297 140.284659 
" clip-path="url(#p1859885d53)" style="fill: none; stroke: #1f77b4; stroke-opacity: 0.95; stroke-width: 1.1; stroke-linecap: square"/>
   </g>
   <g id="line2d_60">
    <path d="M 162.861857 186.31614 
L 162.855693 186.308626 
L 162.284659 185.609209 
L 161.06637 184.086368 
L 159.71748 182.324735 
L 158.174598 180.161129 
L 157.418865 179.022363 
L 155.890859 176.503311 
L 153.860406 172.492261 
L 152.105931 167.827635 
L 150.925369 162.338571 
L 150.759125 155.661367 
L 151.166353 152.051255 
" clip-path="url(#p1859885d53)" style="fill: none; stroke: #1f77b4; stroke-opacity: 0.95; stroke-width: 1.1; stroke-linecap: square"/>
   </g>
   <g id="line2d_61">
    <path d="M 242.366297 140.284659 
L 242.362045 140.277296 
L 241.987881 139.629306 
L 241.31152 138.458006 
L 240.734025 137.457999 
L 240.257706 136.63331 
L 240.083999 136.332616 
L 239.828534 135.890536 
L 239.636111 135.557874 
L 239.549262 135.408097 
L 239.481488 135.291251 
L 239.334665 135.03723 
L 239.190549 134.787637 
" clip-path="url(#p1859885d53)" style="fill: none; stroke: #1f77b4; stroke-opacity: 0.95; stroke-width: 1.1; stroke-linecap: square"/>
   </g>
   <g id="line2d_62">
    <path d="M 239.190549 134.787637 
L 159.212699 116.526323 
" clip-path="url(#p1859885d53)" style="fill: none; stroke: #1f77b4; stroke-opacity: 0.95; stroke-width: 1.1; stroke-linecap: square"/>
   </g>
   <g id="line2d_63">
    <path d="M 159.212699 116.526323 
L 151.166353 152.051255 
" clip-path="url(#p1859885d53)" style="fill: none; stroke: #1f77b4; stroke-opacity: 0.95; stroke-width: 1.1; stroke-linecap: square"/>
   </g>
   <g id="line2d_64">
    <path d="M 151.166353 152.051255 
L 239.190549 134.787637 
" clip-path="url(#p1859885d53)" style="fill: none; stroke: #1f77b4; stroke-opacity: 0.95; stroke-width: 1.1; stroke-linecap: square"/>
   </g>
   <g id="line2d_65">
    <path d="M 151.166353 152.051255 
L 151.160153 152.052092 
L 148.072977 152.462695 
L 144.99096 152.884748 
L 141.892932 153.354862 
L 138.759194 153.906243 
L 137.968192 154.060049 
L 137.571407 154.139583 
L 137.521748 154.14965 
L 137.496912 154.154696 
L 137.490702 154.155958 
L 137.487598 154.156588 
L 137.486821 154.156748 
L 137.486772 154.156758 
L 137.486761 154.15676 
L 137.486761 154.15676 
" clip-path="url(#p1859885d53)" style="fill: none; stroke: #1f77b4; stroke-opacity: 0.95; stroke-width: 1.1; stroke-linecap: square"/>
   </g>
   <g id="line2d_66">
    <path d="M 159.212699 116.526323 
L 159.212699 116.526323 
L 159.212699 116.526323 
L 159.212699 116.526323 
L 159.212699 116.526323 
L 159.212699 116.526323 
L 159.212699 116.526323 
L 159.212699 116.526323 
L 159.212699 116.526323 
L 159.212699 116.526323 
L 159.212699 116.526323 
L 159.212699 116.526323 
L 159.212699 116.526323 
L 159.212699 116.526323 
L 159.212699 116.526323 
L 159.212699 116.526323 
" clip-path="url(#p1859885d53)" style="fill: none; stroke: #1f77b4; stroke-opacity: 0.95; stroke-width: 1.1; stroke-linecap: square"/>
   </g>
   <g id="line2d_67">
    <path d="M 151.166353 152.051255 
L 151.161186 152.051952 
L 146.014979 152.741058 
L 140.941448 153.513098 
L 140.486015 153.591548 
L 139.578408 153.753445 
L 137.776554 154.09826 
L 137.746923 154.104201 
L 137.687676 154.116109 
L 137.56924 154.140022 
L 137.547714 154.144383 
L 137.504671 154.153119 
L 137.496846 154.15471 
L 137.495424 154.154997 
L 137.492578 154.155577 
L 137.486888 154.156734 
L 137.486795 154.156752 
L 137.486667 154.156915 
L 137.486646 154.156952 
L 137.486606 154.157021 
L 137.486524 154.157163 
L 137.486524 154.157163 
" clip-path="url(#p1859885d53)" style="fill: none; stroke: #1f77b4; stroke-opacity: 0.95; stroke-width: 1.1; stroke-linecap: square"/>
   </g>
   <g id="line2d_68">
    <path d="M 159.212699 116.526323 
L 159.212699 116.526323 
L 159.212699 116.526323 
L 159.212699 116.526323 
L 159.212699 116.526323 
L 159.212699 116.526323 
L 159.212699 116.526323 
L 159.212699 116.526323 
L 159.212699 116.526323 
L 159.212699 116.526323 
L 159.212699 116.526323 
L 159.212699 116.526323 
L 159.212699 116.526323 
L 159.212699 116.526323 
L 159.212699 116.526323 
L 159.212699 116.526323 
L 159.212699 116.526323 
L 159.212699 116.526323 
L 159.212699 116.526323 
L 159.212699 116.526323 
L 159.212699 116.526323 
L 159.212699 116.526323 
" clip-path="url(#p1859885d53)" style="fill: none; stroke: #1f77b4; stroke-opacity: 0.95; stroke-width: 1.1; stroke-linecap: square"/>
   </g>
   <g id="line2d_69">
    <path d="M 151.166353 152.051255 
L 151.161186 152.051952 
L 146.014979 152.741058 
L 140.941448 153.513098 
L 140.486015 153.591548 
L 139.578408 153.753445 
L 137.776554 154.09826 
L 137.746923 154.104201 
L 137.687676 154.116109 
L 137.56924 154.140022 
L 137.547714 154.144383 
L 137.504671 154.153119 
L 137.496846 154.15471 
L 137.495424 154.154997 
L 137.492578 154.155577 
L 137.486888 154.156734 
L 137.486795 154.156752 
L 137.486667 154.156915 
L 137.486646 154.156952 
L 137.486606 154.157021 
L 137.486524 154.157163 
L 137.486524 154.157163 
" clip-path="url(#p1859885d53)" style="fill: none; stroke: #1f77b4; stroke-opacity: 0.95; stroke-width: 1.1; stroke-linecap: square"/>
   </g>
   <g id="line2d_70">
    <path d="M 159.212699 116.526323 
L 159.212699 116.526323 
L 159.212699 116.526323 
L 159.212699 116.526323 
L 159.212699 116.526323 
L 159.212699 116.526323 
L 159.212699 116.526323 
L 159.212699 116.526323 
L 159.212699 116.526323 
L 159.212699 116.526323 
L 159.212699 116.526323 
L 159.212699 116.526323 
L 159.212699 116.526323 
L 159.212699 116.526323 
L 159.212699 116.526323 
L 159.212699 116.526323 
L 159.212699 116.526323 
L 159.212699 116.526323 
L 159.212699 116.526323 
L 159.212699 116.526323 
L 159.212699 116.526323 
L 159.212699 116.526323 
" clip-path="url(#p1859885d53)" style="fill: none; stroke: #1f77b4; stroke-opacity: 0.95; stroke-width: 1.1; stroke-linecap: square"/>
   </g>
   <g id="line2d_71">
    <path d="M 151.166353 152.051255 
L 151.161186 152.051952 
L 146.014979 152.741058 
L 140.941448 153.513098 
L 140.486015 153.591548 
L 139.578408 153.753445 
L 137.776554 154.09826 
L 137.746923 154.104201 
L 137.687676 154.116109 
L 137.56924 154.140022 
L 137.547714 154.144383 
L 137.504671 154.153119 
L 137.496846 154.15471 
L 137.495424 154.154997 
L 137.492578 154.155577 
L 137.486888 154.156734 
L 137.486795 154.156752 
L 137.486667 154.156915 
L 137.486646 154.156952 
L 137.486606 154.157021 
L 137.486524 154.157163 
L 137.486524 154.157163 
" clip-path="url(#p1859885d53)" style="fill: none; stroke: #1f77b4; stroke-opacity: 0.95; stroke-width: 1.1; stroke-linecap: square"/>
   </g>
   <g id="line2d_72">
    <path d="M 159.212699 116.526323 
L 159.212699 116.526323 
L 159.212699 116.526323 
L 159.212699 116.526323 
L 159.212699 116.526323 
L 159.212699 116.526323 
L 159.212699 116.526323 
L 159.212699 116.526323 
L 159.212699 116.526323 
L 159.212699 116.526323 
L 159.212699 116.526323 
L 159.212699 116.526323 
L 159.212699 116.526323 
L 159.212699 116.526323 
L 159.212699 116.526323 
L 159.212699 116.526323 
L 159.212699 116.526323 
L 159.212699 116.526323 
L 159.212699 116.526323 
L 159.212699 116.526323 
L 159.212699 116.526323 
L 159.212699 116.526323 
" clip-path="url(#p1859885d53)" style="fill: none; stroke: #1f77b4; stroke-opacity: 0.95; stroke-width: 1.1; stroke-linecap: square"/>
   </g>
   <g id="line2d_73">
    <path d="M 151.166353 152.051255 
L 151.161186 152.051952 
L 146.014979 152.741058 
L 140.941448 153.513098 
L 140.486015 153.591548 
L 139.578408 153.753445 
L 137.776554 154.09826 
L 137.746923 154.104201 
L 137.687676 154.116109 
L 137.56924 154.140022 
L 137.547714 154.144383 
L 137.504671 154.153119 
L 137.496846 154.15471 
L 137.495424 154.154997 
L 137.492578 154.155577 
L 137.486888 154.156734 
L 137.486795 154.156752 
L 137.486667 154.156915 
L 137.486646 154.156952 
L 137.486606 154.157021 
L 137.486524 154.157163 
L 137.486524 154.157163 
" clip-path="url(#p1859885d53)" style="fill: none; stroke: #1f77b4; stroke-opacity: 0.95; stroke-width: 1.1; stroke-linecap: square"/>
   </g>
   <g id="line2d_74">
    <path d="M 159.212699 116.526323 
L 159.212699 116.526323 
L 159.212699 116.526323 
L 159.212699 116.526323 
L 159.212699 116.526323 
L 159.212699 116.526323 
L 159.212699 116.526323 
L 159.212699 116.526323 
L 159.212699 116.526323 
L 159.212699 116.526323 
L 159.212699 116.526323 
L 159.212699 116.526323 
L 159.212699 116.526323 
L 159.212699 116.526323 
L 159.212699 116.526323 
L 159.212699 116.526323 
L 159.212699 116.526323 
L 159.212699 116.526323 
L 159.212699 116.526323 
L 159.212699 116.526323 
L 159.212699 116.526323 
L 159.212699 116.526323 
" clip-path="url(#p1859885d53)" style="fill: none; stroke: #1f77b4; stroke-opacity: 0.95; stroke-width: 1.1; stroke-linecap: square"/>
   </g>
   <g id="line2d_75">
    <path d="M 159.212699 116.526323 
L 159.212699 116.526323 
L 159.212699 116.526323 
L 159.212699 116.526323 
" clip-path="url(#p1859885d53)" style="fill: none; stroke: #2ca02c; stroke-opacity: 0.95; stroke-width: 1.1; stroke-linecap: square"/>
   </g>
   <g id="line2d_76">
    <path d="M 239.190549 134.787637 
L 239.186994 134.781459 
L 235.677569 128.699337 
L 234.21404 126.164062 
" clip-path="url(#p1859885d53)" style="fill: none; stroke: #2ca02c; stroke-opacity: 0.95; stroke-width: 1.1; stroke-linecap: square"/>
   </g>
   <g id="line2d_77">
    <path d="M 234.21404 126.164062 
L 198.078668 96.406438 
" clip-path="url(#p1859885d53)" style="fill: none; stroke: #2ca02c; stroke-opacity: 0.95; stroke-width: 1.1; stroke-linecap: square"/>
   </g>
   <g id="line2d_78">
    <path d="M 198.078668 96.406438 
L 159.212699 116.526323 
" clip-path="url(#p1859885d53)" style="fill: none; stroke: #2ca02c; stroke-opacity: 0.95; stroke-width: 1.1; stroke-linecap: square"/>
   </g>
   <g id="line2d_79">
    <path d="M 159.212699 116.526323 
L 234.21404 126.164062 
" clip-path="url(#p1859885d53)" style="fill: none; stroke: #2ca02c; stroke-opacity: 0.95; stroke-width: 1.1; stroke-linecap: square"/>
   </g>
   <g id="line2d_80">
    <path d="M 198.078668 96.406438 
L 198.078668 96.406438 
L 198.078668 96.406438 
L 198.078668 96.406438 
L 198.078668 96.406438 
L 198.078668 96.406438 
L 198.078668 96.406438 
" clip-path="url(#p1859885d53)" style="fill: none; stroke: #2ca02c; stroke-opacity: 0.95; stroke-width: 1.1; stroke-linecap: square"/>
   </g>
   <g id="line2d_81">
    <path d="M 234.21404 126.164062 
L 234.210805 126.158456 
L 231.016025 120.623263 
L 227.892791 115.212976 
L 224.841907 109.928323 
L 221.860933 104.764899 
L 219.825506 101.23933 
" clip-path="url(#p1859885d53)" style="fill: none; stroke: #2ca02c; stroke-opacity: 0.95; stroke-width: 1.1; stroke-linecap: square"/>
   </g>
   <g id="line2d_82">
    <path d="M 193.932283 56.39024 
L 198.078668 96.406438 
" clip-path="url(#p1859885d53)" style="fill: none; stroke: #2ca02c; stroke-opacity: 0.95; stroke-width: 1.1; stroke-linecap: square"/>
   </g>
   <g id="line2d_83">
    <path d="M 198.078668 96.406438 
L 219.825506 101.23933 
" clip-path="url(#p1859885d53)" style="fill: none; stroke: #2ca02c; stroke-opacity: 0.95; stroke-width: 1.1; stroke-linecap: square"/>
   </g>
   <g id="line2d_84">
    <path d="M 219.825506 101.23933 
L 193.932283 56.39024 
" clip-path="url(#p1859885d53)" style="fill: none; stroke: #2ca02c; stroke-opacity: 0.95; stroke-width: 1.1; stroke-linecap: square"/>
   </g>
   <g id="line2d_85">
    <path d="M 198.078668 96.406438 
L 198.078668 96.406438 
" clip-path="url(#p1859885d53)" style="fill: none; stroke: #8c564b; stroke-opacity: 0.95; stroke-width: 1.1; stroke-linecap: square"/>
   </g>
   <g id="line2d_86">
    <path d="M 193.932283 56.39024 
L 193.932283 56.39024 
" clip-path="url(#p1859885d53)" style="fill: none; stroke: #8c564b; stroke-opacity: 0.95; stroke-width: 1.1; stroke-linecap: square"/>
   </g>
   <g id="line2d_87">
    <path d="M 193.932283 56.39024 
L 190.798039 89.562155 
" clip-path="url(#p1859885d53)" style="fill: none; stroke: #8c564b; stroke-opacity: 0.95; stroke-width: 1.1; stroke-linecap: square"/>
   </g>
   <g id="line2d_88">
    <path d="M 190.798039 89.562155 
L 198.078668 96.406438 
" clip-path="url(#p1859885d53)" style="fill: none; stroke: #8c564b; stroke-opacity: 0.95; stroke-width: 1.1; stroke-linecap: square"/>
   </g>
   <g id="line2d_89">
    <path d="M 198.078668 96.406438 
L 193.932283 56.39024 
" clip-path="url(#p1859885d53)" style="fill: none; stroke: #8c564b; stroke-opacity: 0.95; stroke-width: 1.1; stroke-linecap: square"/>
   </g>
   <g id="line2d_90">
    <path d="M 198.078668 96.406438 
L 198.078668 96.406438 
" clip-path="url(#p1859885d53)" style="fill: none; stroke: #8c564b; stroke-opacity: 0.95; stroke-width: 1.1; stroke-linecap: square"/>
   </g>
   <g id="line2d_91">
    <path d="M 190.798039 89.562155 
L 190.798039 89.562155 
" clip-path="url(#p1859885d53)" style="fill: none; stroke: #8c564b; stroke-opacity: 0.95; stroke-width: 1.1; stroke-linecap: square"/>
   </g>
   <g id="line2d_92">
    <path d="M 198.078668 96.406438 
L 190.798039 89.562155 
" clip-path="url(#p1859885d53)" style="fill: none; stroke: #9467bd; stroke-opacity: 0.95; stroke-width: 1.1; stroke-linecap: square"/>
   </g>
   <g id="line2d_93">
    <path d="M 190.798039 89.562155 
L 159.212699 116.526323 
" clip-path="url(#p1859885d53)" style="fill: none; stroke: #9467bd; stroke-opacity: 0.95; stroke-width: 1.1; stroke-linecap: square"/>
   </g>
   <g id="line2d_94">
    <path d="M 159.212699 116.526323 
L 198.078668 96.406438 
" clip-path="url(#p1859885d53)" style="fill: none; stroke: #9467bd; stroke-opacity: 0.95; stroke-width: 1.1; stroke-linecap: square"/>
   </g>
   <g id="line2d_95">
    <path d="M 159.212699 116.526323 
L 159.212699 116.526323 
" clip-path="url(#p1859885d53)" style="fill: none; stroke: #9467bd; stroke-opacity: 0.95; stroke-width: 1.1; stroke-linecap: square"/>
   </g>
   <g id="line2d_96">
    <path d="M 198.078668 96.406438 
L 198.078668 96.406438 
" clip-path="url(#p1859885d53)" style="fill: none; stroke: #9467bd; stroke-opacity: 0.95; stroke-width: 1.1; stroke-linecap: square"/>
   </g>
   <g id="text_1">
    <text style="font-size: 10px; font-family: 'Times New Roman', serif; text-anchor: middle" x="177.834673" y="102.484196" transform="rotate(-0 177.834673 102.484196)">10</text>
   </g>
   <g id="text_2">
    <text style="font-size: 10px; font-family: 'Times New Roman', serif; text-anchor: end" x="329.152213" y="309.729499" transform="rotate(-0 329.152213 309.729499)">10</text>
   </g>
   <g id="text_3">
    <text style="font-size: 10px; font-family: 'Times New Roman', serif; text-anchor: start" x="74.809965" y="337.611378" transform="rotate(-0 74.809965 337.611378)">10</text>
   </g>
   <g id="text_4">
    <text style="font-size: 10px; font-family: 'Times New Roman', serif; text-anchor: middle" x="161.737062" y="130.366076" transform="rotate(-0 161.737062 130.366076)">20</text>
   </g>
   <g id="text_5">
    <text style="font-size: 10px; font-family: 'Times New Roman', serif; text-anchor: end" x="313.054602" y="281.847619" transform="rotate(-0 313.054602 281.847619)">20</text>
   </g>
   <g id="text_6">
    <text style="font-size: 10px; font-family: 'Times New Roman', serif; text-anchor: start" x="107.005186" y="337.611378" transform="rotate(-0 107.005186 337.611378)">20</text>
   </g>
   <g id="text_7">
    <text style="font-size: 10px; font-family: 'Times New Roman', serif; text-anchor: middle" x="145.639452" y="158.247956" transform="rotate(-0 145.639452 158.247956)">30</text>
   </g>
   <g id="text_8">
    <text style="font-size: 10px; font-family: 'Times New Roman', serif; text-anchor: end" x="296.956992" y="253.96574" transform="rotate(-0 296.956992 253.96574)">30</text>
   </g>
   <g id="text_9">
    <text style="font-size: 10px; font-family: 'Times New Roman', serif; text-anchor: start" x="139.200407" y="337.611378" transform="rotate(-0 139.200407 337.611378)">30</text>
   </g>
   <g id="text_10">
    <text style="font-size: 10px; font-family: 'Times New Roman', serif; text-anchor: middle" x="129.541841" y="186.129835" transform="rotate(-0 129.541841 186.129835)">40</text>
   </g>
   <g id="text_11">
    <text style="font-size: 10px; font-family: 'Times New Roman', serif; text-anchor: end" x="280.859381" y="226.08386" transform="rotate(-0 280.859381 226.08386)">40</text>
   </g>
   <g id="text_12">
    <text style="font-size: 10px; font-family: 'Times New Roman', serif; text-anchor: start" x="171.395629" y="337.611378" transform="rotate(-0 171.395629 337.611378)">40</text>
   </g>
   <g id="text_13">
    <text style="font-size: 10px; font-family: 'Times New Roman', serif; text-anchor: middle" x="113.44423" y="214.011715" transform="rotate(-0 113.44423 214.011715)">50</text>
   </g>
   <g id="text_14">
    <text style="font-size: 10px; font-family: 'Times New Roman', serif; text-anchor: end" x="264.76177" y="198.201981" transform="rotate(-0 264.76177 198.201981)">50</text>
   </g>
   <g id="text_15">
    <text style="font-size: 10px; font-family: 'Times New Roman', serif; text-anchor: start" x="203.59085" y="337.611378" transform="rotate(-0 203.59085 337.611378)">50</text>
   </g>
   <g id="text_16">
    <text style="font-size: 10px; font-family: 'Times New Roman', serif; text-anchor: middle" x="97.34662" y="241.893594" transform="rotate(-0 97.34662 241.893594)">60</text>
   </g>
   <g id="text_17">
    <text style="font-size: 10px; font-family: 'Times New Roman', serif; text-anchor: end" x="248.66416" y="170.320101" transform="rotate(-0 248.66416 170.320101)">60</text>
   </g>
   <g id="text_18">
    <text style="font-size: 10px; font-family: 'Times New Roman', serif; text-anchor: start" x="235.786071" y="337.611378" transform="rotate(-0 235.786071 337.611378)">60</text>
   </g>
   <g id="text_19">
    <text style="font-size: 10px; font-family: 'Times New Roman', serif; text-anchor: middle" x="81.249009" y="269.775474" transform="rotate(-0 81.249009 269.775474)">70</text>
   </g>
   <g id="text_20">
    <text style="font-size: 10px; font-family: 'Times New Roman', serif; text-anchor: end" x="232.566549" y="142.438222" transform="rotate(-0 232.566549 142.438222)">70</text>
   </g>
   <g id="text_21">
    <text style="font-size: 10px; font-family: 'Times New Roman', serif; text-anchor: start" x="267.981292" y="337.611378" transform="rotate(-0 267.981292 337.611378)">70</text>
   </g>
   <g id="text_22">
    <text style="font-size: 10px; font-family: 'Times New Roman', serif; text-anchor: middle" x="65.151398" y="297.657353" transform="rotate(-0 65.151398 297.657353)">80</text>
   </g>
   <g id="text_23">
    <text style="font-size: 10px; font-family: 'Times New Roman', serif; text-anchor: end" x="216.468938" y="114.556342" transform="rotate(-0 216.468938 114.556342)">80</text>
   </g>
   <g id="text_24">
    <text style="font-size: 10px; font-family: 'Times New Roman', serif; text-anchor: start" x="300.176514" y="337.611378" transform="rotate(-0 300.176514 337.611378)">80</text>
   </g>
   <g id="text_25">
    <text style="font-size: 10px; font-family: 'Times New Roman', serif; text-anchor: middle" x="49.053788" y="325.539233" transform="rotate(-0 49.053788 325.539233)">90</text>
   </g>
   <g id="text_26">
    <text style="font-size: 10px; font-family: 'Times New Roman', serif; text-anchor: end" x="200.371328" y="86.674463" transform="rotate(-0 200.371328 86.674463)">90</text>
   </g>
   <g id="text_27">
    <text style="font-size: 10px; font-family: 'Times New Roman', serif; text-anchor: start" x="332.371735" y="337.611378" transform="rotate(-0 332.371735 337.611378)">90</text>
   </g>
   <g id="text_28">
    <text style="font-size: 13px; font-family: 'Times New Roman', serif; text-anchor: start" x="7.2" y="357.113998" transform="rotate(-0 7.2 357.113998)">CaO</text>
   </g>
   <g id="text_29">
    <text style="font-size: 13px; font-family: 'Times New Roman', serif; text-anchor: end" x="380.664567" y="357.089623" transform="rotate(-0 380.664567 357.089623)">MgO</text>
   </g>
   <g id="text_30">
    <text style="font-size: 13px; font-family: 'Times New Roman', serif; text-anchor: middle" x="193.932283" y="40.73137" transform="rotate(-0 193.932283 40.73137)">Al2O3</text>
   </g>
   <g id="text_31">
    <text style="font-size: 10px; font-family: 'Times New Roman', serif" transform="translate(127.272908 14.14375)">CAMA phase diagram from EXP</text>
    <text style="font-size: 10px; font-family: 'Times New Roman', serif" transform="translate(112.504158 24.634062)">Al2O3* = 1 - CaO - MgO - CaF2 - SiO2</text>
   </g>
  </g>
 </g>
 <defs>
  <clipPath id="p1859885d53">
   <rect x="7.2" y="30.634062" width="373.464567" height="323.892105"/>
  </clipPath>
 </defs>
</svg>
