<?xml version="1.0" encoding="utf-8" standalone="no"?>
<!DOCTYPE svg PUBLIC "-//W3C//DTD SVG 1.1//EN"
  "http://www.w3.org/Graphics/SVG/1.1/DTD/svg11.dtd">
<svg xmlns:xlink="http://www.w3.org/1999/xlink" width="234.909395pt" height="235.124922pt" viewBox="0 0 234.909395 235.124922" xmlns="http://www.w3.org/2000/svg" version="1.1">
 <metadata>
  <rdf:RDF xmlns:dc="http://purl.org/dc/elements/1.1/" xmlns:cc="http://creativecommons.org/ns#" xmlns:rdf="http://www.w3.org/1999/02/22-rdf-syntax-ns#">
   <cc:Work>
    <dc:type rdf:resource="http://purl.org/dc/dcmitype/StillImage"/>
    <dc:date>2026-03-28T21:56:14.357005</dc:date>
    <dc:format>image/svg+xml</dc:format>
    <dc:creator>
     <cc:Agent>
      <dc:title>Matplotlib v3.10.6, https://matplotlib.org/</dc:title>
     </cc:Agent>
    </dc:creator>
   </cc:Work>
  </rdf:RDF>
 </metadata>
 <defs>
  <style type="text/css">*{stroke-linejoin: round; stroke-linecap: butt}</style>
 </defs>
 <g id="figure_1">
  <g id="patch_1">
   <path d="M 0 235.124922 
L 234.909395 235.124922 
L 234.909395 0 
L 0 0 
z
" style="fill: #ffffff"/>
  </g>
  <g id="axes_1">
   <g id="patch_2">
    <path d="M 116.763827 59.723623 
L 116.763827 59.723623 
L 38.068216 196.02842 
L 38.068216 196.02842 
L 195.459439 196.02842 
L 195.459439 196.02842 
z
" style="fill: #ffffff"/>
   </g>
   <g id="matplotlib.axis_1">
    <g id="xtick_1">
     <g id="line2d_1">
      <path d="M 195.459439 196.02842 
L 38.068216 196.02842 
" style="fill: none; stroke-dasharray: 1.85,0.8; stroke-dashoffset: 0; stroke: #b0b0b0; stroke-opacity: 0.6; stroke-width: 0.5"/>
     </g>
     <g id="line2d_2">
      <defs>
       <path id="m4d5e7918e6" d="M 0 0 
L 3.5 0 
" style="stroke: #000000; stroke-width: 0.8"/>
      </defs>
      <g>
       <use xlink:href="#m4d5e7918e6" x="195.459439" y="196.02842" style="stroke: #000000; stroke-width: 0.8"/>
      </g>
     </g>
     <g id="text_1">
      <!-- 0 -->
      <g transform="translate(202.459439 198.80592) scale(0.08 -0.08)">
       <defs>
        <path id="TimesNewRomanPSMT-30" d="M 231 2094 
Q 231 2819 450 3342 
Q 669 3866 1031 4122 
Q 1313 4325 1613 4325 
Q 2100 4325 2488 3828 
Q 2972 3213 2972 2159 
Q 2972 1422 2759 906 
Q 2547 391 2217 158 
Q 1888 -75 1581 -75 
Q 975 -75 572 641 
Q 231 1244 231 2094 
z
M 844 2016 
Q 844 1141 1059 588 
Q 1238 122 1591 122 
Q 1759 122 1940 273 
Q 2122 425 2216 781 
Q 2359 1319 2359 2297 
Q 2359 3022 2209 3506 
Q 2097 3866 1919 4016 
Q 1791 4119 1609 4119 
Q 1397 4119 1231 3928 
Q 1006 3669 925 3112 
Q 844 2556 844 2016 
z
" transform="scale(0.015625)"/>
       </defs>
       <use xlink:href="#TimesNewRomanPSMT-30"/>
      </g>
     </g>
    </g>
    <g id="xtick_2">
     <g id="line2d_3">
      <path d="M 187.589877 182.39794 
L 45.937778 182.39794 
" style="fill: none; stroke-dasharray: 1.85,0.8; stroke-dashoffset: 0; stroke: #b0b0b0; stroke-opacity: 0.6; stroke-width: 0.5"/>
     </g>
     <g id="line2d_4">
      <g>
       <use xlink:href="#m4d5e7918e6" x="187.589877" y="182.39794" style="stroke: #000000; stroke-width: 0.8"/>
      </g>
     </g>
     <g id="text_2">
      <!-- 10 -->
      <g transform="translate(194.589877 185.17544) scale(0.08 -0.08)">
       <defs>
        <path id="TimesNewRomanPSMT-31" d="M 750 3822 
L 1781 4325 
L 1884 4325 
L 1884 747 
Q 1884 391 1914 303 
Q 1944 216 2037 169 
Q 2131 122 2419 116 
L 2419 0 
L 825 0 
L 825 116 
Q 1125 122 1212 167 
Q 1300 213 1334 289 
Q 1369 366 1369 747 
L 1369 3034 
Q 1369 3497 1338 3628 
Q 1316 3728 1258 3775 
Q 1200 3822 1119 3822 
Q 1003 3822 797 3725 
L 750 3822 
z
" transform="scale(0.015625)"/>
       </defs>
       <use xlink:href="#TimesNewRomanPSMT-31"/>
       <use xlink:href="#TimesNewRomanPSMT-30" transform="translate(50 0)"/>
      </g>
     </g>
    </g>
    <g id="xtick_3">
     <g id="line2d_5">
      <path d="M 179.720316 168.767461 
L 53.807339 168.767461 
" style="fill: none; stroke-dasharray: 1.85,0.8; stroke-dashoffset: 0; stroke: #b0b0b0; stroke-opacity: 0.6; stroke-width: 0.5"/>
     </g>
     <g id="line2d_6">
      <g>
       <use xlink:href="#m4d5e7918e6" x="179.720316" y="168.767461" style="stroke: #000000; stroke-width: 0.8"/>
      </g>
     </g>
     <g id="text_3">
      <!-- 20 -->
      <g transform="translate(186.720316 171.544961) scale(0.08 -0.08)">
       <defs>
        <path id="TimesNewRomanPSMT-32" d="M 2934 816 
L 2638 0 
L 138 0 
L 138 116 
Q 1241 1122 1691 1759 
Q 2141 2397 2141 2925 
Q 2141 3328 1894 3587 
Q 1647 3847 1303 3847 
Q 991 3847 742 3664 
Q 494 3481 375 3128 
L 259 3128 
Q 338 3706 661 4015 
Q 984 4325 1469 4325 
Q 1984 4325 2329 3994 
Q 2675 3663 2675 3213 
Q 2675 2891 2525 2569 
Q 2294 2063 1775 1497 
Q 997 647 803 472 
L 1909 472 
Q 2247 472 2383 497 
Q 2519 522 2628 598 
Q 2738 675 2819 816 
L 2934 816 
z
" transform="scale(0.015625)"/>
       </defs>
       <use xlink:href="#TimesNewRomanPSMT-32"/>
       <use xlink:href="#TimesNewRomanPSMT-30" transform="translate(50 0)"/>
      </g>
     </g>
    </g>
    <g id="xtick_4">
     <g id="line2d_7">
      <path d="M 171.850755 155.136981 
L 61.6769 155.136981 
" style="fill: none; stroke-dasharray: 1.85,0.8; stroke-dashoffset: 0; stroke: #b0b0b0; stroke-opacity: 0.6; stroke-width: 0.5"/>
     </g>
     <g id="line2d_8">
      <g>
       <use xlink:href="#m4d5e7918e6" x="171.850755" y="155.136981" style="stroke: #000000; stroke-width: 0.8"/>
      </g>
     </g>
     <g id="text_4">
      <!-- 30 -->
      <g transform="translate(178.850755 157.914481) scale(0.08 -0.08)">
       <defs>
        <path id="TimesNewRomanPSMT-33" d="M 325 3431 
Q 506 3859 782 4092 
Q 1059 4325 1472 4325 
Q 1981 4325 2253 3994 
Q 2459 3747 2459 3466 
Q 2459 3003 1878 2509 
Q 2269 2356 2469 2072 
Q 2669 1788 2669 1403 
Q 2669 853 2319 450 
Q 1863 -75 997 -75 
Q 569 -75 414 31 
Q 259 138 259 259 
Q 259 350 332 419 
Q 406 488 509 488 
Q 588 488 669 463 
Q 722 447 909 348 
Q 1097 250 1169 231 
Q 1284 197 1416 197 
Q 1734 197 1970 444 
Q 2206 691 2206 1028 
Q 2206 1275 2097 1509 
Q 2016 1684 1919 1775 
Q 1784 1900 1550 2001 
Q 1316 2103 1072 2103 
L 972 2103 
L 972 2197 
Q 1219 2228 1467 2375 
Q 1716 2522 1828 2728 
Q 1941 2934 1941 3181 
Q 1941 3503 1739 3701 
Q 1538 3900 1238 3900 
Q 753 3900 428 3381 
L 325 3431 
z
" transform="scale(0.015625)"/>
       </defs>
       <use xlink:href="#TimesNewRomanPSMT-33"/>
       <use xlink:href="#TimesNewRomanPSMT-30" transform="translate(50 0)"/>
      </g>
     </g>
    </g>
    <g id="xtick_5">
     <g id="line2d_9">
      <path d="M 163.981194 141.506501 
L 69.546461 141.506501 
" style="fill: none; stroke-dasharray: 1.85,0.8; stroke-dashoffset: 0; stroke: #b0b0b0; stroke-opacity: 0.6; stroke-width: 0.5"/>
     </g>
     <g id="line2d_10">
      <g>
       <use xlink:href="#m4d5e7918e6" x="163.981194" y="141.506501" style="stroke: #000000; stroke-width: 0.8"/>
      </g>
     </g>
     <g id="text_5">
      <!-- 40 -->
      <g transform="translate(170.981194 144.284001) scale(0.08 -0.08)">
       <defs>
        <path id="TimesNewRomanPSMT-34" d="M 2978 1563 
L 2978 1119 
L 2409 1119 
L 2409 0 
L 1894 0 
L 1894 1119 
L 100 1119 
L 100 1519 
L 2066 4325 
L 2409 4325 
L 2409 1563 
L 2978 1563 
z
M 1894 1563 
L 1894 3666 
L 406 1563 
L 1894 1563 
z
" transform="scale(0.015625)"/>
       </defs>
       <use xlink:href="#TimesNewRomanPSMT-34"/>
       <use xlink:href="#TimesNewRomanPSMT-30" transform="translate(50 0)"/>
      </g>
     </g>
    </g>
    <g id="xtick_6">
     <g id="line2d_11">
      <path d="M 156.111633 127.876022 
L 77.416022 127.876022 
" style="fill: none; stroke-dasharray: 1.85,0.8; stroke-dashoffset: 0; stroke: #b0b0b0; stroke-opacity: 0.6; stroke-width: 0.5"/>
     </g>
     <g id="line2d_12">
      <g>
       <use xlink:href="#m4d5e7918e6" x="156.111633" y="127.876022" style="stroke: #000000; stroke-width: 0.8"/>
      </g>
     </g>
     <g id="text_6">
      <!-- 50 -->
      <g transform="translate(163.111633 130.653522) scale(0.08 -0.08)">
       <defs>
        <path id="TimesNewRomanPSMT-35" d="M 2778 4238 
L 2534 3706 
L 1259 3706 
L 981 3138 
Q 1809 3016 2294 2522 
Q 2709 2097 2709 1522 
Q 2709 1188 2573 903 
Q 2438 619 2231 419 
Q 2025 219 1772 97 
Q 1413 -75 1034 -75 
Q 653 -75 479 54 
Q 306 184 306 341 
Q 306 428 378 495 
Q 450 563 559 563 
Q 641 563 702 538 
Q 763 513 909 409 
Q 1144 247 1384 247 
Q 1750 247 2026 523 
Q 2303 800 2303 1197 
Q 2303 1581 2056 1914 
Q 1809 2247 1375 2428 
Q 1034 2569 447 2591 
L 1259 4238 
L 2778 4238 
z
" transform="scale(0.015625)"/>
       </defs>
       <use xlink:href="#TimesNewRomanPSMT-35"/>
       <use xlink:href="#TimesNewRomanPSMT-30" transform="translate(50 0)"/>
      </g>
     </g>
    </g>
    <g id="xtick_7">
     <g id="line2d_13">
      <path d="M 148.242072 114.245542 
L 85.285583 114.245542 
" style="fill: none; stroke-dasharray: 1.85,0.8; stroke-dashoffset: 0; stroke: #b0b0b0; stroke-opacity: 0.6; stroke-width: 0.5"/>
     </g>
     <g id="line2d_14">
      <g>
       <use xlink:href="#m4d5e7918e6" x="148.242072" y="114.245542" style="stroke: #000000; stroke-width: 0.8"/>
      </g>
     </g>
     <g id="text_7">
      <!-- 60 -->
      <g transform="translate(155.242072 117.023042) scale(0.08 -0.08)">
       <defs>
        <path id="TimesNewRomanPSMT-36" d="M 2869 4325 
L 2869 4209 
Q 2456 4169 2195 4045 
Q 1934 3922 1679 3669 
Q 1425 3416 1258 3105 
Q 1091 2794 978 2366 
Q 1428 2675 1881 2675 
Q 2316 2675 2634 2325 
Q 2953 1975 2953 1425 
Q 2953 894 2631 456 
Q 2244 -75 1606 -75 
Q 1172 -75 869 213 
Q 275 772 275 1663 
Q 275 2231 503 2743 
Q 731 3256 1154 3653 
Q 1578 4050 1965 4187 
Q 2353 4325 2688 4325 
L 2869 4325 
z
M 925 2138 
Q 869 1716 869 1456 
Q 869 1156 980 804 
Q 1091 453 1309 247 
Q 1469 100 1697 100 
Q 1969 100 2183 356 
Q 2397 613 2397 1088 
Q 2397 1622 2184 2012 
Q 1972 2403 1581 2403 
Q 1463 2403 1327 2353 
Q 1191 2303 925 2138 
z
" transform="scale(0.015625)"/>
       </defs>
       <use xlink:href="#TimesNewRomanPSMT-36"/>
       <use xlink:href="#TimesNewRomanPSMT-30" transform="translate(50 0)"/>
      </g>
     </g>
    </g>
    <g id="xtick_8">
     <g id="line2d_15">
      <path d="M 140.372511 100.615062 
L 93.155144 100.615062 
" style="fill: none; stroke-dasharray: 1.85,0.8; stroke-dashoffset: 0; stroke: #b0b0b0; stroke-opacity: 0.6; stroke-width: 0.5"/>
     </g>
     <g id="line2d_16">
      <g>
       <use xlink:href="#m4d5e7918e6" x="140.372511" y="100.615062" style="stroke: #000000; stroke-width: 0.8"/>
      </g>
     </g>
     <g id="text_8">
      <!-- 70 -->
      <g transform="translate(147.372511 103.392562) scale(0.08 -0.08)">
       <defs>
        <path id="TimesNewRomanPSMT-37" d="M 644 4238 
L 2916 4238 
L 2916 4119 
L 1503 -88 
L 1153 -88 
L 2419 3728 
L 1253 3728 
Q 900 3728 750 3644 
Q 488 3500 328 3200 
L 238 3234 
L 644 4238 
z
" transform="scale(0.015625)"/>
       </defs>
       <use xlink:href="#TimesNewRomanPSMT-37"/>
       <use xlink:href="#TimesNewRomanPSMT-30" transform="translate(50 0)"/>
      </g>
     </g>
    </g>
    <g id="xtick_9">
     <g id="line2d_17">
      <path d="M 132.50295 86.984583 
L 101.024705 86.984583 
" style="fill: none; stroke-dasharray: 1.85,0.8; stroke-dashoffset: 0; stroke: #b0b0b0; stroke-opacity: 0.6; stroke-width: 0.5"/>
     </g>
     <g id="line2d_18">
      <g>
       <use xlink:href="#m4d5e7918e6" x="132.50295" y="86.984583" style="stroke: #000000; stroke-width: 0.8"/>
      </g>
     </g>
     <g id="text_9">
      <!-- 80 -->
      <g transform="translate(139.50295 89.762083) scale(0.08 -0.08)">
       <defs>
        <path id="TimesNewRomanPSMT-38" d="M 1228 2134 
Q 725 2547 579 2797 
Q 434 3047 434 3316 
Q 434 3728 753 4026 
Q 1072 4325 1600 4325 
Q 2113 4325 2425 4047 
Q 2738 3769 2738 3413 
Q 2738 3175 2569 2928 
Q 2400 2681 1866 2347 
Q 2416 1922 2594 1678 
Q 2831 1359 2831 1006 
Q 2831 559 2490 242 
Q 2150 -75 1597 -75 
Q 994 -75 656 303 
Q 388 606 388 966 
Q 388 1247 577 1523 
Q 766 1800 1228 2134 
z
M 1719 2469 
Q 2094 2806 2194 3001 
Q 2294 3197 2294 3444 
Q 2294 3772 2109 3958 
Q 1925 4144 1606 4144 
Q 1288 4144 1088 3959 
Q 888 3775 888 3528 
Q 888 3366 970 3203 
Q 1053 3041 1206 2894 
L 1719 2469 
z
M 1375 2016 
Q 1116 1797 991 1539 
Q 866 1281 866 981 
Q 866 578 1086 336 
Q 1306 94 1647 94 
Q 1984 94 2187 284 
Q 2391 475 2391 747 
Q 2391 972 2272 1150 
Q 2050 1481 1375 2016 
z
" transform="scale(0.015625)"/>
       </defs>
       <use xlink:href="#TimesNewRomanPSMT-38"/>
       <use xlink:href="#TimesNewRomanPSMT-30" transform="translate(50 0)"/>
      </g>
     </g>
    </g>
    <g id="xtick_10">
     <g id="line2d_19">
      <path d="M 124.633389 73.354103 
L 108.894266 73.354103 
" style="fill: none; stroke-dasharray: 1.85,0.8; stroke-dashoffset: 0; stroke: #b0b0b0; stroke-opacity: 0.6; stroke-width: 0.5"/>
     </g>
     <g id="line2d_20">
      <g>
       <use xlink:href="#m4d5e7918e6" x="124.633389" y="73.354103" style="stroke: #000000; stroke-width: 0.8"/>
      </g>
     </g>
     <g id="text_10">
      <!-- 90 -->
      <g transform="translate(131.633389 76.131603) scale(0.08 -0.08)">
       <defs>
        <path id="TimesNewRomanPSMT-39" d="M 338 -88 
L 338 28 
Q 744 34 1094 217 
Q 1444 400 1770 856 
Q 2097 1313 2225 1859 
Q 1734 1544 1338 1544 
Q 891 1544 572 1889 
Q 253 2234 253 2806 
Q 253 3363 572 3797 
Q 956 4325 1575 4325 
Q 2097 4325 2469 3894 
Q 2925 3359 2925 2575 
Q 2925 1869 2578 1258 
Q 2231 647 1613 244 
Q 1109 -88 516 -88 
L 338 -88 
z
M 2275 2091 
Q 2331 2497 2331 2741 
Q 2331 3044 2228 3395 
Q 2125 3747 1936 3934 
Q 1747 4122 1506 4122 
Q 1228 4122 1018 3872 
Q 809 3622 809 3128 
Q 809 2469 1088 2097 
Q 1291 1828 1588 1828 
Q 1731 1828 1928 1897 
Q 2125 1966 2275 2091 
z
" transform="scale(0.015625)"/>
       </defs>
       <use xlink:href="#TimesNewRomanPSMT-39"/>
       <use xlink:href="#TimesNewRomanPSMT-30" transform="translate(50 0)"/>
      </g>
     </g>
    </g>
    <g id="xtick_11">
     <g id="line2d_21">
      <path d="M 116.763827 59.723623 
L 116.763827 59.723623 
" style="fill: none; stroke-dasharray: 1.85,0.8; stroke-dashoffset: 0; stroke: #b0b0b0; stroke-opacity: 0.6; stroke-width: 0.5"/>
     </g>
     <g id="line2d_22">
      <g>
       <use xlink:href="#m4d5e7918e6" x="116.763827" y="59.723623" style="stroke: #000000; stroke-width: 0.8"/>
      </g>
     </g>
     <g id="text_11">
      <!-- 100 -->
      <g transform="translate(123.763827 62.501123) scale(0.08 -0.08)">
       <use xlink:href="#TimesNewRomanPSMT-31"/>
       <use xlink:href="#TimesNewRomanPSMT-30" transform="translate(50 0)"/>
       <use xlink:href="#TimesNewRomanPSMT-30" transform="translate(100 0)"/>
      </g>
     </g>
    </g>
    <g id="text_12">
     <!-- Al2O3* (wt.%) -->
     <g transform="translate(88.768906 42.883437) scale(0.09 -0.09)">
      <defs>
       <path id="TimesNewRomanPSMT-41" d="M 2928 1419 
L 1288 1419 
L 1000 750 
Q 894 503 894 381 
Q 894 284 986 211 
Q 1078 138 1384 116 
L 1384 0 
L 50 0 
L 50 116 
Q 316 163 394 238 
Q 553 388 747 847 
L 2238 4334 
L 2347 4334 
L 3822 809 
Q 4000 384 4145 257 
Q 4291 131 4550 116 
L 4550 0 
L 2878 0 
L 2878 116 
Q 3131 128 3220 200 
Q 3309 272 3309 375 
Q 3309 513 3184 809 
L 2928 1419 
z
M 2841 1650 
L 2122 3363 
L 1384 1650 
L 2841 1650 
z
" transform="scale(0.015625)"/>
       <path id="TimesNewRomanPSMT-6c" d="M 1184 4444 
L 1184 647 
Q 1184 378 1223 290 
Q 1263 203 1344 158 
Q 1425 113 1647 113 
L 1647 0 
L 244 0 
L 244 113 
Q 441 113 512 153 
Q 584 194 625 287 
Q 666 381 666 647 
L 666 3247 
Q 666 3731 644 3842 
Q 622 3953 573 3993 
Q 525 4034 450 4034 
Q 369 4034 244 3984 
L 191 4094 
L 1044 4444 
L 1184 4444 
z
" transform="scale(0.015625)"/>
       <path id="TimesNewRomanPSMT-4f" d="M 2341 4334 
Q 3166 4334 3770 3707 
Q 4375 3081 4375 2144 
Q 4375 1178 3765 540 
Q 3156 -97 2291 -97 
Q 1416 -97 820 525 
Q 225 1147 225 2134 
Q 225 3144 913 3781 
Q 1509 4334 2341 4334 
z
M 2281 4106 
Q 1713 4106 1369 3684 
Q 941 3159 941 2147 
Q 941 1109 1384 550 
Q 1725 125 2284 125 
Q 2881 125 3270 590 
Q 3659 1056 3659 2059 
Q 3659 3147 3231 3681 
Q 2888 4106 2281 4106 
z
" transform="scale(0.015625)"/>
       <path id="TimesNewRomanPSMT-2a" d="M 1544 3263 
Q 1531 3478 1456 3691 
Q 1350 3997 1350 4113 
Q 1350 4275 1426 4359 
Q 1503 4444 1616 4444 
Q 1713 4444 1784 4359 
Q 1856 4275 1856 4119 
Q 1856 3978 1773 3726 
Q 1691 3475 1672 3263 
Q 1844 3372 1981 3528 
Q 2194 3775 2297 3834 
Q 2400 3894 2506 3894 
Q 2609 3894 2679 3823 
Q 2750 3753 2750 3656 
Q 2750 3541 2647 3450 
Q 2544 3359 2131 3269 
Q 1891 3216 1731 3147 
Q 1894 3063 2128 3019 
Q 2506 2950 2623 2847 
Q 2741 2744 2741 2622 
Q 2741 2528 2670 2459 
Q 2600 2391 2506 2391 
Q 2413 2391 2298 2456 
Q 2184 2522 1991 2750 
Q 1863 2903 1672 3038 
Q 1678 2859 1744 2650 
Q 1856 2281 1856 2147 
Q 1856 2022 1781 1936 
Q 1706 1850 1622 1850 
Q 1506 1850 1413 1941 
Q 1347 2006 1347 2150 
Q 1347 2300 1419 2511 
Q 1491 2722 1509 2801 
Q 1528 2881 1544 3038 
Q 1359 2916 1222 2766 
Q 994 2509 878 2441 
Q 797 2391 709 2391 
Q 603 2391 528 2462 
Q 453 2534 453 2622 
Q 453 2700 517 2786 
Q 581 2872 709 2928 
Q 794 2966 1094 3028 
Q 1288 3069 1472 3147 
Q 1303 3231 1069 3278 
Q 684 3359 594 3425 
Q 453 3528 453 3675 
Q 453 3759 523 3829 
Q 594 3900 688 3900 
Q 791 3900 906 3834 
Q 1022 3769 1194 3570 
Q 1366 3372 1544 3263 
z
" transform="scale(0.015625)"/>
       <path id="TimesNewRomanPSMT-20" transform="scale(0.015625)"/>
       <path id="TimesNewRomanPSMT-28" d="M 1988 -1253 
L 1988 -1369 
Q 1516 -1131 1200 -813 
Q 750 -359 506 256 
Q 263 872 263 1534 
Q 263 2503 741 3301 
Q 1219 4100 1988 4444 
L 1988 4313 
Q 1603 4100 1356 3731 
Q 1109 3363 987 2797 
Q 866 2231 866 1616 
Q 866 947 969 400 
Q 1050 -31 1165 -292 
Q 1281 -553 1476 -793 
Q 1672 -1034 1988 -1253 
z
" transform="scale(0.015625)"/>
       <path id="TimesNewRomanPSMT-77" d="M 41 2863 
L 1241 2863 
L 1241 2747 
Q 1075 2734 1023 2687 
Q 972 2641 972 2553 
Q 972 2456 1025 2319 
L 1638 672 
L 2253 2013 
L 2091 2434 
Q 2016 2622 1894 2694 
Q 1825 2738 1638 2747 
L 1638 2863 
L 3000 2863 
L 3000 2747 
Q 2775 2738 2681 2666 
Q 2619 2616 2619 2506 
Q 2619 2444 2644 2378 
L 3294 734 
L 3897 2319 
Q 3959 2488 3959 2588 
Q 3959 2647 3898 2694 
Q 3838 2741 3659 2747 
L 3659 2863 
L 4563 2863 
L 4563 2747 
Q 4291 2706 4163 2378 
L 3206 -88 
L 3078 -88 
L 2363 1741 
L 1528 -88 
L 1413 -88 
L 494 2319 
Q 403 2547 315 2626 
Q 228 2706 41 2747 
L 41 2863 
z
" transform="scale(0.015625)"/>
       <path id="TimesNewRomanPSMT-74" d="M 1031 3803 
L 1031 2863 
L 1700 2863 
L 1700 2644 
L 1031 2644 
L 1031 788 
Q 1031 509 1111 412 
Q 1191 316 1316 316 
Q 1419 316 1516 380 
Q 1613 444 1666 569 
L 1788 569 
Q 1678 263 1478 108 
Q 1278 -47 1066 -47 
Q 922 -47 784 33 
Q 647 113 581 261 
Q 516 409 516 719 
L 516 2644 
L 63 2644 
L 63 2747 
Q 234 2816 414 2980 
Q 594 3144 734 3369 
Q 806 3488 934 3803 
L 1031 3803 
z
" transform="scale(0.015625)"/>
       <path id="TimesNewRomanPSMT-2e" d="M 800 606 
Q 947 606 1047 504 
Q 1147 403 1147 259 
Q 1147 116 1045 14 
Q 944 -88 800 -88 
Q 656 -88 554 14 
Q 453 116 453 259 
Q 453 406 554 506 
Q 656 606 800 606 
z
" transform="scale(0.015625)"/>
       <path id="TimesNewRomanPSMT-25" d="M 4350 4334 
L 1263 -175 
L 984 -175 
L 4072 4334 
L 4350 4334 
z
M 1138 4334 
Q 1559 4334 1792 3984 
Q 2025 3634 2025 3181 
Q 2025 2638 1762 2341 
Q 1500 2044 1131 2044 
Q 884 2044 678 2180 
Q 472 2316 348 2584 
Q 225 2853 225 3181 
Q 225 3509 350 3786 
Q 475 4063 692 4198 
Q 909 4334 1138 4334 
z
M 1128 4159 
Q 969 4159 845 3971 
Q 722 3784 722 3184 
Q 722 2750 791 2522 
Q 844 2350 956 2256 
Q 1022 2200 1119 2200 
Q 1269 2200 1375 2363 
Q 1531 2603 1531 3166 
Q 1531 3759 1378 4000 
Q 1278 4159 1128 4159 
z
M 4206 2103 
Q 4428 2103 4648 1962 
Q 4869 1822 4989 1553 
Q 5109 1284 5109 963 
Q 5109 409 4843 117 
Q 4578 -175 4216 -175 
Q 3988 -175 3773 -34 
Q 3559 106 3436 367 
Q 3313 628 3313 963 
Q 3313 1291 3436 1562 
Q 3559 1834 3773 1968 
Q 3988 2103 4206 2103 
z
M 4209 1938 
Q 4059 1938 3950 1769 
Q 3809 1550 3809 941 
Q 3809 381 3953 159 
Q 4059 0 4209 0 
Q 4353 0 4466 172 
Q 4616 400 4616 956 
Q 4616 1544 4466 1778 
Q 4363 1938 4209 1938 
z
" transform="scale(0.015625)"/>
       <path id="TimesNewRomanPSMT-29" d="M 144 4313 
L 144 4444 
Q 619 4209 934 3891 
Q 1381 3434 1625 2820 
Q 1869 2206 1869 1541 
Q 1869 572 1392 -226 
Q 916 -1025 144 -1369 
L 144 -1253 
Q 528 -1038 776 -670 
Q 1025 -303 1145 264 
Q 1266 831 1266 1447 
Q 1266 2113 1163 2663 
Q 1084 3094 967 3353 
Q 850 3613 656 3853 
Q 463 4094 144 4313 
z
" transform="scale(0.015625)"/>
      </defs>
      <use xlink:href="#TimesNewRomanPSMT-41"/>
      <use xlink:href="#TimesNewRomanPSMT-6c" transform="translate(72.216797 0)"/>
      <use xlink:href="#TimesNewRomanPSMT-32" transform="translate(100 0)"/>
      <use xlink:href="#TimesNewRomanPSMT-4f" transform="translate(150 0)"/>
      <use xlink:href="#TimesNewRomanPSMT-33" transform="translate(222.216797 0)"/>
      <use xlink:href="#TimesNewRomanPSMT-2a" transform="translate(272.216797 0)"/>
      <use xlink:href="#TimesNewRomanPSMT-20" transform="translate(322.216797 0)"/>
      <use xlink:href="#TimesNewRomanPSMT-28" transform="translate(347.216797 0)"/>
      <use xlink:href="#TimesNewRomanPSMT-77" transform="translate(380.517578 0)"/>
      <use xlink:href="#TimesNewRomanPSMT-74" transform="translate(452.734375 0)"/>
      <use xlink:href="#TimesNewRomanPSMT-2e" transform="translate(480.517578 0)"/>
      <use xlink:href="#TimesNewRomanPSMT-25" transform="translate(505.517578 0)"/>
      <use xlink:href="#TimesNewRomanPSMT-29" transform="translate(588.818359 0)"/>
     </g>
    </g>
   </g>
   <g id="matplotlib.axis_2">
    <g id="xtick_12">
     <g id="line2d_23">
      <path d="M 116.763827 59.723623 
L 195.459439 196.02842 
" style="fill: none; stroke-dasharray: 1.85,0.8; stroke-dashoffset: 0; stroke: #b0b0b0; stroke-opacity: 0.6; stroke-width: 0.5"/>
     </g>
     <g id="line2d_24">
      <defs>
       <path id="m2cc8adba6a" d="M 0 0 
L -1.75 -3.031089 
" style="stroke: #000000; stroke-width: 0.8"/>
      </defs>
      <g>
       <use xlink:href="#m2cc8adba6a" x="116.763827" y="59.723623" style="stroke: #000000; stroke-width: 0.8"/>
      </g>
     </g>
     <g id="text_13">
      <!-- 0 -->
      <g transform="translate(108.858442 51.586094) rotate(-300) scale(0.08 -0.08)">
       <use xlink:href="#TimesNewRomanPSMT-30"/>
      </g>
     </g>
    </g>
    <g id="xtick_13">
     <g id="line2d_25">
      <path d="M 108.894266 73.354103 
L 179.720316 196.02842 
" style="fill: none; stroke-dasharray: 1.85,0.8; stroke-dashoffset: 0; stroke: #b0b0b0; stroke-opacity: 0.6; stroke-width: 0.5"/>
     </g>
     <g id="line2d_26">
      <g>
       <use xlink:href="#m2cc8adba6a" x="108.894266" y="73.354103" style="stroke: #000000; stroke-width: 0.8"/>
      </g>
     </g>
     <g id="text_14">
      <!-- 10 -->
      <g transform="translate(98.988881 61.752472) rotate(-300) scale(0.08 -0.08)">
       <use xlink:href="#TimesNewRomanPSMT-31"/>
       <use xlink:href="#TimesNewRomanPSMT-30" transform="translate(50 0)"/>
      </g>
     </g>
    </g>
    <g id="xtick_14">
     <g id="line2d_27">
      <path d="M 101.024705 86.984583 
L 163.981194 196.02842 
" style="fill: none; stroke-dasharray: 1.85,0.8; stroke-dashoffset: 0; stroke: #b0b0b0; stroke-opacity: 0.6; stroke-width: 0.5"/>
     </g>
     <g id="line2d_28">
      <g>
       <use xlink:href="#m2cc8adba6a" x="101.024705" y="86.984583" style="stroke: #000000; stroke-width: 0.8"/>
      </g>
     </g>
     <g id="text_15">
      <!-- 20 -->
      <g transform="translate(91.11932 75.382951) rotate(-300) scale(0.08 -0.08)">
       <use xlink:href="#TimesNewRomanPSMT-32"/>
       <use xlink:href="#TimesNewRomanPSMT-30" transform="translate(50 0)"/>
      </g>
     </g>
    </g>
    <g id="xtick_15">
     <g id="line2d_29">
      <path d="M 93.155144 100.615062 
L 148.242072 196.02842 
" style="fill: none; stroke-dasharray: 1.85,0.8; stroke-dashoffset: 0; stroke: #b0b0b0; stroke-opacity: 0.6; stroke-width: 0.5"/>
     </g>
     <g id="line2d_30">
      <g>
       <use xlink:href="#m2cc8adba6a" x="93.155144" y="100.615062" style="stroke: #000000; stroke-width: 0.8"/>
      </g>
     </g>
     <g id="text_16">
      <!-- 30 -->
      <g transform="translate(83.249759 89.013431) rotate(-300) scale(0.08 -0.08)">
       <use xlink:href="#TimesNewRomanPSMT-33"/>
       <use xlink:href="#TimesNewRomanPSMT-30" transform="translate(50 0)"/>
      </g>
     </g>
    </g>
    <g id="xtick_16">
     <g id="line2d_31">
      <path d="M 85.285583 114.245542 
L 132.50295 196.02842 
" style="fill: none; stroke-dasharray: 1.85,0.8; stroke-dashoffset: 0; stroke: #b0b0b0; stroke-opacity: 0.6; stroke-width: 0.5"/>
     </g>
     <g id="line2d_32">
      <g>
       <use xlink:href="#m2cc8adba6a" x="85.285583" y="114.245542" style="stroke: #000000; stroke-width: 0.8"/>
      </g>
     </g>
     <g id="text_17">
      <!-- 40 -->
      <g transform="translate(75.380198 102.643911) rotate(-300) scale(0.08 -0.08)">
       <use xlink:href="#TimesNewRomanPSMT-34"/>
       <use xlink:href="#TimesNewRomanPSMT-30" transform="translate(50 0)"/>
      </g>
     </g>
    </g>
    <g id="xtick_17">
     <g id="line2d_33">
      <path d="M 77.416022 127.876022 
L 116.763827 196.02842 
" style="fill: none; stroke-dasharray: 1.85,0.8; stroke-dashoffset: 0; stroke: #b0b0b0; stroke-opacity: 0.6; stroke-width: 0.5"/>
     </g>
     <g id="line2d_34">
      <g>
       <use xlink:href="#m2cc8adba6a" x="77.416022" y="127.876022" style="stroke: #000000; stroke-width: 0.8"/>
      </g>
     </g>
     <g id="text_18">
      <!-- 50 -->
      <g transform="translate(67.510636 116.27439) rotate(-300) scale(0.08 -0.08)">
       <use xlink:href="#TimesNewRomanPSMT-35"/>
       <use xlink:href="#TimesNewRomanPSMT-30" transform="translate(50 0)"/>
      </g>
     </g>
    </g>
    <g id="xtick_18">
     <g id="line2d_35">
      <path d="M 69.546461 141.506501 
L 101.024705 196.02842 
" style="fill: none; stroke-dasharray: 1.85,0.8; stroke-dashoffset: 0; stroke: #b0b0b0; stroke-opacity: 0.6; stroke-width: 0.5"/>
     </g>
     <g id="line2d_36">
      <g>
       <use xlink:href="#m2cc8adba6a" x="69.546461" y="141.506501" style="stroke: #000000; stroke-width: 0.8"/>
      </g>
     </g>
     <g id="text_19">
      <!-- 60 -->
      <g transform="translate(59.641075 129.90487) rotate(-300) scale(0.08 -0.08)">
       <use xlink:href="#TimesNewRomanPSMT-36"/>
       <use xlink:href="#TimesNewRomanPSMT-30" transform="translate(50 0)"/>
      </g>
     </g>
    </g>
    <g id="xtick_19">
     <g id="line2d_37">
      <path d="M 61.6769 155.136981 
L 85.285583 196.02842 
" style="fill: none; stroke-dasharray: 1.85,0.8; stroke-dashoffset: 0; stroke: #b0b0b0; stroke-opacity: 0.6; stroke-width: 0.5"/>
     </g>
     <g id="line2d_38">
      <g>
       <use xlink:href="#m2cc8adba6a" x="61.6769" y="155.136981" style="stroke: #000000; stroke-width: 0.8"/>
      </g>
     </g>
     <g id="text_20">
      <!-- 70 -->
      <g transform="translate(51.771514 143.53535) rotate(-300) scale(0.08 -0.08)">
       <use xlink:href="#TimesNewRomanPSMT-37"/>
       <use xlink:href="#TimesNewRomanPSMT-30" transform="translate(50 0)"/>
      </g>
     </g>
    </g>
    <g id="xtick_20">
     <g id="line2d_39">
      <path d="M 53.807339 168.767461 
L 69.546461 196.02842 
" style="fill: none; stroke-dasharray: 1.85,0.8; stroke-dashoffset: 0; stroke: #b0b0b0; stroke-opacity: 0.6; stroke-width: 0.5"/>
     </g>
     <g id="line2d_40">
      <g>
       <use xlink:href="#m2cc8adba6a" x="53.807339" y="168.767461" style="stroke: #000000; stroke-width: 0.8"/>
      </g>
     </g>
     <g id="text_21">
      <!-- 80 -->
      <g transform="translate(43.901953 157.165829) rotate(-300) scale(0.08 -0.08)">
       <use xlink:href="#TimesNewRomanPSMT-38"/>
       <use xlink:href="#TimesNewRomanPSMT-30" transform="translate(50 0)"/>
      </g>
     </g>
    </g>
    <g id="xtick_21">
     <g id="line2d_41">
      <path d="M 45.937778 182.39794 
L 53.807339 196.02842 
" style="fill: none; stroke-dasharray: 1.85,0.8; stroke-dashoffset: 0; stroke: #b0b0b0; stroke-opacity: 0.6; stroke-width: 0.5"/>
     </g>
     <g id="line2d_42">
      <g>
       <use xlink:href="#m2cc8adba6a" x="45.937778" y="182.39794" style="stroke: #000000; stroke-width: 0.8"/>
      </g>
     </g>
     <g id="text_22">
      <!-- 90 -->
      <g transform="translate(36.032392 170.796309) rotate(-300) scale(0.08 -0.08)">
       <use xlink:href="#TimesNewRomanPSMT-39"/>
       <use xlink:href="#TimesNewRomanPSMT-30" transform="translate(50 0)"/>
      </g>
     </g>
    </g>
    <g id="xtick_22">
     <g id="line2d_43">
      <path d="M 38.068216 196.02842 
L 38.068216 196.02842 
" style="fill: none; stroke-dasharray: 1.85,0.8; stroke-dashoffset: 0; stroke: #b0b0b0; stroke-opacity: 0.6; stroke-width: 0.5"/>
     </g>
     <g id="line2d_44">
      <g>
       <use xlink:href="#m2cc8adba6a" x="38.068216" y="196.02842" style="stroke: #000000; stroke-width: 0.8"/>
      </g>
     </g>
     <g id="text_23">
      <!-- 100 -->
      <g transform="translate(26.162831 180.962687) rotate(-300) scale(0.08 -0.08)">
       <use xlink:href="#TimesNewRomanPSMT-31"/>
       <use xlink:href="#TimesNewRomanPSMT-30" transform="translate(50 0)"/>
       <use xlink:href="#TimesNewRomanPSMT-30" transform="translate(100 0)"/>
      </g>
     </g>
    </g>
    <g id="text_24">
     <!-- CaO (wt.%) -->
     <g transform="translate(8.867234 187.779644) rotate(-300) scale(0.09 -0.09)">
      <defs>
       <path id="TimesNewRomanPSMT-43" d="M 3853 4334 
L 3950 2894 
L 3853 2894 
Q 3659 3541 3300 3825 
Q 2941 4109 2438 4109 
Q 2016 4109 1675 3895 
Q 1334 3681 1139 3212 
Q 944 2744 944 2047 
Q 944 1472 1128 1050 
Q 1313 628 1683 403 
Q 2053 178 2528 178 
Q 2941 178 3256 354 
Q 3572 531 3950 1056 
L 4047 994 
Q 3728 428 3303 165 
Q 2878 -97 2294 -97 
Q 1241 -97 663 684 
Q 231 1266 231 2053 
Q 231 2688 515 3219 
Q 800 3750 1298 4042 
Q 1797 4334 2388 4334 
Q 2847 4334 3294 4109 
Q 3425 4041 3481 4041 
Q 3566 4041 3628 4100 
Q 3709 4184 3744 4334 
L 3853 4334 
z
" transform="scale(0.015625)"/>
       <path id="TimesNewRomanPSMT-61" d="M 1822 413 
Q 1381 72 1269 19 
Q 1100 -59 909 -59 
Q 613 -59 420 144 
Q 228 347 228 678 
Q 228 888 322 1041 
Q 450 1253 767 1440 
Q 1084 1628 1822 1897 
L 1822 2009 
Q 1822 2438 1686 2597 
Q 1550 2756 1291 2756 
Q 1094 2756 978 2650 
Q 859 2544 859 2406 
L 866 2225 
Q 866 2081 792 2003 
Q 719 1925 600 1925 
Q 484 1925 411 2006 
Q 338 2088 338 2228 
Q 338 2497 613 2722 
Q 888 2947 1384 2947 
Q 1766 2947 2009 2819 
Q 2194 2722 2281 2516 
Q 2338 2381 2338 1966 
L 2338 994 
Q 2338 584 2353 492 
Q 2369 400 2405 369 
Q 2441 338 2488 338 
Q 2538 338 2575 359 
Q 2641 400 2828 588 
L 2828 413 
Q 2478 -56 2159 -56 
Q 2006 -56 1915 50 
Q 1825 156 1822 413 
z
M 1822 616 
L 1822 1706 
Q 1350 1519 1213 1441 
Q 966 1303 859 1153 
Q 753 1003 753 825 
Q 753 600 887 451 
Q 1022 303 1197 303 
Q 1434 303 1822 616 
z
" transform="scale(0.015625)"/>
      </defs>
      <use xlink:href="#TimesNewRomanPSMT-43"/>
      <use xlink:href="#TimesNewRomanPSMT-61" transform="translate(66.699219 0)"/>
      <use xlink:href="#TimesNewRomanPSMT-4f" transform="translate(111.083984 0)"/>
      <use xlink:href="#TimesNewRomanPSMT-20" transform="translate(183.300781 0)"/>
      <use xlink:href="#TimesNewRomanPSMT-28" transform="translate(208.300781 0)"/>
      <use xlink:href="#TimesNewRomanPSMT-77" transform="translate(241.601562 0)"/>
      <use xlink:href="#TimesNewRomanPSMT-74" transform="translate(313.818359 0)"/>
      <use xlink:href="#TimesNewRomanPSMT-2e" transform="translate(341.601562 0)"/>
      <use xlink:href="#TimesNewRomanPSMT-25" transform="translate(366.601562 0)"/>
      <use xlink:href="#TimesNewRomanPSMT-29" transform="translate(449.902344 0)"/>
     </g>
    </g>
   </g>
   <g id="matplotlib.axis_3">
    <g id="xtick_23">
     <g id="line2d_45">
      <path d="M 38.068216 196.02842 
L 116.763827 59.723623 
" style="fill: none; stroke-dasharray: 1.85,0.8; stroke-dashoffset: 0; stroke: #b0b0b0; stroke-opacity: 0.6; stroke-width: 0.5"/>
     </g>
     <g id="line2d_46">
      <defs>
       <path id="m8e2d54af98" d="M 0 0 
L -1.75 3.031089 
" style="stroke: #000000; stroke-width: 0.8"/>
      </defs>
      <g>
       <use xlink:href="#m8e2d54af98" x="38.068216" y="196.02842" style="stroke: #000000; stroke-width: 0.8"/>
      </g>
     </g>
     <g id="text_25">
      <!-- 0 -->
      <g transform="translate(34.973602 206.943449) rotate(-60) scale(0.08 -0.08)">
       <use xlink:href="#TimesNewRomanPSMT-30"/>
      </g>
     </g>
    </g>
    <g id="xtick_24">
     <g id="line2d_47">
      <path d="M 53.807339 196.02842 
L 124.633389 73.354103 
" style="fill: none; stroke-dasharray: 1.85,0.8; stroke-dashoffset: 0; stroke: #b0b0b0; stroke-opacity: 0.6; stroke-width: 0.5"/>
     </g>
     <g id="line2d_48">
      <g>
       <use xlink:href="#m8e2d54af98" x="53.807339" y="196.02842" style="stroke: #000000; stroke-width: 0.8"/>
      </g>
     </g>
     <g id="text_26">
      <!-- 10 -->
      <g transform="translate(48.712724 210.407551) rotate(-60) scale(0.08 -0.08)">
       <use xlink:href="#TimesNewRomanPSMT-31"/>
       <use xlink:href="#TimesNewRomanPSMT-30" transform="translate(50 0)"/>
      </g>
     </g>
    </g>
    <g id="xtick_25">
     <g id="line2d_49">
      <path d="M 69.546461 196.02842 
L 132.50295 86.984583 
" style="fill: none; stroke-dasharray: 1.85,0.8; stroke-dashoffset: 0; stroke: #b0b0b0; stroke-opacity: 0.6; stroke-width: 0.5"/>
     </g>
     <g id="line2d_50">
      <g>
       <use xlink:href="#m8e2d54af98" x="69.546461" y="196.02842" style="stroke: #000000; stroke-width: 0.8"/>
      </g>
     </g>
     <g id="text_27">
      <!-- 20 -->
      <g transform="translate(64.451846 210.407551) rotate(-60) scale(0.08 -0.08)">
       <use xlink:href="#TimesNewRomanPSMT-32"/>
       <use xlink:href="#TimesNewRomanPSMT-30" transform="translate(50 0)"/>
      </g>
     </g>
    </g>
    <g id="xtick_26">
     <g id="line2d_51">
      <path d="M 85.285583 196.02842 
L 140.372511 100.615062 
" style="fill: none; stroke-dasharray: 1.85,0.8; stroke-dashoffset: 0; stroke: #b0b0b0; stroke-opacity: 0.6; stroke-width: 0.5"/>
     </g>
     <g id="line2d_52">
      <g>
       <use xlink:href="#m8e2d54af98" x="85.285583" y="196.02842" style="stroke: #000000; stroke-width: 0.8"/>
      </g>
     </g>
     <g id="text_28">
      <!-- 30 -->
      <g transform="translate(80.190969 210.407551) rotate(-60) scale(0.08 -0.08)">
       <use xlink:href="#TimesNewRomanPSMT-33"/>
       <use xlink:href="#TimesNewRomanPSMT-30" transform="translate(50 0)"/>
      </g>
     </g>
    </g>
    <g id="xtick_27">
     <g id="line2d_53">
      <path d="M 101.024705 196.02842 
L 148.242072 114.245542 
" style="fill: none; stroke-dasharray: 1.85,0.8; stroke-dashoffset: 0; stroke: #b0b0b0; stroke-opacity: 0.6; stroke-width: 0.5"/>
     </g>
     <g id="line2d_54">
      <g>
       <use xlink:href="#m8e2d54af98" x="101.024705" y="196.02842" style="stroke: #000000; stroke-width: 0.8"/>
      </g>
     </g>
     <g id="text_29">
      <!-- 40 -->
      <g transform="translate(95.930091 210.407551) rotate(-60) scale(0.08 -0.08)">
       <use xlink:href="#TimesNewRomanPSMT-34"/>
       <use xlink:href="#TimesNewRomanPSMT-30" transform="translate(50 0)"/>
      </g>
     </g>
    </g>
    <g id="xtick_28">
     <g id="line2d_55">
      <path d="M 116.763827 196.02842 
L 156.111633 127.876022 
" style="fill: none; stroke-dasharray: 1.85,0.8; stroke-dashoffset: 0; stroke: #b0b0b0; stroke-opacity: 0.6; stroke-width: 0.5"/>
     </g>
     <g id="line2d_56">
      <g>
       <use xlink:href="#m8e2d54af98" x="116.763827" y="196.02842" style="stroke: #000000; stroke-width: 0.8"/>
      </g>
     </g>
     <g id="text_30">
      <!-- 50 -->
      <g transform="translate(111.669213 210.407551) rotate(-60) scale(0.08 -0.08)">
       <use xlink:href="#TimesNewRomanPSMT-35"/>
       <use xlink:href="#TimesNewRomanPSMT-30" transform="translate(50 0)"/>
      </g>
     </g>
    </g>
    <g id="xtick_29">
     <g id="line2d_57">
      <path d="M 132.50295 196.02842 
L 163.981194 141.506501 
" style="fill: none; stroke-dasharray: 1.85,0.8; stroke-dashoffset: 0; stroke: #b0b0b0; stroke-opacity: 0.6; stroke-width: 0.5"/>
     </g>
     <g id="line2d_58">
      <g>
       <use xlink:href="#m8e2d54af98" x="132.50295" y="196.02842" style="stroke: #000000; stroke-width: 0.8"/>
      </g>
     </g>
     <g id="text_31">
      <!-- 60 -->
      <g transform="translate(127.408335 210.407551) rotate(-60) scale(0.08 -0.08)">
       <use xlink:href="#TimesNewRomanPSMT-36"/>
       <use xlink:href="#TimesNewRomanPSMT-30" transform="translate(50 0)"/>
      </g>
     </g>
    </g>
    <g id="xtick_30">
     <g id="line2d_59">
      <path d="M 148.242072 196.02842 
L 171.850755 155.136981 
" style="fill: none; stroke-dasharray: 1.85,0.8; stroke-dashoffset: 0; stroke: #b0b0b0; stroke-opacity: 0.6; stroke-width: 0.5"/>
     </g>
     <g id="line2d_60">
      <g>
       <use xlink:href="#m8e2d54af98" x="148.242072" y="196.02842" style="stroke: #000000; stroke-width: 0.8"/>
      </g>
     </g>
     <g id="text_32">
      <!-- 70 -->
      <g transform="translate(143.147457 210.407551) rotate(-60) scale(0.08 -0.08)">
       <use xlink:href="#TimesNewRomanPSMT-37"/>
       <use xlink:href="#TimesNewRomanPSMT-30" transform="translate(50 0)"/>
      </g>
     </g>
    </g>
    <g id="xtick_31">
     <g id="line2d_61">
      <path d="M 163.981194 196.02842 
L 179.720316 168.767461 
" style="fill: none; stroke-dasharray: 1.85,0.8; stroke-dashoffset: 0; stroke: #b0b0b0; stroke-opacity: 0.6; stroke-width: 0.5"/>
     </g>
     <g id="line2d_62">
      <g>
       <use xlink:href="#m8e2d54af98" x="163.981194" y="196.02842" style="stroke: #000000; stroke-width: 0.8"/>
      </g>
     </g>
     <g id="text_33">
      <!-- 80 -->
      <g transform="translate(158.88658 210.407551) rotate(-60) scale(0.08 -0.08)">
       <use xlink:href="#TimesNewRomanPSMT-38"/>
       <use xlink:href="#TimesNewRomanPSMT-30" transform="translate(50 0)"/>
      </g>
     </g>
    </g>
    <g id="xtick_32">
     <g id="line2d_63">
      <path d="M 179.720316 196.02842 
L 187.589877 182.39794 
" style="fill: none; stroke-dasharray: 1.85,0.8; stroke-dashoffset: 0; stroke: #b0b0b0; stroke-opacity: 0.6; stroke-width: 0.5"/>
     </g>
     <g id="line2d_64">
      <g>
       <use xlink:href="#m8e2d54af98" x="179.720316" y="196.02842" style="stroke: #000000; stroke-width: 0.8"/>
      </g>
     </g>
     <g id="text_34">
      <!-- 90 -->
      <g transform="translate(174.625702 210.407551) rotate(-60) scale(0.08 -0.08)">
       <use xlink:href="#TimesNewRomanPSMT-39"/>
       <use xlink:href="#TimesNewRomanPSMT-30" transform="translate(50 0)"/>
      </g>
     </g>
    </g>
    <g id="xtick_33">
     <g id="line2d_65">
      <path d="M 195.459439 196.02842 
L 195.459439 196.02842 
" style="fill: none; stroke-dasharray: 1.85,0.8; stroke-dashoffset: 0; stroke: #b0b0b0; stroke-opacity: 0.6; stroke-width: 0.5"/>
     </g>
     <g id="line2d_66">
      <g>
       <use xlink:href="#m8e2d54af98" x="195.459439" y="196.02842" style="stroke: #000000; stroke-width: 0.8"/>
      </g>
     </g>
     <g id="text_35">
      <!-- 100 -->
      <g transform="translate(188.364824 213.871653) rotate(-60) scale(0.08 -0.08)">
       <use xlink:href="#TimesNewRomanPSMT-31"/>
       <use xlink:href="#TimesNewRomanPSMT-30" transform="translate(50 0)"/>
       <use xlink:href="#TimesNewRomanPSMT-30" transform="translate(100 0)"/>
      </g>
     </g>
    </g>
    <g id="text_36">
     <!-- MgO (wt.%) -->
     <g transform="translate(203.03114 226.953907) rotate(-60) scale(0.09 -0.09)">
      <defs>
       <path id="TimesNewRomanPSMT-4d" d="M 2619 0 
L 981 3566 
L 981 734 
Q 981 344 1066 247 
Q 1181 116 1431 116 
L 1581 116 
L 1581 0 
L 106 0 
L 106 116 
L 256 116 
Q 525 116 638 278 
Q 706 378 706 734 
L 706 3503 
Q 706 3784 644 3909 
Q 600 4000 483 4061 
Q 366 4122 106 4122 
L 106 4238 
L 1306 4238 
L 2844 922 
L 4356 4238 
L 5556 4238 
L 5556 4122 
L 5409 4122 
Q 5138 4122 5025 3959 
Q 4956 3859 4956 3503 
L 4956 734 
Q 4956 344 5044 247 
Q 5159 116 5409 116 
L 5556 116 
L 5556 0 
L 3756 0 
L 3756 116 
L 3906 116 
Q 4178 116 4288 278 
Q 4356 378 4356 734 
L 4356 3566 
L 2722 0 
L 2619 0 
z
" transform="scale(0.015625)"/>
       <path id="TimesNewRomanPSMT-67" d="M 966 1044 
Q 703 1172 562 1401 
Q 422 1631 422 1909 
Q 422 2334 742 2640 
Q 1063 2947 1563 2947 
Q 1972 2947 2272 2747 
L 2878 2747 
Q 3013 2747 3034 2739 
Q 3056 2731 3066 2713 
Q 3084 2684 3084 2613 
Q 3084 2531 3069 2500 
Q 3059 2484 3036 2475 
Q 3013 2466 2878 2466 
L 2506 2466 
Q 2681 2241 2681 1891 
Q 2681 1491 2375 1206 
Q 2069 922 1553 922 
Q 1341 922 1119 984 
Q 981 866 932 777 
Q 884 688 884 625 
Q 884 572 936 522 
Q 988 472 1138 450 
Q 1225 438 1575 428 
Q 2219 413 2409 384 
Q 2700 344 2873 169 
Q 3047 -6 3047 -263 
Q 3047 -616 2716 -925 
Q 2228 -1381 1444 -1381 
Q 841 -1381 425 -1109 
Q 191 -953 191 -784 
Q 191 -709 225 -634 
Q 278 -519 444 -313 
Q 466 -284 763 25 
Q 600 122 533 198 
Q 466 275 466 372 
Q 466 481 555 628 
Q 644 775 966 1044 
z
M 1509 2797 
Q 1278 2797 1122 2612 
Q 966 2428 966 2047 
Q 966 1553 1178 1281 
Q 1341 1075 1591 1075 
Q 1828 1075 1981 1253 
Q 2134 1431 2134 1813 
Q 2134 2309 1919 2591 
Q 1759 2797 1509 2797 
z
M 934 0 
Q 788 -159 713 -296 
Q 638 -434 638 -550 
Q 638 -700 819 -813 
Q 1131 -1006 1722 -1006 
Q 2284 -1006 2551 -807 
Q 2819 -609 2819 -384 
Q 2819 -222 2659 -153 
Q 2497 -84 2016 -72 
Q 1313 -53 934 0 
z
" transform="scale(0.015625)"/>
      </defs>
      <use xlink:href="#TimesNewRomanPSMT-4d"/>
      <use xlink:href="#TimesNewRomanPSMT-67" transform="translate(88.916016 0)"/>
      <use xlink:href="#TimesNewRomanPSMT-4f" transform="translate(138.916016 0)"/>
      <use xlink:href="#TimesNewRomanPSMT-20" transform="translate(211.132812 0)"/>
      <use xlink:href="#TimesNewRomanPSMT-28" transform="translate(236.132812 0)"/>
      <use xlink:href="#TimesNewRomanPSMT-77" transform="translate(269.433594 0)"/>
      <use xlink:href="#TimesNewRomanPSMT-74" transform="translate(341.650391 0)"/>
      <use xlink:href="#TimesNewRomanPSMT-2e" transform="translate(369.433594 0)"/>
      <use xlink:href="#TimesNewRomanPSMT-25" transform="translate(394.433594 0)"/>
      <use xlink:href="#TimesNewRomanPSMT-29" transform="translate(477.734375 0)"/>
     </g>
    </g>
   </g>
   <g id="line2d_67">
    <path d="M 108.79405 136.552333 
L 108.79305 136.551793 
L 107.796927 136.007653 
L 106.808431 135.448033 
L 105.832891 134.86597 
L 104.874918 134.253482 
L 103.939493 133.601939 
L 103.032071 132.901894 
L 102.15865 132.142956 
L 101.325801 131.313746 
L 100.540572 130.402056 
L 99.810243 129.395277 
L 99.141917 128.281105 
L 98.542066 127.04833 
L 98.016303 125.687233 
L 97.56976 124.18892 
L 97.208433 122.543011 
L 96.941568 120.733488 
L 96.784982 118.732956 
L 96.765128 116.495598 
L 96.818936 115.266526 
L 96.924652 113.947548 
L 97.092003 112.521814 
L 97.334162 110.966508 
L 97.669838 109.249227 
L 97.880964 108.31561 
L 98.126966 107.321585 
L 98.413821 106.256801 
L 98.749064 105.108207 
L 99.142082 103.859543 
L 99.604035 102.49148 
L 100.146308 100.9843 
L 100.404206 100.295121 
L 100.928762 98.931931 
L 101.460972 97.581999 
L 101.860379 96.576468 
" clip-path="url(#p612d83586f)" style="fill: none; stroke: #1f77b4; stroke-opacity: 0.95; stroke-width: 1.05; stroke-linecap: square"/>
   </g>
   <g id="line2d_68">
    <path d="M 101.860379 96.576468 
L 101.861247 96.575699 
L 102.72791 95.807327 
L 103.595072 95.03755 
L 104.461503 94.266506 
L 105.326721 93.493361 
L 106.19009 92.717012 
L 107.050762 91.935995 
L 107.907614 91.148359 
L 108.759127 90.351476 
L 109.603214 89.54173 
L 110.436914 88.713996 
L 111.255829 87.86065 
L 112.052929 86.969521 
L 112.815663 86.018869 
L 113.516794 84.961518 
L 113.682383 84.654427 
" clip-path="url(#p612d83586f)" style="fill: none; stroke: #1f77b4; stroke-opacity: 0.95; stroke-width: 1.05; stroke-linecap: square"/>
   </g>
   <g id="line2d_69">
    <path d="M 101.860379 96.576468 
L 101.861532 96.576192 
L 103.008582 96.293465 
L 104.147252 95.993954 
L 105.275146 95.675777 
L 106.390807 95.336412 
L 107.492523 94.972893 
L 108.578264 94.581705 
L 109.645605 94.158647 
L 110.691616 93.698646 
L 111.712716 93.195496 
L 112.704448 92.64148 
L 113.661161 92.026808 
L 114.575488 91.338723 
L 115.437484 90.559998 
L 116.23305 89.666211 
L 116.940702 88.620154 
L 117.523758 87.35829 
L 117.905109 85.747063 
L 117.921945 85.596603 
" clip-path="url(#p612d83586f)" style="fill: none; stroke: #1f77b4; stroke-opacity: 0.95; stroke-width: 1.05; stroke-linecap: square"/>
   </g>
   <g id="line2d_70">
    <path d="M 113.682383 84.654427 
L 113.682096 84.651659 
L 113.538799 83.268724 
L 113.395503 81.88579 
L 113.252207 80.502856 
L 113.10891 79.119922 
L 112.965614 77.736988 
L 112.874042 76.853239 
" clip-path="url(#p612d83586f)" style="fill: none; stroke: #1f77b4; stroke-opacity: 0.95; stroke-width: 1.05; stroke-linecap: square"/>
   </g>
   <g id="line2d_71">
    <path d="M 113.682383 84.654427 
L 113.683887 84.654762 
L 114.43546 84.821787 
L 115.187033 84.988812 
L 115.938606 85.155837 
L 116.690179 85.322863 
L 117.921945 85.596603 
" clip-path="url(#p612d83586f)" style="fill: none; stroke: #1f77b4; stroke-opacity: 0.95; stroke-width: 1.05; stroke-linecap: square"/>
   </g>
   <g id="line2d_72">
    <path d="M 113.682383 84.654427 
L 113.681225 84.654693 
L 112.541143 84.949489 
L 111.432385 85.30081 
L 110.969394 85.46632 
" clip-path="url(#p612d83586f)" style="fill: none; stroke: #1f77b4; stroke-opacity: 0.95; stroke-width: 1.05; stroke-linecap: square"/>
   </g>
   <g id="line2d_73">
    <path d="M 110.969394 85.46632 
L 110.966526 85.463623 
L 110.250136 84.790168 
L 109.783507 84.351506 
" clip-path="url(#p612d83586f)" style="fill: none; stroke: #1f77b4; stroke-opacity: 0.95; stroke-width: 1.05; stroke-linecap: square"/>
   </g>
   <g id="line2d_74">
    <path d="M 110.969394 85.46632 
L 110.969107 85.463551 
L 110.825811 84.080617 
L 110.682514 82.697683 
L 110.539218 81.314749 
L 110.395922 79.931815 
L 110.294021 78.948382 
" clip-path="url(#p612d83586f)" style="fill: none; stroke: #1f77b4; stroke-opacity: 0.95; stroke-width: 1.05; stroke-linecap: square"/>
   </g>
   <g id="line2d_75">
    <path d="M 110.969394 85.46632 
L 110.968501 85.467044 
L 110.076774 86.192002 
L 109.185827 86.920584 
L 108.296392 87.651783 
L 107.408259 88.385239 
L 106.521213 89.120576 
L 105.635047 89.857438 
L 104.749578 90.595508 
L 103.86465 91.334516 
L 102.980135 92.074237 
L 102.095928 92.814491 
L 101.211945 93.555135 
L 101.180209 93.581734 
" clip-path="url(#p612d83586f)" style="fill: none; stroke: #1f77b4; stroke-opacity: 0.95; stroke-width: 1.05; stroke-linecap: square"/>
   </g>
   <g id="line2d_76">
    <path d="M 101.180209 93.581734 
L 101.181005 93.58084 
L 101.976811 92.689742 
L 102.77527 91.800967 
L 103.575835 90.915839 
L 104.378789 90.034849 
L 105.184456 89.158559 
L 105.9932 88.287599 
L 106.805421 87.42266 
L 107.621547 86.564485 
L 108.442016 85.713833 
L 109.26725 84.871432 
L 109.783507 84.351506 
" clip-path="url(#p612d83586f)" style="fill: none; stroke: #1f77b4; stroke-opacity: 0.95; stroke-width: 1.05; stroke-linecap: square"/>
   </g>
   <g id="line2d_77">
    <path d="M 101.180209 93.581734 
L 101.173192 93.571851 
L 100.962288 93.230013 
" clip-path="url(#p612d83586f)" style="fill: none; stroke: #1f77b4; stroke-opacity: 0.95; stroke-width: 1.05; stroke-linecap: square"/>
   </g>
   <g id="line2d_78">
    <path d="M 100.962288 93.230013 
L 100.962943 93.228876 
L 101.619225 92.096114 
L 102.280716 90.970104 
L 102.94731 89.852932 
L 103.619626 88.745671 
L 104.298355 87.649517 
L 104.984261 86.565795 
L 105.67818 85.495952 
L 106.381007 84.441538 
L 107.093677 83.404171 
L 107.211145 83.236373 
" clip-path="url(#p612d83586f)" style="fill: none; stroke: #1f77b4; stroke-opacity: 0.95; stroke-width: 1.05; stroke-linecap: square"/>
   </g>
   <g id="line2d_79">
    <path d="M 100.962288 93.230013 
L 100.966023 93.225815 
L 101.761331 92.333853 
L 102.558883 91.443507 
L 103.358103 90.55605 
L 104.15925 89.67193 
L 104.962626 88.791672 
L 105.768583 87.915884 
L 106.577524 87.045264 
L 107.3899 86.180595 
L 108.206204 85.322727 
L 108.787993 84.718718 
" clip-path="url(#p612d83586f)" style="fill: none; stroke: #1f77b4; stroke-opacity: 0.95; stroke-width: 1.05; stroke-linecap: square"/>
   </g>
   <g id="line2d_80">
    <path d="M 107.211145 83.236373 
L 107.2118 83.235238 
L 107.866941 82.1005 
L 108.522738 80.964627 
L 109.178535 79.828754 
L 109.264009 79.680708 
" clip-path="url(#p612d83586f)" style="fill: none; stroke: #1f77b4; stroke-opacity: 0.95; stroke-width: 1.05; stroke-linecap: square"/>
   </g>
   <g id="line2d_81">
    <path d="M 107.211145 83.236373 
L 107.214013 83.23907 
L 107.930403 83.912525 
L 108.787993 84.718718 
" clip-path="url(#p612d83586f)" style="fill: none; stroke: #1f77b4; stroke-opacity: 0.95; stroke-width: 1.05; stroke-linecap: square"/>
   </g>
   <g id="line2d_82">
    <path d="M 107.211145 83.236373 
L 107.209187 83.235254 
L 106.243875 82.698022 
L 105.296403 82.19169 
L 105.125165 82.101414 
L 104.783012 81.921418 
L 104.720809 81.888704 
L 104.596374 81.823224 
L 104.347261 81.691844 
L 104.301914 81.667864 
L 104.211155 81.619789 
L 104.194642 81.61103 
L 104.161607 81.593494 
L 104.1556 81.590303 
L 104.143582 81.583918 
L 104.143384 81.583813 
L 104.142986 81.583602 
L 104.14295 81.583625 
L 104.142945 81.583633 
L 104.142936 81.583648 
L 104.142934 81.583651 
L 104.142934 81.583651 
" clip-path="url(#p612d83586f)" style="fill: none; stroke: #1f77b4; stroke-opacity: 0.95; stroke-width: 1.05; stroke-linecap: square"/>
   </g>
   <g id="line2d_83">
    <path d="M 100.962288 93.230013 
L 100.960841 93.230247 
L 100.232352 93.35729 
L 99.491365 93.505979 
L 98.736849 93.678102 
L 97.967768 93.875452 
L 97.183091 94.099815 
L 96.984365 94.160334 
L 96.884608 94.191277 
L 96.859627 94.199084 
L 96.859432 94.199145 
L 96.859383 94.199161 
L 96.859371 94.199165 
L 96.859365 94.199166 
L 96.859365 94.199166 
" clip-path="url(#p612d83586f)" style="fill: none; stroke: #1f77b4; stroke-opacity: 0.95; stroke-width: 1.05; stroke-linecap: square"/>
   </g>
   <g id="line2d_84">
    <path d="M 101.180209 93.581734 
L 101.18019 93.583972 
L 101.18125 93.792123 
L 101.204023 94.2442 
L 101.417682 95.439532 
L 101.519235 95.765474 
L 101.543243 95.834339 
L 101.555308 95.868004 
L 101.579834 95.934649 
L 101.630404 96.065311 
L 101.737159 96.31691 
L 101.860379 96.576468 
" clip-path="url(#p612d83586f)" style="fill: none; stroke: #1f77b4; stroke-opacity: 0.95; stroke-width: 1.05; stroke-linecap: square"/>
   </g>
   <g id="line2d_85">
    <path d="M 108.79405 136.552333 
L 108.792196 136.553271 
L 107.864194 137.025882 
L 106.931797 137.506103 
L 105.994688 137.994485 
L 105.052499 138.491667 
L 104.104805 138.998384 
L 103.151118 139.515482 
L 102.190877 140.043931 
L 101.223439 140.584845 
L 100.248065 141.139503 
L 99.263907 141.709378 
L 98.269985 142.296165 
L 97.265163 142.901829 
L 96.248125 143.528654 
L 95.217329 144.179307 
L 94.170962 144.85693 
L 93.641284 145.206991 
L 93.106877 145.565242 
L 92.567406 145.932264 
L 92.022504 146.308694 
L 91.471765 146.695233 
L 90.914741 147.092659 
L 90.350934 147.501833 
L 89.779791 147.923713 
L 89.200692 148.359372 
L 88.612944 148.810013 
L 88.015762 149.276994 
L 87.408255 149.761858 
L 86.789408 150.266364 
L 86.158053 150.792534 
L 85.512837 151.342712 
L 84.852181 151.919634 
L 84.174218 152.526531 
L 83.476725 153.167255 
L 82.757011 153.846468 
L 82.011771 154.569893 
L 81.236871 155.34469 
L 80.427024 156.180018 
L 79.575276 157.08792 
L 79.173575 157.526891 
L 78.377632 158.417752 
L 77.590834 159.326724 
L 76.813948 160.252864 
L 76.046925 161.196088 
L 75.847526 161.446105 
" clip-path="url(#p612d83586f)" style="fill: none; stroke: #1f77b4; stroke-opacity: 0.95; stroke-width: 1.05; stroke-linecap: square"/>
   </g>
   <g id="line2d_86">
    <path d="M 75.847526 161.446105 
L 75.846765 161.447059 
L 75.086312 162.399391 
L 74.324429 163.351517 
L 73.561842 164.302424 
L 72.798512 165.252045 
L 72.034402 166.200314 
L 71.269468 167.147156 
L 70.503664 168.092492 
L 69.736942 169.036236 
L 68.969248 169.978298 
L 68.200526 170.918579 
L 67.430714 171.856972 
L 66.659746 172.793362 
L 65.88755 173.727627 
L 65.114049 174.65963 
L 64.339159 175.589228 
L 63.562789 176.516262 
L 62.78484 177.440562 
L 62.005206 178.361942 
L 61.223768 179.280199 
L 60.440402 180.195116 
L 59.65497 181.106453 
L 58.867321 182.013953 
L 58.077295 182.917335 
L 57.284717 183.816295 
L 56.489397 184.710507 
L 55.691134 185.599622 
L 54.889714 186.483268 
L 54.084913 187.361059 
L 53.276502 188.232597 
L 52.464257 189.097493 
L 51.64797 189.955389 
L 50.827476 190.805999 
L 50.00269 191.649174 
L 49.173669 192.485014 
L 48.426364 193.229235 
" clip-path="url(#p612d83586f)" style="fill: none; stroke: #1f77b4; stroke-opacity: 0.95; stroke-width: 1.05; stroke-linecap: square"/>
   </g>
   <g id="line2d_87">
    <path d="M 75.847526 161.446105 
L 75.849284 161.446879 
L 76.727575 161.833386 
L 77.605821 162.219815 
L 78.48402 162.606163 
L 79.362172 162.992429 
L 80.240277 163.378614 
L 81.118333 163.764715 
L 81.996341 164.150731 
L 82.874299 164.536662 
L 83.752208 164.922507 
L 84.630066 165.308265 
L 85.507873 165.693934 
L 86.385629 166.079513 
L 87.263332 166.465003 
L 88.140982 166.8504 
L 89.018579 167.235706 
L 89.896122 167.620917 
L 90.773611 168.006034 
L 91.651044 168.391056 
L 92.528421 168.77598 
L 93.405742 169.160808 
L 94.283006 169.545536 
L 95.160213 169.930165 
L 96.037361 170.314693 
L 96.914451 170.69912 
L 97.791482 171.083444 
L 98.668453 171.467665 
L 99.545363 171.851781 
L 100.422213 172.235793 
L 101.299002 172.619698 
L 102.175729 173.003497 
L 103.052395 173.387188 
L 103.928998 173.770771 
L 104.805538 174.154246 
L 105.682015 174.537611 
L 106.558429 174.920867 
L 107.434779 175.304013 
L 108.311066 175.68705 
L 109.18729 176.069975 
L 110.063449 176.452791 
L 110.939546 176.835497 
L 111.815579 177.218094 
L 112.691549 177.600581 
L 113.567457 177.982961 
L 114.443303 178.365233 
L 115.319088 178.7474 
L 116.194813 179.129462 
L 117.070479 179.511423 
L 117.946087 179.893283 
L 118.821639 180.275046 
L 119.697137 180.656716 
L 120.572583 181.038296 
L 121.44798 181.41979 
L 122.32333 181.801204 
L 123.198638 182.182543 
L 124.073906 182.563815 
L 124.94914 182.945027 
L 125.824344 183.326188 
L 126.699525 183.707308 
L 127.574689 184.088399 
L 128.449844 184.469474 
L 129.324998 184.850549 
L 130.200162 185.231641 
L 131.075348 185.612769 
L 131.950568 185.993957 
L 132.825837 186.37523 
L 133.701172 186.756618 
L 134.576594 187.138156 
L 135.452125 187.519882 
L 136.327791 187.901842 
L 137.203622 188.284088 
L 138.079652 188.66668 
L 138.955923 189.049689 
L 139.832482 189.433196 
L 140.709383 189.817296 
L 141.586691 190.2021 
L 142.464482 190.58774 
L 143.342844 190.974372 
L 144.221886 191.362179 
L 145.101733 191.751382 
L 145.98254 192.142246 
L 146.864492 192.535094 
L 147.747816 192.930319 
L 148.082304 193.08051 
" clip-path="url(#p612d83586f)" style="fill: none; stroke: #1f77b4; stroke-opacity: 0.95; stroke-width: 1.05; stroke-linecap: square"/>
   </g>
   <g id="line2d_88">
    <path d="M 48.426364 193.229235 
L 48.425489 193.229992 
L 47.550094 193.983236 
L 46.670377 194.73127 
L 45.78689 195.472771 
L 45.706381 195.539849 
L 45.545277 195.673852 
L 45.222819 195.941429 
L 45.164219 195.99013 
L 45.153575 195.999001 
L 45.132311 196.016788 
L 45.128452 196.020035 
L 45.120757 196.026568 
L 45.119369 196.027774 
L 45.119118 196.027997 
L 45.119072 196.028037 
L 45.118982 196.028119 
L 45.118801 196.028284 
L 45.118769 196.028314 
L 45.118704 196.028376 
L 45.118693 196.028388 
L 45.11867 196.028412 
L 45.118666 196.028417 
L 45.118666 196.028417 
" clip-path="url(#p612d83586f)" style="fill: none; stroke: #1f77b4; stroke-opacity: 0.95; stroke-width: 1.05; stroke-linecap: square"/>
   </g>
   <g id="line2d_89">
    <path d="M 48.426364 193.229235 
L 48.427675 193.229233 
L 49.736828 193.227279 
L 51.047293 193.225323 
L 52.357757 193.223368 
L 53.668222 193.221412 
L 54.978686 193.219456 
L 56.28915 193.217501 
L 57.599615 193.215545 
L 58.910079 193.213589 
L 60.220544 193.211633 
L 61.531008 193.209678 
L 62.841472 193.207722 
L 64.151937 193.205766 
L 65.462401 193.203811 
L 66.772865 193.201855 
L 68.08333 193.199899 
L 69.393794 193.197943 
L 70.704259 193.195988 
L 72.014723 193.194032 
L 73.325187 193.192076 
L 74.635652 193.190121 
L 75.946116 193.188165 
L 77.25658 193.186209 
L 78.567045 193.184253 
L 79.877509 193.182298 
L 81.187974 193.180342 
L 82.498438 193.178386 
L 83.808902 193.176431 
L 85.119367 193.174475 
L 86.429831 193.172519 
L 87.740296 193.170563 
L 89.05076 193.168608 
L 90.361224 193.166652 
L 91.671689 193.164696 
L 92.982153 193.162741 
L 94.292617 193.160785 
L 95.603082 193.158829 
L 96.913546 193.156873 
L 98.224011 193.154918 
L 99.534475 193.152962 
L 100.844939 193.151006 
L 102.155404 193.149051 
L 103.465868 193.147095 
L 104.776332 193.145139 
L 106.086797 193.143183 
L 107.397261 193.141228 
L 108.707726 193.139272 
L 110.01819 193.137316 
L 111.328654 193.135361 
L 112.639119 193.133405 
L 113.949583 193.131449 
L 115.260048 193.129493 
L 116.570512 193.127538 
L 117.880976 193.125582 
L 119.191441 193.123626 
L 120.501905 193.121671 
L 121.812369 193.119715 
L 123.122834 193.117759 
L 124.433298 193.115803 
L 125.743763 193.113848 
L 127.054227 193.111892 
L 128.364691 193.109936 
L 129.675156 193.107981 
L 130.98562 193.106025 
L 132.296084 193.104069 
L 133.606549 193.102113 
L 134.917013 193.100158 
L 136.227478 193.098202 
L 137.537942 193.096246 
L 138.848406 193.094291 
L 140.158871 193.092335 
L 141.469335 193.090379 
L 142.7798 193.088423 
L 144.090264 193.086468 
L 145.400728 193.084512 
L 146.711193 193.082556 
L 148.021657 193.080601 
L 148.082304 193.08051 
" clip-path="url(#p612d83586f)" style="fill: none; stroke: #1f77b4; stroke-opacity: 0.95; stroke-width: 1.05; stroke-linecap: square"/>
   </g>
   <g id="line2d_90">
    <path d="M 48.426364 193.229235 
L 48.423814 193.227089 
L 47.815336 192.740544 
L 47.254641 192.33676 
L 46.233235 191.70237 
L 45.295281 191.212525 
L 44.400412 190.797302 
L 43.518652 190.404787 
L 43.357546 190.332059 
L 43.03304 190.182629 
L 42.368477 189.856837 
L 42.244353 189.791895 
L 41.991891 189.654714 
L 41.968625 189.641697 
L 41.921918 189.615362 
L 41.827773 189.561424 
L 41.810546 189.551426 
L 41.81026 189.551261 
L 41.80969 189.550929 
L 41.80855 189.550266 
L 41.808399 189.550233 
L 41.80839 189.55025 
L 41.808365 189.550293 
L 41.808365 189.550293 
" clip-path="url(#p612d83586f)" style="fill: none; stroke: #1f77b4; stroke-opacity: 0.95; stroke-width: 1.05; stroke-linecap: square"/>
   </g>
   <g id="line2d_91">
    <path d="M 75.847526 161.446105 
L 75.845763 161.445324 
L 74.965304 161.055061 
L 74.084465 160.664141 
L 73.202911 160.271981 
L 72.320242 159.877892 
L 71.435986 159.481053 
L 70.549582 159.080493 
L 69.660365 158.675061 
L 68.767544 158.263387 
L 67.870168 157.843824 
L 66.967085 157.414376 
L 66.056877 156.972587 
L 65.137771 156.515387 
L 64.207502 156.038851 
L 63.263096 155.537829 
L 63.089574 155.443595 
L 62.740622 155.251825 
L 62.034145 154.853434 
L 61.904317 154.778615 
L 61.902168 154.777371 
L 61.897868 154.774884 
L 61.889266 154.769907 
L 61.889124 154.769824 
L 61.889098 154.769809 
L 61.889047 154.769779 
L 61.888943 154.769719 
L 61.888935 154.769724 
L 61.888924 154.769745 
L 61.888922 154.769747 
L 61.888919 154.769753 
L 61.888911 154.769767 
L 61.888911 154.769767 
" clip-path="url(#p612d83586f)" style="fill: none; stroke: #1f77b4; stroke-opacity: 0.95; stroke-width: 1.05; stroke-linecap: square"/>
   </g>
   <g id="line2d_92">
    <path d="M 108.79405 136.552333 
L 108.796034 136.551167 
L 109.786828 135.969799 
L 110.776668 135.390084 
L 111.765367 134.812345 
L 112.752706 134.23696 
L 113.738437 133.664361 
L 114.722273 133.095045 
L 115.703888 132.529576 
L 116.682911 131.968596 
L 117.658927 131.412824 
L 118.631474 130.86306 
L 119.600047 130.320179 
L 120.564098 129.785132 
L 121.523045 129.258924 
L 122.476285 128.742601 
L 123.423208 128.237221 
L 124.363214 127.743819 
L 125.29574 127.263374 
L 126.220279 126.796765 
L 127.1364 126.344733 
L 128.043773 125.907855 
L 128.942173 125.486518 
L 129.83149 125.080913 
L 130.711725 124.691038 
L 131.582979 124.31672 
L 132.445438 123.957634 
L 133.299356 123.613342 
L 134.145033 123.283324 
L 134.982797 122.967011 
L 135.812988 122.663816 
L 136.635941 122.373157 
L 137.451978 122.094477 
L 138.261397 121.82726 
L 139.064468 121.571037 
L 139.861433 121.325392 
L 140.652498 121.089964 
L 141.437842 120.864446 
L 142.21761 120.648584 
L 142.991924 120.44217 
L 143.760879 120.245039 
L 144.52455 120.057061 
L 145.282991 119.878139 
L 146.036245 119.708202 
L 146.784342 119.547198 
L 147.527301 119.395093 
L 148.265137 119.25186 
L 148.997861 119.117483 
L 149.72548 118.991947 
L 150.448001 118.875241 
L 150.877206 118.809728 
" clip-path="url(#p612d83586f)" style="fill: none; stroke: #1f77b4; stroke-opacity: 0.95; stroke-width: 1.05; stroke-linecap: square"/>
   </g>
   <g id="line2d_93">
    <path d="M 108.79405 136.552333 
L 108.794969 136.553013 
L 109.712985 137.232438 
L 110.632261 137.911951 
L 111.551895 138.590845 
L 112.471905 139.269088 
L 113.392309 139.946647 
L 114.313129 140.623486 
L 115.234386 141.29957 
L 116.156101 141.974859 
L 117.0783 142.64931 
L 118.001009 143.322879 
L 118.924254 143.995518 
L 119.848065 144.667177 
L 120.772473 145.337801 
L 121.697512 146.007334 
L 122.623217 146.675712 
L 123.549627 147.34287 
L 124.476782 148.008737 
L 125.404725 148.673238 
L 126.333504 149.336292 
L 127.263169 149.997812 
L 128.193773 150.657705 
L 129.125374 151.315871 
L 130.058034 151.972203 
L 130.99182 152.626585 
L 131.926803 153.278894 
L 132.863059 153.928997 
L 133.800673 154.576749 
L 134.739732 155.221997 
L 135.680334 155.864574 
L 136.622581 156.5043 
L 137.566586 157.140983 
L 138.512468 157.774414 
L 139.460357 158.404369 
L 140.410393 159.030605 
L 141.362726 159.652862 
L 142.317519 160.270858 
L 143.274947 160.884291 
L 144.235197 161.492836 
L 145.198472 162.096141 
L 146.164988 162.693833 
L 147.134978 163.285508 
L 148.10869 163.870735 
L 149.08639 164.449057 
L 150.068358 165.019984 
L 151.054894 165.583 
L 152.046312 166.13756 
L 153.042943 166.683091 
L 154.045131 167.218997 
L 155.053233 167.744661 
L 156.067612 168.259451 
L 157.08864 168.762725 
L 158.116689 169.25384 
L 159.152121 169.732164 
L 160.195292 170.197087 
L 161.246531 170.648033 
L 162.306142 171.084481 
L 163.374385 171.505975 
L 164.451473 171.912151 
L 165.537556 172.302746 
L 166.632715 172.677623 
L 167.736949 173.03678 
L 168.850172 173.380367 
L 169.972206 173.708693 
L 171.10278 174.02223 
L 172.241527 174.321608 
L 173.387995 174.607613 
L 174.541652 174.881167 
L 175.701895 175.143314 
L 176.868065 175.395195 
L 178.039463 175.638021 
L 179.215363 175.873049 
L 180.39503 176.101552 
L 181.577734 176.324795 
L 182.762763 176.544011 
L 183.949434 176.760384 
L 184.380057 176.838369 
" clip-path="url(#p612d83586f)" style="fill: none; stroke: #1f77b4; stroke-opacity: 0.95; stroke-width: 1.05; stroke-linecap: square"/>
   </g>
   <g id="line2d_94">
    <path d="M 131.095364 152.698972 
L 131.097563 152.700509 
L 131.646235 153.083467 
L 132.193899 153.46468 
L 132.740526 153.844097 
L 133.286085 154.221665 
L 133.830547 154.597332 
L 134.373879 154.971042 
L 134.91605 155.34274 
L 135.457026 155.71237 
L 135.996774 156.079872 
L 136.53526 156.445188 
L 137.072449 156.808258 
L 137.608305 157.169019 
L 138.142792 157.527408 
L 138.675873 157.883364 
L 139.207512 158.23682 
L 139.737669 158.587712 
L 140.266309 158.935973 
L 140.793391 159.281537 
L 141.318876 159.624336 
L 142.364901 160.301367 
L 143.404068 160.966519 
L 144.436059 161.619242 
L 145.460559 162.258991 
L 146.477257 162.885226 
L 147.485851 163.497424 
L 148.486049 164.095081 
L 149.477575 164.677718 
L 150.460175 165.244894 
L 151.433615 165.796203 
L 152.39769 166.331292 
L 153.352224 166.849857 
L 154.297078 167.351655 
L 155.232149 167.836507 
L 156.15737 168.304301 
L 157.07272 168.754994 
L 157.978214 169.188619 
L 158.873913 169.605278 
L 159.759916 170.005142 
L 160.636362 170.388455 
L 161.50343 170.755523 
L 162.36133 171.106712 
L 163.210306 171.442445 
L 164.050631 171.763192 
L 164.8826 172.069467 
L 165.706532 172.361821 
L 166.522761 172.640834 
L 167.331636 172.907109 
L 168.133515 173.161268 
L 168.928764 173.403942 
L 169.717751 173.63577 
L 170.500847 173.857394 
L 171.278419 174.069451 
L 172.050832 174.272572 
L 172.818445 174.467379 
L 173.58161 174.654483 
L 174.34067 174.834477 
L 175.095961 175.007941 
L 175.847805 175.175435 
L 176.596515 175.337502 
L 177.342394 175.494664 
L 178.08573 175.647424 
L 178.826803 175.796261 
L 179.565877 175.941638 
L 180.303207 176.083993 
L 181.039034 176.223747 
L 181.773591 176.361298 
L 182.507094 176.497025 
L 183.239753 176.63129 
L 183.971764 176.764434 
L 184.337586 176.830687 
L 184.360446 176.834822 
L 184.371876 176.836889 
L 184.377592 176.837923 
L 184.37902 176.838181 
L 184.379735 176.83831 
L 184.379913 176.838343 
L 184.380003 176.838359 
L 184.380007 176.838359 
L 184.380007 176.838359 
" clip-path="url(#p612d83586f)" style="fill: none; stroke: #1f77b4; stroke-opacity: 0.95; stroke-width: 1.05; stroke-linecap: square"/>
   </g>
   <g id="patch_3">
    <path d="M 195.459439 196.02842 
L 38.068216 196.02842 
" style="fill: none; stroke: #000000; stroke-width: 0.8; stroke-linejoin: miter; stroke-linecap: square"/>
   </g>
   <g id="patch_4">
    <path d="M 116.763827 59.723623 
L 116.763827 59.723623 
" style="fill: none; stroke: #000000; stroke-width: 0.8; stroke-linejoin: miter; stroke-linecap: square"/>
   </g>
   <g id="patch_5">
    <path d="M 116.763827 59.723623 
L 195.459439 196.02842 
" style="fill: none; stroke: #000000; stroke-width: 0.8; stroke-linejoin: miter; stroke-linecap: square"/>
   </g>
   <g id="patch_6">
    <path d="M 38.068216 196.02842 
L 38.068216 196.02842 
" style="fill: none; stroke: #000000; stroke-width: 0.8; stroke-linejoin: miter; stroke-linecap: square"/>
   </g>
   <g id="patch_7">
    <path d="M 38.068216 196.02842 
L 116.763827 59.723623 
" style="fill: none; stroke: #000000; stroke-width: 0.8; stroke-linejoin: miter; stroke-linecap: square"/>
   </g>
   <g id="patch_8">
    <path d="M 195.459439 196.02842 
L 195.459439 196.02842 
" style="fill: none; stroke: #000000; stroke-width: 0.8; stroke-linejoin: miter; stroke-linecap: square"/>
   </g>
   <g id="text_37">
    <!-- CAMA_5CAF2_10SIO2 phase diagram from EXP -->
    <g transform="translate(14.54664 14.14375) scale(0.1 -0.1)">
     <defs>
      <path id="TimesNewRomanPSMT-5f" d="M 3256 -1381 
L -53 -1381 
L -53 -1119 
L 3256 -1119 
L 3256 -1381 
z
" transform="scale(0.015625)"/>
      <path id="TimesNewRomanPSMT-46" d="M 1309 4006 
L 1309 2341 
L 2081 2341 
Q 2347 2341 2470 2458 
Q 2594 2575 2634 2922 
L 2750 2922 
L 2750 1488 
L 2634 1488 
Q 2631 1734 2570 1850 
Q 2509 1966 2401 2023 
Q 2294 2081 2081 2081 
L 1309 2081 
L 1309 750 
Q 1309 428 1350 325 
Q 1381 247 1481 191 
Q 1619 116 1769 116 
L 1922 116 
L 1922 0 
L 103 0 
L 103 116 
L 253 116 
Q 516 116 634 269 
Q 709 369 709 750 
L 709 3488 
Q 709 3809 669 3913 
Q 638 3991 541 4047 
Q 406 4122 253 4122 
L 103 4122 
L 103 4238 
L 3256 4238 
L 3297 3306 
L 3188 3306 
Q 3106 3603 2998 3742 
Q 2891 3881 2733 3943 
Q 2575 4006 2244 4006 
L 1309 4006 
z
" transform="scale(0.015625)"/>
      <path id="TimesNewRomanPSMT-53" d="M 2934 4334 
L 2934 2869 
L 2819 2869 
Q 2763 3291 2617 3541 
Q 2472 3791 2203 3937 
Q 1934 4084 1647 4084 
Q 1322 4084 1109 3886 
Q 897 3688 897 3434 
Q 897 3241 1031 3081 
Q 1225 2847 1953 2456 
Q 2547 2138 2764 1967 
Q 2981 1797 3098 1565 
Q 3216 1334 3216 1081 
Q 3216 600 2842 251 
Q 2469 -97 1881 -97 
Q 1697 -97 1534 -69 
Q 1438 -53 1133 45 
Q 828 144 747 144 
Q 669 144 623 97 
Q 578 50 556 -97 
L 441 -97 
L 441 1356 
L 556 1356 
Q 638 900 775 673 
Q 913 447 1195 297 
Q 1478 147 1816 147 
Q 2206 147 2432 353 
Q 2659 559 2659 841 
Q 2659 997 2573 1156 
Q 2488 1316 2306 1453 
Q 2184 1547 1640 1851 
Q 1097 2156 867 2337 
Q 638 2519 519 2737 
Q 400 2956 400 3219 
Q 400 3675 750 4004 
Q 1100 4334 1641 4334 
Q 1978 4334 2356 4169 
Q 2531 4091 2603 4091 
Q 2684 4091 2736 4139 
Q 2788 4188 2819 4334 
L 2934 4334 
z
" transform="scale(0.015625)"/>
      <path id="TimesNewRomanPSMT-49" d="M 1975 116 
L 1975 0 
L 159 0 
L 159 116 
L 309 116 
Q 572 116 691 269 
Q 766 369 766 750 
L 766 3488 
Q 766 3809 725 3913 
Q 694 3991 597 4047 
Q 459 4122 309 4122 
L 159 4122 
L 159 4238 
L 1975 4238 
L 1975 4122 
L 1822 4122 
Q 1563 4122 1444 3969 
Q 1366 3869 1366 3488 
L 1366 750 
Q 1366 428 1406 325 
Q 1438 247 1538 191 
Q 1672 116 1822 116 
L 1975 116 
z
" transform="scale(0.015625)"/>
      <path id="TimesNewRomanPSMT-70" d="M -6 2578 
L 875 2934 
L 994 2934 
L 994 2266 
Q 1216 2644 1439 2795 
Q 1663 2947 1909 2947 
Q 2341 2947 2628 2609 
Q 2981 2197 2981 1534 
Q 2981 794 2556 309 
Q 2206 -88 1675 -88 
Q 1444 -88 1275 -22 
Q 1150 25 994 166 
L 994 -706 
Q 994 -1000 1030 -1079 
Q 1066 -1159 1155 -1206 
Q 1244 -1253 1478 -1253 
L 1478 -1369 
L -22 -1369 
L -22 -1253 
L 56 -1253 
Q 228 -1256 350 -1188 
Q 409 -1153 442 -1076 
Q 475 -1000 475 -688 
L 475 2019 
Q 475 2297 450 2372 
Q 425 2447 370 2484 
Q 316 2522 222 2522 
Q 147 2522 31 2478 
L -6 2578 
z
M 994 2081 
L 994 1013 
Q 994 666 1022 556 
Q 1066 375 1236 237 
Q 1406 100 1666 100 
Q 1978 100 2172 344 
Q 2425 663 2425 1241 
Q 2425 1897 2138 2250 
Q 1938 2494 1663 2494 
Q 1513 2494 1366 2419 
Q 1253 2363 994 2081 
z
" transform="scale(0.015625)"/>
      <path id="TimesNewRomanPSMT-68" d="M 1041 4444 
L 1041 2350 
Q 1388 2731 1591 2839 
Q 1794 2947 1997 2947 
Q 2241 2947 2416 2812 
Q 2591 2678 2675 2391 
Q 2734 2191 2734 1659 
L 2734 647 
Q 2734 375 2778 275 
Q 2809 200 2884 156 
Q 2959 113 3159 113 
L 3159 0 
L 1753 0 
L 1753 113 
L 1819 113 
Q 2019 113 2097 173 
Q 2175 234 2206 353 
Q 2216 403 2216 647 
L 2216 1659 
Q 2216 2128 2167 2275 
Q 2119 2422 2012 2495 
Q 1906 2569 1756 2569 
Q 1603 2569 1437 2487 
Q 1272 2406 1041 2159 
L 1041 647 
Q 1041 353 1073 281 
Q 1106 209 1195 161 
Q 1284 113 1503 113 
L 1503 0 
L 84 0 
L 84 113 
Q 275 113 384 172 
Q 447 203 484 290 
Q 522 378 522 647 
L 522 3238 
Q 522 3728 498 3840 
Q 475 3953 426 3993 
Q 378 4034 297 4034 
Q 231 4034 84 3984 
L 41 4094 
L 897 4444 
L 1041 4444 
z
" transform="scale(0.015625)"/>
      <path id="TimesNewRomanPSMT-73" d="M 2050 2947 
L 2050 1972 
L 1947 1972 
Q 1828 2431 1642 2597 
Q 1456 2763 1169 2763 
Q 950 2763 815 2647 
Q 681 2531 681 2391 
Q 681 2216 781 2091 
Q 878 1963 1175 1819 
L 1631 1597 
Q 2266 1288 2266 781 
Q 2266 391 1970 151 
Q 1675 -88 1309 -88 
Q 1047 -88 709 6 
Q 606 38 541 38 
Q 469 38 428 -44 
L 325 -44 
L 325 978 
L 428 978 
Q 516 541 762 319 
Q 1009 97 1316 97 
Q 1531 97 1667 223 
Q 1803 350 1803 528 
Q 1803 744 1651 891 
Q 1500 1038 1047 1263 
Q 594 1488 453 1669 
Q 313 1847 313 2119 
Q 313 2472 555 2709 
Q 797 2947 1181 2947 
Q 1350 2947 1591 2875 
Q 1750 2828 1803 2828 
Q 1853 2828 1881 2850 
Q 1909 2872 1947 2947 
L 2050 2947 
z
" transform="scale(0.015625)"/>
      <path id="TimesNewRomanPSMT-65" d="M 681 1784 
Q 678 1147 991 784 
Q 1303 422 1725 422 
Q 2006 422 2214 576 
Q 2422 731 2563 1106 
L 2659 1044 
Q 2594 616 2278 264 
Q 1963 -88 1488 -88 
Q 972 -88 605 314 
Q 238 716 238 1394 
Q 238 2128 614 2539 
Q 991 2950 1559 2950 
Q 2041 2950 2350 2633 
Q 2659 2316 2659 1784 
L 681 1784 
z
M 681 1966 
L 2006 1966 
Q 1991 2241 1941 2353 
Q 1863 2528 1708 2628 
Q 1553 2728 1384 2728 
Q 1125 2728 920 2526 
Q 716 2325 681 1966 
z
" transform="scale(0.015625)"/>
      <path id="TimesNewRomanPSMT-64" d="M 2222 322 
Q 2013 103 1813 7 
Q 1613 -88 1381 -88 
Q 913 -88 563 304 
Q 213 697 213 1313 
Q 213 1928 600 2439 
Q 988 2950 1597 2950 
Q 1975 2950 2222 2709 
L 2222 3238 
Q 2222 3728 2198 3840 
Q 2175 3953 2125 3993 
Q 2075 4034 2000 4034 
Q 1919 4034 1784 3984 
L 1744 4094 
L 2597 4444 
L 2738 4444 
L 2738 1134 
Q 2738 631 2761 520 
Q 2784 409 2836 365 
Q 2888 322 2956 322 
Q 3041 322 3181 375 
L 3216 266 
L 2366 -88 
L 2222 -88 
L 2222 322 
z
M 2222 541 
L 2222 2016 
Q 2203 2228 2109 2403 
Q 2016 2578 1861 2667 
Q 1706 2756 1559 2756 
Q 1284 2756 1069 2509 
Q 784 2184 784 1559 
Q 784 928 1059 592 
Q 1334 256 1672 256 
Q 1956 256 2222 541 
z
" transform="scale(0.015625)"/>
      <path id="TimesNewRomanPSMT-69" d="M 928 4444 
Q 1059 4444 1151 4351 
Q 1244 4259 1244 4128 
Q 1244 3997 1151 3903 
Q 1059 3809 928 3809 
Q 797 3809 703 3903 
Q 609 3997 609 4128 
Q 609 4259 701 4351 
Q 794 4444 928 4444 
z
M 1188 2947 
L 1188 647 
Q 1188 378 1227 289 
Q 1266 200 1342 156 
Q 1419 113 1622 113 
L 1622 0 
L 231 0 
L 231 113 
Q 441 113 512 153 
Q 584 194 626 287 
Q 669 381 669 647 
L 669 1750 
Q 669 2216 641 2353 
Q 619 2453 572 2492 
Q 525 2531 444 2531 
Q 356 2531 231 2484 
L 188 2597 
L 1050 2947 
L 1188 2947 
z
" transform="scale(0.015625)"/>
      <path id="TimesNewRomanPSMT-72" d="M 1038 2947 
L 1038 2303 
Q 1397 2947 1775 2947 
Q 1947 2947 2059 2842 
Q 2172 2738 2172 2600 
Q 2172 2478 2090 2393 
Q 2009 2309 1897 2309 
Q 1788 2309 1652 2417 
Q 1516 2525 1450 2525 
Q 1394 2525 1328 2463 
Q 1188 2334 1038 2041 
L 1038 669 
Q 1038 431 1097 309 
Q 1138 225 1241 169 
Q 1344 113 1538 113 
L 1538 0 
L 72 0 
L 72 113 
Q 291 113 397 181 
Q 475 231 506 341 
Q 522 394 522 644 
L 522 1753 
Q 522 2253 501 2348 
Q 481 2444 426 2487 
Q 372 2531 291 2531 
Q 194 2531 72 2484 
L 41 2597 
L 906 2947 
L 1038 2947 
z
" transform="scale(0.015625)"/>
      <path id="TimesNewRomanPSMT-6d" d="M 1050 2338 
Q 1363 2650 1419 2697 
Q 1559 2816 1721 2881 
Q 1884 2947 2044 2947 
Q 2313 2947 2506 2790 
Q 2700 2634 2766 2338 
Q 3088 2713 3309 2830 
Q 3531 2947 3766 2947 
Q 3994 2947 4170 2830 
Q 4347 2713 4450 2447 
Q 4519 2266 4519 1878 
L 4519 647 
Q 4519 378 4559 278 
Q 4591 209 4675 161 
Q 4759 113 4950 113 
L 4950 0 
L 3538 0 
L 3538 113 
L 3597 113 
Q 3781 113 3884 184 
Q 3956 234 3988 344 
Q 4000 397 4000 647 
L 4000 1878 
Q 4000 2228 3916 2372 
Q 3794 2572 3525 2572 
Q 3359 2572 3192 2489 
Q 3025 2406 2788 2181 
L 2781 2147 
L 2788 2013 
L 2788 647 
Q 2788 353 2820 281 
Q 2853 209 2943 161 
Q 3034 113 3253 113 
L 3253 0 
L 1806 0 
L 1806 113 
Q 2044 113 2133 169 
Q 2222 225 2256 338 
Q 2272 391 2272 647 
L 2272 1878 
Q 2272 2228 2169 2381 
Q 2031 2581 1784 2581 
Q 1616 2581 1450 2491 
Q 1191 2353 1050 2181 
L 1050 647 
Q 1050 366 1089 281 
Q 1128 197 1204 155 
Q 1281 113 1516 113 
L 1516 0 
L 100 0 
L 100 113 
Q 297 113 375 155 
Q 453 197 493 289 
Q 534 381 534 647 
L 534 1741 
Q 534 2213 506 2350 
Q 484 2453 437 2492 
Q 391 2531 309 2531 
Q 222 2531 100 2484 
L 53 2597 
L 916 2947 
L 1050 2947 
L 1050 2338 
z
" transform="scale(0.015625)"/>
      <path id="TimesNewRomanPSMT-66" d="M 1319 2638 
L 1319 756 
Q 1319 356 1406 250 
Q 1522 113 1716 113 
L 1975 113 
L 1975 0 
L 266 0 
L 266 113 
L 394 113 
Q 519 113 622 175 
Q 725 238 764 344 
Q 803 450 803 756 
L 803 2638 
L 247 2638 
L 247 2863 
L 803 2863 
L 803 3050 
Q 803 3478 940 3775 
Q 1078 4072 1361 4255 
Q 1644 4438 1997 4438 
Q 2325 4438 2600 4225 
Q 2781 4084 2781 3909 
Q 2781 3816 2700 3733 
Q 2619 3650 2525 3650 
Q 2453 3650 2373 3701 
Q 2294 3753 2178 3923 
Q 2063 4094 1966 4153 
Q 1869 4213 1750 4213 
Q 1606 4213 1506 4136 
Q 1406 4059 1362 3898 
Q 1319 3738 1319 3069 
L 1319 2863 
L 2056 2863 
L 2056 2638 
L 1319 2638 
z
" transform="scale(0.015625)"/>
      <path id="TimesNewRomanPSMT-6f" d="M 1600 2947 
Q 2250 2947 2644 2453 
Q 2978 2031 2978 1484 
Q 2978 1100 2793 706 
Q 2609 313 2286 112 
Q 1963 -88 1566 -88 
Q 919 -88 538 428 
Q 216 863 216 1403 
Q 216 1797 411 2186 
Q 606 2575 925 2761 
Q 1244 2947 1600 2947 
z
M 1503 2744 
Q 1338 2744 1170 2645 
Q 1003 2547 900 2300 
Q 797 2053 797 1666 
Q 797 1041 1045 587 
Q 1294 134 1700 134 
Q 2003 134 2200 384 
Q 2397 634 2397 1244 
Q 2397 2006 2069 2444 
Q 1847 2744 1503 2744 
z
" transform="scale(0.015625)"/>
      <path id="TimesNewRomanPSMT-45" d="M 1338 4006 
L 1338 2331 
L 2269 2331 
Q 2631 2331 2753 2441 
Q 2916 2584 2934 2947 
L 3050 2947 
L 3050 1472 
L 2934 1472 
Q 2891 1781 2847 1869 
Q 2791 1978 2662 2040 
Q 2534 2103 2269 2103 
L 1338 2103 
L 1338 706 
Q 1338 425 1363 364 
Q 1388 303 1450 267 
Q 1513 231 1688 231 
L 2406 231 
Q 2766 231 2928 281 
Q 3091 331 3241 478 
Q 3434 672 3638 1063 
L 3763 1063 
L 3397 0 
L 131 0 
L 131 116 
L 281 116 
Q 431 116 566 188 
Q 666 238 702 338 
Q 738 438 738 747 
L 738 3500 
Q 738 3903 656 3997 
Q 544 4122 281 4122 
L 131 4122 
L 131 4238 
L 3397 4238 
L 3444 3309 
L 3322 3309 
Q 3256 3644 3176 3769 
Q 3097 3894 2941 3959 
Q 2816 4006 2500 4006 
L 1338 4006 
z
" transform="scale(0.015625)"/>
      <path id="TimesNewRomanPSMT-58" d="M 2613 2347 
L 3522 991 
Q 3900 428 4083 279 
Q 4266 131 4547 116 
L 4547 0 
L 2728 0 
L 2728 116 
Q 2909 119 2997 153 
Q 3063 181 3105 239 
Q 3147 297 3147 356 
Q 3147 428 3119 500 
Q 3097 553 2947 775 
L 2228 1863 
L 1341 725 
Q 1200 544 1172 483 
Q 1144 422 1144 356 
Q 1144 256 1228 190 
Q 1313 125 1550 116 
L 1550 0 
L 47 0 
L 47 116 
Q 206 131 322 181 
Q 516 263 691 400 
Q 866 538 1091 822 
L 2091 2084 
L 1256 3306 
Q 916 3803 678 3958 
Q 441 4113 131 4122 
L 131 4238 
L 2091 4238 
L 2091 4122 
Q 1841 4113 1748 4041 
Q 1656 3969 1656 3881 
Q 1656 3766 1806 3544 
L 2456 2572 
L 3209 3525 
Q 3341 3694 3370 3756 
Q 3400 3819 3400 3884 
Q 3400 3950 3363 4000 
Q 3316 4066 3244 4092 
Q 3172 4119 2947 4122 
L 2947 4238 
L 4450 4238 
L 4450 4122 
Q 4272 4113 4159 4066 
Q 3991 3994 3850 3872 
Q 3709 3750 3453 3422 
L 2613 2347 
z
" transform="scale(0.015625)"/>
      <path id="TimesNewRomanPSMT-50" d="M 1313 1984 
L 1313 750 
Q 1313 350 1400 253 
Q 1519 116 1759 116 
L 1922 116 
L 1922 0 
L 106 0 
L 106 116 
L 266 116 
Q 534 116 650 291 
Q 713 388 713 750 
L 713 3488 
Q 713 3888 628 3984 
Q 506 4122 266 4122 
L 106 4122 
L 106 4238 
L 1659 4238 
Q 2228 4238 2556 4120 
Q 2884 4003 3109 3725 
Q 3334 3447 3334 3066 
Q 3334 2547 2992 2222 
Q 2650 1897 2025 1897 
Q 1872 1897 1694 1919 
Q 1516 1941 1313 1984 
z
M 1313 2163 
Q 1478 2131 1606 2115 
Q 1734 2100 1825 2100 
Q 2150 2100 2386 2351 
Q 2622 2603 2622 3003 
Q 2622 3278 2509 3514 
Q 2397 3750 2190 3867 
Q 1984 3984 1722 3984 
Q 1563 3984 1313 3925 
L 1313 2163 
z
" transform="scale(0.015625)"/>
     </defs>
     <use xlink:href="#TimesNewRomanPSMT-43"/>
     <use xlink:href="#TimesNewRomanPSMT-41" transform="translate(66.699219 0)"/>
     <use xlink:href="#TimesNewRomanPSMT-4d" transform="translate(138.916016 0)"/>
     <use xlink:href="#TimesNewRomanPSMT-41" transform="translate(227.832031 0)"/>
     <use xlink:href="#TimesNewRomanPSMT-5f" transform="translate(300.048828 0)"/>
     <use xlink:href="#TimesNewRomanPSMT-35" transform="translate(350.048828 0)"/>
     <use xlink:href="#TimesNewRomanPSMT-43" transform="translate(400.048828 0)"/>
     <use xlink:href="#TimesNewRomanPSMT-41" transform="translate(466.748047 0)"/>
     <use xlink:href="#TimesNewRomanPSMT-46" transform="translate(538.964844 0)"/>
     <use xlink:href="#TimesNewRomanPSMT-32" transform="translate(594.580078 0)"/>
     <use xlink:href="#TimesNewRomanPSMT-5f" transform="translate(644.580078 0)"/>
     <use xlink:href="#TimesNewRomanPSMT-31" transform="translate(694.580078 0)"/>
     <use xlink:href="#TimesNewRomanPSMT-30" transform="translate(744.580078 0)"/>
     <use xlink:href="#TimesNewRomanPSMT-53" transform="translate(794.580078 0)"/>
     <use xlink:href="#TimesNewRomanPSMT-49" transform="translate(850.195312 0)"/>
     <use xlink:href="#TimesNewRomanPSMT-4f" transform="translate(883.496094 0)"/>
     <use xlink:href="#TimesNewRomanPSMT-32" transform="translate(955.712891 0)"/>
     <use xlink:href="#TimesNewRomanPSMT-20" transform="translate(1005.712891 0)"/>
     <use xlink:href="#TimesNewRomanPSMT-70" transform="translate(1030.712891 0)"/>
     <use xlink:href="#TimesNewRomanPSMT-68" transform="translate(1080.712891 0)"/>
     <use xlink:href="#TimesNewRomanPSMT-61" transform="translate(1130.712891 0)"/>
     <use xlink:href="#TimesNewRomanPSMT-73" transform="translate(1175.097656 0)"/>
     <use xlink:href="#TimesNewRomanPSMT-65" transform="translate(1214.013672 0)"/>
     <use xlink:href="#TimesNewRomanPSMT-20" transform="translate(1258.398438 0)"/>
     <use xlink:href="#TimesNewRomanPSMT-64" transform="translate(1283.398438 0)"/>
     <use xlink:href="#TimesNewRomanPSMT-69" transform="translate(1333.398438 0)"/>
     <use xlink:href="#TimesNewRomanPSMT-61" transform="translate(1361.181641 0)"/>
     <use xlink:href="#TimesNewRomanPSMT-67" transform="translate(1405.566406 0)"/>
     <use xlink:href="#TimesNewRomanPSMT-72" transform="translate(1455.566406 0)"/>
     <use xlink:href="#TimesNewRomanPSMT-61" transform="translate(1488.867188 0)"/>
     <use xlink:href="#TimesNewRomanPSMT-6d" transform="translate(1533.251953 0)"/>
     <use xlink:href="#TimesNewRomanPSMT-20" transform="translate(1611.035156 0)"/>
     <use xlink:href="#TimesNewRomanPSMT-66" transform="translate(1636.035156 0)"/>
     <use xlink:href="#TimesNewRomanPSMT-72" transform="translate(1669.335938 0)"/>
     <use xlink:href="#TimesNewRomanPSMT-6f" transform="translate(1702.636719 0)"/>
     <use xlink:href="#TimesNewRomanPSMT-6d" transform="translate(1752.636719 0)"/>
     <use xlink:href="#TimesNewRomanPSMT-20" transform="translate(1830.419922 0)"/>
     <use xlink:href="#TimesNewRomanPSMT-45" transform="translate(1855.419922 0)"/>
     <use xlink:href="#TimesNewRomanPSMT-58" transform="translate(1916.503906 0)"/>
     <use xlink:href="#TimesNewRomanPSMT-50" transform="translate(1988.720703 0)"/>
    </g>
    <!-- Al2O3* = 100 - CaO - MgO - CaF2 - SiO2 -->
    <g transform="translate(30.335702 24.634062) scale(0.1 -0.1)">
     <defs>
      <path id="TimesNewRomanPSMT-3d" d="M 116 2759 
L 3488 2759 
L 3488 2503 
L 116 2503 
L 116 2759 
z
M 116 1741 
L 3488 1741 
L 3488 1484 
L 116 1484 
L 116 1741 
z
" transform="scale(0.015625)"/>
      <path id="TimesNewRomanPSMT-2d" d="M 259 1672 
L 1875 1672 
L 1875 1200 
L 259 1200 
L 259 1672 
z
" transform="scale(0.015625)"/>
     </defs>
     <use xlink:href="#TimesNewRomanPSMT-41"/>
     <use xlink:href="#TimesNewRomanPSMT-6c" transform="translate(72.216797 0)"/>
     <use xlink:href="#TimesNewRomanPSMT-32" transform="translate(100 0)"/>
     <use xlink:href="#TimesNewRomanPSMT-4f" transform="translate(150 0)"/>
     <use xlink:href="#TimesNewRomanPSMT-33" transform="translate(222.216797 0)"/>
     <use xlink:href="#TimesNewRomanPSMT-2a" transform="translate(272.216797 0)"/>
     <use xlink:href="#TimesNewRomanPSMT-20" transform="translate(322.216797 0)"/>
     <use xlink:href="#TimesNewRomanPSMT-3d" transform="translate(347.216797 0)"/>
     <use xlink:href="#TimesNewRomanPSMT-20" transform="translate(403.613281 0)"/>
     <use xlink:href="#TimesNewRomanPSMT-31" transform="translate(428.613281 0)"/>
     <use xlink:href="#TimesNewRomanPSMT-30" transform="translate(478.613281 0)"/>
     <use xlink:href="#TimesNewRomanPSMT-30" transform="translate(528.613281 0)"/>
     <use xlink:href="#TimesNewRomanPSMT-20" transform="translate(578.613281 0)"/>
     <use xlink:href="#TimesNewRomanPSMT-2d" transform="translate(603.613281 0)"/>
     <use xlink:href="#TimesNewRomanPSMT-20" transform="translate(636.914062 0)"/>
     <use xlink:href="#TimesNewRomanPSMT-43" transform="translate(661.914062 0)"/>
     <use xlink:href="#TimesNewRomanPSMT-61" transform="translate(728.613281 0)"/>
     <use xlink:href="#TimesNewRomanPSMT-4f" transform="translate(772.998047 0)"/>
     <use xlink:href="#TimesNewRomanPSMT-20" transform="translate(845.214844 0)"/>
     <use xlink:href="#TimesNewRomanPSMT-2d" transform="translate(870.214844 0)"/>
     <use xlink:href="#TimesNewRomanPSMT-20" transform="translate(903.515625 0)"/>
     <use xlink:href="#TimesNewRomanPSMT-4d" transform="translate(928.515625 0)"/>
     <use xlink:href="#TimesNewRomanPSMT-67" transform="translate(1017.431641 0)"/>
     <use xlink:href="#TimesNewRomanPSMT-4f" transform="translate(1067.431641 0)"/>
     <use xlink:href="#TimesNewRomanPSMT-20" transform="translate(1139.648438 0)"/>
     <use xlink:href="#TimesNewRomanPSMT-2d" transform="translate(1164.648438 0)"/>
     <use xlink:href="#TimesNewRomanPSMT-20" transform="translate(1197.949219 0)"/>
     <use xlink:href="#TimesNewRomanPSMT-43" transform="translate(1222.949219 0)"/>
     <use xlink:href="#TimesNewRomanPSMT-61" transform="translate(1289.648438 0)"/>
     <use xlink:href="#TimesNewRomanPSMT-46" transform="translate(1334.033203 0)"/>
     <use xlink:href="#TimesNewRomanPSMT-32" transform="translate(1389.648438 0)"/>
     <use xlink:href="#TimesNewRomanPSMT-20" transform="translate(1439.648438 0)"/>
     <use xlink:href="#TimesNewRomanPSMT-2d" transform="translate(1464.648438 0)"/>
     <use xlink:href="#TimesNewRomanPSMT-20" transform="translate(1497.949219 0)"/>
     <use xlink:href="#TimesNewRomanPSMT-53" transform="translate(1522.949219 0)"/>
     <use xlink:href="#TimesNewRomanPSMT-69" transform="translate(1578.564453 0)"/>
     <use xlink:href="#TimesNewRomanPSMT-4f" transform="translate(1606.347656 0)"/>
     <use xlink:href="#TimesNewRomanPSMT-32" transform="translate(1678.564453 0)"/>
    </g>
   </g>
  </g>
 </g>
 <defs>
  <clipPath id="p612d83586f">
   <path d="M 116.763827 59.723623 
L 116.763827 59.723623 
L 38.068216 196.02842 
L 38.068216 196.02842 
L 195.459439 196.02842 
L 195.459439 196.02842 
z
"/>
  </clipPath>
 </defs>
</svg>
