<?xml version="1.0" encoding="utf-8" standalone="no"?>
<!DOCTYPE svg PUBLIC "-//W3C//DTD SVG 1.1//EN"
  "http://www.w3.org/Graphics/SVG/1.1/DTD/svg11.dtd">
<svg xmlns:xlink="http://www.w3.org/1999/xlink" width="387.864567pt" height="367.094779pt" viewBox="0 0 387.864567 367.094779" xmlns="http://www.w3.org/2000/svg" version="1.1">
 <metadata>
  <rdf:RDF xmlns:dc="http://purl.org/dc/elements/1.1/" xmlns:cc="http://creativecommons.org/ns#" xmlns:rdf="http://www.w3.org/1999/02/22-rdf-syntax-ns#">
   <cc:Work>
    <dc:type rdf:resource="http://purl.org/dc/dcmitype/StillImage"/>
    <dc:date>2026-03-28T19:09:51.343468</dc:date>
    <dc:format>image/svg+xml</dc:format>
    <dc:creator>
     <cc:Agent>
      <dc:title>Matplotlib v3.10.6, https://matplotlib.org/</dc:title>
     </cc:Agent>
    </dc:creator>
   </cc:Work>
  </rdf:RDF>
 </metadata>
 <defs>
  <style type="text/css">*{stroke-linejoin: round; stroke-linecap: butt}</style>
 </defs>
 <g id="figure_1">
  <g id="patch_1">
   <path d="M 0 367.094779 
L 387.864567 367.094779 
L 387.864567 0 
L 0 0 
z
" style="fill: #ffffff"/>
  </g>
  <g id="axes_1">
   <g id="line2d_1">
    <path d="M 32.956177 335.209035 
L 354.90839 335.209035 
L 193.932283 56.39024 
L 32.956177 335.209035 
" clip-path="url(#p31a800f624)" style="fill: none; stroke: #000000; stroke-linecap: square"/>
   </g>
   <g id="line2d_2">
    <path d="M 49.053788 307.327155 
L 338.810779 307.327155 
" clip-path="url(#p31a800f624)" style="fill: none; stroke: #d9d9d9; stroke-width: 0.6; stroke-linecap: square"/>
   </g>
   <g id="line2d_3">
    <path d="M 177.834673 84.272119 
L 322.713169 335.209035 
" clip-path="url(#p31a800f624)" style="fill: none; stroke: #d9d9d9; stroke-width: 0.6; stroke-linecap: square"/>
   </g>
   <g id="line2d_4">
    <path d="M 210.029894 84.272119 
L 65.151398 335.209035 
" clip-path="url(#p31a800f624)" style="fill: none; stroke: #d9d9d9; stroke-width: 0.6; stroke-linecap: square"/>
   </g>
   <g id="line2d_5">
    <path d="M 65.151398 279.445276 
L 322.713169 279.445276 
" clip-path="url(#p31a800f624)" style="fill: none; stroke: #d9d9d9; stroke-width: 0.6; stroke-linecap: square"/>
   </g>
   <g id="line2d_6">
    <path d="M 161.737062 112.153999 
L 290.517947 335.209035 
" clip-path="url(#p31a800f624)" style="fill: none; stroke: #d9d9d9; stroke-width: 0.6; stroke-linecap: square"/>
   </g>
   <g id="line2d_7">
    <path d="M 226.127505 112.153999 
L 97.34662 335.209035 
" clip-path="url(#p31a800f624)" style="fill: none; stroke: #d9d9d9; stroke-width: 0.6; stroke-linecap: square"/>
   </g>
   <g id="line2d_8">
    <path d="M 81.249009 251.563396 
L 306.615558 251.563396 
" clip-path="url(#p31a800f624)" style="fill: none; stroke: #d9d9d9; stroke-width: 0.6; stroke-linecap: square"/>
   </g>
   <g id="line2d_9">
    <path d="M 145.639452 140.035878 
L 258.322726 335.209035 
" clip-path="url(#p31a800f624)" style="fill: none; stroke: #d9d9d9; stroke-width: 0.6; stroke-linecap: square"/>
   </g>
   <g id="line2d_10">
    <path d="M 242.225115 140.035878 
L 129.541841 335.209035 
" clip-path="url(#p31a800f624)" style="fill: none; stroke: #d9d9d9; stroke-width: 0.6; stroke-linecap: square"/>
   </g>
   <g id="line2d_11">
    <path d="M 97.34662 223.681517 
L 290.517947 223.681517 
" clip-path="url(#p31a800f624)" style="fill: none; stroke: #d9d9d9; stroke-width: 0.6; stroke-linecap: square"/>
   </g>
   <g id="line2d_12">
    <path d="M 129.541841 167.917758 
L 226.127505 335.209035 
" clip-path="url(#p31a800f624)" style="fill: none; stroke: #d9d9d9; stroke-width: 0.6; stroke-linecap: square"/>
   </g>
   <g id="line2d_13">
    <path d="M 258.322726 167.917758 
L 161.737062 335.209035 
" clip-path="url(#p31a800f624)" style="fill: none; stroke: #d9d9d9; stroke-width: 0.6; stroke-linecap: square"/>
   </g>
   <g id="line2d_14">
    <path d="M 113.44423 195.799637 
L 274.420337 195.799637 
" clip-path="url(#p31a800f624)" style="fill: none; stroke: #d9d9d9; stroke-width: 0.6; stroke-linecap: square"/>
   </g>
   <g id="line2d_15">
    <path d="M 113.44423 195.799637 
L 193.932283 335.209035 
" clip-path="url(#p31a800f624)" style="fill: none; stroke: #d9d9d9; stroke-width: 0.6; stroke-linecap: square"/>
   </g>
   <g id="line2d_16">
    <path d="M 274.420337 195.799637 
L 193.932283 335.209035 
" clip-path="url(#p31a800f624)" style="fill: none; stroke: #d9d9d9; stroke-width: 0.6; stroke-linecap: square"/>
   </g>
   <g id="line2d_17">
    <path d="M 129.541841 167.917758 
L 258.322726 167.917758 
" clip-path="url(#p31a800f624)" style="fill: none; stroke: #d9d9d9; stroke-width: 0.6; stroke-linecap: square"/>
   </g>
   <g id="line2d_18">
    <path d="M 97.34662 223.681517 
L 161.737062 335.209035 
" clip-path="url(#p31a800f624)" style="fill: none; stroke: #d9d9d9; stroke-width: 0.6; stroke-linecap: square"/>
   </g>
   <g id="line2d_19">
    <path d="M 290.517947 223.681517 
L 226.127505 335.209035 
" clip-path="url(#p31a800f624)" style="fill: none; stroke: #d9d9d9; stroke-width: 0.6; stroke-linecap: square"/>
   </g>
   <g id="line2d_20">
    <path d="M 145.639452 140.035878 
L 242.225115 140.035878 
" clip-path="url(#p31a800f624)" style="fill: none; stroke: #d9d9d9; stroke-width: 0.6; stroke-linecap: square"/>
   </g>
   <g id="line2d_21">
    <path d="M 81.249009 251.563396 
L 129.541841 335.209035 
" clip-path="url(#p31a800f624)" style="fill: none; stroke: #d9d9d9; stroke-width: 0.6; stroke-linecap: square"/>
   </g>
   <g id="line2d_22">
    <path d="M 306.615558 251.563396 
L 258.322726 335.209035 
" clip-path="url(#p31a800f624)" style="fill: none; stroke: #d9d9d9; stroke-width: 0.6; stroke-linecap: square"/>
   </g>
   <g id="line2d_23">
    <path d="M 161.737062 112.153999 
L 226.127505 112.153999 
" clip-path="url(#p31a800f624)" style="fill: none; stroke: #d9d9d9; stroke-width: 0.6; stroke-linecap: square"/>
   </g>
   <g id="line2d_24">
    <path d="M 65.151398 279.445276 
L 97.34662 335.209035 
" clip-path="url(#p31a800f624)" style="fill: none; stroke: #d9d9d9; stroke-width: 0.6; stroke-linecap: square"/>
   </g>
   <g id="line2d_25">
    <path d="M 322.713169 279.445276 
L 290.517947 335.209035 
" clip-path="url(#p31a800f624)" style="fill: none; stroke: #d9d9d9; stroke-width: 0.6; stroke-linecap: square"/>
   </g>
   <g id="line2d_26">
    <path d="M 177.834673 84.272119 
L 210.029894 84.272119 
" clip-path="url(#p31a800f624)" style="fill: none; stroke: #d9d9d9; stroke-width: 0.6; stroke-linecap: square"/>
   </g>
   <g id="line2d_27">
    <path d="M 49.053788 307.327155 
L 65.151398 335.209035 
" clip-path="url(#p31a800f624)" style="fill: none; stroke: #d9d9d9; stroke-width: 0.6; stroke-linecap: square"/>
   </g>
   <g id="line2d_28">
    <path d="M 338.810779 307.327155 
L 322.713169 335.209035 
" clip-path="url(#p31a800f624)" style="fill: none; stroke: #d9d9d9; stroke-width: 0.6; stroke-linecap: square"/>
   </g>
   <g id="line2d_29">
    <path d="M 177.629675 213.547498 
L 177.627629 213.546394 
L 175.590006 212.433327 
L 173.567984 211.288593 
L 171.572465 210.097953 
L 169.612879 208.845077 
L 167.699418 207.512309 
L 165.843236 206.08033 
L 164.056608 204.527881 
L 162.35297 202.831687 
L 160.746742 200.966777 
L 159.252813 198.907357 
L 157.885717 196.628257 
L 156.658691 194.106549 
L 155.583213 191.322352 
L 154.669786 188.257473 
L 153.930672 184.890677 
L 153.384785 181.189201 
L 153.06448 177.097005 
L 153.023867 172.520369 
L 153.133935 170.006236 
L 153.350182 167.308196 
L 153.692507 164.39178 
L 154.187858 161.210318 
L 154.874502 157.697526 
L 155.30637 155.787763 
L 155.809581 153.754431 
L 156.396358 151.576359 
L 157.082115 149.226848 
L 157.886055 146.672637 
L 158.831004 143.874193 
L 159.940252 140.791174 
L 160.467798 139.38142 
L 161.540806 136.592943 
L 162.629469 133.831584 
L 163.446479 131.774715 
" clip-path="url(#p31a800f624)" style="fill: none; stroke: #000000; stroke-opacity: 0.95; stroke-width: 0.9; stroke-linecap: square"/>
   </g>
   <g id="line2d_30">
    <path d="M 163.446479 131.774715 
L 163.448253 131.773142 
L 165.221058 130.201398 
L 166.994885 128.626776 
L 168.767217 127.049564 
L 170.537067 125.468056 
L 172.303134 123.879992 
L 174.063686 122.282379 
L 175.816423 120.671228 
L 177.558238 119.04116 
L 179.284862 117.384782 
L 180.990242 115.691606 
L 182.665375 113.946042 
L 184.295886 112.12319 
L 185.8561 110.178579 
L 187.290302 108.015711 
L 187.629022 107.38754 
" clip-path="url(#p31a800f624)" style="fill: none; stroke: #000000; stroke-opacity: 0.95; stroke-width: 0.9; stroke-linecap: square"/>
   </g>
   <g id="line2d_31">
    <path d="M 163.446479 131.774715 
L 163.448836 131.774152 
L 165.795188 131.195819 
L 168.1244 130.583153 
L 170.431567 129.932304 
L 172.713712 129.238115 
L 174.967331 128.494517 
L 177.188272 127.694321 
L 179.371576 126.828933 
L 181.511249 125.887977 
L 183.599963 124.858755 
L 185.628605 123.725487 
L 187.585612 122.468143 
L 189.455917 121.060626 
L 191.219177 119.467702 
L 192.846549 117.639413 
L 194.29409 115.499647 
L 195.486763 112.918437 
L 196.266837 109.622585 
L 196.301275 109.314812 
" clip-path="url(#p31a800f624)" style="fill: none; stroke: #000000; stroke-opacity: 0.95; stroke-width: 0.9; stroke-linecap: square"/>
   </g>
   <g id="line2d_32">
    <path d="M 187.629022 107.38754 
L 187.628436 107.381877 
L 187.335315 104.553011 
L 187.042195 101.724145 
L 186.749074 98.895279 
L 186.455954 96.066413 
L 186.162833 93.237547 
L 185.975518 91.429791 
" clip-path="url(#p31a800f624)" style="fill: none; stroke: #000000; stroke-opacity: 0.95; stroke-width: 0.9; stroke-linecap: square"/>
   </g>
   <g id="line2d_33">
    <path d="M 187.629022 107.38754 
L 187.6321 107.388224 
L 189.169483 107.729884 
L 190.706866 108.071543 
L 192.244249 108.413202 
L 193.781632 108.754861 
L 196.301275 109.314812 
" clip-path="url(#p31a800f624)" style="fill: none; stroke: #000000; stroke-opacity: 0.95; stroke-width: 0.9; stroke-linecap: square"/>
   </g>
   <g id="line2d_34">
    <path d="M 187.629022 107.38754 
L 187.626653 107.388084 
L 185.294556 107.991106 
L 183.026531 108.709751 
L 182.079458 109.04831 
" clip-path="url(#p31a800f624)" style="fill: none; stroke: #000000; stroke-opacity: 0.95; stroke-width: 0.9; stroke-linecap: square"/>
   </g>
   <g id="line2d_35">
    <path d="M 182.079458 109.04831 
L 182.073591 109.042794 
L 180.608177 107.665206 
L 179.653663 106.767899 
" clip-path="url(#p31a800f624)" style="fill: none; stroke: #000000; stroke-opacity: 0.95; stroke-width: 0.9; stroke-linecap: square"/>
   </g>
   <g id="line2d_36">
    <path d="M 182.079458 109.04831 
L 182.078871 109.042647 
L 181.785751 106.213781 
L 181.49263 103.384915 
L 181.19951 100.556049 
L 180.906389 97.727183 
L 180.697946 95.715519 
" clip-path="url(#p31a800f624)" style="fill: none; stroke: #000000; stroke-opacity: 0.95; stroke-width: 0.9; stroke-linecap: square"/>
   </g>
   <g id="line2d_37">
    <path d="M 182.079458 109.04831 
L 182.07763 109.049791 
L 180.253555 110.532733 
L 178.431076 112.023086 
L 176.611688 113.518793 
L 174.794965 115.019117 
L 172.980464 116.523289 
L 171.167763 118.030579 
L 169.356489 119.540341 
L 167.546323 121.05202 
L 165.736999 122.56516 
L 163.928305 124.07939 
L 162.120072 125.594417 
L 162.055154 125.648826 
" clip-path="url(#p31a800f624)" style="fill: none; stroke: #000000; stroke-opacity: 0.95; stroke-width: 0.9; stroke-linecap: square"/>
   </g>
   <g id="line2d_38">
    <path d="M 162.055154 125.648826 
L 162.056782 125.646998 
L 163.684646 123.824209 
L 165.317937 122.006173 
L 166.955534 120.195594 
L 168.59802 118.393483 
L 170.246056 116.600985 
L 171.900386 114.819388 
L 173.561827 113.05011 
L 175.231257 111.294666 
L 176.909571 109.554612 
L 178.59763 107.831436 
L 179.653663 106.767899 
" clip-path="url(#p31a800f624)" style="fill: none; stroke: #000000; stroke-opacity: 0.95; stroke-width: 0.9; stroke-linecap: square"/>
   </g>
   <g id="line2d_39">
    <path d="M 162.055154 125.648826 
L 162.0408 125.628611 
L 161.609384 124.929363 
" clip-path="url(#p31a800f624)" style="fill: none; stroke: #000000; stroke-opacity: 0.95; stroke-width: 0.9; stroke-linecap: square"/>
   </g>
   <g id="line2d_40">
    <path d="M 161.609384 124.929363 
L 161.610724 124.927036 
L 162.953183 122.609912 
L 164.306299 120.306597 
L 165.669853 118.021363 
L 167.045112 115.756401 
L 168.433488 113.514158 
L 169.836546 111.297347 
L 171.255995 109.108924 
L 172.693666 106.952063 
L 174.15147 104.830074 
L 174.391757 104.486835 
" clip-path="url(#p31a800f624)" style="fill: none; stroke: #000000; stroke-opacity: 0.95; stroke-width: 0.9; stroke-linecap: square"/>
   </g>
   <g id="line2d_41">
    <path d="M 161.609384 124.929363 
L 161.617025 124.920775 
L 163.243869 123.096219 
L 164.875305 121.274968 
L 166.510152 119.459627 
L 168.148941 117.651113 
L 169.79229 115.850497 
L 171.440919 114.059026 
L 173.095651 112.278126 
L 174.757411 110.509399 
L 176.427204 108.754584 
L 177.617286 107.519051 
" clip-path="url(#p31a800f624)" style="fill: none; stroke: #000000; stroke-opacity: 0.95; stroke-width: 0.9; stroke-linecap: square"/>
   </g>
   <g id="line2d_42">
    <path d="M 174.391757 104.486835 
L 174.393098 104.484512 
L 175.733224 102.163345 
L 177.074692 99.839855 
L 178.416159 97.516365 
L 178.591002 97.21353 
" clip-path="url(#p31a800f624)" style="fill: none; stroke: #000000; stroke-opacity: 0.95; stroke-width: 0.9; stroke-linecap: square"/>
   </g>
   <g id="line2d_43">
    <path d="M 174.391757 104.486835 
L 174.397624 104.492351 
L 175.863038 105.869939 
L 177.617286 107.519051 
" clip-path="url(#p31a800f624)" style="fill: none; stroke: #000000; stroke-opacity: 0.95; stroke-width: 0.9; stroke-linecap: square"/>
   </g>
   <g id="line2d_44">
    <path d="M 174.391757 104.486835 
L 174.387752 104.484545 
L 172.413154 103.385608 
L 170.47505 102.34988 
L 170.124773 102.165214 
L 169.42488 101.797024 
L 169.297641 101.730104 
L 169.043103 101.596163 
L 168.533528 101.327416 
L 168.440769 101.278364 
L 168.255116 101.180025 
L 168.221339 101.162109 
L 168.153764 101.126238 
L 168.141475 101.11971 
L 168.116893 101.10665 
L 168.116486 101.106434 
L 168.115674 101.106002 
L 168.115599 101.106049 
L 168.115589 101.106065 
L 168.115571 101.106097 
L 168.115568 101.106103 
L 168.115568 101.106103 
" clip-path="url(#p31a800f624)" style="fill: none; stroke: #000000; stroke-opacity: 0.95; stroke-width: 0.9; stroke-linecap: square"/>
   </g>
   <g id="line2d_45">
    <path d="M 161.609384 124.929363 
L 161.606425 124.929841 
L 160.116261 125.189714 
L 158.600533 125.493866 
L 157.057129 125.845953 
L 155.483933 126.249642 
L 153.878834 126.708589 
L 153.472329 126.832385 
L 153.26827 126.89568 
L 153.217171 126.91165 
L 153.216771 126.911775 
L 153.216671 126.911806 
L 153.216646 126.911814 
L 153.216634 126.911818 
L 153.216634 126.911818 
" clip-path="url(#p31a800f624)" style="fill: none; stroke: #000000; stroke-opacity: 0.95; stroke-width: 0.9; stroke-linecap: square"/>
   </g>
   <g id="line2d_46">
    <path d="M 162.055154 125.648826 
L 162.055114 125.653404 
L 162.057282 126.079189 
L 162.103867 127.003937 
L 162.540918 129.449052 
L 162.748649 130.115784 
L 162.797758 130.256651 
L 162.822439 130.325514 
L 162.872608 130.461841 
L 162.976052 130.729116 
L 163.194424 131.243776 
L 163.446479 131.774715 
" clip-path="url(#p31a800f624)" style="fill: none; stroke: #000000; stroke-opacity: 0.95; stroke-width: 0.9; stroke-linecap: square"/>
   </g>
   <g id="line2d_47">
    <path d="M 177.629675 213.547498 
L 177.625883 213.549419 
L 175.727603 214.516169 
L 173.820336 215.498487 
L 171.90343 216.497499 
L 169.976131 217.514511 
L 168.037572 218.551028 
L 166.086753 219.608779 
L 164.122528 220.68975 
L 162.143582 221.796219 
L 160.148404 222.930803 
L 158.135255 224.096512 
L 156.102133 225.296816 
L 154.046717 226.535735 
L 151.96631 227.817938 
L 149.857761 229.148886 
L 147.717362 230.534999 
L 146.633877 231.251068 
L 145.540719 231.98389 
L 144.437202 232.734653 
L 143.322576 233.50466 
L 142.196009 234.295347 
L 141.056586 235.108304 
L 139.903288 235.94529 
L 138.734984 236.808269 
L 137.550408 237.699432 
L 136.348137 238.621242 
L 135.126569 239.576478 
L 133.883881 240.568293 
L 132.617996 241.600287 
L 131.326525 242.676596 
L 130.006702 243.802015 
L 128.655293 244.982141 
L 127.268484 246.22358 
L 125.841725 247.534217 
L 124.36951 248.923583 
L 122.845082 250.403388 
L 121.259983 251.988277 
L 119.603397 253.696985 
L 117.861101 255.554146 
L 117.0394 256.452085 
L 115.411256 258.274389 
L 113.801818 260.133742 
L 112.212655 262.028211 
L 110.643669 263.957626 
L 110.235787 264.469048 
" clip-path="url(#p31a800f624)" style="fill: none; stroke: #000000; stroke-opacity: 0.95; stroke-width: 0.9; stroke-linecap: square"/>
   </g>
   <g id="line2d_48">
    <path d="M 110.235787 264.469048 
L 110.23423 264.470999 
L 108.678684 266.419047 
L 107.120211 268.366673 
L 105.560297 270.311802 
L 103.998866 272.254305 
L 102.435837 274.194039 
L 100.871123 276.130855 
L 99.304631 278.06459 
L 97.736259 279.995071 
L 96.1659 281.922109 
L 94.593437 283.845503 
L 93.018745 285.765037 
L 91.441689 287.680474 
L 89.862121 289.591562 
L 88.279883 291.498026 
L 86.694804 293.399568 
L 85.106697 295.295867 
L 83.515361 297.186571 
L 81.920576 299.071303 
L 80.322104 300.949649 
L 78.719687 302.82116 
L 77.113042 304.68535 
L 75.501865 306.541689 
L 73.885824 308.389604 
L 72.264562 310.228476 
L 70.637693 312.057635 
L 69.004803 313.876367 
L 67.365456 315.683914 
L 65.719192 317.479481 
L 64.065544 319.26226 
L 62.404053 321.031452 
L 60.734294 322.786324 
L 59.055929 324.526291 
L 57.368785 326.251051 
L 55.672977 327.960807 
L 54.144325 329.483151 
" clip-path="url(#p31a800f624)" style="fill: none; stroke: #000000; stroke-opacity: 0.95; stroke-width: 0.9; stroke-linecap: square"/>
   </g>
   <g id="line2d_49">
    <path d="M 110.235787 264.469048 
L 110.239383 264.470631 
L 112.035976 265.261254 
L 113.832474 266.051714 
L 115.628878 266.84201 
L 117.425185 267.632139 
L 119.221395 268.4221 
L 121.017507 269.21189 
L 122.813519 270.001507 
L 124.60943 270.79095 
L 126.405239 271.580217 
L 128.200945 272.369305 
L 129.996547 273.158211 
L 131.792043 273.946935 
L 133.587432 274.735474 
L 135.382714 275.523826 
L 137.177885 276.311988 
L 138.972947 277.099959 
L 140.767897 277.887737 
L 142.562733 278.675319 
L 144.357456 279.462703 
L 146.152063 280.249888 
L 147.946554 281.036871 
L 149.740927 281.82365 
L 151.535182 282.610223 
L 153.329316 283.396589 
L 155.123329 284.182744 
L 156.917221 284.968689 
L 158.710989 285.754419 
L 160.504633 286.539935 
L 162.298151 287.325234 
L 164.091544 288.110315 
L 165.88481 288.895177 
L 167.677948 289.679817 
L 169.470958 290.464235 
L 171.263839 291.24843 
L 173.056591 292.0324 
L 174.849213 292.816146 
L 176.641705 293.599667 
L 178.434067 294.382963 
L 180.226299 295.166033 
L 182.018402 295.948879 
L 183.810375 296.731501 
L 185.602219 297.5139 
L 187.393936 298.296077 
L 189.185526 299.078036 
L 190.976991 299.859778 
L 192.768333 300.641308 
L 194.559555 301.422628 
L 196.350659 302.203744 
L 198.141648 302.984662 
L 199.932526 303.765388 
L 201.723298 304.545929 
L 203.513969 305.326296 
L 205.304545 306.106499 
L 207.095034 306.886549 
L 208.885442 307.666461 
L 210.67578 308.44625 
L 212.466057 309.225935 
L 214.256287 310.005537 
L 216.046482 310.785079 
L 217.836658 311.564589 
L 219.626834 312.344098 
L 221.41703 313.123642 
L 223.207269 313.90326 
L 224.997578 314.683 
L 226.787988 315.462915 
L 228.578534 316.243065 
L 230.369256 317.023521 
L 232.160201 317.804363 
L 233.951423 318.585682 
L 235.742982 319.367587 
L 237.53495 320.150201 
L 239.32741 320.933666 
L 241.120458 321.718149 
L 242.914206 322.503846 
L 244.708786 323.290984 
L 246.504354 324.079832 
L 248.301092 324.870707 
L 250.099219 325.663987 
L 251.898994 326.460123 
L 253.700732 327.259658 
L 255.504811 328.063249 
L 257.311698 328.871703 
L 257.995911 329.178927 
" clip-path="url(#p31a800f624)" style="fill: none; stroke: #000000; stroke-opacity: 0.95; stroke-width: 0.9; stroke-linecap: square"/>
   </g>
   <g id="line2d_50">
    <path d="M 54.144325 329.483151 
L 54.142536 329.484699 
L 52.351867 331.025502 
L 50.55236 332.555644 
L 48.745138 334.072425 
L 48.580455 334.209637 
L 48.250906 334.483747 
L 47.591301 335.031089 
L 47.471433 335.13071 
L 47.449659 335.148857 
L 47.406162 335.185242 
L 47.398269 335.191884 
L 47.382528 335.205247 
L 47.379688 335.207714 
L 47.379175 335.208169 
L 47.379082 335.208252 
L 47.378897 335.208419 
L 47.378527 335.208756 
L 47.378461 335.208819 
L 47.378329 335.208946 
L 47.378306 335.208969 
L 47.37826 335.209019 
L 47.378252 335.209029 
L 47.378252 335.209029 
" clip-path="url(#p31a800f624)" style="fill: none; stroke: #000000; stroke-opacity: 0.95; stroke-width: 0.9; stroke-linecap: square"/>
   </g>
   <g id="line2d_51">
    <path d="M 54.144325 329.483151 
L 54.147006 329.483147 
L 56.824951 329.479151 
L 59.505576 329.47515 
L 62.186202 329.47115 
L 64.866827 329.467149 
L 67.547452 329.463149 
L 70.228078 329.459148 
L 72.908703 329.455148 
L 75.589329 329.451147 
L 78.269954 329.447146 
L 80.950579 329.443146 
L 83.631205 329.439145 
L 86.31183 329.435145 
L 88.992456 329.431144 
L 91.673081 329.427144 
L 94.353706 329.423143 
L 97.034332 329.419143 
L 99.714957 329.415142 
L 102.395583 329.411142 
L 105.076208 329.407141 
L 107.756833 329.403141 
L 110.437459 329.39914 
L 113.118084 329.39514 
L 115.798709 329.391139 
L 118.479335 329.387139 
L 121.15996 329.383138 
L 123.840586 329.379138 
L 126.521211 329.375137 
L 129.201836 329.371137 
L 131.882462 329.367136 
L 134.563087 329.363136 
L 137.243713 329.359135 
L 139.924338 329.355135 
L 142.604963 329.351134 
L 145.285589 329.347134 
L 147.966214 329.343133 
L 150.64684 329.339132 
L 153.327465 329.335132 
L 156.00809 329.331131 
L 158.688716 329.327131 
L 161.369341 329.32313 
L 164.049967 329.31913 
L 166.730592 329.315129 
L 169.411217 329.311129 
L 172.091843 329.307128 
L 174.772468 329.303128 
L 177.453094 329.299127 
L 180.133719 329.295127 
L 182.814344 329.291126 
L 185.49497 329.287126 
L 188.175595 329.283125 
L 190.856221 329.279125 
L 193.536846 329.275124 
L 196.217471 329.271124 
L 198.898097 329.267123 
L 201.578722 329.263123 
L 204.259348 329.259122 
L 206.939973 329.255122 
L 209.620598 329.251121 
L 212.301224 329.247121 
L 214.981849 329.24312 
L 217.662475 329.239119 
L 220.3431 329.235119 
L 223.023725 329.231118 
L 225.704351 329.227118 
L 228.384976 329.223117 
L 231.065602 329.219117 
L 233.746227 329.215116 
L 236.426852 329.211116 
L 239.107478 329.207115 
L 241.788103 329.203115 
L 244.468729 329.199114 
L 247.149354 329.195114 
L 249.829979 329.191113 
L 252.510605 329.187113 
L 255.19123 329.183112 
L 257.871856 329.179112 
L 257.995911 329.178927 
" clip-path="url(#p31a800f624)" style="fill: none; stroke: #000000; stroke-opacity: 0.95; stroke-width: 0.9; stroke-linecap: square"/>
   </g>
   <g id="line2d_52">
    <path d="M 54.144325 329.483151 
L 54.139108 329.478762 
L 52.894435 328.483508 
L 51.747503 327.657547 
L 49.658161 326.359866 
L 47.739527 325.357862 
L 45.909023 324.508502 
L 44.105337 323.705592 
L 43.775785 323.556822 
L 43.11199 323.251156 
L 41.752592 322.584731 
L 41.498689 322.451888 
L 40.982264 322.171277 
L 40.934672 322.14465 
L 40.839131 322.090781 
L 40.646552 321.980447 
L 40.611313 321.959996 
L 40.610729 321.959657 
L 40.609563 321.958978 
L 40.607231 321.957622 
L 40.606922 321.957555 
L 40.606903 321.957589 
L 40.606851 321.957678 
L 40.606851 321.957678 
" clip-path="url(#p31a800f624)" style="fill: none; stroke: #000000; stroke-opacity: 0.95; stroke-width: 0.9; stroke-linecap: square"/>
   </g>
   <g id="line2d_53">
    <path d="M 110.235787 264.469048 
L 110.232181 264.467451 
L 108.431155 263.669148 
L 106.629351 262.869499 
L 104.826085 262.067316 
L 103.020539 261.261185 
L 101.211745 260.449429 
L 99.398557 259.630062 
L 97.579616 258.80073 
L 95.753302 257.958628 
L 93.917672 257.10039 
L 92.070367 256.22193 
L 90.208488 255.318228 
L 88.328408 254.383 
L 86.425492 253.40822 
L 84.493659 252.383352 
L 84.13871 252.190593 
L 83.42491 251.798316 
L 81.979773 250.983386 
L 81.714204 250.830339 
L 81.709807 250.827796 
L 81.701011 250.822707 
L 81.683417 250.812526 
L 81.683126 250.812357 
L 81.683073 250.812327 
L 81.682967 250.812266 
L 81.682756 250.812143 
L 81.682739 250.812153 
L 81.682715 250.812194 
L 81.682713 250.812199 
L 81.682705 250.812212 
L 81.682689 250.812241 
L 81.682689 250.812241 
" clip-path="url(#p31a800f624)" style="fill: none; stroke: #000000; stroke-opacity: 0.95; stroke-width: 0.9; stroke-linecap: square"/>
   </g>
   <g id="line2d_54">
    <path d="M 177.629675 213.547498 
L 177.633734 213.545114 
L 179.660456 212.355895 
L 181.685227 211.170056 
L 183.707663 209.988261 
L 185.727319 208.811279 
L 187.743685 207.639997 
L 189.756175 206.47543 
L 191.76412 205.318733 
L 193.766764 204.171219 
L 195.763257 203.034357 
L 197.752656 201.909784 
L 199.733924 200.799293 
L 201.705942 199.704825 
L 203.66752 198.628439 
L 205.617424 197.572273 
L 207.554404 196.53849 
L 209.477238 195.529211 
L 211.38477 194.546435 
L 213.275963 193.591959 
L 215.149939 192.667304 
L 217.006018 191.773647 
L 218.843744 190.911779 
L 220.66289 190.082092 
L 222.463458 189.284583 
L 224.245655 188.518894 
L 226.009862 187.784365 
L 227.756597 187.080097 
L 229.486475 186.405028 
L 231.200167 185.757992 
L 232.898367 185.13779 
L 234.581762 184.543231 
L 236.251008 183.973177 
L 237.906718 183.42657 
L 239.549444 182.902452 
L 241.179677 182.399971 
L 242.797844 181.91839 
L 244.404307 181.457082 
L 245.999366 181.015526 
L 247.583267 180.593295 
L 249.156206 180.190051 
L 250.718334 179.805532 
L 252.269767 179.439538 
L 253.810589 179.091923 
L 255.34086 178.762581 
L 256.860623 178.451441 
L 258.369908 178.15845 
L 259.868733 177.883574 
L 261.357117 177.626785 
L 262.835073 177.388056 
L 263.713035 177.254046 
" clip-path="url(#p31a800f624)" style="fill: none; stroke: #000000; stroke-opacity: 0.95; stroke-width: 0.9; stroke-linecap: square"/>
   </g>
   <g id="line2d_55">
    <path d="M 177.629675 213.547498 
L 177.631554 213.54889 
L 179.509405 214.938689 
L 181.389834 216.328672 
L 183.270995 217.717385 
L 185.152924 219.104767 
L 187.035662 220.49075 
L 188.919249 221.875262 
L 190.803728 223.258228 
L 192.689147 224.639567 
L 194.575554 226.019193 
L 196.463004 227.397014 
L 198.351551 228.772934 
L 200.241256 230.146849 
L 202.132183 231.518647 
L 204.0244 232.888211 
L 205.91798 234.255415 
L 207.813001 235.620122 
L 209.709546 236.98219 
L 211.607704 238.341463 
L 213.507572 239.697775 
L 215.409251 241.05095 
L 217.312852 242.400796 
L 219.218493 243.74711 
L 221.126299 245.089672 
L 223.036408 246.428247 
L 224.948965 247.76258 
L 226.864129 249.0924 
L 228.782067 250.417412 
L 230.702964 251.737301 
L 232.627015 253.051727 
L 234.554433 254.360322 
L 236.485445 255.662691 
L 238.420297 256.958408 
L 240.359255 258.247014 
L 242.302605 259.528014 
L 244.250654 260.800874 
L 246.203735 262.065018 
L 248.162205 263.319829 
L 250.126448 264.564639 
L 252.096879 265.798733 
L 254.073939 267.021344 
L 256.058106 268.231646 
L 258.049887 269.428761 
L 260.049823 270.611748 
L 262.058493 271.779611 
L 264.076505 272.931291 
L 266.104505 274.065673 
L 268.143167 275.181586 
L 270.193196 276.277811 
L 272.255322 277.353085 
L 274.330289 278.406115 
L 276.418858 279.435588 
L 278.521786 280.440191 
L 280.639819 281.418629 
L 282.77368 282.369653 
L 284.924047 283.292088 
L 287.091537 284.184865 
L 289.276687 285.047055 
L 291.479928 285.877909 
L 293.701569 286.676893 
L 295.941775 287.443723 
L 298.200545 288.178398 
L 300.477704 288.881224 
L 302.772885 289.552833 
L 305.085533 290.194189 
L 307.414902 290.806584 
L 309.760065 291.391622 
L 312.119932 291.951192 
L 314.493272 292.487428 
L 316.878736 293.002663 
L 319.274893 293.499376 
L 321.68026 293.980138 
L 324.093333 294.447554 
L 326.512617 294.90421 
L 328.936658 295.352628 
L 331.364056 295.795231 
L 332.244919 295.954752 
" clip-path="url(#p31a800f624)" style="fill: none; stroke: #000000; stroke-opacity: 0.95; stroke-width: 0.9; stroke-linecap: square"/>
   </g>
   <g id="line2d_56">
    <path d="M 223.248213 246.576317 
L 223.252711 246.579461 
L 224.375049 247.362823 
L 225.495325 248.142615 
L 226.613479 248.918732 
L 227.729451 249.691068 
L 228.843176 250.459514 
L 229.954592 251.223959 
L 231.063631 251.984288 
L 232.170227 252.740385 
L 233.274311 253.492131 
L 234.375813 254.239405 
L 235.474661 254.982083 
L 236.570783 255.720039 
L 237.664105 256.453144 
L 238.754551 257.18127 
L 239.842047 257.904284 
L 240.926513 258.622052 
L 242.007873 259.334439 
L 243.086047 260.041309 
L 244.160956 260.742522 
L 246.300657 262.127426 
L 248.426328 263.48803 
L 250.537321 264.823211 
L 252.632991 266.131851 
L 254.712702 267.412849 
L 256.775835 268.665133 
L 258.821793 269.887672 
L 260.850015 271.079488 
L 262.859976 272.239675 
L 264.851199 273.367409 
L 266.823266 274.461962 
L 268.775818 275.522715 
L 270.708568 276.54917 
L 272.621304 277.54096 
L 274.513895 278.497857 
L 276.386291 279.419776 
L 278.238528 280.306779 
L 280.070728 281.159075 
L 281.883095 281.97702 
L 283.675914 282.761107 
L 285.449547 283.511964 
L 287.204428 284.23034 
L 288.941055 284.917099 
L 290.659984 285.573205 
L 292.361821 286.199708 
L 294.047218 286.797734 
L 295.716858 287.36847 
L 297.371456 287.91315 
L 299.011743 288.433045 
L 300.638468 288.929447 
L 302.252384 289.403666 
L 303.854248 289.857009 
L 305.444813 290.290782 
L 307.024825 290.706277 
L 308.595019 291.104766 
L 310.156114 291.487496 
L 311.708813 291.855684 
L 313.253801 292.210513 
L 314.791738 292.553132 
L 316.323265 292.884649 
L 317.849 293.206133 
L 319.369535 293.51861 
L 320.885438 293.823065 
L 322.397254 294.120441 
L 323.905502 294.411636 
L 325.410677 294.69751 
L 326.913251 294.978878 
L 328.413672 295.256516 
L 329.912365 295.531162 
L 331.409734 295.803514 
L 332.158042 295.939038 
L 332.204804 295.947497 
L 332.228185 295.951726 
L 332.239876 295.95384 
L 332.242798 295.954369 
L 332.244259 295.954633 
L 332.244625 295.954699 
L 332.244807 295.954732 
L 332.244816 295.954734 
L 332.244816 295.954734 
" clip-path="url(#p31a800f624)" style="fill: none; stroke: #000000; stroke-opacity: 0.95; stroke-width: 0.9; stroke-linecap: square"/>
   </g>
   <g id="text_1">
    <text style="font-size: 13px; font-family: 'Times New Roman', serif; text-anchor: start" x="7.2" y="357.113998" transform="rotate(-0 7.2 357.113998)">CaO</text>
   </g>
   <g id="text_2">
    <text style="font-size: 13px; font-family: 'Times New Roman', serif; text-anchor: end" x="380.664567" y="357.089623" transform="rotate(-0 380.664567 357.089623)">MgO</text>
   </g>
   <g id="text_3">
    <text style="font-size: 13px; font-family: 'Times New Roman', serif; text-anchor: middle" x="193.932283" y="40.73137" transform="rotate(-0 193.932283 40.73137)">Al2O3</text>
   </g>
   <g id="text_4">
    <text style="font-size: 10px; font-family: 'Times New Roman', serif" transform="translate(91.715096 14.14375)">CAMA_5CAF2_10SIO2 phase diagram from EXP</text>
    <text style="font-size: 10px; font-family: 'Times New Roman', serif" transform="translate(112.504158 24.634062)">Al2O3* = 1 - CaO - MgO - CaF2 - SiO2</text>
   </g>
  </g>
 </g>
 <defs>
  <clipPath id="p31a800f624">
   <rect x="7.2" y="30.634062" width="373.464567" height="323.892105"/>
  </clipPath>
 </defs>
</svg>
