<?xml version="1.0" encoding="utf-8" standalone="no"?>
<!DOCTYPE svg PUBLIC "-//W3C//DTD SVG 1.1//EN"
  "http://www.w3.org/Graphics/SVG/1.1/DTD/svg11.dtd">
<svg xmlns:xlink="http://www.w3.org/1999/xlink" width="387.864567pt" height="367.094779pt" viewBox="0 0 387.864567 367.094779" xmlns="http://www.w3.org/2000/svg" version="1.1">
 <metadata>
  <rdf:RDF xmlns:dc="http://purl.org/dc/elements/1.1/" xmlns:cc="http://creativecommons.org/ns#" xmlns:rdf="http://www.w3.org/1999/02/22-rdf-syntax-ns#">
   <cc:Work>
    <dc:type rdf:resource="http://purl.org/dc/dcmitype/StillImage"/>
    <dc:date>2026-03-28T19:09:50.744949</dc:date>
    <dc:format>image/svg+xml</dc:format>
    <dc:creator>
     <cc:Agent>
      <dc:title>Matplotlib v3.10.6, https://matplotlib.org/</dc:title>
     </cc:Agent>
    </dc:creator>
   </cc:Work>
  </rdf:RDF>
 </metadata>
 <defs>
  <style type="text/css">*{stroke-linejoin: round; stroke-linecap: butt}</style>
 </defs>
 <g id="figure_1">
  <g id="patch_1">
   <path d="M 0 367.094779 
L 387.864567 367.094779 
L 387.864567 0 
L 0 0 
z
" style="fill: #ffffff"/>
  </g>
  <g id="axes_1">
   <g id="line2d_1">
    <path d="M 32.956177 335.209035 
L 354.90839 335.209035 
L 193.932283 56.39024 
L 32.956177 335.209035 
" clip-path="url(#p897c6af0a9)" style="fill: none; stroke: #000000; stroke-linecap: square"/>
   </g>
   <g id="line2d_2">
    <path d="M 49.053788 307.327155 
L 338.810779 307.327155 
" clip-path="url(#p897c6af0a9)" style="fill: none; stroke: #d9d9d9; stroke-width: 0.6; stroke-linecap: square"/>
   </g>
   <g id="line2d_3">
    <path d="M 177.834673 84.272119 
L 322.713169 335.209035 
" clip-path="url(#p897c6af0a9)" style="fill: none; stroke: #d9d9d9; stroke-width: 0.6; stroke-linecap: square"/>
   </g>
   <g id="line2d_4">
    <path d="M 210.029894 84.272119 
L 65.151398 335.209035 
" clip-path="url(#p897c6af0a9)" style="fill: none; stroke: #d9d9d9; stroke-width: 0.6; stroke-linecap: square"/>
   </g>
   <g id="line2d_5">
    <path d="M 65.151398 279.445276 
L 322.713169 279.445276 
" clip-path="url(#p897c6af0a9)" style="fill: none; stroke: #d9d9d9; stroke-width: 0.6; stroke-linecap: square"/>
   </g>
   <g id="line2d_6">
    <path d="M 161.737062 112.153999 
L 290.517947 335.209035 
" clip-path="url(#p897c6af0a9)" style="fill: none; stroke: #d9d9d9; stroke-width: 0.6; stroke-linecap: square"/>
   </g>
   <g id="line2d_7">
    <path d="M 226.127505 112.153999 
L 97.34662 335.209035 
" clip-path="url(#p897c6af0a9)" style="fill: none; stroke: #d9d9d9; stroke-width: 0.6; stroke-linecap: square"/>
   </g>
   <g id="line2d_8">
    <path d="M 81.249009 251.563396 
L 306.615558 251.563396 
" clip-path="url(#p897c6af0a9)" style="fill: none; stroke: #d9d9d9; stroke-width: 0.6; stroke-linecap: square"/>
   </g>
   <g id="line2d_9">
    <path d="M 145.639452 140.035878 
L 258.322726 335.209035 
" clip-path="url(#p897c6af0a9)" style="fill: none; stroke: #d9d9d9; stroke-width: 0.6; stroke-linecap: square"/>
   </g>
   <g id="line2d_10">
    <path d="M 242.225115 140.035878 
L 129.541841 335.209035 
" clip-path="url(#p897c6af0a9)" style="fill: none; stroke: #d9d9d9; stroke-width: 0.6; stroke-linecap: square"/>
   </g>
   <g id="line2d_11">
    <path d="M 97.34662 223.681517 
L 290.517947 223.681517 
" clip-path="url(#p897c6af0a9)" style="fill: none; stroke: #d9d9d9; stroke-width: 0.6; stroke-linecap: square"/>
   </g>
   <g id="line2d_12">
    <path d="M 129.541841 167.917758 
L 226.127505 335.209035 
" clip-path="url(#p897c6af0a9)" style="fill: none; stroke: #d9d9d9; stroke-width: 0.6; stroke-linecap: square"/>
   </g>
   <g id="line2d_13">
    <path d="M 258.322726 167.917758 
L 161.737062 335.209035 
" clip-path="url(#p897c6af0a9)" style="fill: none; stroke: #d9d9d9; stroke-width: 0.6; stroke-linecap: square"/>
   </g>
   <g id="line2d_14">
    <path d="M 113.44423 195.799637 
L 274.420337 195.799637 
" clip-path="url(#p897c6af0a9)" style="fill: none; stroke: #d9d9d9; stroke-width: 0.6; stroke-linecap: square"/>
   </g>
   <g id="line2d_15">
    <path d="M 113.44423 195.799637 
L 193.932283 335.209035 
" clip-path="url(#p897c6af0a9)" style="fill: none; stroke: #d9d9d9; stroke-width: 0.6; stroke-linecap: square"/>
   </g>
   <g id="line2d_16">
    <path d="M 274.420337 195.799637 
L 193.932283 335.209035 
" clip-path="url(#p897c6af0a9)" style="fill: none; stroke: #d9d9d9; stroke-width: 0.6; stroke-linecap: square"/>
   </g>
   <g id="line2d_17">
    <path d="M 129.541841 167.917758 
L 258.322726 167.917758 
" clip-path="url(#p897c6af0a9)" style="fill: none; stroke: #d9d9d9; stroke-width: 0.6; stroke-linecap: square"/>
   </g>
   <g id="line2d_18">
    <path d="M 97.34662 223.681517 
L 161.737062 335.209035 
" clip-path="url(#p897c6af0a9)" style="fill: none; stroke: #d9d9d9; stroke-width: 0.6; stroke-linecap: square"/>
   </g>
   <g id="line2d_19">
    <path d="M 290.517947 223.681517 
L 226.127505 335.209035 
" clip-path="url(#p897c6af0a9)" style="fill: none; stroke: #d9d9d9; stroke-width: 0.6; stroke-linecap: square"/>
   </g>
   <g id="line2d_20">
    <path d="M 145.639452 140.035878 
L 242.225115 140.035878 
" clip-path="url(#p897c6af0a9)" style="fill: none; stroke: #d9d9d9; stroke-width: 0.6; stroke-linecap: square"/>
   </g>
   <g id="line2d_21">
    <path d="M 81.249009 251.563396 
L 129.541841 335.209035 
" clip-path="url(#p897c6af0a9)" style="fill: none; stroke: #d9d9d9; stroke-width: 0.6; stroke-linecap: square"/>
   </g>
   <g id="line2d_22">
    <path d="M 306.615558 251.563396 
L 258.322726 335.209035 
" clip-path="url(#p897c6af0a9)" style="fill: none; stroke: #d9d9d9; stroke-width: 0.6; stroke-linecap: square"/>
   </g>
   <g id="line2d_23">
    <path d="M 161.737062 112.153999 
L 226.127505 112.153999 
" clip-path="url(#p897c6af0a9)" style="fill: none; stroke: #d9d9d9; stroke-width: 0.6; stroke-linecap: square"/>
   </g>
   <g id="line2d_24">
    <path d="M 65.151398 279.445276 
L 97.34662 335.209035 
" clip-path="url(#p897c6af0a9)" style="fill: none; stroke: #d9d9d9; stroke-width: 0.6; stroke-linecap: square"/>
   </g>
   <g id="line2d_25">
    <path d="M 322.713169 279.445276 
L 290.517947 335.209035 
" clip-path="url(#p897c6af0a9)" style="fill: none; stroke: #d9d9d9; stroke-width: 0.6; stroke-linecap: square"/>
   </g>
   <g id="line2d_26">
    <path d="M 177.834673 84.272119 
L 210.029894 84.272119 
" clip-path="url(#p897c6af0a9)" style="fill: none; stroke: #d9d9d9; stroke-width: 0.6; stroke-linecap: square"/>
   </g>
   <g id="line2d_27">
    <path d="M 49.053788 307.327155 
L 65.151398 335.209035 
" clip-path="url(#p897c6af0a9)" style="fill: none; stroke: #d9d9d9; stroke-width: 0.6; stroke-linecap: square"/>
   </g>
   <g id="line2d_28">
    <path d="M 338.810779 307.327155 
L 322.713169 335.209035 
" clip-path="url(#p897c6af0a9)" style="fill: none; stroke: #d9d9d9; stroke-width: 0.6; stroke-linecap: square"/>
   </g>
   <g id="line2d_29">
    <path d="M 174.520426 188.462873 
L 174.518757 188.461115 
L 172.858944 186.693663 
L 171.219395 184.886465 
L 169.61405 183.020024 
L 168.054724 181.073877 
L 166.552915 179.028106 
L 165.120264 176.862551 
L 163.769515 174.555136 
L 162.516314 172.078764 
L 161.382035 169.396413 
L 160.396882 166.455769 
L 159.599856 163.189279 
L 159.031351 159.526978 
L 158.728521 155.404514 
L 158.759179 150.704433 
L 158.954032 148.043449 
L 159.333035 145.063506 
L 159.733753 142.812952 
" clip-path="url(#p897c6af0a9)" style="fill: none; stroke: #000000; stroke-opacity: 0.95; stroke-width: 0.9; stroke-linecap: square"/>
   </g>
   <g id="line2d_30">
    <path d="M 159.733753 142.812952 
L 159.735444 142.805377 
L 160.158051 140.912816 
L 160.581796 139.018286 
L 161.007479 137.120398 
L 161.436258 135.217148 
L 161.869794 133.305658 
L 162.310442 131.381849 
L 162.761473 129.440058 
L 163.227204 127.472805 
L 163.712609 125.471475 
L 164.359352 122.882734 
" clip-path="url(#p897c6af0a9)" style="fill: none; stroke: #000000; stroke-opacity: 0.95; stroke-width: 0.9; stroke-linecap: square"/>
   </g>
   <g id="line2d_31">
    <path d="M 159.733753 142.812952 
L 159.736878 142.812187 
L 161.298929 142.427802 
L 162.864157 142.037913 
L 164.432889 141.641957 
L 166.0055 141.239281 
L 167.582426 140.82913 
L 169.164177 140.410625 
L 170.751351 139.982726 
L 172.34466 139.5442 
L 173.944958 139.093567 
L 175.553285 138.62903 
L 177.170918 138.148375 
L 178.799455 137.648832 
L 180.440933 137.126875 
L 182.098004 136.57791 
L 183.774218 135.99579 
L 185.474485 135.372008 
L 187.205901 134.694274 
L 188.979328 133.943774 
L 190.812805 133.089266 
L 192.740279 132.071948 
L 194.841515 130.753668 
L 195.256859 130.456301 
L 196.142613 129.76619 
L 197.157652 128.852153 
L 197.368216 128.64091 
L 197.836401 128.136921 
L 198.048508 127.890439 
L 198.459044 127.373783 
L 198.533143 127.274097 
" clip-path="url(#p897c6af0a9)" style="fill: none; stroke: #000000; stroke-opacity: 0.95; stroke-width: 0.9; stroke-linecap: square"/>
   </g>
   <g id="line2d_32">
    <path d="M 164.359352 122.882734 
L 164.363179 122.880753 
L 166.274584 121.891269 
L 168.185989 120.901786 
L 170.097393 119.912302 
L 172.008798 118.922818 
L 173.920203 117.933334 
L 175.831608 116.943851 
L 177.743013 115.954367 
L 179.654417 114.964883 
L 181.565822 113.975399 
L 182.068335 113.715262 
" clip-path="url(#p897c6af0a9)" style="fill: none; stroke: #000000; stroke-opacity: 0.95; stroke-width: 0.9; stroke-linecap: square"/>
   </g>
   <g id="line2d_33">
    <path d="M 164.359352 122.882734 
L 164.36185 122.883055 
L 166.856988 123.203682 
L 169.354623 123.524631 
L 171.852259 123.845579 
L 174.349894 124.166528 
L 176.84753 124.487476 
L 179.345165 124.808425 
L 181.8428 125.129373 
L 184.340436 125.450321 
L 186.838071 125.77127 
L 189.335707 126.092218 
L 191.833342 126.413167 
L 194.330978 126.734115 
L 196.828613 127.055063 
L 198.533143 127.274097 
" clip-path="url(#p897c6af0a9)" style="fill: none; stroke: #000000; stroke-opacity: 0.95; stroke-width: 0.9; stroke-linecap: square"/>
   </g>
   <g id="line2d_34">
    <path d="M 164.359352 122.882734 
L 164.358165 122.880144 
L 163.285103 120.096408 
L 162.927032 118.616978 
" clip-path="url(#p897c6af0a9)" style="fill: none; stroke: #000000; stroke-opacity: 0.95; stroke-width: 0.9; stroke-linecap: square"/>
   </g>
   <g id="line2d_35">
    <path d="M 162.927032 118.616978 
L 162.932323 118.612461 
L 164.253632 117.484469 
L 165.574942 116.356477 
L 166.896251 115.228485 
L 168.217561 114.100493 
L 169.538871 112.972501 
L 170.86018 111.844509 
L 172.18149 110.716517 
L 173.502799 109.588525 
L 174.824109 108.460533 
L 176.145418 107.332541 
L 177.466728 106.204549 
L 178.788037 105.076557 
L 180.314392 103.773519 
" clip-path="url(#p897c6af0a9)" style="fill: none; stroke: #000000; stroke-opacity: 0.95; stroke-width: 0.9; stroke-linecap: square"/>
   </g>
   <g id="line2d_36">
    <path d="M 162.927032 118.616978 
L 162.930859 118.614997 
L 164.842264 117.625513 
L 166.753668 116.636029 
L 168.665073 115.646546 
L 170.576478 114.657062 
L 172.487883 113.667578 
L 174.399288 112.678094 
L 176.310692 111.688611 
L 178.222097 110.699127 
L 180.133502 109.709643 
L 182.044907 108.720159 
L 183.956312 107.730676 
L 184.322293 107.541217 
" clip-path="url(#p897c6af0a9)" style="fill: none; stroke: #000000; stroke-opacity: 0.95; stroke-width: 0.9; stroke-linecap: square"/>
   </g>
   <g id="line2d_37">
    <path d="M 162.927032 118.616978 
L 162.92559 118.614829 
L 162.633126 118.148637 
" clip-path="url(#p897c6af0a9)" style="fill: none; stroke: #000000; stroke-opacity: 0.95; stroke-width: 0.9; stroke-linecap: square"/>
   </g>
   <g id="line2d_38">
    <path d="M 162.633126 118.148637 
L 162.634468 118.146313 
L 163.974594 115.825147 
L 165.316062 113.501657 
L 166.657529 111.178167 
L 167.998997 108.854677 
L 169.340464 106.531187 
L 170.681932 104.207697 
L 172.023399 101.884207 
L 173.364867 99.560717 
L 174.556943 97.495981 
" clip-path="url(#p897c6af0a9)" style="fill: none; stroke: #000000; stroke-opacity: 0.95; stroke-width: 0.9; stroke-linecap: square"/>
   </g>
   <g id="line2d_39">
    <path d="M 162.633126 118.148637 
L 162.638417 118.14412 
L 163.959727 117.016128 
L 165.281036 115.888136 
L 166.602346 114.760144 
L 167.923655 113.632152 
L 169.244965 112.50416 
L 170.566274 111.376168 
L 171.887584 110.248176 
L 173.208893 109.120184 
L 174.530203 107.992192 
L 175.851513 106.8642 
L 177.172822 105.736208 
L 178.494132 104.608216 
L 180.39573 102.984835 
" clip-path="url(#p897c6af0a9)" style="fill: none; stroke: #000000; stroke-opacity: 0.95; stroke-width: 0.9; stroke-linecap: square"/>
   </g>
   <g id="line2d_40">
    <path d="M 162.633126 118.148637 
L 162.630818 118.147988 
L 160.307438 117.529868 
L 159.13195 117.242383 
L 158.98448 117.207371 
L 158.910704 117.189937 
L 158.873806 117.181237 
L 158.855355 117.176891 
L 158.846129 117.17472 
L 158.841515 117.173634 
L 158.840362 117.173363 
L 158.839785 117.173227 
L 158.839497 117.173159 
L 158.839353 117.173125 
L 158.839281 117.173108 
L 158.839281 117.173108 
" clip-path="url(#p897c6af0a9)" style="fill: none; stroke: #000000; stroke-opacity: 0.95; stroke-width: 0.9; stroke-linecap: square"/>
   </g>
   <g id="line2d_41">
    <path d="M 159.733753 142.812952 
L 159.730688 142.813615 
L 158.203774 143.137141 
L 156.683154 143.449764 
L 155.165339 143.757531 
L 153.647062 144.066097 
L 152.125257 144.380774 
L 150.597043 144.706552 
L 149.05973 145.048091 
L 147.510823 145.409709 
L 145.948048 145.795349 
L 144.369365 146.208541 
L 142.773004 146.652353 
L 141.967721 146.886561 
L 141.765633 146.946442 
L 141.664472 146.976585 
L 141.63917 146.984142 
L 141.626516 146.987924 
L 141.625726 146.98816 
L 141.625528 146.988219 
L 141.625516 146.988223 
L 141.625516 146.988223 
" clip-path="url(#p897c6af0a9)" style="fill: none; stroke: #000000; stroke-opacity: 0.95; stroke-width: 0.9; stroke-linecap: square"/>
   </g>
   <g id="line2d_42">
    <path d="M 174.520426 188.462873 
L 174.515967 188.465947 
L 173.399001 189.240006 
L 172.27475 190.026683 
L 171.142754 190.826776 
L 170.002501 191.641168 
L 168.853429 192.470836 
L 167.694913 193.316861 
L 166.526264 194.180436 
L 165.346719 195.062887 
L 164.155429 195.965678 
L 162.951454 196.89044 
L 161.733748 197.838985 
L 160.501143 198.813337 
L 159.252332 199.815758 
L 157.985848 200.848789 
L 156.700038 201.915293 
L 155.393031 203.018512 
L 154.062698 204.162134 
L 152.706604 205.350375 
L 151.321945 206.588091 
L 149.90547 207.880915 
L 148.453377 209.235431 
L 146.961178 210.659412 
L 145.423517 212.162135 
L 143.833918 213.754818 
L 142.184432 215.451228 
L 140.465125 217.268573 
L 139.639462 218.15965 
L 138.001 219.964083 
L 136.378036 221.800008 
L 134.772133 223.665481 
L 133.183162 225.560282 
L 131.610962 227.484133 
L 130.055348 229.436709 
L 128.516113 231.417656 
L 126.99304 233.426597 
L 125.485908 235.463147 
L 123.994494 237.526923 
L 123.109261 238.775034 
" clip-path="url(#p897c6af0a9)" style="fill: none; stroke: #000000; stroke-opacity: 0.95; stroke-width: 0.9; stroke-linecap: square"/>
   </g>
   <g id="line2d_43">
    <path d="M 123.109261 238.775034 
L 123.10774 238.777045 
L 121.587283 240.78587 
L 120.065115 242.796378 
L 118.542747 244.806538 
L 117.020168 246.816334 
L 115.497366 248.825744 
L 113.97433 250.834748 
L 112.451045 252.843321 
L 110.927498 254.85144 
L 109.403672 256.859076 
L 107.879552 258.866202 
L 106.355118 260.872785 
L 104.830351 262.878792 
L 103.305231 264.884185 
L 101.779733 266.888925 
L 100.253833 268.892968 
L 98.727502 270.896267 
L 97.200712 272.898769 
L 95.67343 274.900417 
L 94.145618 276.901151 
L 92.617239 278.9009 
L 91.088248 280.89959 
L 89.558597 282.897137 
L 88.028234 284.893449 
L 86.497099 286.888425 
L 84.965126 288.88195 
L 83.432242 290.873897 
L 81.898365 292.864125 
L 80.363404 294.852473 
L 78.827253 296.838762 
L 77.289795 298.822787 
L 75.750896 300.804316 
L 74.210403 302.783083 
L 72.66814 304.758784 
L 71.123902 306.731067 
L 69.577454 308.69952 
L 68.028518 310.663664 
L 66.476765 312.622928 
L 64.921803 314.576636 
L 63.36316 316.523967 
L 61.800259 318.463922 
L 60.23238 320.395257 
L 58.65862 322.316405 
L 57.077812 324.225343 
L 55.488411 326.1194 
L 53.888319 327.99494 
L 52.274578 329.846839 
L 50.642846 331.667576 
L 48.986467 333.445624 
L 48.145995 334.313373 
L 47.992134 334.46933 
L 47.683395 334.779485 
L 47.627119 334.83563 
L 47.514446 334.947714 
L 47.288869 335.171479 
L 47.285148 335.175192 
L 47.277712 335.182624 
L 47.262871 335.197546 
L 47.260182 335.200275 
L 47.254825 335.20577 
L 47.253858 335.20678 
L 47.251948 335.208846 
L 47.251918 335.208882 
L 47.251858 335.208956 
L 47.251848 335.20897 
L 47.251827 335.208998 
L 47.251823 335.209004 
L 47.251816 335.209015 
L 47.251816 335.209015 
" clip-path="url(#p897c6af0a9)" style="fill: none; stroke: #000000; stroke-opacity: 0.95; stroke-width: 0.9; stroke-linecap: square"/>
   </g>
   <g id="line2d_44">
    <path d="M 123.109261 238.775034 
L 253.355132 297.238867 
L 298.739112 317.817065 
L 324.323329 329.633897 
L 335.543535 335.01007 
L 335.887647 335.208507 
L 335.887647 335.208507 
" clip-path="url(#p897c6af0a9)" style="fill: none; stroke: #000000; stroke-opacity: 0.95; stroke-width: 0.9; stroke-linecap: square"/>
   </g>
   <g id="line2d_45">
    <path d="M 123.109261 238.775034 
L 123.10546 238.773096 
L 121.206762 237.805622 
L 119.30789 236.837846 
L 117.407752 235.867875 
L 115.50491 234.893223 
L 113.597513 233.910682 
L 111.683192 232.916147 
L 109.758907 231.904354 
L 107.820717 230.868476 
L 105.863413 229.799493 
L 103.879922 228.685152 
L 101.860251 227.508147 
L 99.7895 226.242666 
L 99.405853 226.000201 
L 98.630469 225.501257 
L 97.04044 224.435368 
L 97.013636 224.416845 
L 96.95997 224.379698 
L 96.950204 224.372929 
L 96.949316 224.372314 
L 96.949155 224.372202 
L 96.948832 224.371978 
L 96.948215 224.371573 
L 96.948184 224.371627 
L 96.948118 224.371742 
L 96.948109 224.371757 
L 96.948087 224.371795 
L 96.948087 224.371795 
" clip-path="url(#p897c6af0a9)" style="fill: none; stroke: #000000; stroke-opacity: 0.95; stroke-width: 0.9; stroke-linecap: square"/>
   </g>
   <g id="line2d_46">
    <path d="M 174.520426 188.462873 
L 174.524474 188.460507 
L 176.547009 187.278541 
L 178.569906 186.095947 
L 180.593185 184.912691 
L 182.616867 183.728737 
L 184.640975 182.544047 
L 186.665531 181.358579 
L 188.690561 180.17229 
L 190.716091 178.985136 
L 192.742149 177.797067 
L 194.768763 176.608035 
L 196.795963 175.417988 
L 198.823779 174.226874 
L 200.852242 173.034639 
L 202.881382 171.841233 
L 204.911226 170.646606 
L 206.941799 169.450716 
L 208.973121 168.253531 
L 211.0052 167.055033 
L 213.038031 165.855232 
L 215.071589 164.654174 
L 217.105812 163.451962 
L 219.140593 162.248785 
L 221.17575 161.044956 
L 223.210993 159.840979 
L 225.245869 158.637637 
L 227.279681 157.436137 
L 229.311366 156.238322 
L 231.339305 155.046994 
L 233.361059 153.86638 
L 235.372984 152.702791 
L 237.369771 151.56542 
L 239.344024 150.467081 
L 241.286226 149.424255 
L 243.185645 148.455531 
L 245.032401 147.578022 
L 246.265944 147.034799 
" clip-path="url(#p897c6af0a9)" style="fill: none; stroke: #000000; stroke-opacity: 0.95; stroke-width: 0.9; stroke-linecap: square"/>
   </g>
   <g id="line2d_47">
    <path d="M 174.520426 188.462873 
L 174.522287 188.464296 
L 176.381659 189.886101 
L 178.242885 191.309343 
L 180.104104 192.732598 
L 181.965316 194.155865 
L 183.826521 195.579143 
L 185.687719 197.002432 
L 187.548912 198.425731 
L 189.4101 199.84904 
L 191.271282 201.272357 
L 193.13246 202.695682 
L 194.993634 204.119014 
L 196.854805 205.542351 
L 198.715974 206.965693 
L 200.57714 208.389037 
L 202.438306 209.812384 
L 204.299471 211.235731 
L 206.160638 212.659076 
L 208.021806 214.082418 
L 209.882977 215.505756 
L 211.744152 216.929086 
L 213.605332 218.352407 
L 215.466519 219.775716 
L 217.327715 221.19901 
L 219.18892 222.622288 
L 221.050137 224.045545 
L 222.911368 225.468779 
L 224.772615 226.891986 
L 226.633879 228.315161 
L 228.495164 229.738301 
L 230.356471 231.161401 
L 232.217805 232.584457 
L 234.079168 234.007462 
L 235.940563 235.430411 
L 237.801994 236.853297 
L 239.663466 238.276114 
L 241.524981 239.698854 
L 243.386546 241.121509 
L 245.248166 242.54407 
L 247.109845 243.966527 
L 248.97159 245.38887 
L 250.833407 246.811087 
L 252.695305 248.233166 
L 254.55729 249.655092 
L 256.419372 251.076852 
L 258.28156 252.498427 
L 260.143864 253.919802 
L 262.006297 255.340954 
L 263.868869 256.761864 
L 265.731596 258.182507 
L 267.594492 259.602856 
L 269.457574 261.022883 
L 271.320861 262.442555 
L 273.184373 263.861838 
L 275.048133 265.280691 
L 276.912165 266.699072 
L 278.776498 268.116932 
L 280.641163 269.534217 
L 282.506195 270.950868 
L 284.371632 272.366816 
L 286.237517 273.781987 
L 288.103901 275.196297 
L 289.970836 276.609649 
L 291.838387 278.021937 
L 293.706621 279.433039 
L 295.575621 280.842818 
L 297.445475 282.251115 
L 299.316288 283.657752 
L 301.188178 285.062523 
L 303.061282 286.465191 
L 304.935759 287.865482 
L 306.811791 289.263079 
L 308.689593 290.657611 
L 310.569413 292.048646 
L 312.451548 293.435673 
L 314.336346 294.818087 
L 316.224222 296.195169 
L 318.115674 297.566059 
L 320.011302 298.929715 
L 321.911834 300.284877 
L 323.818161 301.630001 
L 325.731382 302.963186 
L 327.652857 304.282072 
L 329.584292 305.58371 
L 331.527828 306.864386 
L 333.486179 308.119402 
L 335.462789 309.342793 
L 337.462032 310.526983 
L 339.489423 311.662419 
L 341.551811 312.737238 
L 342.08663 313.001095 
" clip-path="url(#p897c6af0a9)" style="fill: none; stroke: #000000; stroke-opacity: 0.95; stroke-width: 0.9; stroke-linecap: square"/>
   </g>
   <g id="line2d_48">
    <path d="M 201.693838 209.243044 
L 201.698642 209.246718 
L 202.898472 210.164301 
L 204.098302 211.081884 
L 205.298131 211.999466 
L 206.497959 212.917045 
L 207.697784 213.834621 
L 208.897607 214.752192 
L 210.097426 215.669756 
L 211.297241 216.587312 
L 212.49705 217.504859 
L 213.696852 218.422395 
L 214.896648 219.339919 
L 216.096435 220.257428 
L 217.296212 221.17492 
L 218.495979 222.092394 
L 219.695734 223.009848 
L 220.895476 223.927279 
L 222.095204 224.844685 
L 223.294916 225.762063 
L 224.49461 226.679412 
L 225.694286 227.596728 
L 226.893941 228.514008 
L 228.093574 229.43125 
L 229.293183 230.34845 
L 230.492766 231.265605 
L 231.692321 232.182712 
L 232.891845 233.099767 
L 234.091338 234.016765 
L 235.290795 234.933704 
L 236.490216 235.850577 
L 237.689596 236.767382 
L 238.888934 237.684113 
L 240.088226 238.600765 
L 241.28747 239.517333 
L 242.486662 240.43381 
L 243.685798 241.350192 
L 244.884876 242.266472 
L 246.08389 243.182643 
L 247.282838 244.098698 
L 248.481714 245.01463 
L 249.680515 245.930431 
L 250.879236 246.846092 
L 252.07787 247.761605 
L 253.276414 248.676961 
L 254.474862 249.59215 
L 255.673207 250.507161 
L 256.871443 251.421983 
L 258.069563 252.336605 
L 259.267561 253.251015 
L 260.465428 254.165199 
L 261.663157 255.079143 
L 262.860739 255.992833 
L 264.058165 256.906253 
L 265.255426 257.819386 
L 266.452511 258.732215 
L 267.64941 259.644721 
L 268.846111 260.556884 
L 270.042601 261.468682 
L 271.238868 262.380094 
L 272.434897 263.291095 
L 273.630675 264.201659 
L 274.826185 265.11176 
L 276.02141 266.021367 
L 277.216332 266.93045 
L 278.410932 267.838975 
L 279.60519 268.746907 
L 280.799084 269.654208 
L 281.992589 270.560837 
L 283.185681 271.46675 
L 284.378334 272.371901 
L 285.570517 273.27624 
L 286.7622 274.179712 
L 287.95335 275.082261 
L 289.14393 275.983824 
L 290.333903 276.884334 
L 291.523227 277.78372 
L 292.711857 278.681904 
L 293.899745 279.578803 
L 295.086839 280.474327 
L 296.273083 281.368379 
L 297.458417 282.260855 
L 298.642775 283.15164 
L 299.826087 284.040612 
L 301.008275 284.927639 
L 302.189256 285.812575 
L 303.368941 286.695266 
L 304.54723 287.57554 
L 305.724018 288.453213 
L 306.899189 289.328086 
L 308.072617 290.199938 
L 309.244163 291.068534 
L 310.41368 291.933612 
L 311.581002 292.794891 
L 312.745953 293.652062 
L 313.908338 294.504788 
L 315.067944 295.352701 
L 316.224539 296.1954 
L 317.37787 297.032445 
L 318.52766 297.863356 
L 319.673607 298.687611 
L 320.815381 299.504638 
L 321.952622 300.313814 
L 323.084938 301.11446 
L 324.211905 301.90584 
L 325.333059 302.687154 
L 326.447903 303.457537 
L 327.555898 304.216058 
L 328.656468 304.961716 
L 329.748995 305.693446 
L 330.832828 306.410117 
L 332.971638 307.793478 
L 335.067111 309.101777 
L 337.113302 310.324717 
L 339.104547 311.452488 
L 341.036037 312.47676 
L 341.978259 312.948154 
L 342.036617 312.976696 
L 342.065772 312.990927 
L 342.080344 312.998032 
L 342.083987 312.999807 
L 342.085808 313.000695 
L 342.086263 313.000916 
L 342.086491 313.001027 
L 342.086501 313.001032 
L 342.086501 313.001032 
" clip-path="url(#p897c6af0a9)" style="fill: none; stroke: #000000; stroke-opacity: 0.95; stroke-width: 0.9; stroke-linecap: square"/>
   </g>
   <g id="line2d_49">
    <path d="M 195.26306 63.815743 
L 195.259324 63.817567 
L 193.635917 64.825629 
" clip-path="url(#p897c6af0a9)" style="fill: none; stroke: #000000; stroke-opacity: 0.95; stroke-width: 0.9; stroke-linecap: square"/>
   </g>
   <g id="line2d_50">
    <path d="M 193.635917 64.825629 
L 193.635392 64.831185 
L 193.373162 67.606547 
L 193.110933 70.381908 
L 192.848703 73.15727 
L 192.586473 75.932631 
L 192.324244 78.707993 
L 192.062014 81.483354 
L 191.799784 84.258716 
L 191.537555 87.034078 
L 191.275325 89.809439 
L 191.121603 91.436386 
" clip-path="url(#p897c6af0a9)" style="fill: none; stroke: #000000; stroke-opacity: 0.95; stroke-width: 0.9; stroke-linecap: square"/>
   </g>
   <g id="line2d_51">
    <path d="M 193.635917 64.825629 
L 193.636325 64.829569 
L 194.044159 68.765513 
L 194.4524 72.705398 
L 194.860642 76.645283 
L 195.268884 80.585167 
L 195.677125 84.525052 
L 196.085367 88.464937 
L 196.493608 92.404822 
L 196.90185 96.344706 
L 196.962178 96.926921 
" clip-path="url(#p897c6af0a9)" style="fill: none; stroke: #000000; stroke-opacity: 0.95; stroke-width: 0.9; stroke-linecap: square"/>
   </g>
   <g id="line2d_52">
    <path d="M 193.635917 64.825629 
L 193.632568 64.826782 
L 192.952947 65.108058 
" clip-path="url(#p897c6af0a9)" style="fill: none; stroke: #000000; stroke-opacity: 0.95; stroke-width: 0.9; stroke-linecap: square"/>
   </g>
   <g id="line2d_53">
    <path d="M 192.952947 65.108058 
L 192.951605 65.110381 
L 191.611479 67.431547 
L 190.270011 69.755037 
L 188.928544 72.078527 
L 187.587076 74.402017 
L 186.245609 76.725507 
L 184.904141 79.048997 
L 183.562674 81.372487 
L 182.221206 83.695977 
L 182.171103 83.782759 
" clip-path="url(#p897c6af0a9)" style="fill: none; stroke: #000000; stroke-opacity: 0.95; stroke-width: 0.9; stroke-linecap: square"/>
   </g>
   <g id="line2d_54">
    <path d="M 192.952947 65.108058 
L 192.952422 65.113614 
L 192.690192 67.888975 
L 192.427962 70.664337 
L 192.165733 73.439699 
L 191.903503 76.21506 
L 191.641273 78.990422 
L 191.379044 81.765783 
L 191.116814 84.541145 
L 190.854584 87.316506 
L 190.452866 91.568176 
" clip-path="url(#p897c6af0a9)" style="fill: none; stroke: #000000; stroke-opacity: 0.95; stroke-width: 0.9; stroke-linecap: square"/>
   </g>
   <g id="line2d_55">
    <path d="M 192.952947 65.108058 
L 192.951395 65.106098 
L 191.361714 63.217173 
L 190.545426 62.307535 
L 190.532609 62.293431 
L 190.529404 62.289906 
L 190.527802 62.288143 
L 190.527401 62.287702 
L 190.527395 62.287695 
L 190.527392 62.287692 
L 190.527392 62.287692 
" clip-path="url(#p897c6af0a9)" style="fill: none; stroke: #000000; stroke-opacity: 0.95; stroke-width: 0.9; stroke-linecap: square"/>
   </g>
   <g id="line2d_56">
    <path d="M 195.26306 63.815743 
L 195.274261 63.800989 
L 196.858959 61.903433 
L 196.962585 61.792482 
L 197.014611 61.737376 
L 197.016239 61.735658 
L 197.017054 61.734799 
L 197.017461 61.73437 
L 197.01747 61.73436 
L 197.017488 61.73434 
L 197.017525 61.734301 
L 197.017532 61.734294 
L 197.017532 61.734294 
" clip-path="url(#p897c6af0a9)" style="fill: none; stroke: #000000; stroke-opacity: 0.95; stroke-width: 0.9; stroke-linecap: square"/>
   </g>
   <g id="line2d_57">
    <path d="M 195.26306 63.815743 
L 195.263469 63.819683 
L 195.671302 67.755627 
L 196.079543 71.695512 
L 196.487785 75.635397 
L 196.896027 79.575281 
L 197.304268 83.515166 
L 197.71251 87.455051 
L 198.120752 91.394935 
L 198.528993 95.33482 
L 198.653897 96.540245 
" clip-path="url(#p897c6af0a9)" style="fill: none; stroke: #000000; stroke-opacity: 0.95; stroke-width: 0.9; stroke-linecap: square"/>
   </g>
   <g id="line2d_58">
    <path d="M 195.26306 63.815743 
L 195.264402 63.818066 
L 196.604517 66.139251 
L 197.945974 68.46276 
L 199.287431 70.786268 
L 200.628888 73.109776 
L 201.970345 75.433285 
L 203.311802 77.756793 
L 204.653258 80.080302 
L 205.994715 82.40381 
L 207.336172 84.727319 
L 208.677629 87.050827 
L 210.019086 89.374335 
L 211.360543 91.697844 
L 212.702 94.021352 
L 214.043457 96.344861 
L 215.384913 98.668369 
L 216.438056 100.492494 
" clip-path="url(#p897c6af0a9)" style="fill: none; stroke: #000000; stroke-opacity: 0.95; stroke-width: 0.9; stroke-linecap: square"/>
   </g>
   <g id="text_1">
    <text style="font-size: 13px; font-family: 'Times New Roman', serif; text-anchor: start" x="7.2" y="357.113998" transform="rotate(-0 7.2 357.113998)">CaO</text>
   </g>
   <g id="text_2">
    <text style="font-size: 13px; font-family: 'Times New Roman', serif; text-anchor: end" x="380.664567" y="357.089623" transform="rotate(-0 380.664567 357.089623)">MgO</text>
   </g>
   <g id="text_3">
    <text style="font-size: 13px; font-family: 'Times New Roman', serif; text-anchor: middle" x="193.932283" y="40.73137" transform="rotate(-0 193.932283 40.73137)">Al2O3</text>
   </g>
   <g id="text_4">
    <text style="font-size: 10px; font-family: 'Times New Roman', serif" transform="translate(94.215096 14.14375)">CAMA_5CAF2_1SIO2 phase diagram from EXP</text>
    <text style="font-size: 10px; font-family: 'Times New Roman', serif" transform="translate(112.504158 24.634062)">Al2O3* = 1 - CaO - MgO - CaF2 - SiO2</text>
   </g>
  </g>
 </g>
 <defs>
  <clipPath id="p897c6af0a9">
   <rect x="7.2" y="30.634062" width="373.464567" height="323.892105"/>
  </clipPath>
 </defs>
</svg>
