<?xml version="1.0" encoding="utf-8" standalone="no"?>
<!DOCTYPE svg PUBLIC "-//W3C//DTD SVG 1.1//EN"
  "http://www.w3.org/Graphics/SVG/1.1/DTD/svg11.dtd">
<svg xmlns:xlink="http://www.w3.org/1999/xlink" width="387.864567pt" height="367.094779pt" viewBox="0 0 387.864567 367.094779" xmlns="http://www.w3.org/2000/svg" version="1.1">
 <metadata>
  <rdf:RDF xmlns:dc="http://purl.org/dc/elements/1.1/" xmlns:cc="http://creativecommons.org/ns#" xmlns:rdf="http://www.w3.org/1999/02/22-rdf-syntax-ns#">
   <cc:Work>
    <dc:type rdf:resource="http://purl.org/dc/dcmitype/StillImage"/>
    <dc:date>2026-03-28T21:22:55.997189</dc:date>
    <dc:format>image/svg+xml</dc:format>
    <dc:creator>
     <cc:Agent>
      <dc:title>Matplotlib v3.10.6, https://matplotlib.org/</dc:title>
     </cc:Agent>
    </dc:creator>
   </cc:Work>
  </rdf:RDF>
 </metadata>
 <defs>
  <style type="text/css">*{stroke-linejoin: round; stroke-linecap: butt}</style>
 </defs>
 <g id="figure_1">
  <g id="patch_1">
   <path d="M 0 367.094779 
L 387.864567 367.094779 
L 387.864567 0 
L 0 0 
z
" style="fill: #ffffff"/>
  </g>
  <g id="axes_1">
   <g id="line2d_1">
    <path d="M 32.956177 335.209035 
L 354.90839 335.209035 
L 193.932283 56.39024 
L 32.956177 335.209035 
" clip-path="url(#p099d142883)" style="fill: none; stroke: #000000; stroke-linecap: square"/>
   </g>
   <g id="line2d_2">
    <path d="M 49.053788 307.327155 
L 338.810779 307.327155 
" clip-path="url(#p099d142883)" style="fill: none; stroke: #d9d9d9; stroke-width: 0.6; stroke-linecap: square"/>
   </g>
   <g id="line2d_3">
    <path d="M 177.834673 84.272119 
L 322.713169 335.209035 
" clip-path="url(#p099d142883)" style="fill: none; stroke: #d9d9d9; stroke-width: 0.6; stroke-linecap: square"/>
   </g>
   <g id="line2d_4">
    <path d="M 210.029894 84.272119 
L 65.151398 335.209035 
" clip-path="url(#p099d142883)" style="fill: none; stroke: #d9d9d9; stroke-width: 0.6; stroke-linecap: square"/>
   </g>
   <g id="line2d_5">
    <path d="M 177.834673 84.272119 
L 177.834673 89.101402 
" clip-path="url(#p099d142883)" style="fill: none; stroke: #000000; stroke-width: 0.7; stroke-linecap: square"/>
   </g>
   <g id="line2d_6">
    <path d="M 65.151398 279.445276 
L 322.713169 279.445276 
" clip-path="url(#p099d142883)" style="fill: none; stroke: #d9d9d9; stroke-width: 0.6; stroke-linecap: square"/>
   </g>
   <g id="line2d_7">
    <path d="M 161.737062 112.153999 
L 290.517947 335.209035 
" clip-path="url(#p099d142883)" style="fill: none; stroke: #d9d9d9; stroke-width: 0.6; stroke-linecap: square"/>
   </g>
   <g id="line2d_8">
    <path d="M 226.127505 112.153999 
L 97.34662 335.209035 
" clip-path="url(#p099d142883)" style="fill: none; stroke: #d9d9d9; stroke-width: 0.6; stroke-linecap: square"/>
   </g>
   <g id="line2d_9">
    <path d="M 161.737062 112.153999 
L 161.737062 116.983282 
" clip-path="url(#p099d142883)" style="fill: none; stroke: #000000; stroke-width: 0.7; stroke-linecap: square"/>
   </g>
   <g id="line2d_10">
    <path d="M 81.249009 251.563396 
L 306.615558 251.563396 
" clip-path="url(#p099d142883)" style="fill: none; stroke: #d9d9d9; stroke-width: 0.6; stroke-linecap: square"/>
   </g>
   <g id="line2d_11">
    <path d="M 145.639452 140.035878 
L 258.322726 335.209035 
" clip-path="url(#p099d142883)" style="fill: none; stroke: #d9d9d9; stroke-width: 0.6; stroke-linecap: square"/>
   </g>
   <g id="line2d_12">
    <path d="M 242.225115 140.035878 
L 129.541841 335.209035 
" clip-path="url(#p099d142883)" style="fill: none; stroke: #d9d9d9; stroke-width: 0.6; stroke-linecap: square"/>
   </g>
   <g id="line2d_13">
    <path d="M 145.639452 140.035878 
L 145.639452 144.865161 
" clip-path="url(#p099d142883)" style="fill: none; stroke: #000000; stroke-width: 0.7; stroke-linecap: square"/>
   </g>
   <g id="line2d_14">
    <path d="M 97.34662 223.681517 
L 290.517947 223.681517 
" clip-path="url(#p099d142883)" style="fill: none; stroke: #d9d9d9; stroke-width: 0.6; stroke-linecap: square"/>
   </g>
   <g id="line2d_15">
    <path d="M 129.541841 167.917758 
L 226.127505 335.209035 
" clip-path="url(#p099d142883)" style="fill: none; stroke: #d9d9d9; stroke-width: 0.6; stroke-linecap: square"/>
   </g>
   <g id="line2d_16">
    <path d="M 258.322726 167.917758 
L 161.737062 335.209035 
" clip-path="url(#p099d142883)" style="fill: none; stroke: #d9d9d9; stroke-width: 0.6; stroke-linecap: square"/>
   </g>
   <g id="line2d_17">
    <path d="M 129.541841 167.917758 
L 129.541841 172.747041 
" clip-path="url(#p099d142883)" style="fill: none; stroke: #000000; stroke-width: 0.7; stroke-linecap: square"/>
   </g>
   <g id="line2d_18">
    <path d="M 113.44423 195.799637 
L 274.420337 195.799637 
" clip-path="url(#p099d142883)" style="fill: none; stroke: #d9d9d9; stroke-width: 0.6; stroke-linecap: square"/>
   </g>
   <g id="line2d_19">
    <path d="M 113.44423 195.799637 
L 193.932283 335.209035 
" clip-path="url(#p099d142883)" style="fill: none; stroke: #d9d9d9; stroke-width: 0.6; stroke-linecap: square"/>
   </g>
   <g id="line2d_20">
    <path d="M 274.420337 195.799637 
L 193.932283 335.209035 
" clip-path="url(#p099d142883)" style="fill: none; stroke: #d9d9d9; stroke-width: 0.6; stroke-linecap: square"/>
   </g>
   <g id="line2d_21">
    <path d="M 113.44423 195.799637 
L 113.44423 200.62892 
" clip-path="url(#p099d142883)" style="fill: none; stroke: #000000; stroke-width: 0.7; stroke-linecap: square"/>
   </g>
   <g id="line2d_22">
    <path d="M 129.541841 167.917758 
L 258.322726 167.917758 
" clip-path="url(#p099d142883)" style="fill: none; stroke: #d9d9d9; stroke-width: 0.6; stroke-linecap: square"/>
   </g>
   <g id="line2d_23">
    <path d="M 97.34662 223.681517 
L 161.737062 335.209035 
" clip-path="url(#p099d142883)" style="fill: none; stroke: #d9d9d9; stroke-width: 0.6; stroke-linecap: square"/>
   </g>
   <g id="line2d_24">
    <path d="M 290.517947 223.681517 
L 226.127505 335.209035 
" clip-path="url(#p099d142883)" style="fill: none; stroke: #d9d9d9; stroke-width: 0.6; stroke-linecap: square"/>
   </g>
   <g id="line2d_25">
    <path d="M 97.34662 223.681517 
L 97.34662 228.5108 
" clip-path="url(#p099d142883)" style="fill: none; stroke: #000000; stroke-width: 0.7; stroke-linecap: square"/>
   </g>
   <g id="line2d_26">
    <path d="M 145.639452 140.035878 
L 242.225115 140.035878 
" clip-path="url(#p099d142883)" style="fill: none; stroke: #d9d9d9; stroke-width: 0.6; stroke-linecap: square"/>
   </g>
   <g id="line2d_27">
    <path d="M 81.249009 251.563396 
L 129.541841 335.209035 
" clip-path="url(#p099d142883)" style="fill: none; stroke: #d9d9d9; stroke-width: 0.6; stroke-linecap: square"/>
   </g>
   <g id="line2d_28">
    <path d="M 306.615558 251.563396 
L 258.322726 335.209035 
" clip-path="url(#p099d142883)" style="fill: none; stroke: #d9d9d9; stroke-width: 0.6; stroke-linecap: square"/>
   </g>
   <g id="line2d_29">
    <path d="M 81.249009 251.563396 
L 81.249009 256.392679 
" clip-path="url(#p099d142883)" style="fill: none; stroke: #000000; stroke-width: 0.7; stroke-linecap: square"/>
   </g>
   <g id="line2d_30">
    <path d="M 161.737062 112.153999 
L 226.127505 112.153999 
" clip-path="url(#p099d142883)" style="fill: none; stroke: #d9d9d9; stroke-width: 0.6; stroke-linecap: square"/>
   </g>
   <g id="line2d_31">
    <path d="M 65.151398 279.445276 
L 97.34662 335.209035 
" clip-path="url(#p099d142883)" style="fill: none; stroke: #d9d9d9; stroke-width: 0.6; stroke-linecap: square"/>
   </g>
   <g id="line2d_32">
    <path d="M 322.713169 279.445276 
L 290.517947 335.209035 
" clip-path="url(#p099d142883)" style="fill: none; stroke: #d9d9d9; stroke-width: 0.6; stroke-linecap: square"/>
   </g>
   <g id="line2d_33">
    <path d="M 65.151398 279.445276 
L 65.151398 284.274559 
" clip-path="url(#p099d142883)" style="fill: none; stroke: #000000; stroke-width: 0.7; stroke-linecap: square"/>
   </g>
   <g id="line2d_34">
    <path d="M 177.834673 84.272119 
L 210.029894 84.272119 
" clip-path="url(#p099d142883)" style="fill: none; stroke: #d9d9d9; stroke-width: 0.6; stroke-linecap: square"/>
   </g>
   <g id="line2d_35">
    <path d="M 49.053788 307.327155 
L 65.151398 335.209035 
" clip-path="url(#p099d142883)" style="fill: none; stroke: #d9d9d9; stroke-width: 0.6; stroke-linecap: square"/>
   </g>
   <g id="line2d_36">
    <path d="M 338.810779 307.327155 
L 322.713169 335.209035 
" clip-path="url(#p099d142883)" style="fill: none; stroke: #d9d9d9; stroke-width: 0.6; stroke-linecap: square"/>
   </g>
   <g id="line2d_37">
    <path d="M 49.053788 307.327155 
L 49.053788 312.156438 
" clip-path="url(#p099d142883)" style="fill: none; stroke: #000000; stroke-width: 0.7; stroke-linecap: square"/>
   </g>
   <g id="line2d_38">
    <path d="M 175.556636 199.288572 
L 175.554805 199.287097 
L 173.731696 197.802481 
L 171.927255 196.280885 
L 170.154732 194.704004 
L 168.425827 193.051576 
L 166.752707 191.302525 
L 165.148235 189.434573 
L 163.626144 187.423931 
L 162.20104 185.245303 
L 160.888043 182.872501 
L 159.702052 180.279718 
L 158.656987 177.442844 
L 157.765809 174.339429 
L 157.041927 170.94625 
L 156.501588 167.235165 
L 156.16776 163.166391 
L 156.082398 158.667264 
L 156.159674 156.209927 
L 156.345163 153.565161 
L 156.677508 150.666033 
L 157.222088 147.399302 
L 157.606963 145.570935 
L 158.093975 143.56566 
L 158.712363 141.332835 
L 159.499833 138.807153 
L 160.49708 135.918125 
L 161.081741 134.324589 
L 161.346029 133.620604 
L 161.834792 132.337961 
" clip-path="url(#p099d142883)" style="fill: none; stroke: #1f77b4; stroke-opacity: 0.95; stroke-width: 1.1; stroke-linecap: square"/>
   </g>
   <g id="line2d_39">
    <path d="M 161.834792 132.337961 
L 161.836545 132.336349 
L 163.587951 130.727542 
L 165.342142 129.11891 
L 167.097391 127.512109 
L 168.853699 125.907144 
L 170.611031 124.303953 
L 172.369298 122.702381 
L 174.128326 121.102126 
L 175.887819 119.502678 
L 177.647305 117.903217 
L 179.406053 116.302478 
L 181.162954 114.698539 
L 182.916345 113.088523 
L 184.663731 111.468105 
L 186.40131 109.830699 
L 188.123094 108.165937 
L 189.819055 106.456447 
L 191.470448 104.669763 
L 193.034633 102.732032 
L 194.088369 101.016096 
" clip-path="url(#p099d142883)" style="fill: none; stroke: #1f77b4; stroke-opacity: 0.95; stroke-width: 1.1; stroke-linecap: square"/>
   </g>
   <g id="line2d_40">
    <path d="M 161.834792 132.337961 
L 161.837266 132.337598 
L 164.304759 131.969089 
L 166.767043 131.58691 
L 169.220671 131.189739 
L 171.664502 130.775598 
L 174.097186 130.342151 
L 176.51712 129.886619 
L 178.922382 129.405676 
L 181.31066 128.895314 
L 183.679142 128.350665 
L 186.024388 127.765771 
L 188.342151 127.133273 
L 190.627135 126.444003 
L 192.872676 125.686413 
L 195.07028 124.845796 
L 197.208986 123.903163 
L 199.274415 122.833611 
L 201.247344 121.603844 
L 203.101427 120.16823 
L 204.799348 118.462136 
L 206.285747 116.389675 
L 207.47249 113.798194 
L 208.201311 110.413568 
L 208.107034 105.603296 
L 207.861804 104.077025 
" clip-path="url(#p099d142883)" style="fill: none; stroke: #1f77b4; stroke-opacity: 0.95; stroke-width: 1.1; stroke-linecap: square"/>
   </g>
   <g id="line2d_41">
    <path d="M 194.088369 101.016096 
L 194.087782 101.010433 
L 193.794662 98.181567 
L 193.501541 95.352701 
L 193.208421 92.523835 
L 192.9153 89.694969 
L 192.62218 86.866103 
L 192.329059 84.037237 
L 192.035939 81.208371 
L 191.742818 78.379505 
L 191.462242 75.671697 
" clip-path="url(#p099d142883)" style="fill: none; stroke: #1f77b4; stroke-opacity: 0.95; stroke-width: 1.1; stroke-linecap: square"/>
   </g>
   <g id="line2d_42">
    <path d="M 194.088369 101.016096 
L 194.091447 101.01678 
L 195.62883 101.358439 
L 197.166213 101.700098 
L 198.703596 102.041757 
L 200.240979 102.383416 
L 201.778362 102.725076 
L 203.315745 103.066735 
L 204.853128 103.408394 
L 206.390511 103.750053 
L 207.861804 104.077025 
" clip-path="url(#p099d142883)" style="fill: none; stroke: #1f77b4; stroke-opacity: 0.95; stroke-width: 1.1; stroke-linecap: square"/>
   </g>
   <g id="line2d_43">
    <path d="M 194.088369 101.016096 
L 194.085983 101.016611 
L 191.75572 101.62281 
L 190.764718 101.94352 
" clip-path="url(#p099d142883)" style="fill: none; stroke: #1f77b4; stroke-opacity: 0.95; stroke-width: 1.1; stroke-linecap: square"/>
   </g>
   <g id="line2d_44">
    <path d="M 190.764718 101.94352 
L 190.75885 101.938004 
L 189.293436 100.560416 
L 187.828023 99.182828 
L 186.421957 97.861031 
" clip-path="url(#p099d142883)" style="fill: none; stroke: #1f77b4; stroke-opacity: 0.95; stroke-width: 1.1; stroke-linecap: square"/>
   </g>
   <g id="line2d_45">
    <path d="M 190.764718 101.94352 
L 190.764131 101.937856 
L 190.471011 99.10899 
L 190.17789 96.280124 
L 189.88477 93.451258 
L 189.591649 90.622392 
L 189.298529 87.793526 
L 189.005408 84.96466 
L 188.712288 82.135794 
L 188.291476 78.074597 
" clip-path="url(#p099d142883)" style="fill: none; stroke: #1f77b4; stroke-opacity: 0.95; stroke-width: 1.1; stroke-linecap: square"/>
   </g>
   <g id="line2d_46">
    <path d="M 190.764718 101.94352 
L 190.762886 101.944993 
L 188.93563 103.422427 
L 187.111714 104.910291 
L 185.291941 106.405332 
L 183.475325 107.90584 
L 181.661048 109.4104 
L 179.848485 110.917928 
L 178.037174 112.427627 
L 176.226782 113.938916 
L 174.417066 115.451375 
L 172.607848 116.964698 
L 170.798997 118.478656 
L 168.990415 119.99308 
L 167.182027 121.507839 
L 165.847363 122.626023 
" clip-path="url(#p099d142883)" style="fill: none; stroke: #1f77b4; stroke-opacity: 0.95; stroke-width: 1.1; stroke-linecap: square"/>
   </g>
   <g id="line2d_47">
    <path d="M 165.847363 122.626023 
L 165.845298 122.627092 
L 163.781786 123.695318 
L 161.716209 124.764612 
L 160.903227 125.185472 
" clip-path="url(#p099d142883)" style="fill: none; stroke: #1f77b4; stroke-opacity: 0.95; stroke-width: 1.1; stroke-linecap: square"/>
   </g>
   <g id="line2d_48">
    <path d="M 165.847363 122.626023 
L 165.841496 122.620507 
L 164.921195 121.755362 
" clip-path="url(#p099d142883)" style="fill: none; stroke: #1f77b4; stroke-opacity: 0.95; stroke-width: 1.1; stroke-linecap: square"/>
   </g>
   <g id="line2d_49">
    <path d="M 165.847363 122.626023 
L 165.84619 122.628637 
L 164.67479 125.242047 
L 163.513161 127.877025 
L 162.372099 130.547628 
L 161.702612 132.164488 
" clip-path="url(#p099d142883)" style="fill: none; stroke: #1f77b4; stroke-opacity: 0.95; stroke-width: 1.1; stroke-linecap: square"/>
   </g>
   <g id="line2d_50">
    <path d="M 161.702612 132.164488 
L 161.700465 132.156122 
L 161.051513 128.710937 
L 160.903227 125.185472 
" clip-path="url(#p099d142883)" style="fill: none; stroke: #1f77b4; stroke-opacity: 0.95; stroke-width: 1.1; stroke-linecap: square"/>
   </g>
   <g id="line2d_51">
    <path d="M 161.702612 132.164488 
L 161.700752 132.165912 
L 159.811346 133.535699 
L 157.868517 134.817601 
L 155.887164 136.032775 
L 153.878069 137.199902 
L 151.850045 138.334241 
L 149.81013 139.447984 
L 147.76378 140.550582 
L 145.715059 141.649072 
L 145.528801 141.748918 
L 145.156307 141.948644 
L 144.411446 142.348318 
L 144.27604 142.421027 
L 144.273802 142.422229 
L 144.269326 142.424633 
L 144.260374 142.429441 
L 144.258747 142.430315 
L 144.258451 142.430474 
L 144.257859 142.430792 
L 144.256675 142.431428 
L 144.25646 142.431543 
L 144.256421 142.431564 
L 144.256342 142.431606 
L 144.256208 142.431726 
L 144.25619 142.431757 
L 144.256188 142.431762 
L 144.256182 142.431772 
L 144.256169 142.431794 
L 144.256169 142.431794 
" clip-path="url(#p099d142883)" style="fill: none; stroke: #1f77b4; stroke-opacity: 0.95; stroke-width: 1.1; stroke-linecap: square"/>
   </g>
   <g id="line2d_52">
    <path d="M 161.702612 132.164488 
L 161.714394 132.180248 
L 161.834792 132.337961 
" clip-path="url(#p099d142883)" style="fill: none; stroke: #1f77b4; stroke-opacity: 0.95; stroke-width: 1.1; stroke-linecap: square"/>
   </g>
   <g id="line2d_53">
    <path d="M 175.556636 199.288572 
L 175.552509 199.291073 
L 173.48247 200.55532 
L 171.394376 201.850837 
L 169.28636 203.180863 
L 167.156204 204.549234 
L 166.082023 205.249187 
L 165.001288 205.960491 
L 163.913597 206.683845 
L 162.818508 207.420012 
L 161.715543 208.16982 
L 160.604177 208.934178 
L 159.48384 209.714076 
L 158.353903 210.5106 
L 157.213681 211.324941 
L 156.062416 212.158407 
L 154.899275 213.012442 
L 153.72334 213.888639 
L 152.533589 214.788764 
L 151.32889 215.714782 
L 150.107977 216.668882 
L 148.869434 217.653518 
L 147.611667 218.671451 
L 146.332874 219.725801 
L 145.031008 220.820117 
L 143.703726 221.958453 
L 142.348331 223.145483 
L 140.961693 224.386627 
L 139.540149 225.68823 
L 138.079368 227.057794 
L 136.574167 228.504296 
L 135.018263 230.038617 
L 133.403917 231.674163 
L 131.721408 233.427771 
L 130.89158 234.311634 
L 129.245562 236.102979 
L 127.616089 237.927628 
L 126.004759 239.783704 
L 124.411481 241.671045 
L 122.836133 243.589442 
L 121.27857 245.538644 
L 119.738634 247.518377 
L 118.216157 249.528349 
L 117.892081 249.963079 
" clip-path="url(#p099d142883)" style="fill: none; stroke: #1f77b4; stroke-opacity: 0.95; stroke-width: 1.1; stroke-linecap: square"/>
   </g>
   <g id="line2d_54">
    <path d="M 117.892081 249.963079 
L 117.890547 249.96507 
L 116.358603 251.953997 
L 114.824545 253.943911 
L 113.289876 255.932767 
L 111.754565 257.920511 
L 110.218577 259.90708 
L 108.681874 261.892412 
L 107.144415 263.876436 
L 105.606159 265.859078 
L 104.067058 267.840256 
L 102.527061 269.819884 
L 100.986115 271.797867 
L 99.444161 273.774104 
L 97.901135 275.748484 
L 96.356967 277.720888 
L 94.811583 279.691183 
L 93.264899 281.659228 
L 91.716827 283.624868 
L 90.167267 285.587932 
L 88.616112 287.548233 
L 87.063244 289.505565 
L 85.508531 291.459703 
L 83.951829 293.410396 
L 82.392978 295.357368 
L 80.831801 297.30031 
L 79.2681 299.23888 
L 77.701653 301.172695 
L 76.132214 303.101325 
L 74.559502 305.024288 
L 72.983203 306.941038 
L 71.40296 308.850957 
L 69.818368 310.753343 
L 68.228961 312.647389 
L 66.634207 314.532175 
L 65.033491 316.406633 
L 63.4261 318.26953 
L 61.811203 320.119426 
L 60.187827 321.954636 
L 58.554829 323.77318 
L 56.91086 325.572724 
L 55.254333 327.350513 
L 53.583381 329.10332 
L 51.895862 330.827432 
L 50.189441 332.518803 
L 48.462045 334.173845 
L 48.303943 334.322458 
L 47.987245 334.618826 
L 47.929597 334.672596 
L 47.814247 334.780042 
L 47.583383 334.99465 
L 47.541398 335.033654 
L 47.457453 335.111703 
L 47.442199 335.125909 
L 47.411708 335.15435 
L 47.406167 335.159527 
L 47.395092 335.169891 
L 47.372975 335.190675 
L 47.368962 335.194469 
L 47.360955 335.202088 
L 47.359503 335.203481 
L 47.356609 335.206283 
L 47.356085 335.206796 
L 47.355041 335.207829 
L 47.354852 335.208018 
L 47.354476 335.2084 
L 47.354408 335.20847 
L 47.354272 335.20861 
L 47.354004 335.208897 
L 47.353956 335.208951 
L 47.353848 335.209035 
L 47.353822 335.209035 
L 47.353769 335.209035 
L 47.353762 335.209035 
L 47.353745 335.209035 
L 47.353745 335.209035 
" clip-path="url(#p099d142883)" style="fill: none; stroke: #1f77b4; stroke-opacity: 0.95; stroke-width: 1.1; stroke-linecap: square"/>
   </g>
   <g id="line2d_55">
    <path d="M 117.892081 249.963079 
L 251.290455 309.244875 
L 301.816412 331.765738 
L 309.13477 335.209035 
L 309.13477 335.209035 
" clip-path="url(#p099d142883)" style="fill: none; stroke: #1f77b4; stroke-opacity: 0.95; stroke-width: 1.1; stroke-linecap: square"/>
   </g>
   <g id="line2d_56">
    <path d="M 117.892081 249.963079 
L 117.88839 249.961333 
L 116.045075 249.089784 
L 114.201809 248.218321 
L 112.357785 247.345545 
L 110.511992 246.469704 
L 108.663183 245.588639 
L 106.809829 244.699702 
L 104.950053 243.799642 
L 103.081539 242.884446 
L 101.201399 241.949115 
L 99.305977 240.987315 
L 97.390547 239.99086 
L 95.448827 238.948868 
L 93.47216 237.846346 
L 93.108118 237.637838 
L 92.374998 237.212098 
L 90.885462 236.320266 
L 90.610786 236.151445 
L 90.560704 236.120505 
L 90.460404 236.058393 
L 90.442149 236.047066 
L 90.405619 236.024381 
L 90.332487 235.978885 
L 90.31918 235.970595 
L 90.292556 235.953997 
L 90.287714 235.950977 
L 90.278028 235.944934 
L 90.276267 235.943835 
L 90.272744 235.941637 
L 90.272104 235.941237 
L 90.270823 235.940438 
L 90.27059 235.940293 
L 90.270124 235.940002 
L 90.269357 235.939695 
L 90.269357 235.939695 
" clip-path="url(#p099d142883)" style="fill: none; stroke: #1f77b4; stroke-opacity: 0.95; stroke-width: 1.1; stroke-linecap: square"/>
   </g>
   <g id="line2d_57">
    <path d="M 175.556636 199.288572 
L 175.560702 199.286176 
L 177.5918 198.089378 
L 179.623307 196.891872 
L 181.655208 195.693683 
L 183.687482 194.494846 
L 185.720101 193.295413 
L 187.753023 192.095455 
L 189.786192 190.89507 
L 191.819534 189.694386 
L 193.85295 188.493572 
L 195.886314 187.292848 
L 197.919461 186.092501 
L 199.952179 184.892897 
L 201.984195 183.694508 
L 204.015161 182.497938 
L 206.044633 181.303956 
L 208.072044 180.113544 
L 210.096676 178.927944 
L 212.117624 177.748727 
L 214.133749 176.577862 
L 216.143639 175.417797 
L 218.14556 174.271535 
L 220.137422 173.142696 
L 222.116768 172.035533 
L 224.08081 170.954879 
L 226.026518 169.905982 
L 227.950793 168.894206 
L 229.850713 167.924613 
L 231.723807 167.001487 
L 233.568299 166.127899 
L 235.383262 165.305457 
L 237.168621 164.534291 
L 238.925017 163.81329 
L 240.653585 163.14049 
L 242.355704 162.5135 
L 244.032778 161.929889 
L 245.686075 161.387461 
L 247.316635 160.884414 
L 248.925233 160.419408 
L 250.512384 159.991548 
L 252.078383 159.600324 
L 253.350636 159.305844 
" clip-path="url(#p099d142883)" style="fill: none; stroke: #1f77b4; stroke-opacity: 0.95; stroke-width: 1.1; stroke-linecap: square"/>
   </g>
   <g id="line2d_58">
    <path d="M 175.556636 199.288572 
L 175.5585 199.28999 
L 177.420573 200.707118 
L 179.28461 202.125491 
L 181.148753 203.543682 
L 183.013006 204.961679 
L 184.877377 206.379475 
L 186.74187 207.797058 
L 188.606493 209.214417 
L 190.471252 210.631539 
L 192.336154 212.048414 
L 194.201207 213.465027 
L 196.06642 214.881363 
L 197.931801 216.297409 
L 199.797358 217.713148 
L 201.663103 219.128563 
L 203.529045 220.543637 
L 205.395196 221.958349 
L 207.261567 223.372679 
L 209.128171 224.786606 
L 210.995022 226.200106 
L 212.862133 227.613154 
L 214.729521 229.025723 
L 216.597201 230.437786 
L 218.465192 231.849311 
L 220.333512 233.260267 
L 222.202181 234.670617 
L 224.071221 236.080324 
L 225.940656 237.489348 
L 227.81051 238.897645 
L 229.680811 240.305169 
L 231.551588 241.711869 
L 233.422871 243.11769 
L 235.294696 244.522574 
L 237.167099 245.926458 
L 239.040118 247.329272 
L 240.913799 248.730943 
L 242.788186 250.131388 
L 244.663331 251.530522 
L 246.53929 252.928247 
L 248.416121 254.32446 
L 250.29389 255.719047 
L 252.17267 257.111885 
L 254.052538 258.502839 
L 255.93358 259.891758 
L 257.81589 261.278482 
L 259.699571 262.66283 
L 261.584737 264.044606 
L 263.471514 265.423592 
L 265.36004 266.79955 
L 267.250468 268.172213 
L 269.142967 269.541288 
L 271.037726 270.906449 
L 272.934954 272.267333 
L 274.834885 273.623536 
L 276.737779 274.974607 
L 278.643926 276.320044 
L 280.553652 277.659281 
L 282.467323 278.991686 
L 284.385349 280.316548 
L 286.30819 281.633068 
L 288.236368 282.940347 
L 290.170466 284.23737 
L 292.111147 285.522992 
L 294.059155 286.795924 
L 296.01533 288.054708 
L 297.98062 289.297706 
L 299.956089 290.523073 
L 301.942931 291.728741 
L 303.942479 292.912403 
L 305.956211 294.071498 
L 307.985752 295.203209 
L 310.032871 296.304474 
L 312.099462 297.372015 
L 314.187508 298.402392 
L 316.299037 299.392097 
L 318.436035 300.337688 
L 320.600351 301.235962 
L 322.793565 302.084184 
L 325.016846 302.880328 
L 327.2708 303.623346 
L 329.555343 304.313381 
L 331.869613 304.951928 
L 334.211947 305.541866 
L 336.579937 306.087367 
L 338.308689 306.457509 
" clip-path="url(#p099d142883)" style="fill: none; stroke: #1f77b4; stroke-opacity: 0.95; stroke-width: 1.1; stroke-linecap: square"/>
   </g>
   <g id="line2d_59">
    <path d="M 211.863547 226.857497 
L 211.868312 226.861103 
L 213.058234 227.761526 
L 214.247869 228.66145 
L 215.437205 229.560857 
L 216.626232 230.459729 
L 217.814938 231.358045 
L 219.003312 232.255786 
L 220.191341 233.152929 
L 221.379012 234.049453 
L 222.566312 234.945334 
L 223.753227 235.840547 
L 224.939742 236.735068 
L 226.125842 237.62887 
L 227.31151 238.521924 
L 228.496731 239.414203 
L 229.681486 240.305676 
L 230.865758 241.196312 
L 232.049527 242.086077 
L 233.232773 242.974936 
L 234.415476 243.862855 
L 235.597614 244.749795 
L 236.779164 245.635716 
L 237.960102 246.520578 
L 239.140403 247.404336 
L 240.320042 248.286947 
L 241.49899 249.168361 
L 242.677219 250.04853 
L 243.854698 250.927402 
L 245.031397 251.804921 
L 246.207282 252.68103 
L 247.382319 253.55567 
L 248.556471 254.428778 
L 249.7297 255.300287 
L 250.901966 256.170129 
L 252.073228 257.038229 
L 253.24344 257.904513 
L 254.412557 258.7689 
L 255.58053 259.631306 
L 256.747309 260.491642 
L 257.912839 261.349816 
L 259.077064 262.20573 
L 260.239926 263.059282 
L 261.401361 263.910365 
L 262.561306 264.758866 
L 263.719692 265.604665 
L 264.876446 266.447639 
L 266.031494 267.287657 
L 267.184756 268.124581 
L 268.336148 268.958268 
L 269.485583 269.788566 
L 270.632971 270.615316 
L 271.778214 271.438351 
L 272.921211 272.257498 
L 274.061858 273.072572 
L 275.200042 273.883383 
L 276.335649 274.689729 
L 277.468558 275.4914 
L 278.59864 276.288177 
L 279.725764 277.07983 
L 280.849792 277.866121 
L 281.97058 278.646799 
L 283.087978 279.421605 
L 284.201829 280.190269 
L 285.311973 280.952511 
L 286.418241 281.708041 
L 287.520461 282.456558 
L 288.618453 283.197754 
L 289.712034 283.931308 
L 290.801015 284.656895 
L 291.885202 285.374178 
L 292.964397 286.082816 
L 295.107007 287.472758 
L 297.227211 288.823893 
L 299.323362 290.133366 
L 301.393835 291.398364 
L 303.43707 292.616186 
L 305.451623 293.784326 
L 307.436209 294.900565 
L 309.389765 295.963056 
L 311.311486 296.970408 
L 313.200874 297.921758 
L 315.057761 298.816813 
L 316.882323 299.655882 
L 318.675083 300.439866 
L 320.436888 301.170236 
L 322.168882 301.84897 
L 323.872461 302.47849 
L 325.549231 303.061573 
L 327.200948 303.601265 
L 328.829475 304.100791 
L 330.436731 304.563473 
L 332.024648 304.992659 
L 333.595137 305.391659 
L 335.150058 305.763695 
L 336.691197 306.11186 
L 338.220252 306.439094 
L 338.267858 306.449014 
L 338.291657 306.453967 
L 338.303556 306.456442 
L 338.30653 306.45706 
L 338.308018 306.45737 
L 338.308389 306.457447 
L 338.308575 306.457486 
L 338.308584 306.457487 
L 338.308584 306.457487 
" clip-path="url(#p099d142883)" style="fill: none; stroke: #1f77b4; stroke-opacity: 0.95; stroke-width: 1.1; stroke-linecap: square"/>
   </g>
   <g id="line2d_60">
    <path d="M 190.766448 190.316249 
L 190.768449 190.315068 
L 192.767234 189.134733 
L 194.768011 187.953201 
L 196.768846 186.771768 
L 198.769825 185.590585 
L 200.771058 184.409843 
L 202.772689 183.229789 
L 204.774898 182.050737 
L 206.777918 180.87309 
L 208.782048 179.697364 
L 210.787667 178.524218 
L 212.795262 177.354496 
L 214.805457 176.189275 
L 216.819043 175.029929 
L 218.837027 173.878199 
L 220.860672 172.736275 
L 222.891551 171.606881 
L 224.93158 170.493336 
L 226.983039 169.399587 
L 229.048534 168.330149 
L 231.1309 167.289933 
L 233.233022 166.283935 
L 235.357594 165.316821 
L 237.50688 164.392514 
L 239.682571 163.513942 
L 241.885811 162.683085 
L 244.117402 161.901333 
L 246.378143 161.170073 
L 248.669203 160.491324 
L 250.992439 159.868308 
L 252.166953 159.579136 
L 252.757618 159.440452 
L 253.053829 159.372632 
L 253.202157 159.339108 
L 253.276377 159.322444 
L 253.313502 159.314136 
L 253.332068 159.309988 
L 253.341351 159.307916 
L 253.345993 159.30688 
L 253.348314 159.306362 
L 253.349475 159.306103 
L 253.350055 159.305974 
L 253.350345 159.305909 
L 253.350491 159.305877 
L 253.350563 159.30586 
L 253.350563 159.30586 
" clip-path="url(#p099d142883)" style="fill: none; stroke: #1f77b4; stroke-opacity: 0.95; stroke-width: 1.1; stroke-linecap: square"/>
   </g>
   <g id="line2d_61">
    <path d="M 186.987802 78.871974 
L 186.986143 78.870201 
L 185.313016 77.125809 
L 183.637534 75.38085 
L 183.430874 75.157923 
L 183.327936 75.045781 
L 183.276573 74.989525 
L 183.250919 74.96135 
L 183.2381 74.94725 
L 183.231691 74.940197 
L 183.228488 74.936669 
L 183.226886 74.934905 
L 183.226085 74.934023 
L 183.22606 74.933996 
L 183.226054 74.933989 
L 183.226051 74.933985 
L 183.226051 74.933985 
" clip-path="url(#p099d142883)" style="fill: none; stroke: #1f77b4; stroke-opacity: 0.95; stroke-width: 1.1; stroke-linecap: square"/>
   </g>
   <g id="line2d_62">
    <path d="M 186.987802 78.871974 
L 186.992233 78.868947 
L 188.291476 78.074597 
" clip-path="url(#p099d142883)" style="fill: none; stroke: #1f77b4; stroke-opacity: 0.95; stroke-width: 1.1; stroke-linecap: square"/>
   </g>
   <g id="line2d_63">
    <path d="M 186.987802 78.871974 
L 186.986461 78.874298 
L 185.646335 81.195464 
L 184.304867 83.518954 
L 182.9634 85.842444 
L 181.621932 88.165934 
L 180.280465 90.489424 
L 179.091211 92.549272 
" clip-path="url(#p099d142883)" style="fill: none; stroke: #1f77b4; stroke-opacity: 0.95; stroke-width: 1.1; stroke-linecap: square"/>
   </g>
   <g id="line2d_64">
    <path d="M 186.987802 78.871974 
L 186.987277 78.87753 
L 186.725048 81.652892 
L 186.462818 84.428254 
L 186.200588 87.203615 
L 185.938359 89.978977 
L 185.676129 92.754338 
L 185.413899 95.5297 
L 185.156751 98.251289 
" clip-path="url(#p099d142883)" style="fill: none; stroke: #1f77b4; stroke-opacity: 0.95; stroke-width: 1.1; stroke-linecap: square"/>
   </g>
   <g id="line2d_65">
    <path d="M 165.164968 120.502243 
L 165.163171 120.503777 
L 163.367814 122.03646 
L 161.570659 123.570678 
L 160.625842 124.377261 
" clip-path="url(#p099d142883)" style="fill: none; stroke: #1f77b4; stroke-opacity: 0.95; stroke-width: 1.1; stroke-linecap: square"/>
   </g>
   <g id="line2d_66">
    <path d="M 165.164968 120.502243 
L 165.159101 120.496727 
L 163.672901 119.0996 
" clip-path="url(#p099d142883)" style="fill: none; stroke: #1f77b4; stroke-opacity: 0.95; stroke-width: 1.1; stroke-linecap: square"/>
   </g>
   <g id="line2d_67">
    <path d="M 165.164968 120.502243 
L 165.164258 120.50566 
L 164.921195 121.755362 
" clip-path="url(#p099d142883)" style="fill: none; stroke: #1f77b4; stroke-opacity: 0.95; stroke-width: 1.1; stroke-linecap: square"/>
   </g>
   <g id="line2d_68">
    <path d="M 165.164968 120.502243 
L 165.166579 120.500386 
L 166.776587 118.646669 
L 168.389921 116.794066 
L 170.00529 114.944986 
L 171.623087 113.100113 
L 173.243809 111.260306 
L 174.868083 109.426651 
L 176.49671 107.600536 
L 178.130721 105.783747 
L 179.771449 103.97859 
L 181.420606 102.188035 
L 183.080365 100.415842 
L 184.753388 98.666622 
L 185.156751 98.251289 
" clip-path="url(#p099d142883)" style="fill: none; stroke: #1f77b4; stroke-opacity: 0.95; stroke-width: 1.1; stroke-linecap: square"/>
   </g>
   <g id="text_1">
    <text style="font-size: 10px; font-family: 'Times New Roman', serif; text-anchor: middle" x="177.834673" y="102.484196" transform="rotate(-0 177.834673 102.484196)">10</text>
   </g>
   <g id="text_2">
    <text style="font-size: 10px; font-family: 'Times New Roman', serif; text-anchor: end" x="329.152213" y="309.729499" transform="rotate(-0 329.152213 309.729499)">10</text>
   </g>
   <g id="text_3">
    <text style="font-size: 10px; font-family: 'Times New Roman', serif; text-anchor: start" x="74.809965" y="337.611378" transform="rotate(-0 74.809965 337.611378)">10</text>
   </g>
   <g id="text_4">
    <text style="font-size: 10px; font-family: 'Times New Roman', serif; text-anchor: middle" x="161.737062" y="130.366076" transform="rotate(-0 161.737062 130.366076)">20</text>
   </g>
   <g id="text_5">
    <text style="font-size: 10px; font-family: 'Times New Roman', serif; text-anchor: end" x="313.054602" y="281.847619" transform="rotate(-0 313.054602 281.847619)">20</text>
   </g>
   <g id="text_6">
    <text style="font-size: 10px; font-family: 'Times New Roman', serif; text-anchor: start" x="107.005186" y="337.611378" transform="rotate(-0 107.005186 337.611378)">20</text>
   </g>
   <g id="text_7">
    <text style="font-size: 10px; font-family: 'Times New Roman', serif; text-anchor: middle" x="145.639452" y="158.247956" transform="rotate(-0 145.639452 158.247956)">30</text>
   </g>
   <g id="text_8">
    <text style="font-size: 10px; font-family: 'Times New Roman', serif; text-anchor: end" x="296.956992" y="253.96574" transform="rotate(-0 296.956992 253.96574)">30</text>
   </g>
   <g id="text_9">
    <text style="font-size: 10px; font-family: 'Times New Roman', serif; text-anchor: start" x="139.200407" y="337.611378" transform="rotate(-0 139.200407 337.611378)">30</text>
   </g>
   <g id="text_10">
    <text style="font-size: 10px; font-family: 'Times New Roman', serif; text-anchor: middle" x="129.541841" y="186.129835" transform="rotate(-0 129.541841 186.129835)">40</text>
   </g>
   <g id="text_11">
    <text style="font-size: 10px; font-family: 'Times New Roman', serif; text-anchor: end" x="280.859381" y="226.08386" transform="rotate(-0 280.859381 226.08386)">40</text>
   </g>
   <g id="text_12">
    <text style="font-size: 10px; font-family: 'Times New Roman', serif; text-anchor: start" x="171.395629" y="337.611378" transform="rotate(-0 171.395629 337.611378)">40</text>
   </g>
   <g id="text_13">
    <text style="font-size: 10px; font-family: 'Times New Roman', serif; text-anchor: middle" x="113.44423" y="214.011715" transform="rotate(-0 113.44423 214.011715)">50</text>
   </g>
   <g id="text_14">
    <text style="font-size: 10px; font-family: 'Times New Roman', serif; text-anchor: end" x="264.76177" y="198.201981" transform="rotate(-0 264.76177 198.201981)">50</text>
   </g>
   <g id="text_15">
    <text style="font-size: 10px; font-family: 'Times New Roman', serif; text-anchor: start" x="203.59085" y="337.611378" transform="rotate(-0 203.59085 337.611378)">50</text>
   </g>
   <g id="text_16">
    <text style="font-size: 10px; font-family: 'Times New Roman', serif; text-anchor: middle" x="97.34662" y="241.893594" transform="rotate(-0 97.34662 241.893594)">60</text>
   </g>
   <g id="text_17">
    <text style="font-size: 10px; font-family: 'Times New Roman', serif; text-anchor: end" x="248.66416" y="170.320101" transform="rotate(-0 248.66416 170.320101)">60</text>
   </g>
   <g id="text_18">
    <text style="font-size: 10px; font-family: 'Times New Roman', serif; text-anchor: start" x="235.786071" y="337.611378" transform="rotate(-0 235.786071 337.611378)">60</text>
   </g>
   <g id="text_19">
    <text style="font-size: 10px; font-family: 'Times New Roman', serif; text-anchor: middle" x="81.249009" y="269.775474" transform="rotate(-0 81.249009 269.775474)">70</text>
   </g>
   <g id="text_20">
    <text style="font-size: 10px; font-family: 'Times New Roman', serif; text-anchor: end" x="232.566549" y="142.438222" transform="rotate(-0 232.566549 142.438222)">70</text>
   </g>
   <g id="text_21">
    <text style="font-size: 10px; font-family: 'Times New Roman', serif; text-anchor: start" x="267.981292" y="337.611378" transform="rotate(-0 267.981292 337.611378)">70</text>
   </g>
   <g id="text_22">
    <text style="font-size: 10px; font-family: 'Times New Roman', serif; text-anchor: middle" x="65.151398" y="297.657353" transform="rotate(-0 65.151398 297.657353)">80</text>
   </g>
   <g id="text_23">
    <text style="font-size: 10px; font-family: 'Times New Roman', serif; text-anchor: end" x="216.468938" y="114.556342" transform="rotate(-0 216.468938 114.556342)">80</text>
   </g>
   <g id="text_24">
    <text style="font-size: 10px; font-family: 'Times New Roman', serif; text-anchor: start" x="300.176514" y="337.611378" transform="rotate(-0 300.176514 337.611378)">80</text>
   </g>
   <g id="text_25">
    <text style="font-size: 10px; font-family: 'Times New Roman', serif; text-anchor: middle" x="49.053788" y="325.539233" transform="rotate(-0 49.053788 325.539233)">90</text>
   </g>
   <g id="text_26">
    <text style="font-size: 10px; font-family: 'Times New Roman', serif; text-anchor: end" x="200.371328" y="86.674463" transform="rotate(-0 200.371328 86.674463)">90</text>
   </g>
   <g id="text_27">
    <text style="font-size: 10px; font-family: 'Times New Roman', serif; text-anchor: start" x="332.371735" y="337.611378" transform="rotate(-0 332.371735 337.611378)">90</text>
   </g>
   <g id="text_28">
    <text style="font-size: 13px; font-family: 'Times New Roman', serif; text-anchor: start" x="7.2" y="357.113998" transform="rotate(-0 7.2 357.113998)">CaO</text>
   </g>
   <g id="text_29">
    <text style="font-size: 13px; font-family: 'Times New Roman', serif; text-anchor: end" x="380.664567" y="357.089623" transform="rotate(-0 380.664567 357.089623)">MgO</text>
   </g>
   <g id="text_30">
    <text style="font-size: 13px; font-family: 'Times New Roman', serif; text-anchor: middle" x="193.932283" y="40.73137" transform="rotate(-0 193.932283 40.73137)">Al2O3</text>
   </g>
   <g id="text_31">
    <text style="font-size: 10px; font-family: 'Times New Roman', serif" transform="translate(94.215096 14.14375)">CAMA_5CAF2_5SIO2 phase diagram from EXP</text>
    <text style="font-size: 10px; font-family: 'Times New Roman', serif" transform="translate(112.504158 24.634062)">Al2O3* = 1 - CaO - MgO - CaF2 - SiO2</text>
   </g>
  </g>
 </g>
 <defs>
  <clipPath id="p099d142883">
   <rect x="7.2" y="30.634062" width="373.464567" height="323.892105"/>
  </clipPath>
 </defs>
</svg>
