<?xml version="1.0" encoding="utf-8" standalone="no"?>
<!DOCTYPE svg PUBLIC "-//W3C//DTD SVG 1.1//EN"
  "http://www.w3.org/Graphics/SVG/1.1/DTD/svg11.dtd">
<svg xmlns:xlink="http://www.w3.org/1999/xlink" width="234.909395pt" height="235.124922pt" viewBox="0 0 234.909395 235.124922" xmlns="http://www.w3.org/2000/svg" version="1.1">
 <metadata>
  <rdf:RDF xmlns:dc="http://purl.org/dc/elements/1.1/" xmlns:cc="http://creativecommons.org/ns#" xmlns:rdf="http://www.w3.org/1999/02/22-rdf-syntax-ns#">
   <cc:Work>
    <dc:type rdf:resource="http://purl.org/dc/dcmitype/StillImage"/>
    <dc:date>2026-03-28T21:56:11.938936</dc:date>
    <dc:format>image/svg+xml</dc:format>
    <dc:creator>
     <cc:Agent>
      <dc:title>Matplotlib v3.10.6, https://matplotlib.org/</dc:title>
     </cc:Agent>
    </dc:creator>
   </cc:Work>
  </rdf:RDF>
 </metadata>
 <defs>
  <style type="text/css">*{stroke-linejoin: round; stroke-linecap: butt}</style>
 </defs>
 <g id="figure_1">
  <g id="patch_1">
   <path d="M 0 235.124922 
L 234.909395 235.124922 
L 234.909395 0 
L 0 0 
z
" style="fill: #ffffff"/>
  </g>
  <g id="axes_1">
   <g id="patch_2">
    <path d="M 116.763827 59.723623 
L 116.763827 59.723623 
L 38.068216 196.02842 
L 38.068216 196.02842 
L 195.459439 196.02842 
L 195.459439 196.02842 
z
" style="fill: #ffffff"/>
   </g>
   <g id="matplotlib.axis_1">
    <g id="xtick_1">
     <g id="line2d_1">
      <path d="M 195.459439 196.02842 
L 38.068216 196.02842 
" style="fill: none; stroke-dasharray: 1.85,0.8; stroke-dashoffset: 0; stroke: #b0b0b0; stroke-opacity: 0.6; stroke-width: 0.5"/>
     </g>
     <g id="line2d_2">
      <defs>
       <path id="m95934c18f6" d="M 0 0 
L 3.5 0 
" style="stroke: #000000; stroke-width: 0.8"/>
      </defs>
      <g>
       <use xlink:href="#m95934c18f6" x="195.459439" y="196.02842" style="stroke: #000000; stroke-width: 0.8"/>
      </g>
     </g>
     <g id="text_1">
      <!-- 0 -->
      <g transform="translate(202.459439 198.80592) scale(0.08 -0.08)">
       <defs>
        <path id="TimesNewRomanPSMT-30" d="M 231 2094 
Q 231 2819 450 3342 
Q 669 3866 1031 4122 
Q 1313 4325 1613 4325 
Q 2100 4325 2488 3828 
Q 2972 3213 2972 2159 
Q 2972 1422 2759 906 
Q 2547 391 2217 158 
Q 1888 -75 1581 -75 
Q 975 -75 572 641 
Q 231 1244 231 2094 
z
M 844 2016 
Q 844 1141 1059 588 
Q 1238 122 1591 122 
Q 1759 122 1940 273 
Q 2122 425 2216 781 
Q 2359 1319 2359 2297 
Q 2359 3022 2209 3506 
Q 2097 3866 1919 4016 
Q 1791 4119 1609 4119 
Q 1397 4119 1231 3928 
Q 1006 3669 925 3112 
Q 844 2556 844 2016 
z
" transform="scale(0.015625)"/>
       </defs>
       <use xlink:href="#TimesNewRomanPSMT-30"/>
      </g>
     </g>
    </g>
    <g id="xtick_2">
     <g id="line2d_3">
      <path d="M 187.589877 182.39794 
L 45.937778 182.39794 
" style="fill: none; stroke-dasharray: 1.85,0.8; stroke-dashoffset: 0; stroke: #b0b0b0; stroke-opacity: 0.6; stroke-width: 0.5"/>
     </g>
     <g id="line2d_4">
      <g>
       <use xlink:href="#m95934c18f6" x="187.589877" y="182.39794" style="stroke: #000000; stroke-width: 0.8"/>
      </g>
     </g>
     <g id="text_2">
      <!-- 10 -->
      <g transform="translate(194.589877 185.17544) scale(0.08 -0.08)">
       <defs>
        <path id="TimesNewRomanPSMT-31" d="M 750 3822 
L 1781 4325 
L 1884 4325 
L 1884 747 
Q 1884 391 1914 303 
Q 1944 216 2037 169 
Q 2131 122 2419 116 
L 2419 0 
L 825 0 
L 825 116 
Q 1125 122 1212 167 
Q 1300 213 1334 289 
Q 1369 366 1369 747 
L 1369 3034 
Q 1369 3497 1338 3628 
Q 1316 3728 1258 3775 
Q 1200 3822 1119 3822 
Q 1003 3822 797 3725 
L 750 3822 
z
" transform="scale(0.015625)"/>
       </defs>
       <use xlink:href="#TimesNewRomanPSMT-31"/>
       <use xlink:href="#TimesNewRomanPSMT-30" transform="translate(50 0)"/>
      </g>
     </g>
    </g>
    <g id="xtick_3">
     <g id="line2d_5">
      <path d="M 179.720316 168.767461 
L 53.807339 168.767461 
" style="fill: none; stroke-dasharray: 1.85,0.8; stroke-dashoffset: 0; stroke: #b0b0b0; stroke-opacity: 0.6; stroke-width: 0.5"/>
     </g>
     <g id="line2d_6">
      <g>
       <use xlink:href="#m95934c18f6" x="179.720316" y="168.767461" style="stroke: #000000; stroke-width: 0.8"/>
      </g>
     </g>
     <g id="text_3">
      <!-- 20 -->
      <g transform="translate(186.720316 171.544961) scale(0.08 -0.08)">
       <defs>
        <path id="TimesNewRomanPSMT-32" d="M 2934 816 
L 2638 0 
L 138 0 
L 138 116 
Q 1241 1122 1691 1759 
Q 2141 2397 2141 2925 
Q 2141 3328 1894 3587 
Q 1647 3847 1303 3847 
Q 991 3847 742 3664 
Q 494 3481 375 3128 
L 259 3128 
Q 338 3706 661 4015 
Q 984 4325 1469 4325 
Q 1984 4325 2329 3994 
Q 2675 3663 2675 3213 
Q 2675 2891 2525 2569 
Q 2294 2063 1775 1497 
Q 997 647 803 472 
L 1909 472 
Q 2247 472 2383 497 
Q 2519 522 2628 598 
Q 2738 675 2819 816 
L 2934 816 
z
" transform="scale(0.015625)"/>
       </defs>
       <use xlink:href="#TimesNewRomanPSMT-32"/>
       <use xlink:href="#TimesNewRomanPSMT-30" transform="translate(50 0)"/>
      </g>
     </g>
    </g>
    <g id="xtick_4">
     <g id="line2d_7">
      <path d="M 171.850755 155.136981 
L 61.6769 155.136981 
" style="fill: none; stroke-dasharray: 1.85,0.8; stroke-dashoffset: 0; stroke: #b0b0b0; stroke-opacity: 0.6; stroke-width: 0.5"/>
     </g>
     <g id="line2d_8">
      <g>
       <use xlink:href="#m95934c18f6" x="171.850755" y="155.136981" style="stroke: #000000; stroke-width: 0.8"/>
      </g>
     </g>
     <g id="text_4">
      <!-- 30 -->
      <g transform="translate(178.850755 157.914481) scale(0.08 -0.08)">
       <defs>
        <path id="TimesNewRomanPSMT-33" d="M 325 3431 
Q 506 3859 782 4092 
Q 1059 4325 1472 4325 
Q 1981 4325 2253 3994 
Q 2459 3747 2459 3466 
Q 2459 3003 1878 2509 
Q 2269 2356 2469 2072 
Q 2669 1788 2669 1403 
Q 2669 853 2319 450 
Q 1863 -75 997 -75 
Q 569 -75 414 31 
Q 259 138 259 259 
Q 259 350 332 419 
Q 406 488 509 488 
Q 588 488 669 463 
Q 722 447 909 348 
Q 1097 250 1169 231 
Q 1284 197 1416 197 
Q 1734 197 1970 444 
Q 2206 691 2206 1028 
Q 2206 1275 2097 1509 
Q 2016 1684 1919 1775 
Q 1784 1900 1550 2001 
Q 1316 2103 1072 2103 
L 972 2103 
L 972 2197 
Q 1219 2228 1467 2375 
Q 1716 2522 1828 2728 
Q 1941 2934 1941 3181 
Q 1941 3503 1739 3701 
Q 1538 3900 1238 3900 
Q 753 3900 428 3381 
L 325 3431 
z
" transform="scale(0.015625)"/>
       </defs>
       <use xlink:href="#TimesNewRomanPSMT-33"/>
       <use xlink:href="#TimesNewRomanPSMT-30" transform="translate(50 0)"/>
      </g>
     </g>
    </g>
    <g id="xtick_5">
     <g id="line2d_9">
      <path d="M 163.981194 141.506501 
L 69.546461 141.506501 
" style="fill: none; stroke-dasharray: 1.85,0.8; stroke-dashoffset: 0; stroke: #b0b0b0; stroke-opacity: 0.6; stroke-width: 0.5"/>
     </g>
     <g id="line2d_10">
      <g>
       <use xlink:href="#m95934c18f6" x="163.981194" y="141.506501" style="stroke: #000000; stroke-width: 0.8"/>
      </g>
     </g>
     <g id="text_5">
      <!-- 40 -->
      <g transform="translate(170.981194 144.284001) scale(0.08 -0.08)">
       <defs>
        <path id="TimesNewRomanPSMT-34" d="M 2978 1563 
L 2978 1119 
L 2409 1119 
L 2409 0 
L 1894 0 
L 1894 1119 
L 100 1119 
L 100 1519 
L 2066 4325 
L 2409 4325 
L 2409 1563 
L 2978 1563 
z
M 1894 1563 
L 1894 3666 
L 406 1563 
L 1894 1563 
z
" transform="scale(0.015625)"/>
       </defs>
       <use xlink:href="#TimesNewRomanPSMT-34"/>
       <use xlink:href="#TimesNewRomanPSMT-30" transform="translate(50 0)"/>
      </g>
     </g>
    </g>
    <g id="xtick_6">
     <g id="line2d_11">
      <path d="M 156.111633 127.876022 
L 77.416022 127.876022 
" style="fill: none; stroke-dasharray: 1.85,0.8; stroke-dashoffset: 0; stroke: #b0b0b0; stroke-opacity: 0.6; stroke-width: 0.5"/>
     </g>
     <g id="line2d_12">
      <g>
       <use xlink:href="#m95934c18f6" x="156.111633" y="127.876022" style="stroke: #000000; stroke-width: 0.8"/>
      </g>
     </g>
     <g id="text_6">
      <!-- 50 -->
      <g transform="translate(163.111633 130.653522) scale(0.08 -0.08)">
       <defs>
        <path id="TimesNewRomanPSMT-35" d="M 2778 4238 
L 2534 3706 
L 1259 3706 
L 981 3138 
Q 1809 3016 2294 2522 
Q 2709 2097 2709 1522 
Q 2709 1188 2573 903 
Q 2438 619 2231 419 
Q 2025 219 1772 97 
Q 1413 -75 1034 -75 
Q 653 -75 479 54 
Q 306 184 306 341 
Q 306 428 378 495 
Q 450 563 559 563 
Q 641 563 702 538 
Q 763 513 909 409 
Q 1144 247 1384 247 
Q 1750 247 2026 523 
Q 2303 800 2303 1197 
Q 2303 1581 2056 1914 
Q 1809 2247 1375 2428 
Q 1034 2569 447 2591 
L 1259 4238 
L 2778 4238 
z
" transform="scale(0.015625)"/>
       </defs>
       <use xlink:href="#TimesNewRomanPSMT-35"/>
       <use xlink:href="#TimesNewRomanPSMT-30" transform="translate(50 0)"/>
      </g>
     </g>
    </g>
    <g id="xtick_7">
     <g id="line2d_13">
      <path d="M 148.242072 114.245542 
L 85.285583 114.245542 
" style="fill: none; stroke-dasharray: 1.85,0.8; stroke-dashoffset: 0; stroke: #b0b0b0; stroke-opacity: 0.6; stroke-width: 0.5"/>
     </g>
     <g id="line2d_14">
      <g>
       <use xlink:href="#m95934c18f6" x="148.242072" y="114.245542" style="stroke: #000000; stroke-width: 0.8"/>
      </g>
     </g>
     <g id="text_7">
      <!-- 60 -->
      <g transform="translate(155.242072 117.023042) scale(0.08 -0.08)">
       <defs>
        <path id="TimesNewRomanPSMT-36" d="M 2869 4325 
L 2869 4209 
Q 2456 4169 2195 4045 
Q 1934 3922 1679 3669 
Q 1425 3416 1258 3105 
Q 1091 2794 978 2366 
Q 1428 2675 1881 2675 
Q 2316 2675 2634 2325 
Q 2953 1975 2953 1425 
Q 2953 894 2631 456 
Q 2244 -75 1606 -75 
Q 1172 -75 869 213 
Q 275 772 275 1663 
Q 275 2231 503 2743 
Q 731 3256 1154 3653 
Q 1578 4050 1965 4187 
Q 2353 4325 2688 4325 
L 2869 4325 
z
M 925 2138 
Q 869 1716 869 1456 
Q 869 1156 980 804 
Q 1091 453 1309 247 
Q 1469 100 1697 100 
Q 1969 100 2183 356 
Q 2397 613 2397 1088 
Q 2397 1622 2184 2012 
Q 1972 2403 1581 2403 
Q 1463 2403 1327 2353 
Q 1191 2303 925 2138 
z
" transform="scale(0.015625)"/>
       </defs>
       <use xlink:href="#TimesNewRomanPSMT-36"/>
       <use xlink:href="#TimesNewRomanPSMT-30" transform="translate(50 0)"/>
      </g>
     </g>
    </g>
    <g id="xtick_8">
     <g id="line2d_15">
      <path d="M 140.372511 100.615062 
L 93.155144 100.615062 
" style="fill: none; stroke-dasharray: 1.85,0.8; stroke-dashoffset: 0; stroke: #b0b0b0; stroke-opacity: 0.6; stroke-width: 0.5"/>
     </g>
     <g id="line2d_16">
      <g>
       <use xlink:href="#m95934c18f6" x="140.372511" y="100.615062" style="stroke: #000000; stroke-width: 0.8"/>
      </g>
     </g>
     <g id="text_8">
      <!-- 70 -->
      <g transform="translate(147.372511 103.392562) scale(0.08 -0.08)">
       <defs>
        <path id="TimesNewRomanPSMT-37" d="M 644 4238 
L 2916 4238 
L 2916 4119 
L 1503 -88 
L 1153 -88 
L 2419 3728 
L 1253 3728 
Q 900 3728 750 3644 
Q 488 3500 328 3200 
L 238 3234 
L 644 4238 
z
" transform="scale(0.015625)"/>
       </defs>
       <use xlink:href="#TimesNewRomanPSMT-37"/>
       <use xlink:href="#TimesNewRomanPSMT-30" transform="translate(50 0)"/>
      </g>
     </g>
    </g>
    <g id="xtick_9">
     <g id="line2d_17">
      <path d="M 132.50295 86.984583 
L 101.024705 86.984583 
" style="fill: none; stroke-dasharray: 1.85,0.8; stroke-dashoffset: 0; stroke: #b0b0b0; stroke-opacity: 0.6; stroke-width: 0.5"/>
     </g>
     <g id="line2d_18">
      <g>
       <use xlink:href="#m95934c18f6" x="132.50295" y="86.984583" style="stroke: #000000; stroke-width: 0.8"/>
      </g>
     </g>
     <g id="text_9">
      <!-- 80 -->
      <g transform="translate(139.50295 89.762083) scale(0.08 -0.08)">
       <defs>
        <path id="TimesNewRomanPSMT-38" d="M 1228 2134 
Q 725 2547 579 2797 
Q 434 3047 434 3316 
Q 434 3728 753 4026 
Q 1072 4325 1600 4325 
Q 2113 4325 2425 4047 
Q 2738 3769 2738 3413 
Q 2738 3175 2569 2928 
Q 2400 2681 1866 2347 
Q 2416 1922 2594 1678 
Q 2831 1359 2831 1006 
Q 2831 559 2490 242 
Q 2150 -75 1597 -75 
Q 994 -75 656 303 
Q 388 606 388 966 
Q 388 1247 577 1523 
Q 766 1800 1228 2134 
z
M 1719 2469 
Q 2094 2806 2194 3001 
Q 2294 3197 2294 3444 
Q 2294 3772 2109 3958 
Q 1925 4144 1606 4144 
Q 1288 4144 1088 3959 
Q 888 3775 888 3528 
Q 888 3366 970 3203 
Q 1053 3041 1206 2894 
L 1719 2469 
z
M 1375 2016 
Q 1116 1797 991 1539 
Q 866 1281 866 981 
Q 866 578 1086 336 
Q 1306 94 1647 94 
Q 1984 94 2187 284 
Q 2391 475 2391 747 
Q 2391 972 2272 1150 
Q 2050 1481 1375 2016 
z
" transform="scale(0.015625)"/>
       </defs>
       <use xlink:href="#TimesNewRomanPSMT-38"/>
       <use xlink:href="#TimesNewRomanPSMT-30" transform="translate(50 0)"/>
      </g>
     </g>
    </g>
    <g id="xtick_10">
     <g id="line2d_19">
      <path d="M 124.633389 73.354103 
L 108.894266 73.354103 
" style="fill: none; stroke-dasharray: 1.85,0.8; stroke-dashoffset: 0; stroke: #b0b0b0; stroke-opacity: 0.6; stroke-width: 0.5"/>
     </g>
     <g id="line2d_20">
      <g>
       <use xlink:href="#m95934c18f6" x="124.633389" y="73.354103" style="stroke: #000000; stroke-width: 0.8"/>
      </g>
     </g>
     <g id="text_10">
      <!-- 90 -->
      <g transform="translate(131.633389 76.131603) scale(0.08 -0.08)">
       <defs>
        <path id="TimesNewRomanPSMT-39" d="M 338 -88 
L 338 28 
Q 744 34 1094 217 
Q 1444 400 1770 856 
Q 2097 1313 2225 1859 
Q 1734 1544 1338 1544 
Q 891 1544 572 1889 
Q 253 2234 253 2806 
Q 253 3363 572 3797 
Q 956 4325 1575 4325 
Q 2097 4325 2469 3894 
Q 2925 3359 2925 2575 
Q 2925 1869 2578 1258 
Q 2231 647 1613 244 
Q 1109 -88 516 -88 
L 338 -88 
z
M 2275 2091 
Q 2331 2497 2331 2741 
Q 2331 3044 2228 3395 
Q 2125 3747 1936 3934 
Q 1747 4122 1506 4122 
Q 1228 4122 1018 3872 
Q 809 3622 809 3128 
Q 809 2469 1088 2097 
Q 1291 1828 1588 1828 
Q 1731 1828 1928 1897 
Q 2125 1966 2275 2091 
z
" transform="scale(0.015625)"/>
       </defs>
       <use xlink:href="#TimesNewRomanPSMT-39"/>
       <use xlink:href="#TimesNewRomanPSMT-30" transform="translate(50 0)"/>
      </g>
     </g>
    </g>
    <g id="xtick_11">
     <g id="line2d_21">
      <path d="M 116.763827 59.723623 
L 116.763827 59.723623 
" style="fill: none; stroke-dasharray: 1.85,0.8; stroke-dashoffset: 0; stroke: #b0b0b0; stroke-opacity: 0.6; stroke-width: 0.5"/>
     </g>
     <g id="line2d_22">
      <g>
       <use xlink:href="#m95934c18f6" x="116.763827" y="59.723623" style="stroke: #000000; stroke-width: 0.8"/>
      </g>
     </g>
     <g id="text_11">
      <!-- 100 -->
      <g transform="translate(123.763827 62.501123) scale(0.08 -0.08)">
       <use xlink:href="#TimesNewRomanPSMT-31"/>
       <use xlink:href="#TimesNewRomanPSMT-30" transform="translate(50 0)"/>
       <use xlink:href="#TimesNewRomanPSMT-30" transform="translate(100 0)"/>
      </g>
     </g>
    </g>
    <g id="text_12">
     <!-- Al2O3* (wt.%) -->
     <g transform="translate(88.768906 42.883437) scale(0.09 -0.09)">
      <defs>
       <path id="TimesNewRomanPSMT-41" d="M 2928 1419 
L 1288 1419 
L 1000 750 
Q 894 503 894 381 
Q 894 284 986 211 
Q 1078 138 1384 116 
L 1384 0 
L 50 0 
L 50 116 
Q 316 163 394 238 
Q 553 388 747 847 
L 2238 4334 
L 2347 4334 
L 3822 809 
Q 4000 384 4145 257 
Q 4291 131 4550 116 
L 4550 0 
L 2878 0 
L 2878 116 
Q 3131 128 3220 200 
Q 3309 272 3309 375 
Q 3309 513 3184 809 
L 2928 1419 
z
M 2841 1650 
L 2122 3363 
L 1384 1650 
L 2841 1650 
z
" transform="scale(0.015625)"/>
       <path id="TimesNewRomanPSMT-6c" d="M 1184 4444 
L 1184 647 
Q 1184 378 1223 290 
Q 1263 203 1344 158 
Q 1425 113 1647 113 
L 1647 0 
L 244 0 
L 244 113 
Q 441 113 512 153 
Q 584 194 625 287 
Q 666 381 666 647 
L 666 3247 
Q 666 3731 644 3842 
Q 622 3953 573 3993 
Q 525 4034 450 4034 
Q 369 4034 244 3984 
L 191 4094 
L 1044 4444 
L 1184 4444 
z
" transform="scale(0.015625)"/>
       <path id="TimesNewRomanPSMT-4f" d="M 2341 4334 
Q 3166 4334 3770 3707 
Q 4375 3081 4375 2144 
Q 4375 1178 3765 540 
Q 3156 -97 2291 -97 
Q 1416 -97 820 525 
Q 225 1147 225 2134 
Q 225 3144 913 3781 
Q 1509 4334 2341 4334 
z
M 2281 4106 
Q 1713 4106 1369 3684 
Q 941 3159 941 2147 
Q 941 1109 1384 550 
Q 1725 125 2284 125 
Q 2881 125 3270 590 
Q 3659 1056 3659 2059 
Q 3659 3147 3231 3681 
Q 2888 4106 2281 4106 
z
" transform="scale(0.015625)"/>
       <path id="TimesNewRomanPSMT-2a" d="M 1544 3263 
Q 1531 3478 1456 3691 
Q 1350 3997 1350 4113 
Q 1350 4275 1426 4359 
Q 1503 4444 1616 4444 
Q 1713 4444 1784 4359 
Q 1856 4275 1856 4119 
Q 1856 3978 1773 3726 
Q 1691 3475 1672 3263 
Q 1844 3372 1981 3528 
Q 2194 3775 2297 3834 
Q 2400 3894 2506 3894 
Q 2609 3894 2679 3823 
Q 2750 3753 2750 3656 
Q 2750 3541 2647 3450 
Q 2544 3359 2131 3269 
Q 1891 3216 1731 3147 
Q 1894 3063 2128 3019 
Q 2506 2950 2623 2847 
Q 2741 2744 2741 2622 
Q 2741 2528 2670 2459 
Q 2600 2391 2506 2391 
Q 2413 2391 2298 2456 
Q 2184 2522 1991 2750 
Q 1863 2903 1672 3038 
Q 1678 2859 1744 2650 
Q 1856 2281 1856 2147 
Q 1856 2022 1781 1936 
Q 1706 1850 1622 1850 
Q 1506 1850 1413 1941 
Q 1347 2006 1347 2150 
Q 1347 2300 1419 2511 
Q 1491 2722 1509 2801 
Q 1528 2881 1544 3038 
Q 1359 2916 1222 2766 
Q 994 2509 878 2441 
Q 797 2391 709 2391 
Q 603 2391 528 2462 
Q 453 2534 453 2622 
Q 453 2700 517 2786 
Q 581 2872 709 2928 
Q 794 2966 1094 3028 
Q 1288 3069 1472 3147 
Q 1303 3231 1069 3278 
Q 684 3359 594 3425 
Q 453 3528 453 3675 
Q 453 3759 523 3829 
Q 594 3900 688 3900 
Q 791 3900 906 3834 
Q 1022 3769 1194 3570 
Q 1366 3372 1544 3263 
z
" transform="scale(0.015625)"/>
       <path id="TimesNewRomanPSMT-20" transform="scale(0.015625)"/>
       <path id="TimesNewRomanPSMT-28" d="M 1988 -1253 
L 1988 -1369 
Q 1516 -1131 1200 -813 
Q 750 -359 506 256 
Q 263 872 263 1534 
Q 263 2503 741 3301 
Q 1219 4100 1988 4444 
L 1988 4313 
Q 1603 4100 1356 3731 
Q 1109 3363 987 2797 
Q 866 2231 866 1616 
Q 866 947 969 400 
Q 1050 -31 1165 -292 
Q 1281 -553 1476 -793 
Q 1672 -1034 1988 -1253 
z
" transform="scale(0.015625)"/>
       <path id="TimesNewRomanPSMT-77" d="M 41 2863 
L 1241 2863 
L 1241 2747 
Q 1075 2734 1023 2687 
Q 972 2641 972 2553 
Q 972 2456 1025 2319 
L 1638 672 
L 2253 2013 
L 2091 2434 
Q 2016 2622 1894 2694 
Q 1825 2738 1638 2747 
L 1638 2863 
L 3000 2863 
L 3000 2747 
Q 2775 2738 2681 2666 
Q 2619 2616 2619 2506 
Q 2619 2444 2644 2378 
L 3294 734 
L 3897 2319 
Q 3959 2488 3959 2588 
Q 3959 2647 3898 2694 
Q 3838 2741 3659 2747 
L 3659 2863 
L 4563 2863 
L 4563 2747 
Q 4291 2706 4163 2378 
L 3206 -88 
L 3078 -88 
L 2363 1741 
L 1528 -88 
L 1413 -88 
L 494 2319 
Q 403 2547 315 2626 
Q 228 2706 41 2747 
L 41 2863 
z
" transform="scale(0.015625)"/>
       <path id="TimesNewRomanPSMT-74" d="M 1031 3803 
L 1031 2863 
L 1700 2863 
L 1700 2644 
L 1031 2644 
L 1031 788 
Q 1031 509 1111 412 
Q 1191 316 1316 316 
Q 1419 316 1516 380 
Q 1613 444 1666 569 
L 1788 569 
Q 1678 263 1478 108 
Q 1278 -47 1066 -47 
Q 922 -47 784 33 
Q 647 113 581 261 
Q 516 409 516 719 
L 516 2644 
L 63 2644 
L 63 2747 
Q 234 2816 414 2980 
Q 594 3144 734 3369 
Q 806 3488 934 3803 
L 1031 3803 
z
" transform="scale(0.015625)"/>
       <path id="TimesNewRomanPSMT-2e" d="M 800 606 
Q 947 606 1047 504 
Q 1147 403 1147 259 
Q 1147 116 1045 14 
Q 944 -88 800 -88 
Q 656 -88 554 14 
Q 453 116 453 259 
Q 453 406 554 506 
Q 656 606 800 606 
z
" transform="scale(0.015625)"/>
       <path id="TimesNewRomanPSMT-25" d="M 4350 4334 
L 1263 -175 
L 984 -175 
L 4072 4334 
L 4350 4334 
z
M 1138 4334 
Q 1559 4334 1792 3984 
Q 2025 3634 2025 3181 
Q 2025 2638 1762 2341 
Q 1500 2044 1131 2044 
Q 884 2044 678 2180 
Q 472 2316 348 2584 
Q 225 2853 225 3181 
Q 225 3509 350 3786 
Q 475 4063 692 4198 
Q 909 4334 1138 4334 
z
M 1128 4159 
Q 969 4159 845 3971 
Q 722 3784 722 3184 
Q 722 2750 791 2522 
Q 844 2350 956 2256 
Q 1022 2200 1119 2200 
Q 1269 2200 1375 2363 
Q 1531 2603 1531 3166 
Q 1531 3759 1378 4000 
Q 1278 4159 1128 4159 
z
M 4206 2103 
Q 4428 2103 4648 1962 
Q 4869 1822 4989 1553 
Q 5109 1284 5109 963 
Q 5109 409 4843 117 
Q 4578 -175 4216 -175 
Q 3988 -175 3773 -34 
Q 3559 106 3436 367 
Q 3313 628 3313 963 
Q 3313 1291 3436 1562 
Q 3559 1834 3773 1968 
Q 3988 2103 4206 2103 
z
M 4209 1938 
Q 4059 1938 3950 1769 
Q 3809 1550 3809 941 
Q 3809 381 3953 159 
Q 4059 0 4209 0 
Q 4353 0 4466 172 
Q 4616 400 4616 956 
Q 4616 1544 4466 1778 
Q 4363 1938 4209 1938 
z
" transform="scale(0.015625)"/>
       <path id="TimesNewRomanPSMT-29" d="M 144 4313 
L 144 4444 
Q 619 4209 934 3891 
Q 1381 3434 1625 2820 
Q 1869 2206 1869 1541 
Q 1869 572 1392 -226 
Q 916 -1025 144 -1369 
L 144 -1253 
Q 528 -1038 776 -670 
Q 1025 -303 1145 264 
Q 1266 831 1266 1447 
Q 1266 2113 1163 2663 
Q 1084 3094 967 3353 
Q 850 3613 656 3853 
Q 463 4094 144 4313 
z
" transform="scale(0.015625)"/>
      </defs>
      <use xlink:href="#TimesNewRomanPSMT-41"/>
      <use xlink:href="#TimesNewRomanPSMT-6c" transform="translate(72.216797 0)"/>
      <use xlink:href="#TimesNewRomanPSMT-32" transform="translate(100 0)"/>
      <use xlink:href="#TimesNewRomanPSMT-4f" transform="translate(150 0)"/>
      <use xlink:href="#TimesNewRomanPSMT-33" transform="translate(222.216797 0)"/>
      <use xlink:href="#TimesNewRomanPSMT-2a" transform="translate(272.216797 0)"/>
      <use xlink:href="#TimesNewRomanPSMT-20" transform="translate(322.216797 0)"/>
      <use xlink:href="#TimesNewRomanPSMT-28" transform="translate(347.216797 0)"/>
      <use xlink:href="#TimesNewRomanPSMT-77" transform="translate(380.517578 0)"/>
      <use xlink:href="#TimesNewRomanPSMT-74" transform="translate(452.734375 0)"/>
      <use xlink:href="#TimesNewRomanPSMT-2e" transform="translate(480.517578 0)"/>
      <use xlink:href="#TimesNewRomanPSMT-25" transform="translate(505.517578 0)"/>
      <use xlink:href="#TimesNewRomanPSMT-29" transform="translate(588.818359 0)"/>
     </g>
    </g>
   </g>
   <g id="matplotlib.axis_2">
    <g id="xtick_12">
     <g id="line2d_23">
      <path d="M 116.763827 59.723623 
L 195.459439 196.02842 
" style="fill: none; stroke-dasharray: 1.85,0.8; stroke-dashoffset: 0; stroke: #b0b0b0; stroke-opacity: 0.6; stroke-width: 0.5"/>
     </g>
     <g id="line2d_24">
      <defs>
       <path id="m6c5ff04f8b" d="M 0 0 
L -1.75 -3.031089 
" style="stroke: #000000; stroke-width: 0.8"/>
      </defs>
      <g>
       <use xlink:href="#m6c5ff04f8b" x="116.763827" y="59.723623" style="stroke: #000000; stroke-width: 0.8"/>
      </g>
     </g>
     <g id="text_13">
      <!-- 0 -->
      <g transform="translate(108.858442 51.586094) rotate(-300) scale(0.08 -0.08)">
       <use xlink:href="#TimesNewRomanPSMT-30"/>
      </g>
     </g>
    </g>
    <g id="xtick_13">
     <g id="line2d_25">
      <path d="M 108.894266 73.354103 
L 179.720316 196.02842 
" style="fill: none; stroke-dasharray: 1.85,0.8; stroke-dashoffset: 0; stroke: #b0b0b0; stroke-opacity: 0.6; stroke-width: 0.5"/>
     </g>
     <g id="line2d_26">
      <g>
       <use xlink:href="#m6c5ff04f8b" x="108.894266" y="73.354103" style="stroke: #000000; stroke-width: 0.8"/>
      </g>
     </g>
     <g id="text_14">
      <!-- 10 -->
      <g transform="translate(98.988881 61.752472) rotate(-300) scale(0.08 -0.08)">
       <use xlink:href="#TimesNewRomanPSMT-31"/>
       <use xlink:href="#TimesNewRomanPSMT-30" transform="translate(50 0)"/>
      </g>
     </g>
    </g>
    <g id="xtick_14">
     <g id="line2d_27">
      <path d="M 101.024705 86.984583 
L 163.981194 196.02842 
" style="fill: none; stroke-dasharray: 1.85,0.8; stroke-dashoffset: 0; stroke: #b0b0b0; stroke-opacity: 0.6; stroke-width: 0.5"/>
     </g>
     <g id="line2d_28">
      <g>
       <use xlink:href="#m6c5ff04f8b" x="101.024705" y="86.984583" style="stroke: #000000; stroke-width: 0.8"/>
      </g>
     </g>
     <g id="text_15">
      <!-- 20 -->
      <g transform="translate(91.11932 75.382951) rotate(-300) scale(0.08 -0.08)">
       <use xlink:href="#TimesNewRomanPSMT-32"/>
       <use xlink:href="#TimesNewRomanPSMT-30" transform="translate(50 0)"/>
      </g>
     </g>
    </g>
    <g id="xtick_15">
     <g id="line2d_29">
      <path d="M 93.155144 100.615062 
L 148.242072 196.02842 
" style="fill: none; stroke-dasharray: 1.85,0.8; stroke-dashoffset: 0; stroke: #b0b0b0; stroke-opacity: 0.6; stroke-width: 0.5"/>
     </g>
     <g id="line2d_30">
      <g>
       <use xlink:href="#m6c5ff04f8b" x="93.155144" y="100.615062" style="stroke: #000000; stroke-width: 0.8"/>
      </g>
     </g>
     <g id="text_16">
      <!-- 30 -->
      <g transform="translate(83.249759 89.013431) rotate(-300) scale(0.08 -0.08)">
       <use xlink:href="#TimesNewRomanPSMT-33"/>
       <use xlink:href="#TimesNewRomanPSMT-30" transform="translate(50 0)"/>
      </g>
     </g>
    </g>
    <g id="xtick_16">
     <g id="line2d_31">
      <path d="M 85.285583 114.245542 
L 132.50295 196.02842 
" style="fill: none; stroke-dasharray: 1.85,0.8; stroke-dashoffset: 0; stroke: #b0b0b0; stroke-opacity: 0.6; stroke-width: 0.5"/>
     </g>
     <g id="line2d_32">
      <g>
       <use xlink:href="#m6c5ff04f8b" x="85.285583" y="114.245542" style="stroke: #000000; stroke-width: 0.8"/>
      </g>
     </g>
     <g id="text_17">
      <!-- 40 -->
      <g transform="translate(75.380198 102.643911) rotate(-300) scale(0.08 -0.08)">
       <use xlink:href="#TimesNewRomanPSMT-34"/>
       <use xlink:href="#TimesNewRomanPSMT-30" transform="translate(50 0)"/>
      </g>
     </g>
    </g>
    <g id="xtick_17">
     <g id="line2d_33">
      <path d="M 77.416022 127.876022 
L 116.763827 196.02842 
" style="fill: none; stroke-dasharray: 1.85,0.8; stroke-dashoffset: 0; stroke: #b0b0b0; stroke-opacity: 0.6; stroke-width: 0.5"/>
     </g>
     <g id="line2d_34">
      <g>
       <use xlink:href="#m6c5ff04f8b" x="77.416022" y="127.876022" style="stroke: #000000; stroke-width: 0.8"/>
      </g>
     </g>
     <g id="text_18">
      <!-- 50 -->
      <g transform="translate(67.510636 116.27439) rotate(-300) scale(0.08 -0.08)">
       <use xlink:href="#TimesNewRomanPSMT-35"/>
       <use xlink:href="#TimesNewRomanPSMT-30" transform="translate(50 0)"/>
      </g>
     </g>
    </g>
    <g id="xtick_18">
     <g id="line2d_35">
      <path d="M 69.546461 141.506501 
L 101.024705 196.02842 
" style="fill: none; stroke-dasharray: 1.85,0.8; stroke-dashoffset: 0; stroke: #b0b0b0; stroke-opacity: 0.6; stroke-width: 0.5"/>
     </g>
     <g id="line2d_36">
      <g>
       <use xlink:href="#m6c5ff04f8b" x="69.546461" y="141.506501" style="stroke: #000000; stroke-width: 0.8"/>
      </g>
     </g>
     <g id="text_19">
      <!-- 60 -->
      <g transform="translate(59.641075 129.90487) rotate(-300) scale(0.08 -0.08)">
       <use xlink:href="#TimesNewRomanPSMT-36"/>
       <use xlink:href="#TimesNewRomanPSMT-30" transform="translate(50 0)"/>
      </g>
     </g>
    </g>
    <g id="xtick_19">
     <g id="line2d_37">
      <path d="M 61.6769 155.136981 
L 85.285583 196.02842 
" style="fill: none; stroke-dasharray: 1.85,0.8; stroke-dashoffset: 0; stroke: #b0b0b0; stroke-opacity: 0.6; stroke-width: 0.5"/>
     </g>
     <g id="line2d_38">
      <g>
       <use xlink:href="#m6c5ff04f8b" x="61.6769" y="155.136981" style="stroke: #000000; stroke-width: 0.8"/>
      </g>
     </g>
     <g id="text_20">
      <!-- 70 -->
      <g transform="translate(51.771514 143.53535) rotate(-300) scale(0.08 -0.08)">
       <use xlink:href="#TimesNewRomanPSMT-37"/>
       <use xlink:href="#TimesNewRomanPSMT-30" transform="translate(50 0)"/>
      </g>
     </g>
    </g>
    <g id="xtick_20">
     <g id="line2d_39">
      <path d="M 53.807339 168.767461 
L 69.546461 196.02842 
" style="fill: none; stroke-dasharray: 1.85,0.8; stroke-dashoffset: 0; stroke: #b0b0b0; stroke-opacity: 0.6; stroke-width: 0.5"/>
     </g>
     <g id="line2d_40">
      <g>
       <use xlink:href="#m6c5ff04f8b" x="53.807339" y="168.767461" style="stroke: #000000; stroke-width: 0.8"/>
      </g>
     </g>
     <g id="text_21">
      <!-- 80 -->
      <g transform="translate(43.901953 157.165829) rotate(-300) scale(0.08 -0.08)">
       <use xlink:href="#TimesNewRomanPSMT-38"/>
       <use xlink:href="#TimesNewRomanPSMT-30" transform="translate(50 0)"/>
      </g>
     </g>
    </g>
    <g id="xtick_21">
     <g id="line2d_41">
      <path d="M 45.937778 182.39794 
L 53.807339 196.02842 
" style="fill: none; stroke-dasharray: 1.85,0.8; stroke-dashoffset: 0; stroke: #b0b0b0; stroke-opacity: 0.6; stroke-width: 0.5"/>
     </g>
     <g id="line2d_42">
      <g>
       <use xlink:href="#m6c5ff04f8b" x="45.937778" y="182.39794" style="stroke: #000000; stroke-width: 0.8"/>
      </g>
     </g>
     <g id="text_22">
      <!-- 90 -->
      <g transform="translate(36.032392 170.796309) rotate(-300) scale(0.08 -0.08)">
       <use xlink:href="#TimesNewRomanPSMT-39"/>
       <use xlink:href="#TimesNewRomanPSMT-30" transform="translate(50 0)"/>
      </g>
     </g>
    </g>
    <g id="xtick_22">
     <g id="line2d_43">
      <path d="M 38.068216 196.02842 
L 38.068216 196.02842 
" style="fill: none; stroke-dasharray: 1.85,0.8; stroke-dashoffset: 0; stroke: #b0b0b0; stroke-opacity: 0.6; stroke-width: 0.5"/>
     </g>
     <g id="line2d_44">
      <g>
       <use xlink:href="#m6c5ff04f8b" x="38.068216" y="196.02842" style="stroke: #000000; stroke-width: 0.8"/>
      </g>
     </g>
     <g id="text_23">
      <!-- 100 -->
      <g transform="translate(26.162831 180.962687) rotate(-300) scale(0.08 -0.08)">
       <use xlink:href="#TimesNewRomanPSMT-31"/>
       <use xlink:href="#TimesNewRomanPSMT-30" transform="translate(50 0)"/>
       <use xlink:href="#TimesNewRomanPSMT-30" transform="translate(100 0)"/>
      </g>
     </g>
    </g>
    <g id="text_24">
     <!-- CaO (wt.%) -->
     <g transform="translate(8.867234 187.779644) rotate(-300) scale(0.09 -0.09)">
      <defs>
       <path id="TimesNewRomanPSMT-43" d="M 3853 4334 
L 3950 2894 
L 3853 2894 
Q 3659 3541 3300 3825 
Q 2941 4109 2438 4109 
Q 2016 4109 1675 3895 
Q 1334 3681 1139 3212 
Q 944 2744 944 2047 
Q 944 1472 1128 1050 
Q 1313 628 1683 403 
Q 2053 178 2528 178 
Q 2941 178 3256 354 
Q 3572 531 3950 1056 
L 4047 994 
Q 3728 428 3303 165 
Q 2878 -97 2294 -97 
Q 1241 -97 663 684 
Q 231 1266 231 2053 
Q 231 2688 515 3219 
Q 800 3750 1298 4042 
Q 1797 4334 2388 4334 
Q 2847 4334 3294 4109 
Q 3425 4041 3481 4041 
Q 3566 4041 3628 4100 
Q 3709 4184 3744 4334 
L 3853 4334 
z
" transform="scale(0.015625)"/>
       <path id="TimesNewRomanPSMT-61" d="M 1822 413 
Q 1381 72 1269 19 
Q 1100 -59 909 -59 
Q 613 -59 420 144 
Q 228 347 228 678 
Q 228 888 322 1041 
Q 450 1253 767 1440 
Q 1084 1628 1822 1897 
L 1822 2009 
Q 1822 2438 1686 2597 
Q 1550 2756 1291 2756 
Q 1094 2756 978 2650 
Q 859 2544 859 2406 
L 866 2225 
Q 866 2081 792 2003 
Q 719 1925 600 1925 
Q 484 1925 411 2006 
Q 338 2088 338 2228 
Q 338 2497 613 2722 
Q 888 2947 1384 2947 
Q 1766 2947 2009 2819 
Q 2194 2722 2281 2516 
Q 2338 2381 2338 1966 
L 2338 994 
Q 2338 584 2353 492 
Q 2369 400 2405 369 
Q 2441 338 2488 338 
Q 2538 338 2575 359 
Q 2641 400 2828 588 
L 2828 413 
Q 2478 -56 2159 -56 
Q 2006 -56 1915 50 
Q 1825 156 1822 413 
z
M 1822 616 
L 1822 1706 
Q 1350 1519 1213 1441 
Q 966 1303 859 1153 
Q 753 1003 753 825 
Q 753 600 887 451 
Q 1022 303 1197 303 
Q 1434 303 1822 616 
z
" transform="scale(0.015625)"/>
      </defs>
      <use xlink:href="#TimesNewRomanPSMT-43"/>
      <use xlink:href="#TimesNewRomanPSMT-61" transform="translate(66.699219 0)"/>
      <use xlink:href="#TimesNewRomanPSMT-4f" transform="translate(111.083984 0)"/>
      <use xlink:href="#TimesNewRomanPSMT-20" transform="translate(183.300781 0)"/>
      <use xlink:href="#TimesNewRomanPSMT-28" transform="translate(208.300781 0)"/>
      <use xlink:href="#TimesNewRomanPSMT-77" transform="translate(241.601562 0)"/>
      <use xlink:href="#TimesNewRomanPSMT-74" transform="translate(313.818359 0)"/>
      <use xlink:href="#TimesNewRomanPSMT-2e" transform="translate(341.601562 0)"/>
      <use xlink:href="#TimesNewRomanPSMT-25" transform="translate(366.601562 0)"/>
      <use xlink:href="#TimesNewRomanPSMT-29" transform="translate(449.902344 0)"/>
     </g>
    </g>
   </g>
   <g id="matplotlib.axis_3">
    <g id="xtick_23">
     <g id="line2d_45">
      <path d="M 38.068216 196.02842 
L 116.763827 59.723623 
" style="fill: none; stroke-dasharray: 1.85,0.8; stroke-dashoffset: 0; stroke: #b0b0b0; stroke-opacity: 0.6; stroke-width: 0.5"/>
     </g>
     <g id="line2d_46">
      <defs>
       <path id="m390537ac20" d="M 0 0 
L -1.75 3.031089 
" style="stroke: #000000; stroke-width: 0.8"/>
      </defs>
      <g>
       <use xlink:href="#m390537ac20" x="38.068216" y="196.02842" style="stroke: #000000; stroke-width: 0.8"/>
      </g>
     </g>
     <g id="text_25">
      <!-- 0 -->
      <g transform="translate(34.973602 206.943449) rotate(-60) scale(0.08 -0.08)">
       <use xlink:href="#TimesNewRomanPSMT-30"/>
      </g>
     </g>
    </g>
    <g id="xtick_24">
     <g id="line2d_47">
      <path d="M 53.807339 196.02842 
L 124.633389 73.354103 
" style="fill: none; stroke-dasharray: 1.85,0.8; stroke-dashoffset: 0; stroke: #b0b0b0; stroke-opacity: 0.6; stroke-width: 0.5"/>
     </g>
     <g id="line2d_48">
      <g>
       <use xlink:href="#m390537ac20" x="53.807339" y="196.02842" style="stroke: #000000; stroke-width: 0.8"/>
      </g>
     </g>
     <g id="text_26">
      <!-- 10 -->
      <g transform="translate(48.712724 210.407551) rotate(-60) scale(0.08 -0.08)">
       <use xlink:href="#TimesNewRomanPSMT-31"/>
       <use xlink:href="#TimesNewRomanPSMT-30" transform="translate(50 0)"/>
      </g>
     </g>
    </g>
    <g id="xtick_25">
     <g id="line2d_49">
      <path d="M 69.546461 196.02842 
L 132.50295 86.984583 
" style="fill: none; stroke-dasharray: 1.85,0.8; stroke-dashoffset: 0; stroke: #b0b0b0; stroke-opacity: 0.6; stroke-width: 0.5"/>
     </g>
     <g id="line2d_50">
      <g>
       <use xlink:href="#m390537ac20" x="69.546461" y="196.02842" style="stroke: #000000; stroke-width: 0.8"/>
      </g>
     </g>
     <g id="text_27">
      <!-- 20 -->
      <g transform="translate(64.451846 210.407551) rotate(-60) scale(0.08 -0.08)">
       <use xlink:href="#TimesNewRomanPSMT-32"/>
       <use xlink:href="#TimesNewRomanPSMT-30" transform="translate(50 0)"/>
      </g>
     </g>
    </g>
    <g id="xtick_26">
     <g id="line2d_51">
      <path d="M 85.285583 196.02842 
L 140.372511 100.615062 
" style="fill: none; stroke-dasharray: 1.85,0.8; stroke-dashoffset: 0; stroke: #b0b0b0; stroke-opacity: 0.6; stroke-width: 0.5"/>
     </g>
     <g id="line2d_52">
      <g>
       <use xlink:href="#m390537ac20" x="85.285583" y="196.02842" style="stroke: #000000; stroke-width: 0.8"/>
      </g>
     </g>
     <g id="text_28">
      <!-- 30 -->
      <g transform="translate(80.190969 210.407551) rotate(-60) scale(0.08 -0.08)">
       <use xlink:href="#TimesNewRomanPSMT-33"/>
       <use xlink:href="#TimesNewRomanPSMT-30" transform="translate(50 0)"/>
      </g>
     </g>
    </g>
    <g id="xtick_27">
     <g id="line2d_53">
      <path d="M 101.024705 196.02842 
L 148.242072 114.245542 
" style="fill: none; stroke-dasharray: 1.85,0.8; stroke-dashoffset: 0; stroke: #b0b0b0; stroke-opacity: 0.6; stroke-width: 0.5"/>
     </g>
     <g id="line2d_54">
      <g>
       <use xlink:href="#m390537ac20" x="101.024705" y="196.02842" style="stroke: #000000; stroke-width: 0.8"/>
      </g>
     </g>
     <g id="text_29">
      <!-- 40 -->
      <g transform="translate(95.930091 210.407551) rotate(-60) scale(0.08 -0.08)">
       <use xlink:href="#TimesNewRomanPSMT-34"/>
       <use xlink:href="#TimesNewRomanPSMT-30" transform="translate(50 0)"/>
      </g>
     </g>
    </g>
    <g id="xtick_28">
     <g id="line2d_55">
      <path d="M 116.763827 196.02842 
L 156.111633 127.876022 
" style="fill: none; stroke-dasharray: 1.85,0.8; stroke-dashoffset: 0; stroke: #b0b0b0; stroke-opacity: 0.6; stroke-width: 0.5"/>
     </g>
     <g id="line2d_56">
      <g>
       <use xlink:href="#m390537ac20" x="116.763827" y="196.02842" style="stroke: #000000; stroke-width: 0.8"/>
      </g>
     </g>
     <g id="text_30">
      <!-- 50 -->
      <g transform="translate(111.669213 210.407551) rotate(-60) scale(0.08 -0.08)">
       <use xlink:href="#TimesNewRomanPSMT-35"/>
       <use xlink:href="#TimesNewRomanPSMT-30" transform="translate(50 0)"/>
      </g>
     </g>
    </g>
    <g id="xtick_29">
     <g id="line2d_57">
      <path d="M 132.50295 196.02842 
L 163.981194 141.506501 
" style="fill: none; stroke-dasharray: 1.85,0.8; stroke-dashoffset: 0; stroke: #b0b0b0; stroke-opacity: 0.6; stroke-width: 0.5"/>
     </g>
     <g id="line2d_58">
      <g>
       <use xlink:href="#m390537ac20" x="132.50295" y="196.02842" style="stroke: #000000; stroke-width: 0.8"/>
      </g>
     </g>
     <g id="text_31">
      <!-- 60 -->
      <g transform="translate(127.408335 210.407551) rotate(-60) scale(0.08 -0.08)">
       <use xlink:href="#TimesNewRomanPSMT-36"/>
       <use xlink:href="#TimesNewRomanPSMT-30" transform="translate(50 0)"/>
      </g>
     </g>
    </g>
    <g id="xtick_30">
     <g id="line2d_59">
      <path d="M 148.242072 196.02842 
L 171.850755 155.136981 
" style="fill: none; stroke-dasharray: 1.85,0.8; stroke-dashoffset: 0; stroke: #b0b0b0; stroke-opacity: 0.6; stroke-width: 0.5"/>
     </g>
     <g id="line2d_60">
      <g>
       <use xlink:href="#m390537ac20" x="148.242072" y="196.02842" style="stroke: #000000; stroke-width: 0.8"/>
      </g>
     </g>
     <g id="text_32">
      <!-- 70 -->
      <g transform="translate(143.147457 210.407551) rotate(-60) scale(0.08 -0.08)">
       <use xlink:href="#TimesNewRomanPSMT-37"/>
       <use xlink:href="#TimesNewRomanPSMT-30" transform="translate(50 0)"/>
      </g>
     </g>
    </g>
    <g id="xtick_31">
     <g id="line2d_61">
      <path d="M 163.981194 196.02842 
L 179.720316 168.767461 
" style="fill: none; stroke-dasharray: 1.85,0.8; stroke-dashoffset: 0; stroke: #b0b0b0; stroke-opacity: 0.6; stroke-width: 0.5"/>
     </g>
     <g id="line2d_62">
      <g>
       <use xlink:href="#m390537ac20" x="163.981194" y="196.02842" style="stroke: #000000; stroke-width: 0.8"/>
      </g>
     </g>
     <g id="text_33">
      <!-- 80 -->
      <g transform="translate(158.88658 210.407551) rotate(-60) scale(0.08 -0.08)">
       <use xlink:href="#TimesNewRomanPSMT-38"/>
       <use xlink:href="#TimesNewRomanPSMT-30" transform="translate(50 0)"/>
      </g>
     </g>
    </g>
    <g id="xtick_32">
     <g id="line2d_63">
      <path d="M 179.720316 196.02842 
L 187.589877 182.39794 
" style="fill: none; stroke-dasharray: 1.85,0.8; stroke-dashoffset: 0; stroke: #b0b0b0; stroke-opacity: 0.6; stroke-width: 0.5"/>
     </g>
     <g id="line2d_64">
      <g>
       <use xlink:href="#m390537ac20" x="179.720316" y="196.02842" style="stroke: #000000; stroke-width: 0.8"/>
      </g>
     </g>
     <g id="text_34">
      <!-- 90 -->
      <g transform="translate(174.625702 210.407551) rotate(-60) scale(0.08 -0.08)">
       <use xlink:href="#TimesNewRomanPSMT-39"/>
       <use xlink:href="#TimesNewRomanPSMT-30" transform="translate(50 0)"/>
      </g>
     </g>
    </g>
    <g id="xtick_33">
     <g id="line2d_65">
      <path d="M 195.459439 196.02842 
L 195.459439 196.02842 
" style="fill: none; stroke-dasharray: 1.85,0.8; stroke-dashoffset: 0; stroke: #b0b0b0; stroke-opacity: 0.6; stroke-width: 0.5"/>
     </g>
     <g id="line2d_66">
      <g>
       <use xlink:href="#m390537ac20" x="195.459439" y="196.02842" style="stroke: #000000; stroke-width: 0.8"/>
      </g>
     </g>
     <g id="text_35">
      <!-- 100 -->
      <g transform="translate(188.364824 213.871653) rotate(-60) scale(0.08 -0.08)">
       <use xlink:href="#TimesNewRomanPSMT-31"/>
       <use xlink:href="#TimesNewRomanPSMT-30" transform="translate(50 0)"/>
       <use xlink:href="#TimesNewRomanPSMT-30" transform="translate(100 0)"/>
      </g>
     </g>
    </g>
    <g id="text_36">
     <!-- MgO (wt.%) -->
     <g transform="translate(203.03114 226.953907) rotate(-60) scale(0.09 -0.09)">
      <defs>
       <path id="TimesNewRomanPSMT-4d" d="M 2619 0 
L 981 3566 
L 981 734 
Q 981 344 1066 247 
Q 1181 116 1431 116 
L 1581 116 
L 1581 0 
L 106 0 
L 106 116 
L 256 116 
Q 525 116 638 278 
Q 706 378 706 734 
L 706 3503 
Q 706 3784 644 3909 
Q 600 4000 483 4061 
Q 366 4122 106 4122 
L 106 4238 
L 1306 4238 
L 2844 922 
L 4356 4238 
L 5556 4238 
L 5556 4122 
L 5409 4122 
Q 5138 4122 5025 3959 
Q 4956 3859 4956 3503 
L 4956 734 
Q 4956 344 5044 247 
Q 5159 116 5409 116 
L 5556 116 
L 5556 0 
L 3756 0 
L 3756 116 
L 3906 116 
Q 4178 116 4288 278 
Q 4356 378 4356 734 
L 4356 3566 
L 2722 0 
L 2619 0 
z
" transform="scale(0.015625)"/>
       <path id="TimesNewRomanPSMT-67" d="M 966 1044 
Q 703 1172 562 1401 
Q 422 1631 422 1909 
Q 422 2334 742 2640 
Q 1063 2947 1563 2947 
Q 1972 2947 2272 2747 
L 2878 2747 
Q 3013 2747 3034 2739 
Q 3056 2731 3066 2713 
Q 3084 2684 3084 2613 
Q 3084 2531 3069 2500 
Q 3059 2484 3036 2475 
Q 3013 2466 2878 2466 
L 2506 2466 
Q 2681 2241 2681 1891 
Q 2681 1491 2375 1206 
Q 2069 922 1553 922 
Q 1341 922 1119 984 
Q 981 866 932 777 
Q 884 688 884 625 
Q 884 572 936 522 
Q 988 472 1138 450 
Q 1225 438 1575 428 
Q 2219 413 2409 384 
Q 2700 344 2873 169 
Q 3047 -6 3047 -263 
Q 3047 -616 2716 -925 
Q 2228 -1381 1444 -1381 
Q 841 -1381 425 -1109 
Q 191 -953 191 -784 
Q 191 -709 225 -634 
Q 278 -519 444 -313 
Q 466 -284 763 25 
Q 600 122 533 198 
Q 466 275 466 372 
Q 466 481 555 628 
Q 644 775 966 1044 
z
M 1509 2797 
Q 1278 2797 1122 2612 
Q 966 2428 966 2047 
Q 966 1553 1178 1281 
Q 1341 1075 1591 1075 
Q 1828 1075 1981 1253 
Q 2134 1431 2134 1813 
Q 2134 2309 1919 2591 
Q 1759 2797 1509 2797 
z
M 934 0 
Q 788 -159 713 -296 
Q 638 -434 638 -550 
Q 638 -700 819 -813 
Q 1131 -1006 1722 -1006 
Q 2284 -1006 2551 -807 
Q 2819 -609 2819 -384 
Q 2819 -222 2659 -153 
Q 2497 -84 2016 -72 
Q 1313 -53 934 0 
z
" transform="scale(0.015625)"/>
      </defs>
      <use xlink:href="#TimesNewRomanPSMT-4d"/>
      <use xlink:href="#TimesNewRomanPSMT-67" transform="translate(88.916016 0)"/>
      <use xlink:href="#TimesNewRomanPSMT-4f" transform="translate(138.916016 0)"/>
      <use xlink:href="#TimesNewRomanPSMT-20" transform="translate(211.132812 0)"/>
      <use xlink:href="#TimesNewRomanPSMT-28" transform="translate(236.132812 0)"/>
      <use xlink:href="#TimesNewRomanPSMT-77" transform="translate(269.433594 0)"/>
      <use xlink:href="#TimesNewRomanPSMT-74" transform="translate(341.650391 0)"/>
      <use xlink:href="#TimesNewRomanPSMT-2e" transform="translate(369.433594 0)"/>
      <use xlink:href="#TimesNewRomanPSMT-25" transform="translate(394.433594 0)"/>
      <use xlink:href="#TimesNewRomanPSMT-29" transform="translate(477.734375 0)"/>
     </g>
    </g>
   </g>
   <g id="line2d_67">
    <path d="M 107.780614 129.58164 
L 107.779718 129.580919 
L 106.888464 128.855142 
L 106.006335 128.111287 
L 105.139811 127.340405 
L 104.294609 126.53259 
L 103.476679 125.67754 
L 102.692309 124.764363 
L 101.948212 123.78143 
L 101.251528 122.716375 
L 100.609649 121.556395 
L 100.02986 120.288874 
L 99.518964 118.902025 
L 99.083298 117.384873 
L 98.729417 115.726066 
L 98.465264 113.911846 
L 98.302068 111.922764 
L 98.260337 109.723298 
L 98.298114 108.521992 
L 98.388794 107.229057 
L 98.551265 105.811774 
L 98.817492 104.214784 
L 99.005643 103.320959 
L 99.243727 102.34065 
L 99.546035 101.249099 
L 99.931002 100.014381 
L 100.418521 98.602036 
L 100.704342 97.823012 
L 100.833543 97.478858 
L 101.072482 96.851818 
" clip-path="url(#p0dd5be75cf)" style="fill: none; stroke: #1f77b4; stroke-opacity: 0.95; stroke-width: 1.05; stroke-linecap: square"/>
   </g>
   <g id="line2d_68">
    <path d="M 101.072482 96.851818 
L 101.073339 96.851031 
L 101.929541 96.064541 
L 102.787103 95.278137 
L 103.645183 94.492628 
L 104.503781 93.708016 
L 105.36288 92.924272 
L 106.222435 92.141319 
L 107.082362 91.359011 
L 107.942517 90.577096 
L 108.802669 89.795175 
L 109.662459 89.012629 
L 110.521347 88.22852 
L 111.378519 87.441439 
L 112.232755 86.649273 
L 113.082197 85.848802 
L 113.923917 85.034958 
L 114.753013 84.199248 
L 115.560322 83.325801 
L 116.324998 82.378511 
L 116.840132 81.53965 
" clip-path="url(#p0dd5be75cf)" style="fill: none; stroke: #1f77b4; stroke-opacity: 0.95; stroke-width: 1.05; stroke-linecap: square"/>
   </g>
   <g id="line2d_69">
    <path d="M 101.072482 96.851818 
L 101.073691 96.851641 
L 102.279963 96.67149 
L 103.483688 96.484656 
L 104.683181 96.290493 
L 105.877885 96.088034 
L 107.067139 95.876137 
L 108.250161 95.653443 
L 109.42601 95.418327 
L 110.593555 95.168829 
L 111.751424 94.902569 
L 112.897933 94.616634 
L 114.031006 94.307428 
L 115.148056 93.970468 
L 116.245822 93.600109 
L 117.320154 93.18916 
L 118.365693 92.72834 
L 119.37541 92.205473 
L 120.339906 91.604283 
L 121.246302 90.902461 
L 122.076357 90.068411 
L 122.803006 89.055257 
L 123.383163 87.788373 
L 123.739458 86.133747 
L 123.693369 83.782172 
L 123.573485 83.036031 
" clip-path="url(#p0dd5be75cf)" style="fill: none; stroke: #1f77b4; stroke-opacity: 0.95; stroke-width: 1.05; stroke-linecap: square"/>
   </g>
   <g id="line2d_70">
    <path d="M 116.840132 81.53965 
L 116.839845 81.536881 
L 116.696549 80.153947 
L 116.553253 78.771013 
L 116.409956 77.388079 
L 116.26666 76.005145 
L 116.123363 74.622211 
L 115.980067 73.239277 
L 115.836771 71.856343 
L 115.693474 70.473409 
L 115.55631 69.149656 
" clip-path="url(#p0dd5be75cf)" style="fill: none; stroke: #1f77b4; stroke-opacity: 0.95; stroke-width: 1.05; stroke-linecap: square"/>
   </g>
   <g id="line2d_71">
    <path d="M 116.840132 81.53965 
L 116.841637 81.539984 
L 117.59321 81.70701 
L 118.344783 81.874035 
L 119.096356 82.04106 
L 119.847929 82.208085 
L 120.599502 82.375111 
L 121.351075 82.542136 
L 122.102648 82.709161 
L 122.854221 82.876186 
L 123.573485 83.036031 
" clip-path="url(#p0dd5be75cf)" style="fill: none; stroke: #1f77b4; stroke-opacity: 0.95; stroke-width: 1.05; stroke-linecap: square"/>
   </g>
   <g id="line2d_72">
    <path d="M 116.840132 81.53965 
L 116.838966 81.539902 
L 115.699782 81.836251 
L 115.215315 81.993035 
" clip-path="url(#p0dd5be75cf)" style="fill: none; stroke: #1f77b4; stroke-opacity: 0.95; stroke-width: 1.05; stroke-linecap: square"/>
   </g>
   <g id="line2d_73">
    <path d="M 115.215315 81.993035 
L 115.212447 81.990338 
L 114.496057 81.316884 
L 113.779667 80.643429 
L 113.092291 79.997249 
" clip-path="url(#p0dd5be75cf)" style="fill: none; stroke: #1f77b4; stroke-opacity: 0.95; stroke-width: 1.05; stroke-linecap: square"/>
   </g>
   <g id="line2d_74">
    <path d="M 115.215315 81.993035 
L 115.215028 81.990266 
L 115.071732 80.607332 
L 114.928435 79.224398 
L 114.785139 77.841464 
L 114.641843 76.45853 
L 114.498546 75.075596 
L 114.35525 73.692662 
L 114.211953 72.309728 
L 114.006233 70.32435 
" clip-path="url(#p0dd5be75cf)" style="fill: none; stroke: #1f77b4; stroke-opacity: 0.95; stroke-width: 1.05; stroke-linecap: square"/>
   </g>
   <g id="line2d_75">
    <path d="M 115.215315 81.993035 
L 115.214419 81.993756 
L 114.321138 82.716021 
L 113.429489 83.443386 
L 112.539865 84.17426 
L 111.651785 84.907806 
L 110.764848 85.643333 
L 109.878749 86.380311 
L 108.993262 87.11835 
L 108.108225 87.857167 
L 107.223517 88.596555 
L 106.339054 89.336366 
L 105.45477 90.076487 
L 104.570617 90.816836 
L 103.686559 91.55735 
L 103.034088 92.10399 
" clip-path="url(#p0dd5be75cf)" style="fill: none; stroke: #1f77b4; stroke-opacity: 0.95; stroke-width: 1.05; stroke-linecap: square"/>
   </g>
   <g id="line2d_76">
    <path d="M 103.034088 92.10399 
L 103.033079 92.104513 
L 102.0243 92.626731 
L 101.014511 93.149472 
L 100.617072 93.355216 
" clip-path="url(#p0dd5be75cf)" style="fill: none; stroke: #1f77b4; stroke-opacity: 0.95; stroke-width: 1.05; stroke-linecap: square"/>
   </g>
   <g id="line2d_77">
    <path d="M 103.034088 92.10399 
L 103.03122 92.101294 
L 102.581317 91.678355 
" clip-path="url(#p0dd5be75cf)" style="fill: none; stroke: #1f77b4; stroke-opacity: 0.95; stroke-width: 1.05; stroke-linecap: square"/>
   </g>
   <g id="line2d_78">
    <path d="M 103.034088 92.10399 
L 103.033515 92.105268 
L 102.460858 93.382873 
L 101.892978 94.671023 
L 101.335153 95.976587 
L 101.007864 96.767014 
" clip-path="url(#p0dd5be75cf)" style="fill: none; stroke: #1f77b4; stroke-opacity: 0.95; stroke-width: 1.05; stroke-linecap: square"/>
   </g>
   <g id="line2d_79">
    <path d="M 101.007864 96.767014 
L 101.006814 96.762924 
L 100.689564 95.078693 
L 100.617072 93.355216 
" clip-path="url(#p0dd5be75cf)" style="fill: none; stroke: #1f77b4; stroke-opacity: 0.95; stroke-width: 1.05; stroke-linecap: square"/>
   </g>
   <g id="line2d_80">
    <path d="M 101.007864 96.767014 
L 101.006954 96.76771 
L 100.08329 97.437351 
L 99.133509 98.064028 
L 98.164894 98.658085 
L 97.182718 99.228652 
L 96.191287 99.783191 
L 95.194043 100.327661 
L 94.193654 100.866683 
L 93.192106 101.403697 
L 93.101051 101.452508 
L 92.918952 101.550147 
L 92.554815 101.745534 
L 92.48862 101.781079 
L 92.487526 101.781666 
L 92.485338 101.782841 
L 92.480961 101.785192 
L 92.480166 101.785619 
L 92.480021 101.785697 
L 92.479732 101.785852 
L 92.479153 101.786163 
L 92.479048 101.786219 
L 92.479029 101.78623 
L 92.47899 101.78625 
L 92.478925 101.786309 
L 92.478916 101.786324 
L 92.478915 101.786326 
L 92.478912 101.786331 
L 92.478905 101.786342 
L 92.478905 101.786342 
" clip-path="url(#p0dd5be75cf)" style="fill: none; stroke: #1f77b4; stroke-opacity: 0.95; stroke-width: 1.05; stroke-linecap: square"/>
   </g>
   <g id="line2d_81">
    <path d="M 101.007864 96.767014 
L 101.013624 96.774719 
L 101.072482 96.851818 
" clip-path="url(#p0dd5be75cf)" style="fill: none; stroke: #1f77b4; stroke-opacity: 0.95; stroke-width: 1.05; stroke-linecap: square"/>
   </g>
   <g id="line2d_82">
    <path d="M 107.780614 129.58164 
L 107.778596 129.582863 
L 106.766626 130.200909 
L 105.74583 130.834243 
L 104.715294 131.484446 
L 103.673935 132.153395 
L 103.148805 132.495577 
L 102.620472 132.843309 
L 102.088737 133.196932 
L 101.553386 133.556818 
L 101.014185 133.923373 
L 100.470877 134.297041 
L 99.923183 134.678306 
L 99.370797 135.067699 
L 98.813382 135.465802 
L 98.250568 135.873254 
L 97.681949 136.290762 
L 97.107076 136.719104 
L 96.525448 137.159144 
L 95.936512 137.611842 
L 95.33965 138.078268 
L 94.73417 138.559623 
L 94.119291 139.057255 
L 93.494134 139.57269 
L 92.857697 140.107662 
L 92.208835 140.664156 
L 91.54623 141.244453 
L 90.868351 141.851205 
L 90.173408 142.487513 
L 89.459283 143.157046 
L 88.723442 143.86419 
L 87.962815 144.614266 
L 87.173617 145.413828 
L 86.351097 146.271105 
L 85.945424 146.703195 
L 85.140743 147.578922 
L 84.34415 148.470929 
L 83.556427 149.3783 
L 82.777529 150.300955 
L 82.007396 151.238792 
L 81.245958 152.19169 
L 80.493137 153.159512 
L 79.748851 154.142117 
L 79.590421 154.354642 
" clip-path="url(#p0dd5be75cf)" style="fill: none; stroke: #1f77b4; stroke-opacity: 0.95; stroke-width: 1.05; stroke-linecap: square"/>
   </g>
   <g id="line2d_83">
    <path d="M 79.590421 154.354642 
L 79.589672 154.355615 
L 78.840757 155.327932 
L 78.09081 156.300731 
L 77.340564 157.273014 
L 76.590004 158.244753 
L 75.839112 159.215918 
L 75.087872 160.186477 
L 74.336262 161.156397 
L 73.584262 162.125642 
L 72.831849 163.094171 
L 72.078998 164.061942 
L 71.325684 165.028909 
L 70.571876 165.995022 
L 69.817544 166.960228 
L 69.062654 167.924467 
L 68.30717 168.887676 
L 67.55105 169.849785 
L 66.794251 170.810718 
L 66.036726 171.770391 
L 65.27842 172.728714 
L 64.519277 173.685586 
L 63.759232 174.640896 
L 62.998214 175.594522 
L 62.236146 176.546328 
L 61.472941 177.496165 
L 60.708502 178.443864 
L 59.942721 179.389239 
L 59.175477 180.332079 
L 58.406633 181.272149 
L 57.636035 182.209181 
L 56.863509 183.142874 
L 56.088857 184.072884 
L 55.311852 184.998817 
L 54.532232 185.920223 
L 53.749698 186.836581 
L 52.9639 187.747286 
L 52.174433 188.651636 
L 51.380821 189.548806 
L 50.582506 190.437829 
L 49.778827 191.317563 
L 48.969008 192.186662 
L 48.152138 193.043549 
L 47.327169 193.886407 
L 46.492959 194.713259 
L 45.648495 195.522352 
L 45.571205 195.595004 
L 45.416382 195.739887 
L 45.3882 195.766174 
L 45.331809 195.8187 
L 45.218948 195.923615 
L 45.198423 195.942683 
L 45.157385 195.980838 
L 45.149928 195.987783 
L 45.135022 196.001686 
L 45.132313 196.004217 
L 45.126899 196.009284 
L 45.116087 196.019445 
L 45.114125 196.021299 
L 45.11021 196.025024 
L 45.109501 196.025705 
L 45.108086 196.027075 
L 45.10783 196.027325 
L 45.107319 196.02783 
L 45.107227 196.027923 
L 45.107043 196.028109 
L 45.10701 196.028144 
L 45.106943 196.028212 
L 45.106812 196.028353 
L 45.106789 196.028379 
L 45.106736 196.02842 
L 45.106724 196.02842 
" clip-path="url(#p0dd5be75cf)" style="fill: none; stroke: #1f77b4; stroke-opacity: 0.95; stroke-width: 1.05; stroke-linecap: square"/>
   </g>
   <g id="line2d_84">
    <path d="M 79.590421 154.354642 
L 79.592187 154.355428 
L 80.474037 154.748099 
L 81.355873 155.140748 
L 82.237697 155.533374 
L 83.119507 155.925976 
L 84.001303 156.318554 
L 84.883085 156.711108 
L 85.764853 157.103638 
L 86.646608 157.496144 
L 87.528347 157.888624 
L 88.410073 158.28108 
L 89.291783 158.67351 
L 90.173479 159.065915 
L 91.05516 159.458293 
L 91.936825 159.850645 
L 92.818476 160.242971 
L 93.700111 160.63527 
L 94.58173 161.027542 
L 95.463333 161.419786 
L 96.34492 161.812002 
L 97.226491 162.204191 
L 98.108046 162.596351 
L 98.989584 162.988482 
L 99.871106 163.380585 
L 100.75261 163.772658 
L 101.634098 164.164702 
L 102.515568 164.556716 
L 103.397021 164.948699 
L 104.278456 165.340653 
L 105.159874 165.732575 
L 106.041273 166.124467 
L 106.922655 166.516327 
L 107.804018 166.908155 
L 108.685363 167.299952 
L 109.566689 167.691716 
L 110.447997 168.083448 
L 111.329285 168.475147 
L 112.210555 168.866814 
L 113.091805 169.258447 
L 113.973036 169.650046 
L 114.854248 170.041612 
L 115.73544 170.433145 
L 116.616613 170.824643 
L 117.497765 171.216106 
L 118.378898 171.607536 
L 119.260011 171.99893 
L 120.141104 172.390291 
L 121.022177 172.781616 
L 121.903229 173.172906 
L 122.784262 173.564162 
L 123.665274 173.955383 
L 124.546266 174.346569 
L 125.427239 174.73772 
L 126.308191 175.128837 
L 127.189123 175.519919 
L 128.070036 175.910967 
L 128.950929 176.301981 
L 129.831803 176.692962 
L 130.712657 177.083909 
L 131.593493 177.474824 
L 132.474311 177.865708 
L 133.35511 178.25656 
L 134.235893 178.647382 
L 135.116658 179.038174 
L 135.997407 179.428939 
L 136.878141 179.819677 
L 137.75886 180.21039 
L 138.639565 180.601079 
L 139.520258 180.991747 
L 140.40094 181.382395 
L 141.281612 181.773026 
L 142.162276 182.163644 
L 143.042934 182.554251 
L 143.923588 182.94485 
L 144.80424 183.335447 
L 145.684893 183.726045 
L 146.56555 184.11665 
L 147.446214 184.507268 
L 148.32689 184.897905 
L 149.207581 185.28857 
L 150.088293 185.679271 
L 150.969032 186.070018 
L 151.849804 186.460822 
L 152.730616 186.851697 
L 153.611478 187.242657 
L 154.492399 187.633719 
L 155.373391 188.024904 
L 156.254466 188.416234 
L 157.135641 188.807737 
L 158.016934 189.199443 
L 158.898365 189.591389 
L 159.77996 189.983619 
L 160.661748 190.376184 
L 161.543766 190.769146 
L 162.426056 191.16258 
L 163.308672 191.556577 
L 164.191677 191.951249 
L 165.075152 192.346736 
L 165.959202 192.743218 
L 166.843959 193.140925 
L 167.729601 193.540164 
L 168.616371 193.941357 
L 169.50462 194.345112 
L 170.39489 194.752368 
L 171.288124 195.164757 
L 171.450974 195.240506 
L 171.777228 195.392962 
L 172.432944 195.703431 
L 172.55289 195.761137 
L 172.79405 195.878742 
L 172.838173 195.900603 
L 172.92686 195.945087 
L 172.943072 195.953326 
L 172.975614 195.970009 
L 173.041503 196.004768 
L 173.05372 196.011498 
L 173.079053 196.026515 
L 173.079513 196.026836 
L 173.080463 196.027528 
" clip-path="url(#p0dd5be75cf)" style="fill: none; stroke: #1f77b4; stroke-opacity: 0.95; stroke-width: 1.05; stroke-linecap: square"/>
   </g>
   <g id="line2d_85">
    <path d="M 79.590421 154.354642 
L 79.588617 154.353788 
L 78.687484 153.927718 
L 77.786376 153.50169 
L 76.884897 153.07502 
L 75.982553 152.646852 
L 75.078735 152.21613 
L 74.172694 151.78156 
L 73.263515 151.341552 
L 72.350063 150.894145 
L 71.430928 150.436894 
L 70.504323 149.966703 
L 69.567936 149.479571 
L 68.618696 148.970177 
L 67.652372 148.431193 
L 67.474405 148.329261 
L 67.116008 148.121131 
L 66.387826 147.685146 
L 66.253547 147.602615 
L 66.229063 147.58749 
L 66.18003 147.557125 
L 66.171106 147.551588 
L 66.153248 147.540498 
L 66.117496 147.518256 
L 66.11099 147.514203 
L 66.097975 147.506089 
L 66.095608 147.504613 
L 66.090873 147.501659 
L 66.090012 147.501122 
L 66.08829 147.500047 
L 66.087976 147.499852 
L 66.08735 147.499461 
L 66.087236 147.49939 
L 66.087009 147.499248 
L 66.086634 147.499098 
L 66.086634 147.499098 
" clip-path="url(#p0dd5be75cf)" style="fill: none; stroke: #1f77b4; stroke-opacity: 0.95; stroke-width: 1.05; stroke-linecap: square"/>
   </g>
   <g id="line2d_86">
    <path d="M 107.780614 129.58164 
L 107.782601 129.580469 
L 108.775535 128.995396 
L 109.768667 128.409977 
L 110.761993 127.824224 
L 111.755501 127.238155 
L 112.749178 126.651794 
L 113.743002 126.065176 
L 114.736948 125.47835 
L 115.730978 124.891377 
L 116.725044 124.304341 
L 117.719085 123.717349 
L 118.71302 123.130541 
L 119.706745 122.544096 
L 120.700127 121.958246 
L 121.692995 121.373284 
L 122.685133 120.789588 
L 123.676264 120.207637 
L 124.666036 119.628039 
L 125.654007 119.051561 
L 126.63962 118.479165 
L 127.622186 117.91205 
L 128.600855 117.351682 
L 129.574607 116.799832 
L 130.54224 116.258579 
L 131.502392 115.730285 
L 132.453581 115.217515 
L 133.394292 114.722893 
L 134.323097 114.248893 
L 135.238787 113.797609 
L 136.140495 113.370543 
L 137.027767 112.968479 
L 137.900567 112.591483 
L 138.759208 112.239011 
L 139.604244 111.910102 
L 140.436351 111.603589 
L 141.256214 111.318282 
L 142.064453 111.053107 
L 142.861578 110.807185 
L 143.647965 110.57986 
L 144.423868 110.370694 
L 145.18943 110.179438 
L 145.81139 110.035477 
" clip-path="url(#p0dd5be75cf)" style="fill: none; stroke: #1f77b4; stroke-opacity: 0.95; stroke-width: 1.05; stroke-linecap: square"/>
   </g>
   <g id="line2d_87">
    <path d="M 107.780614 129.58164 
L 107.781525 129.582334 
L 108.691827 130.275118 
L 109.60309 130.968511 
L 110.514405 131.661815 
L 111.425773 132.355025 
L 112.337199 133.048136 
L 113.248685 133.741143 
L 114.160234 134.43404 
L 115.07185 135.126822 
L 115.983535 135.819483 
L 116.895295 136.512015 
L 117.807133 137.204413 
L 118.719052 137.896668 
L 119.631058 138.588774 
L 120.543156 139.280721 
L 121.45535 139.972501 
L 122.367646 140.664104 
L 123.28005 141.355521 
L 124.192568 142.046741 
L 125.105206 142.737752 
L 126.017972 143.428542 
L 126.930872 144.119098 
L 127.843916 144.809406 
L 128.757112 145.499452 
L 129.670468 146.189218 
L 130.583996 146.878689 
L 131.497704 147.567846 
L 132.411606 148.256669 
L 133.325712 148.945136 
L 134.240037 149.633226 
L 135.154595 150.320912 
L 136.0694 151.008169 
L 136.98447 151.694968 
L 137.899823 152.381278 
L 138.815477 153.067065 
L 139.731454 153.752293 
L 140.647777 154.436922 
L 141.56447 155.12091 
L 142.48156 155.804209 
L 143.399078 156.486769 
L 144.317054 157.168534 
L 145.235524 157.849444 
L 146.154526 158.529433 
L 147.074102 159.208427 
L 147.994297 159.886348 
L 148.915163 160.563107 
L 149.836756 161.23861 
L 150.759135 161.912748 
L 151.68237 162.585406 
L 152.606534 163.256453 
L 153.531711 163.925746 
L 154.457993 164.593126 
L 155.385481 165.258414 
L 156.314291 165.921415 
L 157.24455 166.581907 
L 158.176399 167.239644 
L 159.109997 167.89435 
L 160.045524 168.545716 
L 160.98318 169.193395 
L 161.923191 169.836996 
L 162.865809 170.476079 
L 163.811323 171.110149 
L 164.760054 171.738645 
L 165.712367 172.360936 
L 166.668673 172.976312 
L 167.629435 173.583971 
L 168.595173 174.18301 
L 169.566471 174.772419 
L 170.54398 175.35107 
L 171.528423 175.917711 
L 172.520595 176.470965 
L 173.521361 177.009335 
L 174.531645 177.531219 
L 175.552418 178.034934 
L 176.584671 178.518767 
L 177.629375 178.981033 
L 178.687433 179.420168 
L 179.759619 179.834834 
L 180.846504 180.224042 
L 181.948383 180.587277 
L 183.065217 180.924611 
L 184.196583 181.236774 
L 185.341668 181.525175 
L 186.499296 181.791851 
L 187.344423 181.972801 
" clip-path="url(#p0dd5be75cf)" style="fill: none; stroke: #1f77b4; stroke-opacity: 0.95; stroke-width: 1.05; stroke-linecap: square"/>
   </g>
   <g id="line2d_88">
    <path d="M 125.529798 143.059127 
L 125.532127 143.06089 
L 126.113839 143.501076 
L 126.69541 143.941017 
L 127.276834 144.380706 
L 127.858108 144.820133 
L 128.439225 145.259289 
L 129.02018 145.698163 
L 129.600966 146.136745 
L 130.181577 146.575024 
L 130.762007 147.012989 
L 131.342248 147.450628 
L 131.922294 147.887928 
L 132.502137 148.324876 
L 133.081769 148.76146 
L 133.661182 149.197664 
L 134.240367 149.633474 
L 134.819316 150.068874 
L 135.39802 150.50385 
L 135.976468 150.938382 
L 136.55465 151.372455 
L 137.132556 151.806049 
L 137.710175 152.239145 
L 138.287494 152.671723 
L 138.864503 153.103761 
L 139.441187 153.535239 
L 140.017533 153.966132 
L 140.593528 154.396416 
L 141.169157 154.826065 
L 141.744404 155.255054 
L 142.319254 155.683353 
L 142.893688 156.110934 
L 143.46769 156.537766 
L 144.041241 156.963817 
L 144.614321 157.389052 
L 145.18691 157.813436 
L 145.758986 158.236932 
L 146.330526 158.659501 
L 146.901508 159.081101 
L 147.471905 159.501689 
L 148.041692 159.921221 
L 148.610841 160.339647 
L 149.179324 160.756919 
L 149.74711 161.172984 
L 150.314166 161.587786 
L 150.880461 162.001268 
L 151.445958 162.413369 
L 152.01062 162.824024 
L 152.574409 163.233167 
L 153.137285 163.640728 
L 153.699204 164.046631 
L 154.260122 164.450801 
L 154.819991 164.853154 
L 155.378763 165.253606 
L 155.936385 165.652068 
L 156.492804 166.048445 
L 157.047963 166.442639 
L 157.601802 166.834548 
L 158.15426 167.224065 
L 158.705272 167.611077 
L 159.25477 167.995467 
L 159.802684 168.377113 
L 160.348941 168.755889 
L 160.893464 169.131662 
L 161.436175 169.504295 
L 161.976991 169.873648 
L 162.515827 170.239572 
L 163.052598 170.601916 
L 163.587211 170.960526 
L 164.119576 171.31524 
L 164.649597 171.665894 
L 165.177178 172.012323 
L 166.224626 172.691817 
L 167.261119 173.35234 
L 168.285854 173.992496 
L 169.298037 174.610909 
L 170.296903 175.20626 
L 171.281748 175.777323 
L 172.251943 176.323013 
L 173.206968 176.842428 
L 174.146431 177.334888 
L 175.070087 177.799969 
L 175.977854 178.23753 
L 176.869819 178.647722 
L 177.746237 179.030985 
L 178.607522 179.388037 
L 179.454233 179.719846 
L 180.287054 180.027597 
L 181.106768 180.312646 
L 181.914235 180.576482 
L 182.710366 180.820683 
L 183.496097 181.046872 
L 184.272374 181.256686 
L 185.040132 181.451744 
L 185.800278 181.633619 
L 186.553688 181.803825 
L 187.301189 181.963798 
L 187.324462 181.968647 
L 187.336097 181.971069 
L 187.341914 181.972279 
L 187.343368 181.972581 
L 187.344095 181.972732 
L 187.344277 181.97277 
L 187.344367 181.972789 
L 187.344372 181.97279 
L 187.344372 181.97279 
" clip-path="url(#p0dd5be75cf)" style="fill: none; stroke: #1f77b4; stroke-opacity: 0.95; stroke-width: 1.05; stroke-linecap: square"/>
   </g>
   <g id="line2d_89">
    <path d="M 115.216161 125.195384 
L 115.217139 125.194807 
L 116.194276 124.617782 
L 117.172386 124.040172 
L 118.150524 123.462611 
L 119.128733 122.885172 
L 120.107066 122.307948 
L 121.085594 121.731061 
L 122.064404 121.154663 
L 123.043611 120.578953 
L 124.02336 120.004181 
L 125.003837 119.430671 
L 125.985281 118.858834 
L 126.967995 118.289199 
L 127.952367 117.722435 
L 128.938889 117.159394 
L 129.928179 116.601147 
L 130.921005 116.049026 
L 131.918304 115.504652 
L 132.921191 114.969957 
L 133.930939 114.447145 
L 134.948935 113.93862 
L 135.97659 113.446823 
L 137.015219 112.974035 
L 138.06593 112.522173 
L 139.12955 112.09267 
L 140.206637 111.686493 
L 141.297584 111.304322 
L 142.402781 110.946834 
L 143.522801 110.615017 
L 144.65855 110.310446 
L 145.232729 110.16908 
L 145.521484 110.101283 
L 145.666291 110.068128 
L 145.738804 110.051739 
L 145.775088 110.043592 
L 145.793237 110.039531 
L 145.802313 110.037503 
L 145.806851 110.03649 
L 145.809121 110.035984 
L 145.810255 110.035731 
L 145.810823 110.035604 
L 145.811106 110.035541 
L 145.811248 110.035509 
L 145.811319 110.035493 
L 145.811355 110.035485 
L 145.811355 110.035485 
" clip-path="url(#p0dd5be75cf)" style="fill: none; stroke: #1f77b4; stroke-opacity: 0.95; stroke-width: 1.05; stroke-linecap: square"/>
   </g>
   <g id="line2d_90">
    <path d="M 113.368913 70.71416 
L 113.368102 70.713293 
L 112.550168 69.860521 
L 111.731083 69.007471 
L 111.630054 68.89849 
L 111.579731 68.843667 
L 111.554622 68.816166 
L 111.542081 68.802392 
L 111.535814 68.795499 
L 111.532681 68.792051 
L 111.531115 68.790327 
L 111.530332 68.789464 
L 111.52994 68.789033 
L 111.529928 68.78902 
L 111.529925 68.789016 
L 111.529923 68.789015 
L 111.529923 68.789015 
" clip-path="url(#p0dd5be75cf)" style="fill: none; stroke: #1f77b4; stroke-opacity: 0.95; stroke-width: 1.05; stroke-linecap: square"/>
   </g>
   <g id="line2d_91">
    <path d="M 113.368913 70.71416 
L 113.371079 70.71268 
L 114.006233 70.32435 
" clip-path="url(#p0dd5be75cf)" style="fill: none; stroke: #1f77b4; stroke-opacity: 0.95; stroke-width: 1.05; stroke-linecap: square"/>
   </g>
   <g id="line2d_92">
    <path d="M 113.368913 70.71416 
L 113.368257 70.715296 
L 112.713116 71.850033 
L 112.057319 72.985907 
L 111.401522 74.12178 
L 110.745726 75.257653 
L 110.089929 76.393527 
L 109.508544 77.400514 
" clip-path="url(#p0dd5be75cf)" style="fill: none; stroke: #1f77b4; stroke-opacity: 0.95; stroke-width: 1.05; stroke-linecap: square"/>
   </g>
   <g id="line2d_93">
    <path d="M 113.368913 70.71416 
L 113.368656 70.716876 
L 113.240461 72.073654 
L 113.112266 73.430432 
L 112.984071 74.787209 
L 112.855876 76.143987 
L 112.727681 77.500764 
L 112.599486 78.857542 
L 112.473775 80.188032 
" clip-path="url(#p0dd5be75cf)" style="fill: none; stroke: #1f77b4; stroke-opacity: 0.95; stroke-width: 1.05; stroke-linecap: square"/>
   </g>
   <g id="line2d_94">
    <path d="M 102.700489 91.065749 
L 102.699611 91.066499 
L 101.821923 91.815774 
L 100.943357 92.565799 
L 100.481468 92.96011 
" clip-path="url(#p0dd5be75cf)" style="fill: none; stroke: #1f77b4; stroke-opacity: 0.95; stroke-width: 1.05; stroke-linecap: square"/>
   </g>
   <g id="line2d_95">
    <path d="M 102.700489 91.065749 
L 102.697621 91.063052 
L 101.97107 90.380045 
" clip-path="url(#p0dd5be75cf)" style="fill: none; stroke: #1f77b4; stroke-opacity: 0.95; stroke-width: 1.05; stroke-linecap: square"/>
   </g>
   <g id="line2d_96">
    <path d="M 102.700489 91.065749 
L 102.700142 91.067419 
L 102.581317 91.678355 
" clip-path="url(#p0dd5be75cf)" style="fill: none; stroke: #1f77b4; stroke-opacity: 0.95; stroke-width: 1.05; stroke-linecap: square"/>
   </g>
   <g id="line2d_97">
    <path d="M 102.700489 91.065749 
L 102.701277 91.064841 
L 103.488353 90.158623 
L 104.277056 89.25295 
L 105.066754 88.348999 
L 105.857638 87.447105 
L 106.649953 86.547687 
L 107.444004 85.651277 
L 108.240183 84.758553 
L 109.038994 83.870388 
L 109.841089 82.98791 
L 110.647304 82.11257 
L 111.458703 81.246207 
L 112.276585 80.391074 
L 112.473775 80.188032 
" clip-path="url(#p0dd5be75cf)" style="fill: none; stroke: #1f77b4; stroke-opacity: 0.95; stroke-width: 1.05; stroke-linecap: square"/>
   </g>
   <g id="patch_3">
    <path d="M 195.459439 196.02842 
L 38.068216 196.02842 
" style="fill: none; stroke: #000000; stroke-width: 0.8; stroke-linejoin: miter; stroke-linecap: square"/>
   </g>
   <g id="patch_4">
    <path d="M 116.763827 59.723623 
L 116.763827 59.723623 
" style="fill: none; stroke: #000000; stroke-width: 0.8; stroke-linejoin: miter; stroke-linecap: square"/>
   </g>
   <g id="patch_5">
    <path d="M 116.763827 59.723623 
L 195.459439 196.02842 
" style="fill: none; stroke: #000000; stroke-width: 0.8; stroke-linejoin: miter; stroke-linecap: square"/>
   </g>
   <g id="patch_6">
    <path d="M 38.068216 196.02842 
L 38.068216 196.02842 
" style="fill: none; stroke: #000000; stroke-width: 0.8; stroke-linejoin: miter; stroke-linecap: square"/>
   </g>
   <g id="patch_7">
    <path d="M 38.068216 196.02842 
L 116.763827 59.723623 
" style="fill: none; stroke: #000000; stroke-width: 0.8; stroke-linejoin: miter; stroke-linecap: square"/>
   </g>
   <g id="patch_8">
    <path d="M 195.459439 196.02842 
L 195.459439 196.02842 
" style="fill: none; stroke: #000000; stroke-width: 0.8; stroke-linejoin: miter; stroke-linecap: square"/>
   </g>
   <g id="text_37">
    <!-- CAMA_5CAF2_5SIO2 phase diagram from EXP -->
    <g transform="translate(17.04664 14.14375) scale(0.1 -0.1)">
     <defs>
      <path id="TimesNewRomanPSMT-5f" d="M 3256 -1381 
L -53 -1381 
L -53 -1119 
L 3256 -1119 
L 3256 -1381 
z
" transform="scale(0.015625)"/>
      <path id="TimesNewRomanPSMT-46" d="M 1309 4006 
L 1309 2341 
L 2081 2341 
Q 2347 2341 2470 2458 
Q 2594 2575 2634 2922 
L 2750 2922 
L 2750 1488 
L 2634 1488 
Q 2631 1734 2570 1850 
Q 2509 1966 2401 2023 
Q 2294 2081 2081 2081 
L 1309 2081 
L 1309 750 
Q 1309 428 1350 325 
Q 1381 247 1481 191 
Q 1619 116 1769 116 
L 1922 116 
L 1922 0 
L 103 0 
L 103 116 
L 253 116 
Q 516 116 634 269 
Q 709 369 709 750 
L 709 3488 
Q 709 3809 669 3913 
Q 638 3991 541 4047 
Q 406 4122 253 4122 
L 103 4122 
L 103 4238 
L 3256 4238 
L 3297 3306 
L 3188 3306 
Q 3106 3603 2998 3742 
Q 2891 3881 2733 3943 
Q 2575 4006 2244 4006 
L 1309 4006 
z
" transform="scale(0.015625)"/>
      <path id="TimesNewRomanPSMT-53" d="M 2934 4334 
L 2934 2869 
L 2819 2869 
Q 2763 3291 2617 3541 
Q 2472 3791 2203 3937 
Q 1934 4084 1647 4084 
Q 1322 4084 1109 3886 
Q 897 3688 897 3434 
Q 897 3241 1031 3081 
Q 1225 2847 1953 2456 
Q 2547 2138 2764 1967 
Q 2981 1797 3098 1565 
Q 3216 1334 3216 1081 
Q 3216 600 2842 251 
Q 2469 -97 1881 -97 
Q 1697 -97 1534 -69 
Q 1438 -53 1133 45 
Q 828 144 747 144 
Q 669 144 623 97 
Q 578 50 556 -97 
L 441 -97 
L 441 1356 
L 556 1356 
Q 638 900 775 673 
Q 913 447 1195 297 
Q 1478 147 1816 147 
Q 2206 147 2432 353 
Q 2659 559 2659 841 
Q 2659 997 2573 1156 
Q 2488 1316 2306 1453 
Q 2184 1547 1640 1851 
Q 1097 2156 867 2337 
Q 638 2519 519 2737 
Q 400 2956 400 3219 
Q 400 3675 750 4004 
Q 1100 4334 1641 4334 
Q 1978 4334 2356 4169 
Q 2531 4091 2603 4091 
Q 2684 4091 2736 4139 
Q 2788 4188 2819 4334 
L 2934 4334 
z
" transform="scale(0.015625)"/>
      <path id="TimesNewRomanPSMT-49" d="M 1975 116 
L 1975 0 
L 159 0 
L 159 116 
L 309 116 
Q 572 116 691 269 
Q 766 369 766 750 
L 766 3488 
Q 766 3809 725 3913 
Q 694 3991 597 4047 
Q 459 4122 309 4122 
L 159 4122 
L 159 4238 
L 1975 4238 
L 1975 4122 
L 1822 4122 
Q 1563 4122 1444 3969 
Q 1366 3869 1366 3488 
L 1366 750 
Q 1366 428 1406 325 
Q 1438 247 1538 191 
Q 1672 116 1822 116 
L 1975 116 
z
" transform="scale(0.015625)"/>
      <path id="TimesNewRomanPSMT-70" d="M -6 2578 
L 875 2934 
L 994 2934 
L 994 2266 
Q 1216 2644 1439 2795 
Q 1663 2947 1909 2947 
Q 2341 2947 2628 2609 
Q 2981 2197 2981 1534 
Q 2981 794 2556 309 
Q 2206 -88 1675 -88 
Q 1444 -88 1275 -22 
Q 1150 25 994 166 
L 994 -706 
Q 994 -1000 1030 -1079 
Q 1066 -1159 1155 -1206 
Q 1244 -1253 1478 -1253 
L 1478 -1369 
L -22 -1369 
L -22 -1253 
L 56 -1253 
Q 228 -1256 350 -1188 
Q 409 -1153 442 -1076 
Q 475 -1000 475 -688 
L 475 2019 
Q 475 2297 450 2372 
Q 425 2447 370 2484 
Q 316 2522 222 2522 
Q 147 2522 31 2478 
L -6 2578 
z
M 994 2081 
L 994 1013 
Q 994 666 1022 556 
Q 1066 375 1236 237 
Q 1406 100 1666 100 
Q 1978 100 2172 344 
Q 2425 663 2425 1241 
Q 2425 1897 2138 2250 
Q 1938 2494 1663 2494 
Q 1513 2494 1366 2419 
Q 1253 2363 994 2081 
z
" transform="scale(0.015625)"/>
      <path id="TimesNewRomanPSMT-68" d="M 1041 4444 
L 1041 2350 
Q 1388 2731 1591 2839 
Q 1794 2947 1997 2947 
Q 2241 2947 2416 2812 
Q 2591 2678 2675 2391 
Q 2734 2191 2734 1659 
L 2734 647 
Q 2734 375 2778 275 
Q 2809 200 2884 156 
Q 2959 113 3159 113 
L 3159 0 
L 1753 0 
L 1753 113 
L 1819 113 
Q 2019 113 2097 173 
Q 2175 234 2206 353 
Q 2216 403 2216 647 
L 2216 1659 
Q 2216 2128 2167 2275 
Q 2119 2422 2012 2495 
Q 1906 2569 1756 2569 
Q 1603 2569 1437 2487 
Q 1272 2406 1041 2159 
L 1041 647 
Q 1041 353 1073 281 
Q 1106 209 1195 161 
Q 1284 113 1503 113 
L 1503 0 
L 84 0 
L 84 113 
Q 275 113 384 172 
Q 447 203 484 290 
Q 522 378 522 647 
L 522 3238 
Q 522 3728 498 3840 
Q 475 3953 426 3993 
Q 378 4034 297 4034 
Q 231 4034 84 3984 
L 41 4094 
L 897 4444 
L 1041 4444 
z
" transform="scale(0.015625)"/>
      <path id="TimesNewRomanPSMT-73" d="M 2050 2947 
L 2050 1972 
L 1947 1972 
Q 1828 2431 1642 2597 
Q 1456 2763 1169 2763 
Q 950 2763 815 2647 
Q 681 2531 681 2391 
Q 681 2216 781 2091 
Q 878 1963 1175 1819 
L 1631 1597 
Q 2266 1288 2266 781 
Q 2266 391 1970 151 
Q 1675 -88 1309 -88 
Q 1047 -88 709 6 
Q 606 38 541 38 
Q 469 38 428 -44 
L 325 -44 
L 325 978 
L 428 978 
Q 516 541 762 319 
Q 1009 97 1316 97 
Q 1531 97 1667 223 
Q 1803 350 1803 528 
Q 1803 744 1651 891 
Q 1500 1038 1047 1263 
Q 594 1488 453 1669 
Q 313 1847 313 2119 
Q 313 2472 555 2709 
Q 797 2947 1181 2947 
Q 1350 2947 1591 2875 
Q 1750 2828 1803 2828 
Q 1853 2828 1881 2850 
Q 1909 2872 1947 2947 
L 2050 2947 
z
" transform="scale(0.015625)"/>
      <path id="TimesNewRomanPSMT-65" d="M 681 1784 
Q 678 1147 991 784 
Q 1303 422 1725 422 
Q 2006 422 2214 576 
Q 2422 731 2563 1106 
L 2659 1044 
Q 2594 616 2278 264 
Q 1963 -88 1488 -88 
Q 972 -88 605 314 
Q 238 716 238 1394 
Q 238 2128 614 2539 
Q 991 2950 1559 2950 
Q 2041 2950 2350 2633 
Q 2659 2316 2659 1784 
L 681 1784 
z
M 681 1966 
L 2006 1966 
Q 1991 2241 1941 2353 
Q 1863 2528 1708 2628 
Q 1553 2728 1384 2728 
Q 1125 2728 920 2526 
Q 716 2325 681 1966 
z
" transform="scale(0.015625)"/>
      <path id="TimesNewRomanPSMT-64" d="M 2222 322 
Q 2013 103 1813 7 
Q 1613 -88 1381 -88 
Q 913 -88 563 304 
Q 213 697 213 1313 
Q 213 1928 600 2439 
Q 988 2950 1597 2950 
Q 1975 2950 2222 2709 
L 2222 3238 
Q 2222 3728 2198 3840 
Q 2175 3953 2125 3993 
Q 2075 4034 2000 4034 
Q 1919 4034 1784 3984 
L 1744 4094 
L 2597 4444 
L 2738 4444 
L 2738 1134 
Q 2738 631 2761 520 
Q 2784 409 2836 365 
Q 2888 322 2956 322 
Q 3041 322 3181 375 
L 3216 266 
L 2366 -88 
L 2222 -88 
L 2222 322 
z
M 2222 541 
L 2222 2016 
Q 2203 2228 2109 2403 
Q 2016 2578 1861 2667 
Q 1706 2756 1559 2756 
Q 1284 2756 1069 2509 
Q 784 2184 784 1559 
Q 784 928 1059 592 
Q 1334 256 1672 256 
Q 1956 256 2222 541 
z
" transform="scale(0.015625)"/>
      <path id="TimesNewRomanPSMT-69" d="M 928 4444 
Q 1059 4444 1151 4351 
Q 1244 4259 1244 4128 
Q 1244 3997 1151 3903 
Q 1059 3809 928 3809 
Q 797 3809 703 3903 
Q 609 3997 609 4128 
Q 609 4259 701 4351 
Q 794 4444 928 4444 
z
M 1188 2947 
L 1188 647 
Q 1188 378 1227 289 
Q 1266 200 1342 156 
Q 1419 113 1622 113 
L 1622 0 
L 231 0 
L 231 113 
Q 441 113 512 153 
Q 584 194 626 287 
Q 669 381 669 647 
L 669 1750 
Q 669 2216 641 2353 
Q 619 2453 572 2492 
Q 525 2531 444 2531 
Q 356 2531 231 2484 
L 188 2597 
L 1050 2947 
L 1188 2947 
z
" transform="scale(0.015625)"/>
      <path id="TimesNewRomanPSMT-72" d="M 1038 2947 
L 1038 2303 
Q 1397 2947 1775 2947 
Q 1947 2947 2059 2842 
Q 2172 2738 2172 2600 
Q 2172 2478 2090 2393 
Q 2009 2309 1897 2309 
Q 1788 2309 1652 2417 
Q 1516 2525 1450 2525 
Q 1394 2525 1328 2463 
Q 1188 2334 1038 2041 
L 1038 669 
Q 1038 431 1097 309 
Q 1138 225 1241 169 
Q 1344 113 1538 113 
L 1538 0 
L 72 0 
L 72 113 
Q 291 113 397 181 
Q 475 231 506 341 
Q 522 394 522 644 
L 522 1753 
Q 522 2253 501 2348 
Q 481 2444 426 2487 
Q 372 2531 291 2531 
Q 194 2531 72 2484 
L 41 2597 
L 906 2947 
L 1038 2947 
z
" transform="scale(0.015625)"/>
      <path id="TimesNewRomanPSMT-6d" d="M 1050 2338 
Q 1363 2650 1419 2697 
Q 1559 2816 1721 2881 
Q 1884 2947 2044 2947 
Q 2313 2947 2506 2790 
Q 2700 2634 2766 2338 
Q 3088 2713 3309 2830 
Q 3531 2947 3766 2947 
Q 3994 2947 4170 2830 
Q 4347 2713 4450 2447 
Q 4519 2266 4519 1878 
L 4519 647 
Q 4519 378 4559 278 
Q 4591 209 4675 161 
Q 4759 113 4950 113 
L 4950 0 
L 3538 0 
L 3538 113 
L 3597 113 
Q 3781 113 3884 184 
Q 3956 234 3988 344 
Q 4000 397 4000 647 
L 4000 1878 
Q 4000 2228 3916 2372 
Q 3794 2572 3525 2572 
Q 3359 2572 3192 2489 
Q 3025 2406 2788 2181 
L 2781 2147 
L 2788 2013 
L 2788 647 
Q 2788 353 2820 281 
Q 2853 209 2943 161 
Q 3034 113 3253 113 
L 3253 0 
L 1806 0 
L 1806 113 
Q 2044 113 2133 169 
Q 2222 225 2256 338 
Q 2272 391 2272 647 
L 2272 1878 
Q 2272 2228 2169 2381 
Q 2031 2581 1784 2581 
Q 1616 2581 1450 2491 
Q 1191 2353 1050 2181 
L 1050 647 
Q 1050 366 1089 281 
Q 1128 197 1204 155 
Q 1281 113 1516 113 
L 1516 0 
L 100 0 
L 100 113 
Q 297 113 375 155 
Q 453 197 493 289 
Q 534 381 534 647 
L 534 1741 
Q 534 2213 506 2350 
Q 484 2453 437 2492 
Q 391 2531 309 2531 
Q 222 2531 100 2484 
L 53 2597 
L 916 2947 
L 1050 2947 
L 1050 2338 
z
" transform="scale(0.015625)"/>
      <path id="TimesNewRomanPSMT-66" d="M 1319 2638 
L 1319 756 
Q 1319 356 1406 250 
Q 1522 113 1716 113 
L 1975 113 
L 1975 0 
L 266 0 
L 266 113 
L 394 113 
Q 519 113 622 175 
Q 725 238 764 344 
Q 803 450 803 756 
L 803 2638 
L 247 2638 
L 247 2863 
L 803 2863 
L 803 3050 
Q 803 3478 940 3775 
Q 1078 4072 1361 4255 
Q 1644 4438 1997 4438 
Q 2325 4438 2600 4225 
Q 2781 4084 2781 3909 
Q 2781 3816 2700 3733 
Q 2619 3650 2525 3650 
Q 2453 3650 2373 3701 
Q 2294 3753 2178 3923 
Q 2063 4094 1966 4153 
Q 1869 4213 1750 4213 
Q 1606 4213 1506 4136 
Q 1406 4059 1362 3898 
Q 1319 3738 1319 3069 
L 1319 2863 
L 2056 2863 
L 2056 2638 
L 1319 2638 
z
" transform="scale(0.015625)"/>
      <path id="TimesNewRomanPSMT-6f" d="M 1600 2947 
Q 2250 2947 2644 2453 
Q 2978 2031 2978 1484 
Q 2978 1100 2793 706 
Q 2609 313 2286 112 
Q 1963 -88 1566 -88 
Q 919 -88 538 428 
Q 216 863 216 1403 
Q 216 1797 411 2186 
Q 606 2575 925 2761 
Q 1244 2947 1600 2947 
z
M 1503 2744 
Q 1338 2744 1170 2645 
Q 1003 2547 900 2300 
Q 797 2053 797 1666 
Q 797 1041 1045 587 
Q 1294 134 1700 134 
Q 2003 134 2200 384 
Q 2397 634 2397 1244 
Q 2397 2006 2069 2444 
Q 1847 2744 1503 2744 
z
" transform="scale(0.015625)"/>
      <path id="TimesNewRomanPSMT-45" d="M 1338 4006 
L 1338 2331 
L 2269 2331 
Q 2631 2331 2753 2441 
Q 2916 2584 2934 2947 
L 3050 2947 
L 3050 1472 
L 2934 1472 
Q 2891 1781 2847 1869 
Q 2791 1978 2662 2040 
Q 2534 2103 2269 2103 
L 1338 2103 
L 1338 706 
Q 1338 425 1363 364 
Q 1388 303 1450 267 
Q 1513 231 1688 231 
L 2406 231 
Q 2766 231 2928 281 
Q 3091 331 3241 478 
Q 3434 672 3638 1063 
L 3763 1063 
L 3397 0 
L 131 0 
L 131 116 
L 281 116 
Q 431 116 566 188 
Q 666 238 702 338 
Q 738 438 738 747 
L 738 3500 
Q 738 3903 656 3997 
Q 544 4122 281 4122 
L 131 4122 
L 131 4238 
L 3397 4238 
L 3444 3309 
L 3322 3309 
Q 3256 3644 3176 3769 
Q 3097 3894 2941 3959 
Q 2816 4006 2500 4006 
L 1338 4006 
z
" transform="scale(0.015625)"/>
      <path id="TimesNewRomanPSMT-58" d="M 2613 2347 
L 3522 991 
Q 3900 428 4083 279 
Q 4266 131 4547 116 
L 4547 0 
L 2728 0 
L 2728 116 
Q 2909 119 2997 153 
Q 3063 181 3105 239 
Q 3147 297 3147 356 
Q 3147 428 3119 500 
Q 3097 553 2947 775 
L 2228 1863 
L 1341 725 
Q 1200 544 1172 483 
Q 1144 422 1144 356 
Q 1144 256 1228 190 
Q 1313 125 1550 116 
L 1550 0 
L 47 0 
L 47 116 
Q 206 131 322 181 
Q 516 263 691 400 
Q 866 538 1091 822 
L 2091 2084 
L 1256 3306 
Q 916 3803 678 3958 
Q 441 4113 131 4122 
L 131 4238 
L 2091 4238 
L 2091 4122 
Q 1841 4113 1748 4041 
Q 1656 3969 1656 3881 
Q 1656 3766 1806 3544 
L 2456 2572 
L 3209 3525 
Q 3341 3694 3370 3756 
Q 3400 3819 3400 3884 
Q 3400 3950 3363 4000 
Q 3316 4066 3244 4092 
Q 3172 4119 2947 4122 
L 2947 4238 
L 4450 4238 
L 4450 4122 
Q 4272 4113 4159 4066 
Q 3991 3994 3850 3872 
Q 3709 3750 3453 3422 
L 2613 2347 
z
" transform="scale(0.015625)"/>
      <path id="TimesNewRomanPSMT-50" d="M 1313 1984 
L 1313 750 
Q 1313 350 1400 253 
Q 1519 116 1759 116 
L 1922 116 
L 1922 0 
L 106 0 
L 106 116 
L 266 116 
Q 534 116 650 291 
Q 713 388 713 750 
L 713 3488 
Q 713 3888 628 3984 
Q 506 4122 266 4122 
L 106 4122 
L 106 4238 
L 1659 4238 
Q 2228 4238 2556 4120 
Q 2884 4003 3109 3725 
Q 3334 3447 3334 3066 
Q 3334 2547 2992 2222 
Q 2650 1897 2025 1897 
Q 1872 1897 1694 1919 
Q 1516 1941 1313 1984 
z
M 1313 2163 
Q 1478 2131 1606 2115 
Q 1734 2100 1825 2100 
Q 2150 2100 2386 2351 
Q 2622 2603 2622 3003 
Q 2622 3278 2509 3514 
Q 2397 3750 2190 3867 
Q 1984 3984 1722 3984 
Q 1563 3984 1313 3925 
L 1313 2163 
z
" transform="scale(0.015625)"/>
     </defs>
     <use xlink:href="#TimesNewRomanPSMT-43"/>
     <use xlink:href="#TimesNewRomanPSMT-41" transform="translate(66.699219 0)"/>
     <use xlink:href="#TimesNewRomanPSMT-4d" transform="translate(138.916016 0)"/>
     <use xlink:href="#TimesNewRomanPSMT-41" transform="translate(227.832031 0)"/>
     <use xlink:href="#TimesNewRomanPSMT-5f" transform="translate(300.048828 0)"/>
     <use xlink:href="#TimesNewRomanPSMT-35" transform="translate(350.048828 0)"/>
     <use xlink:href="#TimesNewRomanPSMT-43" transform="translate(400.048828 0)"/>
     <use xlink:href="#TimesNewRomanPSMT-41" transform="translate(466.748047 0)"/>
     <use xlink:href="#TimesNewRomanPSMT-46" transform="translate(538.964844 0)"/>
     <use xlink:href="#TimesNewRomanPSMT-32" transform="translate(594.580078 0)"/>
     <use xlink:href="#TimesNewRomanPSMT-5f" transform="translate(644.580078 0)"/>
     <use xlink:href="#TimesNewRomanPSMT-35" transform="translate(694.580078 0)"/>
     <use xlink:href="#TimesNewRomanPSMT-53" transform="translate(744.580078 0)"/>
     <use xlink:href="#TimesNewRomanPSMT-49" transform="translate(800.195312 0)"/>
     <use xlink:href="#TimesNewRomanPSMT-4f" transform="translate(833.496094 0)"/>
     <use xlink:href="#TimesNewRomanPSMT-32" transform="translate(905.712891 0)"/>
     <use xlink:href="#TimesNewRomanPSMT-20" transform="translate(955.712891 0)"/>
     <use xlink:href="#TimesNewRomanPSMT-70" transform="translate(980.712891 0)"/>
     <use xlink:href="#TimesNewRomanPSMT-68" transform="translate(1030.712891 0)"/>
     <use xlink:href="#TimesNewRomanPSMT-61" transform="translate(1080.712891 0)"/>
     <use xlink:href="#TimesNewRomanPSMT-73" transform="translate(1125.097656 0)"/>
     <use xlink:href="#TimesNewRomanPSMT-65" transform="translate(1164.013672 0)"/>
     <use xlink:href="#TimesNewRomanPSMT-20" transform="translate(1208.398438 0)"/>
     <use xlink:href="#TimesNewRomanPSMT-64" transform="translate(1233.398438 0)"/>
     <use xlink:href="#TimesNewRomanPSMT-69" transform="translate(1283.398438 0)"/>
     <use xlink:href="#TimesNewRomanPSMT-61" transform="translate(1311.181641 0)"/>
     <use xlink:href="#TimesNewRomanPSMT-67" transform="translate(1355.566406 0)"/>
     <use xlink:href="#TimesNewRomanPSMT-72" transform="translate(1405.566406 0)"/>
     <use xlink:href="#TimesNewRomanPSMT-61" transform="translate(1438.867188 0)"/>
     <use xlink:href="#TimesNewRomanPSMT-6d" transform="translate(1483.251953 0)"/>
     <use xlink:href="#TimesNewRomanPSMT-20" transform="translate(1561.035156 0)"/>
     <use xlink:href="#TimesNewRomanPSMT-66" transform="translate(1586.035156 0)"/>
     <use xlink:href="#TimesNewRomanPSMT-72" transform="translate(1619.335938 0)"/>
     <use xlink:href="#TimesNewRomanPSMT-6f" transform="translate(1652.636719 0)"/>
     <use xlink:href="#TimesNewRomanPSMT-6d" transform="translate(1702.636719 0)"/>
     <use xlink:href="#TimesNewRomanPSMT-20" transform="translate(1780.419922 0)"/>
     <use xlink:href="#TimesNewRomanPSMT-45" transform="translate(1805.419922 0)"/>
     <use xlink:href="#TimesNewRomanPSMT-58" transform="translate(1866.503906 0)"/>
     <use xlink:href="#TimesNewRomanPSMT-50" transform="translate(1938.720703 0)"/>
    </g>
    <!-- Al2O3* = 100 - CaO - MgO - CaF2 - SiO2 -->
    <g transform="translate(30.335702 24.634062) scale(0.1 -0.1)">
     <defs>
      <path id="TimesNewRomanPSMT-3d" d="M 116 2759 
L 3488 2759 
L 3488 2503 
L 116 2503 
L 116 2759 
z
M 116 1741 
L 3488 1741 
L 3488 1484 
L 116 1484 
L 116 1741 
z
" transform="scale(0.015625)"/>
      <path id="TimesNewRomanPSMT-2d" d="M 259 1672 
L 1875 1672 
L 1875 1200 
L 259 1200 
L 259 1672 
z
" transform="scale(0.015625)"/>
     </defs>
     <use xlink:href="#TimesNewRomanPSMT-41"/>
     <use xlink:href="#TimesNewRomanPSMT-6c" transform="translate(72.216797 0)"/>
     <use xlink:href="#TimesNewRomanPSMT-32" transform="translate(100 0)"/>
     <use xlink:href="#TimesNewRomanPSMT-4f" transform="translate(150 0)"/>
     <use xlink:href="#TimesNewRomanPSMT-33" transform="translate(222.216797 0)"/>
     <use xlink:href="#TimesNewRomanPSMT-2a" transform="translate(272.216797 0)"/>
     <use xlink:href="#TimesNewRomanPSMT-20" transform="translate(322.216797 0)"/>
     <use xlink:href="#TimesNewRomanPSMT-3d" transform="translate(347.216797 0)"/>
     <use xlink:href="#TimesNewRomanPSMT-20" transform="translate(403.613281 0)"/>
     <use xlink:href="#TimesNewRomanPSMT-31" transform="translate(428.613281 0)"/>
     <use xlink:href="#TimesNewRomanPSMT-30" transform="translate(478.613281 0)"/>
     <use xlink:href="#TimesNewRomanPSMT-30" transform="translate(528.613281 0)"/>
     <use xlink:href="#TimesNewRomanPSMT-20" transform="translate(578.613281 0)"/>
     <use xlink:href="#TimesNewRomanPSMT-2d" transform="translate(603.613281 0)"/>
     <use xlink:href="#TimesNewRomanPSMT-20" transform="translate(636.914062 0)"/>
     <use xlink:href="#TimesNewRomanPSMT-43" transform="translate(661.914062 0)"/>
     <use xlink:href="#TimesNewRomanPSMT-61" transform="translate(728.613281 0)"/>
     <use xlink:href="#TimesNewRomanPSMT-4f" transform="translate(772.998047 0)"/>
     <use xlink:href="#TimesNewRomanPSMT-20" transform="translate(845.214844 0)"/>
     <use xlink:href="#TimesNewRomanPSMT-2d" transform="translate(870.214844 0)"/>
     <use xlink:href="#TimesNewRomanPSMT-20" transform="translate(903.515625 0)"/>
     <use xlink:href="#TimesNewRomanPSMT-4d" transform="translate(928.515625 0)"/>
     <use xlink:href="#TimesNewRomanPSMT-67" transform="translate(1017.431641 0)"/>
     <use xlink:href="#TimesNewRomanPSMT-4f" transform="translate(1067.431641 0)"/>
     <use xlink:href="#TimesNewRomanPSMT-20" transform="translate(1139.648438 0)"/>
     <use xlink:href="#TimesNewRomanPSMT-2d" transform="translate(1164.648438 0)"/>
     <use xlink:href="#TimesNewRomanPSMT-20" transform="translate(1197.949219 0)"/>
     <use xlink:href="#TimesNewRomanPSMT-43" transform="translate(1222.949219 0)"/>
     <use xlink:href="#TimesNewRomanPSMT-61" transform="translate(1289.648438 0)"/>
     <use xlink:href="#TimesNewRomanPSMT-46" transform="translate(1334.033203 0)"/>
     <use xlink:href="#TimesNewRomanPSMT-32" transform="translate(1389.648438 0)"/>
     <use xlink:href="#TimesNewRomanPSMT-20" transform="translate(1439.648438 0)"/>
     <use xlink:href="#TimesNewRomanPSMT-2d" transform="translate(1464.648438 0)"/>
     <use xlink:href="#TimesNewRomanPSMT-20" transform="translate(1497.949219 0)"/>
     <use xlink:href="#TimesNewRomanPSMT-53" transform="translate(1522.949219 0)"/>
     <use xlink:href="#TimesNewRomanPSMT-69" transform="translate(1578.564453 0)"/>
     <use xlink:href="#TimesNewRomanPSMT-4f" transform="translate(1606.347656 0)"/>
     <use xlink:href="#TimesNewRomanPSMT-32" transform="translate(1678.564453 0)"/>
    </g>
   </g>
  </g>
 </g>
 <defs>
  <clipPath id="p0dd5be75cf">
   <path d="M 116.763827 59.723623 
L 116.763827 59.723623 
L 38.068216 196.02842 
L 38.068216 196.02842 
L 195.459439 196.02842 
L 195.459439 196.02842 
z
"/>
  </clipPath>
 </defs>
</svg>
